<svg width="44" height="44" viewBox="0 0 44 44" fill="none" xmlns="http://www.w3.org/2000/svg">
<path d="M19.4104 39.2562C18.6924 38.5382 18.3333 37.675 18.3333 36.6666H25.6667C25.6667 37.675 25.3076 38.5382 24.5896 39.2562C23.8715 39.9743 23.0083 40.3333 22 40.3333C20.9917 40.3333 20.1285 39.9743 19.4104 39.2562ZM14.6667 34.8333V31.1666H29.3333V34.8333H14.6667ZM15.125 29.3333C13.0167 28.0805 11.3438 26.4 10.1063 24.2916C8.86875 22.1833 8.25 19.8916 8.25 17.4166C8.25 13.5972 9.58681 10.3507 12.2604 7.67704C14.934 5.00343 18.1806 3.66663 22 3.66663C25.8194 3.66663 29.066 5.00343 31.7396 7.67704C34.4132 10.3507 35.75 13.5972 35.75 17.4166C35.75 19.8916 35.1313 22.1833 33.8938 24.2916C32.6562 26.4 30.9833 28.0805 28.875 29.3333H15.125ZM16.225 25.6666H27.775C29.15 24.6888 30.2118 23.4819 30.9604 22.0458C31.709 20.6097 32.0833 19.0666 32.0833 17.4166C32.0833 14.6055 31.1056 12.2222 29.15 10.2666C27.1944 8.31107 24.8111 7.33329 22 7.33329C19.1889 7.33329 16.8056 8.31107 14.85 10.2666C12.8944 12.2222 11.9167 14.6055 11.9167 17.4166C11.9167 19.0666 12.291 20.6097 13.0396 22.0458C13.7882 23.4819 14.85 24.6888 16.225 25.6666Z" fill="#DF9CFF"/>
</svg>
