<svg width="25" height="24" viewBox="0 0 25 24" fill="none" xmlns="http://www.w3.org/2000/svg">
<path d="M16.2839 3.84086C15.5097 3.83664 14.7434 4.00156 14.0359 4.32469C13.6905 4.48243 13.3629 4.67612 13.0581 4.9021C12.7385 5.13903 12.4439 5.41146 12.1799 5.71517C11.9159 5.41146 11.6213 5.13903 11.3018 4.9021C10.9969 4.67612 10.6694 4.48243 10.324 4.32469C9.61648 4.00156 8.85019 3.83664 8.07594 3.84086C7.42157 3.82841 6.77135 3.95011 6.16328 4.19885C5.55521 4.44759 5.00148 4.81837 4.53447 5.28954C4.06746 5.76071 3.69652 6.32281 3.44334 6.94298C3.19017 7.56315 3.05982 8.22896 3.05994 8.90149C3.05994 12.9999 6.93771 16.258 10.1552 18.9613L10.1555 18.9616C10.4791 19.2335 10.796 19.4998 11.1016 19.7607C11.7227 20.2911 12.6394 20.2936 13.2621 19.7652C13.5425 19.5272 13.8323 19.2845 14.1279 19.0369C17.3629 16.3277 21.2999 13.0306 21.2999 8.90149C21.3 8.22896 21.1697 7.56315 20.9165 6.94298C20.6633 6.32281 20.2924 5.76071 19.8254 5.28954C19.3584 4.81837 18.8047 4.44759 18.1966 4.19885C17.5885 3.95011 16.9383 3.82841 16.2839 3.84086Z" fill="white"/>
</svg>
