<svg width="54" height="54" viewBox="0 0 54 54" fill="none" xmlns="http://www.w3.org/2000/svg">
<path d="M46 44.9375C46 47.1466 44.2091 48.9375 42 48.9375H12C9.79086 48.9375 8 47.1466 8 44.9375V22.3125H46V44.9375ZM42 8.9375C44.2091 8.9375 46 10.7284 46 12.9375V18.3125H8V12.9375C8 10.7284 9.79086 8.9375 12 8.9375H42Z" fill="#FCFCFC"/>
<path d="M39.875 10.0625C39.875 11.1671 38.9796 12.0625 37.875 12.0625C36.7704 12.0625 35.875 11.1671 35.875 10.0625L35.875 7.0625C35.875 5.95793 36.7704 5.0625 37.875 5.0625C38.9796 5.0625 39.875 5.95793 39.875 7.0625L39.875 10.0625Z" fill="#FCFCFC"/>
<path d="M18 10.0625C18 11.1671 17.1046 12.0625 16 12.0625C14.8954 12.0625 14 11.1671 14 10.0625L14 7.0625C14 5.95793 14.8954 5.0625 16 5.0625C17.1046 5.0625 18 5.95793 18 7.0625L18 10.0625Z" fill="#FCFCFC"/>
</svg>
