<svg width="54" height="54" viewBox="0 0 54 54" fill="none" xmlns="http://www.w3.org/2000/svg">
<path d="M17.0615 9.00195H17.1113C18.682 8.99328 20.2392 9.33317 21.6807 10.002C22.3847 10.3286 23.0547 10.7312 23.6787 11.2012C24.3327 11.6939 24.9375 12.2618 25.4805 12.8965L27 14.6729L28.5195 12.8965C29.0625 12.2619 29.6673 11.6939 30.3213 11.2012C30.9453 10.7312 31.6153 10.3286 32.3193 10.002C33.7608 9.33317 35.318 8.99328 36.8887 9.00195H36.9385C38.2388 8.97681 39.533 9.22237 40.7461 9.72656C41.9595 10.2309 43.0708 10.9847 44.0117 11.9492C44.9528 12.9139 45.705 14.0695 46.2197 15.3506C46.7346 16.6319 47.0002 18.0109 47 19.4053C47 23.8147 44.9331 27.9274 41.7246 31.8691C38.5108 35.8174 34.3324 39.3804 30.4033 42.7236C29.6911 43.3296 28.9869 43.9293 28.3047 44.5176C27.557 45.1623 26.4593 45.1617 25.709 44.5107C24.9645 43.8649 24.1937 43.2066 23.4141 42.541C19.5059 39.2047 15.3741 35.6694 12.2012 31.7568C9.03483 27.8522 7 23.7808 7 19.4053C6.99977 18.0109 7.26544 16.6319 7.78027 15.3506C8.29505 14.0695 9.04724 12.9139 9.98828 11.9492C10.9292 10.9847 12.0405 10.2309 13.2539 9.72656C14.467 9.22238 15.7612 8.97681 17.0615 9.00195Z" stroke="#ECEBED" stroke-width="4"/>
</svg>
