<svg width="54" height="54" viewBox="0 0 54 54" fill="none" xmlns="http://www.w3.org/2000/svg">
<path d="M41.262 37.9327H21.3215L28.2239 30.836L30.1995 34.7706L35.5745 29.8331L41.262 37.9327ZM24.7786 23.9756L14.2932 34.7559L22.9495 20.3331L24.7786 23.9756Z" fill="white"/>
<path d="M46.8528 11.6837C46.9477 12.1074 47.0002 12.5477 47.0002 13.0001V41.0001C47.0002 44.2102 44.479 46.8315 41.3088 46.9922L41.0002 47.0001H13.0002L12.6917 46.9922C12.6348 46.9894 12.5781 46.983 12.5217 46.9786L16.3928 43.0001H41.0002C42.1047 42.9999 43.0002 42.1045 43.0002 41.0001V15.6446L46.8528 11.6837ZM41.0002 7.00006C41.1308 7.00007 41.2604 7.00551 41.3889 7.01373L37.512 11.0001H13.0002C11.8957 11.0001 11.0002 11.8955 11.0002 13.0001V38.2569L7.12817 42.2364C7.06499 41.9348 7.02409 41.625 7.00806 41.3087L7.00024 41.0001V13.0001C7.00024 9.68635 9.68654 7.00006 13.0002 7.00006H41.0002Z" fill="white"/>
<line x1="6.62457" y1="47.85" x2="47.3746" y2="5.95415" stroke="white" stroke-width="3"/>
</svg>
