<svg width="32" height="32" viewBox="0 0 32 32" fill="none" xmlns="http://www.w3.org/2000/svg">
<rect x="0.75" y="0.75" width="30.5" height="30.5" rx="7.25" stroke="#FCFCFC" stroke-opacity="0.3" stroke-width="1.5"/>
<path d="M23.5694 14.9092L18.2518 9.45532C17.3039 8.4831 15.7086 9.17077 15.7086 10.5461V12.3483C15.6624 12.3483 15.6392 12.3483 15.593 12.3483H10.549C9.69359 12.3483 9 13.0359 9 13.9133V18.063C9 18.9404 9.69359 19.6517 10.549 19.6517H15.5699C15.6161 19.6517 15.6392 19.6517 15.6855 19.6517V21.4539C15.6855 22.8292 17.3039 23.5169 18.2287 22.5447L23.5462 17.0908C24.1473 16.4743 24.1473 15.502 23.5694 14.9092Z" fill="#FCFCFC"/>
</svg>
