<svg width="54" height="54" viewBox="0 0 54 54" fill="none" xmlns="http://www.w3.org/2000/svg">
<path d="M9.5004 24.4062C9.5004 28.0135 9.5004 40.2427 9.5004 44.5134C9.5004 45.3382 10.169 46 10.9937 46H32.675C33.6538 46.001 34.6106 45.7272 35.4234 45.2137C36.2361 44.7002 36.8678 43.9702 37.2379 43.1171C39.7068 37.4243 43.5868 28.0217 44.3624 23.1422C44.4927 22.3228 43.8258 21.6533 42.9962 21.6598C39.5654 21.6868 31.063 21.7493 25.9508 21.7493C25.9057 21.7502 25.8611 21.7415 25.8201 21.7239C25.7791 21.7063 25.7429 21.6803 25.7141 21.6477C25.6852 21.6151 25.6646 21.5769 25.6536 21.5357C25.6426 21.4946 25.6416 21.4517 25.6506 21.4102C25.6506 21.4102 27.992 13.1005 27.992 12.1395C27.992 11.1785 25.7106 7.44767 24.69 8.06948L11.0013 21.0145C10.5188 21.4536 10.1368 21.9811 9.8787 22.5643C9.62059 23.1476 9.49185 23.7744 9.5004 24.4062Z" fill="#FCFCFC" stroke="#FCFCFC" stroke-width="4"/>
</svg>
