<svg width="54" height="54" viewBox="0 0 54 54" fill="none" xmlns="http://www.w3.org/2000/svg">
<path d="M10.5004 23.4062C10.5004 27.0135 10.5004 39.2427 10.5004 43.5134C10.5004 44.3382 11.169 45 11.9937 45H33.675C34.6538 45.001 35.6106 44.7272 36.4234 44.2137C37.2361 43.7002 37.8678 42.9702 38.2379 42.1171C40.7068 36.4243 44.5868 27.0217 45.3624 22.1422C45.4927 21.3228 44.8258 20.6533 43.9962 20.6598C40.5654 20.6868 32.063 20.7493 26.9508 20.7493C26.9057 20.7502 26.8611 20.7415 26.8201 20.7239C26.7791 20.7063 26.7429 20.6803 26.7141 20.6477C26.6852 20.6151 26.6646 20.5769 26.6536 20.5357C26.6426 20.4946 26.6415 20.4517 26.6506 20.4102C26.6506 20.4102 28.992 12.1005 28.992 11.1395C28.992 10.1785 26.7106 6.44767 25.69 7.06948L12.0013 20.0145C11.5188 20.4536 11.1368 20.9811 10.8787 21.5643C10.6206 22.1476 10.4919 22.7744 10.5004 23.4062Z" stroke="#FCFCFC" stroke-width="4"/>
</svg>
