<svg width="54" height="54" viewBox="0 0 54 54" fill="none" xmlns="http://www.w3.org/2000/svg">
<path d="M27 27C28.2065 27 29.2394 26.5704 30.0986 25.7112C30.9578 24.852 31.3875 23.8191 31.3875 22.6125C31.3875 21.4059 30.9578 20.373 30.0986 19.5138C29.2394 18.6546 28.2065 18.225 27 18.225C25.7934 18.225 24.7605 18.6546 23.9013 19.5138C23.0421 20.373 22.6125 21.4059 22.6125 22.6125C22.6125 23.8191 23.0421 24.852 23.9013 25.7112C24.7605 26.5704 25.7934 27 27 27ZM27 43.1241C31.4606 39.0291 34.7695 35.3088 36.9267 31.9634C39.0839 28.6179 40.1625 25.6472 40.1625 23.0512C40.1625 19.0659 38.8919 15.8027 36.3508 13.2616C33.8097 10.7205 30.6928 9.45 27 9.45C23.3071 9.45 20.1902 10.7205 17.6491 13.2616C15.108 15.8027 13.8375 19.0659 13.8375 23.0512C13.8375 25.6472 14.916 28.6179 17.0732 31.9634C19.2304 35.3088 22.5393 39.0291 27 43.1241ZM27 48.9375C21.1134 43.9284 16.7167 39.2759 13.81 34.9798C10.9033 30.6837 9.44995 26.7075 9.44995 23.0512C9.44995 17.5669 11.2141 13.1977 14.7424 9.94359C18.2707 6.68953 22.3565 5.0625 27 5.0625C31.6434 5.0625 35.7292 6.68953 39.2575 9.94359C42.7858 13.1977 44.55 17.5669 44.55 23.0512C44.55 26.7075 43.0966 30.6837 40.1899 34.9798C37.2832 39.2759 32.8865 43.9284 27 48.9375Z" fill="#FCFCFC"/>
</svg>
