<svg width="54" height="54" viewBox="0 0 54 54" fill="none" xmlns="http://www.w3.org/2000/svg">
<path d="M11.8031 21.5228C11.8672 17.65 13.4964 13.9568 16.3394 11.24C19.1823 8.52311 23.0111 7.00029 26.9999 7C30.9887 6.99971 34.8177 8.52196 37.6611 11.2384C40.5045 13.9548 42.1343 17.6478 42.1989 21.5206L42.1995 27.5712L45.8366 35.52C45.9649 35.8008 46.0191 36.1083 45.994 36.4145C45.969 36.7208 45.8657 37.0161 45.6933 37.2737C45.521 37.5313 45.2851 37.7431 45.0071 37.8897C44.7291 38.0364 44.4179 38.1134 44.1015 38.1136L32.9997 38.1146L33.0058 38.1265L20.9915 38.1272L20.9991 38.1144L9.89924 38.1122C9.58291 38.112 9.27162 38.0352 8.99361 37.8887C8.7156 37.7422 8.47966 37.5305 8.3072 37.273C8.13475 37.0155 8.03123 36.7203 8.00603 36.4141C7.98084 36.1079 8.03478 35.8005 8.16295 35.5196L11.8018 27.5766L11.8012 21.526L11.8031 21.5228Z" fill="white"/>
<path d="M32.902 42.3958C32.1245 44.2616 29.9387 45.8021 26.9996 45.8021C24.0608 45.8019 21.8757 44.2615 21.0983 42.3958H32.902Z" fill="white" stroke="white" stroke-width="3"/>
</svg>
