<svg width="54" height="54" viewBox="0 0 54 54" fill="none" xmlns="http://www.w3.org/2000/svg">
<path d="M27 7C15.972 7 7 15.972 7 27C7 38.028 15.972 47 27 47C38.028 47 47 38.028 47 27C47 15.972 38.028 7 27 7ZM11 27C11 25.202 11.312 23.476 11.862 21.862L15 25L19 29V33L23 37L25 39V42.862C17.122 41.872 11 35.144 11 27ZM39.66 36.746C38.354 35.694 36.374 35 35 35V33C35 31.9391 34.5786 30.9217 33.8284 30.1716C33.0783 29.4214 32.0609 29 31 29H23V23C24.0609 23 25.0783 22.5786 25.8284 21.8284C26.5786 21.0783 27 20.0609 27 19V17H29C30.0609 17 31.0783 16.5786 31.8284 15.8284C32.5786 15.0783 33 14.0609 33 13V12.178C38.856 14.556 43 20.3 43 27C42.9996 30.5294 41.8245 33.9583 39.66 36.746Z" fill="#FCFCFC"/>
</svg>
