<svg width="24" height="24" viewBox="0 0 24 24" fill="none" xmlns="http://www.w3.org/2000/svg">
<circle cx="12" cy="12" r="9" fill="#55A43B"/>
<mask id="path-2-outside-1_2_302" maskUnits="userSpaceOnUse" x="6.55249" y="6.5" width="10" height="11" fill="black">
<rect fill="white" x="6.55249" y="6.5" width="10" height="11"/>
<path d="M16.424 16.5H14.2325L13.5975 14.514H10.4225L9.7937 16.5H7.61475L10.8645 7.57251H13.2489L16.424 16.5ZM13.1368 12.9701L12.1781 9.96936C12.1075 9.74524 12.0577 9.47754 12.0287 9.16626H11.9789C11.9581 9.42773 11.9062 9.68713 11.8232 9.94446L10.8521 12.9701H13.1368Z"/>
</mask>
<path d="M16.424 16.5H14.2325L13.5975 14.514H10.4225L9.7937 16.5H7.61475L10.8645 7.57251H13.2489L16.424 16.5ZM13.1368 12.9701L12.1781 9.96936C12.1075 9.74524 12.0577 9.47754 12.0287 9.16626H11.9789C11.9581 9.42773 11.9062 9.68713 11.8232 9.94446L10.8521 12.9701H13.1368Z" fill="#1C212A"/>
<path d="M16.424 16.5V16.575H16.5302L16.4946 16.4749L16.424 16.5ZM14.2325 16.5L14.1611 16.5228L14.1778 16.575H14.2325V16.5ZM13.5975 14.514L13.669 14.4912L13.6523 14.439H13.5975V14.514ZM10.4225 14.514V14.439H10.3676L10.351 14.4914L10.4225 14.514ZM9.7937 16.5V16.575H9.84862L9.8652 16.5226L9.7937 16.5ZM7.61475 16.5L7.54427 16.4743L7.50763 16.575H7.61475V16.5ZM10.8645 7.57251V7.49751H10.812L10.794 7.54686L10.8645 7.57251ZM13.2489 7.57251L13.3196 7.54738L13.3018 7.49751H13.2489V7.57251ZM13.1368 12.9701V13.0451H13.2395L13.2083 12.9473L13.1368 12.9701ZM12.1781 9.96936L12.1066 9.99188L12.1067 9.99219L12.1781 9.96936ZM12.0287 9.16626L12.1034 9.15929L12.097 9.09126H12.0287V9.16626ZM11.9789 9.16626V9.09126H11.9096L11.9041 9.16033L11.9789 9.16626ZM11.8232 9.94446L11.7519 9.92143L11.7518 9.92154L11.8232 9.94446ZM10.8521 12.9701L10.7806 12.9472L10.7492 13.0451H10.8521V12.9701ZM16.424 16.425H14.2325V16.575H16.424V16.425ZM14.304 16.4772L13.669 14.4912L13.5261 14.5369L14.1611 16.5228L14.304 16.4772ZM13.5975 14.439H10.4225V14.589H13.5975V14.439ZM10.351 14.4914L9.7222 16.4774L9.8652 16.5226L10.494 14.5367L10.351 14.4914ZM9.7937 16.425H7.61475V16.575H9.7937V16.425ZM7.68522 16.5257L10.935 7.59816L10.794 7.54686L7.54427 16.4743L7.68522 16.5257ZM10.8645 7.64751H13.2489V7.49751H10.8645V7.64751ZM13.1782 7.59764L16.3533 16.5251L16.4946 16.4749L13.3196 7.54738L13.1782 7.59764ZM13.2083 12.9473L12.2495 9.94653L12.1067 9.99219L13.0654 12.9929L13.2083 12.9473ZM12.2496 9.94684C12.1811 9.72912 12.1321 9.46691 12.1034 9.15929L11.954 9.17323C11.9834 9.48817 12.034 9.76136 12.1066 9.99188L12.2496 9.94684ZM12.0287 9.09126H11.9789V9.24126H12.0287V9.09126ZM11.9041 9.16033C11.8838 9.41581 11.8331 9.66948 11.7519 9.92143L11.8946 9.96748C11.9794 9.70478 12.0324 9.43965 12.0536 9.17219L11.9041 9.16033ZM11.7518 9.92154L10.7806 12.9472L10.9235 12.993L11.8947 9.96738L11.7518 9.92154ZM10.8521 13.0451H13.1368V12.8951H10.8521V13.0451Z" fill="#1C212A" mask="url(#path-2-outside-1_2_302)"/>
</svg>
