<svg width="32" height="32" viewBox="0 0 32 32" fill="none" xmlns="http://www.w3.org/2000/svg">
<circle cx="16" cy="16" r="12" fill="#FCFCFC"/>
<mask id="path-2-outside-1_2_3" maskUnits="userSpaceOnUse" x="9.06995" y="9" width="13" height="14" fill="black">
<rect fill="white" x="9.06995" y="9" width="13" height="14"/>
<path d="M21.8986 22H18.9767L18.13 19.3521H13.8966L13.0582 22H10.153L14.486 10.0967H17.6652L21.8986 22ZM17.5157 17.2935L16.2374 13.2925C16.1434 12.9937 16.0769 12.6367 16.0382 12.2217H15.9718C15.9441 12.5703 15.875 12.9162 15.7643 13.2593L14.4694 17.2935H17.5157Z"/>
</mask>
<path d="M21.8986 22H18.9767L18.13 19.3521H13.8966L13.0582 22H10.153L14.486 10.0967H17.6652L21.8986 22ZM17.5157 17.2935L16.2374 13.2925C16.1434 12.9937 16.0769 12.6367 16.0382 12.2217H15.9718C15.9441 12.5703 15.875 12.9162 15.7643 13.2593L14.4694 17.2935H17.5157Z" fill="black"/>
<path d="M21.8986 22V22.1H22.0403L21.9928 21.9665L21.8986 22ZM18.9767 22L18.8814 22.0305L18.9037 22.1H18.9767V22ZM18.13 19.3521L18.2253 19.3216L18.203 19.2521H18.13V19.3521ZM13.8966 19.3521V19.2521H13.8234L13.8013 19.3219L13.8966 19.3521ZM13.0582 22V22.1H13.1315L13.1536 22.0302L13.0582 22ZM10.153 22L10.059 21.9658L10.0101 22.1H10.153V22ZM14.486 10.0967V9.99668H14.4159L14.392 10.0625L14.486 10.0967ZM17.6652 10.0967L17.7594 10.0632L17.7357 9.99668H17.6652V10.0967ZM17.5157 17.2935V17.3935H17.6527L17.611 17.263L17.5157 17.2935ZM16.2374 13.2925L16.142 13.3225L16.1422 13.3229L16.2374 13.2925ZM16.0382 12.2217L16.1378 12.2124L16.1293 12.1217H16.0382V12.2217ZM15.9718 12.2217V12.1217H15.8794L15.8721 12.2138L15.9718 12.2217ZM15.7643 13.2593L15.6691 13.2286L15.6691 13.2287L15.7643 13.2593ZM14.4694 17.2935L14.3741 17.2629L14.3322 17.3935H14.4694V17.2935ZM21.8986 21.9H18.9767V22.1H21.8986V21.9ZM19.0719 21.9695L18.2253 19.3216L18.0348 19.3825L18.8814 22.0305L19.0719 21.9695ZM18.13 19.2521H13.8966V19.4521H18.13V19.2521ZM13.8013 19.3219L12.9629 21.9698L13.1536 22.0302L13.9919 19.3822L13.8013 19.3219ZM13.0582 21.9H10.153V22.1H13.0582V21.9ZM10.2469 22.0342L14.5799 10.1309L14.392 10.0625L10.059 21.9658L10.2469 22.0342ZM14.486 10.1967H17.6652V9.99668H14.486V10.1967ZM17.5709 10.1302L21.8043 22.0335L21.9928 21.9665L17.7594 10.0632L17.5709 10.1302ZM17.611 17.263L16.3327 13.262L16.1422 13.3229L17.4205 17.3239L17.611 17.263ZM16.3328 13.2625C16.2414 12.9722 16.1761 12.6225 16.1378 12.2124L15.9386 12.231C15.9778 12.6509 16.0453 13.0151 16.142 13.3225L16.3328 13.2625ZM16.0382 12.1217H15.9718V12.3217H16.0382V12.1217ZM15.8721 12.2138C15.8451 12.5544 15.7775 12.8926 15.6691 13.2286L15.8595 13.29C15.9724 12.9397 16.0432 12.5862 16.0715 12.2296L15.8721 12.2138ZM15.6691 13.2287L14.3741 17.2629L14.5646 17.324L15.8595 13.2898L15.6691 13.2287ZM14.4694 17.3935H17.5157V17.1935H14.4694V17.3935Z" fill="black" mask="url(#path-2-outside-1_2_3)"/>
</svg>
