<svg width="32" height="32" viewBox="0 0 32 32" fill="none" xmlns="http://www.w3.org/2000/svg">
<circle cx="16" cy="16" r="12" fill="#FCFCFC"/>
<mask id="path-2-outside-1_2_15" maskUnits="userSpaceOnUse" x="11.5" y="9.25" width="10" height="14" fill="black">
<rect fill="white" x="11.5" y="9.25" width="10" height="14"/>
<path d="M11.8613 22.25V10.3467H16.1943C17.5225 10.3467 18.5435 10.5902 19.2573 11.0771C19.9712 11.5641 20.3281 12.2503 20.3281 13.1357C20.3281 13.7777 20.1095 14.3394 19.6724 14.8208C19.2407 15.3022 18.6873 15.637 18.0122 15.8252V15.8584C18.8589 15.9635 19.534 16.2762 20.0376 16.7964C20.5467 17.3166 20.8013 17.9502 20.8013 18.6973C20.8013 19.7874 20.4111 20.6535 19.6309 21.2954C18.8506 21.9318 17.7853 22.25 16.4351 22.25H11.8613ZM14.5425 12.3223V15.1445H15.7212C16.2746 15.1445 16.709 15.0117 17.0244 14.7461C17.3454 14.4749 17.5059 14.1042 17.5059 13.6338C17.5059 12.7594 16.8529 12.3223 15.5469 12.3223H14.5425ZM14.5425 17.1367V20.2744H15.9951C16.6149 20.2744 17.0991 20.1305 17.4478 19.8428C17.8019 19.555 17.979 19.1621 17.979 18.6641C17.979 18.1882 17.8047 17.8146 17.4561 17.5435C17.113 17.2723 16.6315 17.1367 16.0117 17.1367H14.5425Z"/>
</mask>
<path d="M11.8613 22.25V10.3467H16.1943C17.5225 10.3467 18.5435 10.5902 19.2573 11.0771C19.9712 11.5641 20.3281 12.2503 20.3281 13.1357C20.3281 13.7777 20.1095 14.3394 19.6724 14.8208C19.2407 15.3022 18.6873 15.637 18.0122 15.8252V15.8584C18.8589 15.9635 19.534 16.2762 20.0376 16.7964C20.5467 17.3166 20.8013 17.9502 20.8013 18.6973C20.8013 19.7874 20.4111 20.6535 19.6309 21.2954C18.8506 21.9318 17.7853 22.25 16.4351 22.25H11.8613ZM14.5425 12.3223V15.1445H15.7212C16.2746 15.1445 16.709 15.0117 17.0244 14.7461C17.3454 14.4749 17.5059 14.1042 17.5059 13.6338C17.5059 12.7594 16.8529 12.3223 15.5469 12.3223H14.5425ZM14.5425 17.1367V20.2744H15.9951C16.6149 20.2744 17.0991 20.1305 17.4478 19.8428C17.8019 19.555 17.979 19.1621 17.979 18.6641C17.979 18.1882 17.8047 17.8146 17.4561 17.5435C17.113 17.2723 16.6315 17.1367 16.0117 17.1367H14.5425Z" fill="black"/>
<path d="M11.8613 22.25H11.7613V22.35H11.8613V22.25ZM11.8613 10.3467V10.2467H11.7613V10.3467H11.8613ZM19.6724 14.8208L19.5983 14.7536L19.5979 14.754L19.6724 14.8208ZM18.0122 15.8252L17.9854 15.7289L17.9122 15.7493V15.8252H18.0122ZM18.0122 15.8584H17.9122V15.9467L17.9999 15.9576L18.0122 15.8584ZM20.0376 16.7964L19.9657 16.8659L19.9661 16.8663L20.0376 16.7964ZM19.6309 21.2954L19.6941 21.3729L19.6944 21.3726L19.6309 21.2954ZM14.5425 12.3223V12.2223H14.4425V12.3223H14.5425ZM14.5425 15.1445H14.4425V15.2445H14.5425V15.1445ZM17.0244 14.7461L17.0888 14.8226L17.0889 14.8225L17.0244 14.7461ZM14.5425 17.1367V17.0367H14.4425V17.1367H14.5425ZM14.5425 20.2744H14.4425V20.3744H14.5425V20.2744ZM17.4478 19.8428L17.3847 19.7652L17.3841 19.7657L17.4478 19.8428ZM17.4561 17.5435L17.394 17.6219L17.3947 17.6224L17.4561 17.5435ZM11.9613 22.25V10.3467H11.7613V22.25H11.9613ZM11.8613 10.4467H16.1943V10.2467H11.8613V10.4467ZM16.1943 10.4467C17.5124 10.4467 18.5104 10.6887 19.201 11.1598L19.3137 10.9945C18.5765 10.4916 17.5325 10.2467 16.1943 10.2467V10.4467ZM19.201 11.1598C19.8867 11.6276 20.2281 12.2824 20.2281 13.1357H20.4281C20.4281 12.2182 20.0556 11.5007 19.3137 10.9945L19.201 11.1598ZM20.2281 13.1357C20.2281 13.7525 20.019 14.2903 19.5983 14.7536L19.7464 14.888C20.2 14.3884 20.4281 13.8029 20.4281 13.1357H20.2281ZM19.5979 14.754C19.1801 15.2201 18.6437 15.5454 17.9854 15.7289L18.0391 15.9215C18.7309 15.7287 19.3014 15.3844 19.7468 14.8876L19.5979 14.754ZM17.9122 15.8252V15.8584H18.1122V15.8252H17.9122ZM17.9999 15.9576C18.8281 16.0605 19.4808 16.365 19.9657 16.8659L20.1094 16.7268C19.5873 16.1874 18.8896 15.8666 18.0245 15.7592L17.9999 15.9576ZM19.9661 16.8663C20.4564 17.3673 20.7013 17.9756 20.7013 18.6973H20.9013C20.9013 17.9248 20.637 17.2659 20.1091 16.7264L19.9661 16.8663ZM20.7013 18.6973C20.7013 19.7602 20.3225 20.5969 19.5673 21.2182L19.6944 21.3726C20.4998 20.7101 20.9013 19.8146 20.9013 18.6973H20.7013ZM19.5677 21.2179C18.8105 21.8355 17.7702 22.15 16.4351 22.15V22.35C17.8005 22.35 18.8907 22.0282 19.6941 21.3729L19.5677 21.2179ZM16.4351 22.15H11.8613V22.35H16.4351V22.15ZM14.4425 12.3223V15.1445H14.6425V12.3223H14.4425ZM14.5425 15.2445H15.7212V15.0445H14.5425V15.2445ZM15.7212 15.2445C16.29 15.2445 16.75 15.1079 17.0888 14.8226L16.96 14.6696C16.668 14.9155 16.2591 15.0445 15.7212 15.0445V15.2445ZM17.0889 14.8225C17.4353 14.5299 17.6059 14.1297 17.6059 13.6338H17.4059C17.4059 14.0787 17.2555 14.42 16.9599 14.6697L17.0889 14.8225ZM17.6059 13.6338C17.6059 13.1677 17.4294 12.8065 17.0717 12.567C16.7211 12.3323 16.2079 12.2223 15.5469 12.2223V12.4223C16.1919 12.4223 16.6581 12.5308 16.9605 12.7332C17.2558 12.9309 17.4059 13.2256 17.4059 13.6338H17.6059ZM15.5469 12.2223H14.5425V12.4223H15.5469V12.2223ZM14.4425 17.1367V20.2744H14.6425V17.1367H14.4425ZM14.5425 20.3744H15.9951V20.1744H14.5425V20.3744ZM15.9951 20.3744C16.6296 20.3744 17.1392 20.2271 17.5114 19.9199L17.3841 19.7657C17.059 20.034 16.6003 20.1744 15.9951 20.1744V20.3744ZM17.5108 19.9204C17.8907 19.6117 18.079 19.1891 18.079 18.6641H17.879C17.879 19.1351 17.7132 19.4983 17.3847 19.7652L17.5108 19.9204ZM18.079 18.6641C18.079 18.1601 17.8925 17.7563 17.5174 17.4645L17.3947 17.6224C17.7168 17.873 17.879 18.2163 17.879 18.6641H18.079ZM17.5181 17.465C17.1512 17.1751 16.6448 17.0367 16.0117 17.0367V17.2367C16.6182 17.2367 17.0747 17.3695 17.394 17.6219L17.5181 17.465ZM16.0117 17.0367H14.5425V17.2367H16.0117V17.0367Z" fill="black" mask="url(#path-2-outside-1_2_15)"/>
</svg>
