<svg width="24" height="24" viewBox="0 0 24 24" fill="none" xmlns="http://www.w3.org/2000/svg">
<circle cx="12" cy="12" r="9" fill="#DA1725"/>
<mask id="path-2-outside-1_2_266" maskUnits="userSpaceOnUse" x="7.875" y="6.6875" width="8" height="11" fill="black">
<rect fill="white" x="7.875" y="6.6875" width="8" height="11"/>
<path d="M8.896 16.6875V7.76001H12.1458C13.1418 7.76001 13.9076 7.94263 14.443 8.30786C14.9784 8.6731 15.2461 9.18774 15.2461 9.85181C15.2461 10.3333 15.0822 10.7545 14.7543 11.1156C14.4305 11.4767 14.0155 11.7278 13.5092 11.8689V11.8938C14.1442 11.9727 14.6505 12.2072 15.0282 12.5973C15.41 12.9874 15.601 13.4626 15.601 14.0229C15.601 14.8406 15.3083 15.4901 14.7231 15.9716C14.1379 16.4489 13.339 16.6875 12.3263 16.6875H8.896ZM10.9069 9.2417V11.3584H11.7909C12.2059 11.3584 12.5317 11.2588 12.7683 11.0596C13.009 10.8562 13.1294 10.5781 13.1294 10.2253C13.1294 9.56958 12.6396 9.2417 11.6602 9.2417H10.9069ZM10.9069 12.8525V15.2058H11.9963C12.4612 15.2058 12.8243 15.0979 13.0858 14.8821C13.3514 14.6663 13.4843 14.3716 13.4843 13.998C13.4843 13.6411 13.3535 13.361 13.092 13.1576C12.8347 12.9542 12.4736 12.8525 12.0088 12.8525H10.9069Z"/>
</mask>
<path d="M8.896 16.6875V7.76001H12.1458C13.1418 7.76001 13.9076 7.94263 14.443 8.30786C14.9784 8.6731 15.2461 9.18774 15.2461 9.85181C15.2461 10.3333 15.0822 10.7545 14.7543 11.1156C14.4305 11.4767 14.0155 11.7278 13.5092 11.8689V11.8938C14.1442 11.9727 14.6505 12.2072 15.0282 12.5973C15.41 12.9874 15.601 13.4626 15.601 14.0229C15.601 14.8406 15.3083 15.4901 14.7231 15.9716C14.1379 16.4489 13.339 16.6875 12.3263 16.6875H8.896ZM10.9069 9.2417V11.3584H11.7909C12.2059 11.3584 12.5317 11.2588 12.7683 11.0596C13.009 10.8562 13.1294 10.5781 13.1294 10.2253C13.1294 9.56958 12.6396 9.2417 11.6602 9.2417H10.9069ZM10.9069 12.8525V15.2058H11.9963C12.4612 15.2058 12.8243 15.0979 13.0858 14.8821C13.3514 14.6663 13.4843 14.3716 13.4843 13.998C13.4843 13.6411 13.3535 13.361 13.092 13.1576C12.8347 12.9542 12.4736 12.8525 12.0088 12.8525H10.9069Z" fill="#1C212A"/>
<path d="M8.896 16.6875H8.821V16.7625H8.896V16.6875ZM8.896 7.76001V7.68501H8.821V7.76001H8.896ZM14.7543 11.1156L14.6987 11.0652L14.6984 11.0655L14.7543 11.1156ZM13.5092 11.8689L13.489 11.7966L13.4342 11.8119V11.8689H13.5092ZM13.5092 11.8938H13.4342V11.9601L13.4999 11.9682L13.5092 11.8938ZM15.0282 12.5973L14.9743 12.6495L14.9746 12.6497L15.0282 12.5973ZM14.7231 15.9716L14.7705 16.0297L14.7708 16.0295L14.7231 15.9716ZM10.9069 9.2417V9.1667H10.8319V9.2417H10.9069ZM10.9069 11.3584H10.8319V11.4334H10.9069V11.3584ZM12.7683 11.0596L12.8166 11.1169L12.8167 11.1169L12.7683 11.0596ZM10.9069 12.8525V12.7775H10.8319V12.8525H10.9069ZM10.9069 15.2058H10.8319V15.2808H10.9069V15.2058ZM13.0858 14.8821L13.0385 14.8239L13.0381 14.8242L13.0858 14.8821ZM13.092 13.1576L13.0455 13.2164L13.046 13.2168L13.092 13.1576ZM8.971 16.6875V7.76001H8.821V16.6875H8.971ZM8.896 7.83501H12.1458V7.68501H8.896V7.83501ZM12.1458 7.83501C13.1343 7.83501 13.8828 8.01652 14.4007 8.36982L14.4853 8.2459C13.9324 7.86873 13.1494 7.68501 12.1458 7.68501V7.83501ZM14.4007 8.36982C14.9151 8.72067 15.1711 9.21181 15.1711 9.85181H15.3211C15.3211 9.16368 15.0417 8.62552 14.4853 8.2459L14.4007 8.36982ZM15.1711 9.85181C15.1711 10.3143 15.0143 10.7177 14.6987 11.0652L14.8098 11.166C15.15 10.7913 15.3211 10.3522 15.3211 9.85181H15.1711ZM14.6984 11.0655C14.385 11.4151 13.9828 11.659 13.489 11.7966L13.5293 11.9411C14.0482 11.7965 14.476 11.5383 14.8101 11.1657L14.6984 11.0655ZM13.4342 11.8689V11.8938H13.5842V11.8689H13.4342ZM13.4999 11.9682C14.1211 12.0454 14.6106 12.2737 14.9743 12.6495L15.0821 12.5451C14.6905 12.1406 14.1672 11.8999 13.5184 11.8194L13.4999 11.9682ZM14.9746 12.6497C15.3423 13.0255 15.526 13.4817 15.526 14.0229H15.676C15.676 13.4436 15.4778 12.9494 15.0818 12.5448L14.9746 12.6497ZM15.526 14.0229C15.526 14.8202 15.2419 15.4477 14.6755 15.9136L14.7708 16.0295C15.3748 15.5325 15.676 14.861 15.676 14.0229H15.526ZM14.6757 15.9134C14.1079 16.3766 13.3276 16.6125 12.3263 16.6125V16.7625C13.3504 16.7625 14.168 16.5211 14.7705 16.0297L14.6757 15.9134ZM12.3263 16.6125H8.896V16.7625H12.3263V16.6125ZM10.8319 9.2417V11.3584H10.9819V9.2417H10.8319ZM10.9069 11.4334H11.7909V11.2834H10.9069V11.4334ZM11.7909 11.4334C12.2175 11.4334 12.5625 11.3309 12.8166 11.1169L12.72 11.0022C12.501 11.1867 12.1943 11.2834 11.7909 11.2834V11.4334ZM12.8167 11.1169C13.0764 10.8974 13.2044 10.5972 13.2044 10.2253H13.0544C13.0544 10.559 12.9416 10.815 12.7199 11.0023L12.8167 11.1169ZM13.2044 10.2253C13.2044 9.87575 13.0721 9.6049 12.8038 9.42529C12.5409 9.24925 12.1559 9.1667 11.6602 9.1667V9.3167C12.1439 9.3167 12.4936 9.39809 12.7204 9.54993C12.9418 9.6982 13.0544 9.91917 13.0544 10.2253H13.2044ZM11.6602 9.1667H10.9069V9.3167H11.6602V9.1667ZM10.8319 12.8525V15.2058H10.9819V12.8525H10.8319ZM10.9069 15.2808H11.9963V15.1308H10.9069V15.2808ZM11.9963 15.2808C12.4722 15.2808 12.8544 15.1703 13.1336 14.9399L13.0381 14.8242C12.7943 15.0255 12.4502 15.1308 11.9963 15.1308V15.2808ZM13.1331 14.9403C13.418 14.7088 13.5593 14.3918 13.5593 13.998H13.4093C13.4093 14.3514 13.2849 14.6237 13.0385 14.8239L13.1331 14.9403ZM13.5593 13.998C13.5593 13.62 13.4194 13.3172 13.1381 13.0984L13.046 13.2168C13.2876 13.4047 13.4093 13.6622 13.4093 13.998H13.5593ZM13.1385 13.0988C12.8634 12.8813 12.4836 12.7775 12.0088 12.7775V12.9275C12.4636 12.9275 12.806 13.0271 13.0455 13.2164L13.1385 13.0988ZM12.0088 12.7775H10.9069V12.9275H12.0088V12.7775Z" fill="#1C212A" mask="url(#path-2-outside-1_2_266)"/>
</svg>
