<svg width="32" height="32" viewBox="0 0 32 32" fill="none" xmlns="http://www.w3.org/2000/svg">
<rect width="8" height="8" rx="0.5" transform="matrix(4.37114e-08 1 1 -4.37114e-08 12 4)" fill="#FCFCFC"/>
<path fill-rule="evenodd" clip-rule="evenodd" d="M11 12.8C11 12.9105 10.9105 13 10.8 13L5.2 13C5.08954 13 5 13.0895 5 13.2L5 18.8C5 18.9105 5.08954 19 5.2 19L11.5 19C12.3284 19 13 19.6716 13 20.5L13 26.8C13 26.9105 13.0895 27 13.2 27L18.8 27C18.9105 27 19 26.9105 19 26.8L19 20.5C19 19.6716 19.6716 19 20.5 19L26.8 19C26.9105 19 27 18.9105 27 18.8L27 13.2C27 13.0895 26.9105 13 26.8 13L21.2 13C21.0895 13 21 12.9105 21 12.8L21 12.2C21 12.0895 21.0895 12 21.2 12L27.5 12C27.7761 12 28 12.2239 28 12.5L28 19.5C28 19.7761 27.7761 20 27.5 20L20.5 20C20.2239 20 20 20.2239 20 20.5L20 27.5C20 27.7761 19.7761 28 19.5 28L12.5 28C12.2239 28 12 27.7761 12 27.5L12 20.5C12 20.2239 11.7761 20 11.5 20L4.5 20C4.22386 20 4 19.7761 4 19.5L4 12.5C4 12.2239 4.22386 12 4.5 12L10.8 12C10.9105 12 11 12.0895 11 12.2L11 12.8Z" fill="#FCFCFC"/>
</svg>
