<svg width="32" height="32" viewBox="0 0 32 32" fill="none" xmlns="http://www.w3.org/2000/svg">
<rect width="8" height="8" rx="0.5" transform="matrix(-1 0 0 1 28 12)" fill="#FCFCFC"/>
<path fill-rule="evenodd" clip-rule="evenodd" d="M19.2 11C19.0895 11 19 10.9105 19 10.8V5.2C19 5.08954 18.9105 5 18.8 5H13.2C13.0895 5 13 5.08954 13 5.2V11.5C13 12.3284 12.3284 13 11.5 13H5.2C5.08954 13 5 13.0895 5 13.2V18.8C5 18.9105 5.08954 19 5.2 19H11.5C12.3284 19 13 19.6716 13 20.5V26.8C13 26.9105 13.0895 27 13.2 27H18.8C18.9105 27 19 26.9105 19 26.8V21.2C19 21.0895 19.0895 21 19.2 21H19.8C19.9105 21 20 21.0895 20 21.2V27.5C20 27.7761 19.7761 28 19.5 28H12.5C12.2239 28 12 27.7761 12 27.5V20.5C12 20.2239 11.7761 20 11.5 20H4.5C4.22386 20 4 19.7761 4 19.5V12.5C4 12.2239 4.22386 12 4.5 12H11.5C11.7761 12 12 11.7761 12 11.5V4.5C12 4.22386 12.2239 4 12.5 4H19.5C19.7761 4 20 4.22386 20 4.5V10.8C20 10.9105 19.9105 11 19.8 11H19.2Z" fill="#FCFCFC"/>
</svg>
