<svg width="32" height="32" viewBox="0 0 32 32" fill="none" xmlns="http://www.w3.org/2000/svg">
<rect x="4" y="12" width="8" height="8" rx="0.5" fill="#FCFCFC"/>
<path fill-rule="evenodd" clip-rule="evenodd" d="M12.8 11C12.9105 11 13 10.9105 13 10.8V5.2C13 5.08954 13.0895 5 13.2 5H18.8C18.9105 5 19 5.08954 19 5.2V11.5C19 12.3284 19.6716 13 20.5 13H26.8C26.9105 13 27 13.0895 27 13.2V18.8C27 18.9105 26.9105 19 26.8 19H20.5C19.6716 19 19 19.6716 19 20.5V26.8C19 26.9105 18.9105 27 18.8 27H13.2C13.0895 27 13 26.9105 13 26.8V21.2C13 21.0895 12.9105 21 12.8 21H12.2C12.0895 21 12 21.0895 12 21.2V27.5C12 27.7761 12.2239 28 12.5 28H19.5C19.7761 28 20 27.7761 20 27.5V20.5C20 20.2239 20.2239 20 20.5 20H27.5C27.7761 20 28 19.7761 28 19.5V12.5C28 12.2239 27.7761 12 27.5 12H20.5C20.2239 12 20 11.7761 20 11.5V4.5C20 4.22386 19.7761 4 19.5 4H12.5C12.2239 4 12 4.22386 12 4.5V10.8C12 10.9105 12.0895 11 12.2 11H12.8Z" fill="#FCFCFC"/>
</svg>
