<svg width="32" height="32" viewBox="0 0 32 32" fill="none" xmlns="http://www.w3.org/2000/svg">
<rect x="12" y="28" width="8" height="8" rx="0.5" transform="rotate(-90 12 28)" fill="#FCFCFC"/>
<path fill-rule="evenodd" clip-rule="evenodd" d="M11 19.2C11 19.0895 10.9105 19 10.8 19L5.2 19C5.08954 19 5 18.9105 5 18.8L5 13.2C5 13.0895 5.08954 13 5.2 13L11.5 13C12.3284 13 13 12.3284 13 11.5L13 5.2C13 5.08954 13.0895 5 13.2 5L18.8 5C18.9105 5 19 5.08954 19 5.2L19 11.5C19 12.3284 19.6716 13 20.5 13L26.8 13C26.9105 13 27 13.0895 27 13.2L27 18.8C27 18.9105 26.9105 19 26.8 19L21.2 19C21.0895 19 21 19.0895 21 19.2L21 19.8C21 19.9105 21.0895 20 21.2 20L27.5 20C27.7761 20 28 19.7761 28 19.5L28 12.5C28 12.2239 27.7761 12 27.5 12L20.5 12C20.2239 12 20 11.7761 20 11.5L20 4.5C20 4.22386 19.7761 4 19.5 4L12.5 4C12.2239 4 12 4.22386 12 4.5L12 11.5C12 11.7761 11.7761 12 11.5 12L4.5 12C4.22386 12 4 12.2239 4 12.5L4 19.5C4 19.7761 4.22386 20 4.5 20L10.8 20C10.9105 20 11 19.9105 11 19.8L11 19.2Z" fill="#FCFCFC"/>
</svg>
