<svg width="30" height="17" viewBox="0 0 30 17" fill="none" xmlns="http://www.w3.org/2000/svg">
<path d="M0.420124 6.91851L0.0839085 14.5864C0.0381739 15.6294 0.871444 16.5 1.91548 16.5H25.0454C25.9009 16.5 26.6427 15.9083 26.8329 15.0742L28.984 5.63982C29.1456 4.93091 28.8731 4.19347 28.2892 3.76012L23.7495 0.390645C23.4619 0.177171 23.1159 0.0513542 22.758 0.0360807C12.4688 -0.403072 4.4908 3.26705 1.13454 5.58045C0.694208 5.88396 0.443551 6.38423 0.420124 6.91851Z" fill="#D6E1F6"/>
<mask id="path-2-outside-1_2_404" maskUnits="userSpaceOnUse" x="9.53534" y="3.5" width="15" height="11" fill="black">
<rect fill="white" x="9.53534" y="3.5" width="15" height="11"/>
<path d="M15.873 13.5H10.5563V4.57251H12.5672V11.8689H15.873V13.5ZM17.0807 13.5V4.57251H20.3305C21.3266 4.57251 22.0923 4.75513 22.6277 5.12036C23.1631 5.4856 23.4308 6.00024 23.4308 6.66431C23.4308 7.14575 23.2669 7.56702 22.939 7.9281C22.6153 8.28918 22.2003 8.54028 21.6939 8.6814V8.7063C22.3289 8.78516 22.8353 9.01965 23.213 9.40979C23.5948 9.79993 23.7857 10.2751 23.7857 10.8354C23.7857 11.6531 23.4931 12.3026 22.9079 12.7841C22.3227 13.2614 21.5237 13.5 20.511 13.5H17.0807ZM19.0916 6.0542V8.1709H19.9756C20.3907 8.1709 20.7165 8.07129 20.9531 7.87207C21.1938 7.6687 21.3141 7.39062 21.3141 7.03784C21.3141 6.38208 20.8244 6.0542 19.8449 6.0542H19.0916ZM19.0916 9.66504V12.0183H20.1811C20.6459 12.0183 21.0091 11.9104 21.2706 11.6946C21.5362 11.4788 21.669 11.1841 21.669 10.8105C21.669 10.4536 21.5383 10.1735 21.2768 9.97009C21.0195 9.76672 20.6584 9.66504 20.1935 9.66504H19.0916Z"/>
</mask>
<path d="M15.873 13.5H10.5563V4.57251H12.5672V11.8689H15.873V13.5ZM17.0807 13.5V4.57251H20.3305C21.3266 4.57251 22.0923 4.75513 22.6277 5.12036C23.1631 5.4856 23.4308 6.00024 23.4308 6.66431C23.4308 7.14575 23.2669 7.56702 22.939 7.9281C22.6153 8.28918 22.2003 8.54028 21.6939 8.6814V8.7063C22.3289 8.78516 22.8353 9.01965 23.213 9.40979C23.5948 9.79993 23.7857 10.2751 23.7857 10.8354C23.7857 11.6531 23.4931 12.3026 22.9079 12.7841C22.3227 13.2614 21.5237 13.5 20.511 13.5H17.0807ZM19.0916 6.0542V8.1709H19.9756C20.3907 8.1709 20.7165 8.07129 20.9531 7.87207C21.1938 7.6687 21.3141 7.39062 21.3141 7.03784C21.3141 6.38208 20.8244 6.0542 19.8449 6.0542H19.0916ZM19.0916 9.66504V12.0183H20.1811C20.6459 12.0183 21.0091 11.9104 21.2706 11.6946C21.5362 11.4788 21.669 11.1841 21.669 10.8105C21.669 10.4536 21.5383 10.1735 21.2768 9.97009C21.0195 9.76672 20.6584 9.66504 20.1935 9.66504H19.0916Z" fill="#1C212A"/>
<path d="M15.873 13.5V13.575H15.948V13.5H15.873ZM10.5563 13.5H10.4813V13.575H10.5563V13.5ZM10.5563 4.57251V4.49751H10.4813V4.57251H10.5563ZM12.5672 4.57251H12.6422V4.49751H12.5672V4.57251ZM12.5672 11.8689H12.4922V11.9439H12.5672V11.8689ZM15.873 11.8689H15.948V11.7939H15.873V11.8689ZM15.873 13.425H10.5563V13.575H15.873V13.425ZM10.6313 13.5V4.57251H10.4813V13.5H10.6313ZM10.5563 4.64751H12.5672V4.49751H10.5563V4.64751ZM12.4922 4.57251V11.8689H12.6422V4.57251H12.4922ZM12.5672 11.9439H15.873V11.7939H12.5672V11.9439ZM15.798 11.8689V13.5H15.948V11.8689H15.798ZM17.0807 13.5H17.0057V13.575H17.0807V13.5ZM17.0807 4.57251V4.49751H17.0057V4.57251H17.0807ZM22.939 7.9281L22.8835 7.87768L22.8832 7.87803L22.939 7.9281ZM21.6939 8.6814L21.6738 8.60915L21.6189 8.62444V8.6814H21.6939ZM21.6939 8.7063H21.6189V8.77256L21.6847 8.78073L21.6939 8.7063ZM23.213 9.40979L23.1591 9.46196L23.1594 9.46225L23.213 9.40979ZM22.9079 12.7841L22.9553 12.8422L22.9555 12.842L22.9079 12.7841ZM19.0916 6.0542V5.9792H19.0166V6.0542H19.0916ZM19.0916 8.1709H19.0166V8.2459H19.0916V8.1709ZM20.9531 7.87207L21.0014 7.92944L21.0015 7.92936L20.9531 7.87207ZM19.0916 9.66504V9.59004H19.0166V9.66504H19.0916ZM19.0916 12.0183H19.0166V12.0933H19.0916V12.0183ZM21.2706 11.6946L21.2233 11.6364L21.2228 11.6367L21.2706 11.6946ZM21.2768 9.97009L21.2303 10.0289L21.2307 10.0293L21.2768 9.97009ZM17.1557 13.5V4.57251H17.0057V13.5H17.1557ZM17.0807 4.64751H20.3305V4.49751H17.0807V4.64751ZM20.3305 4.64751C21.3191 4.64751 22.0676 4.82902 22.5855 5.18232L22.67 5.0584C22.1171 4.68123 21.3341 4.49751 20.3305 4.49751V4.64751ZM22.5855 5.18232C23.0998 5.53317 23.3558 6.02431 23.3558 6.66431H23.5058C23.5058 5.97618 23.2265 5.43802 22.67 5.0584L22.5855 5.18232ZM23.3558 6.66431C23.3558 7.12684 23.199 7.5302 22.8835 7.87768L22.9946 7.97852C23.3348 7.60383 23.5058 7.16466 23.5058 6.66431H23.3558ZM22.8832 7.87803C22.5698 8.22758 22.1676 8.47154 21.6738 8.60915L21.714 8.75364C22.233 8.60903 22.6608 8.35079 22.9949 7.97817L22.8832 7.87803ZM21.6189 8.6814V8.7063H21.7689V8.6814H21.6189ZM21.6847 8.78073C22.3059 8.85787 22.7953 9.08623 23.1591 9.46196L23.2668 9.35762C22.8752 8.95308 22.352 8.71244 21.7032 8.63187L21.6847 8.78073ZM23.1594 9.46225C23.5271 9.83796 23.7107 10.2942 23.7107 10.8354H23.8607C23.8607 10.2561 23.6625 9.76189 23.2666 9.35733L23.1594 9.46225ZM23.7107 10.8354C23.7107 11.6327 23.4266 12.2602 22.8602 12.7261L22.9555 12.842C23.5596 12.345 23.8607 11.6735 23.8607 10.8354H23.7107ZM22.8605 12.7259C22.2926 13.1891 21.5124 13.425 20.511 13.425V13.575C21.5351 13.575 22.3528 13.3336 22.9553 12.8422L22.8605 12.7259ZM20.511 13.425H17.0807V13.575H20.511V13.425ZM19.0166 6.0542V8.1709H19.1666V6.0542H19.0166ZM19.0916 8.2459H19.9756V8.0959H19.0916V8.2459ZM19.9756 8.2459C20.4023 8.2459 20.7473 8.14343 21.0014 7.92944L20.9048 7.8147C20.6857 7.99915 20.3791 8.0959 19.9756 8.0959V8.2459ZM21.0015 7.92936C21.2612 7.70993 21.3891 7.40974 21.3891 7.03784H21.2391C21.2391 7.37151 21.1264 7.62747 20.9047 7.81478L21.0015 7.92936ZM21.3891 7.03784C21.3891 6.68825 21.2568 6.4174 20.9886 6.23779C20.7256 6.06175 20.3407 5.9792 19.8449 5.9792V6.1292C20.3287 6.1292 20.6783 6.21059 20.9051 6.36243C21.1266 6.5107 21.2391 6.73167 21.2391 7.03784H21.3891ZM19.8449 5.9792H19.0916V6.1292H19.8449V5.9792ZM19.0166 9.66504V12.0183H19.1666V9.66504H19.0166ZM19.0916 12.0933H20.1811V11.9433H19.0916V12.0933ZM20.1811 12.0933C20.6569 12.0933 21.0392 11.9828 21.3183 11.7524L21.2228 11.6367C20.979 11.838 20.6349 11.9433 20.1811 11.9433V12.0933ZM21.3179 11.7528C21.6028 11.5213 21.744 11.2043 21.744 10.8105H21.594C21.594 11.1639 21.4696 11.4362 21.2233 11.6364L21.3179 11.7528ZM21.744 10.8105C21.744 10.4325 21.6042 10.1297 21.3228 9.91089L21.2307 10.0293C21.4724 10.2172 21.594 10.4747 21.594 10.8105H21.744ZM21.3233 9.91125C21.0482 9.69383 20.6684 9.59004 20.1935 9.59004V9.74004C20.6484 9.74004 20.9908 9.83962 21.2303 10.0289L21.3233 9.91125ZM20.1935 9.59004H19.0916V9.74004H20.1935V9.59004Z" fill="#1C212A" mask="url(#path-2-outside-1_2_404)"/>
</svg>
