<svg width="26" height="26" viewBox="0 0 26 26" fill="none" xmlns="http://www.w3.org/2000/svg">
<circle cx="12.75" cy="12.75" r="9" fill="#D6E1F6"/>
<circle cx="12.75" cy="12.75" r="8.30769" fill="#1C212A"/>
<circle cx="12.75" cy="12.75" r="7.61538" fill="#D6E1F6"/>
<mask id="path-4-outside-1_2_382" maskUnits="userSpaceOnUse" x="9.75" y="7.25" width="7" height="11" fill="black">
<rect fill="white" x="9.75" y="7.25" width="7" height="11"/>
<path d="M16.0876 17.25H10.771V8.32251H12.7819V15.6189H16.0876V17.25Z"/>
</mask>
<path d="M16.0876 17.25H10.771V8.32251H12.7819V15.6189H16.0876V17.25Z" fill="#1C212A"/>
<path d="M16.0876 17.25V17.325H16.1626V17.25H16.0876ZM10.771 17.25H10.696V17.325H10.771V17.25ZM10.771 8.32251V8.24751H10.696V8.32251H10.771ZM12.7819 8.32251H12.8569V8.24751H12.7819V8.32251ZM12.7819 15.6189H12.7069V15.6939H12.7819V15.6189ZM16.0876 15.6189H16.1626V15.5439H16.0876V15.6189ZM16.0876 17.175H10.771V17.325H16.0876V17.175ZM10.846 17.25V8.32251H10.696V17.25H10.846ZM10.771 8.39751H12.7819V8.24751H10.771V8.39751ZM12.7069 8.32251V15.6189H12.8569V8.32251H12.7069ZM12.7819 15.6939H16.0876V15.5439H12.7819V15.6939ZM16.0126 15.6189V17.25H16.1626V15.6189H16.0126Z" fill="#1C212A" mask="url(#path-4-outside-1_2_382)"/>
<path d="M17.9649 4.08139C14.2931 2.20875 11.7582 2.20097 7.6019 4.09641C7.51787 4.13473 7.44392 4.01018 7.51937 3.95692L13.0789 0.0325197C13.1062 0.0132584 13.143 0.0143622 13.169 0.0352271L18.0554 3.94436C18.1272 4.00178 18.0468 4.12316 17.9649 4.08139Z" fill="#D6E1F6"/>
<path d="M17.9649 21.4186C14.2931 23.2913 11.7582 23.299 7.6019 21.4036C7.51787 21.3653 7.44392 21.4898 7.51937 21.5431L13.0789 25.4675C13.1062 25.4867 13.143 25.4856 13.169 25.4648L18.0554 21.5556C18.1272 21.4982 18.0468 21.3768 17.9649 21.4186Z" fill="#D6E1F6"/>
<path d="M21.4186 7.91005C23.2913 11.5819 23.299 14.1168 21.4036 18.2731C21.3653 18.3571 21.4898 18.4311 21.5431 18.3556L25.4675 12.7961C25.4867 12.7688 25.4856 12.732 25.4648 12.706L21.5556 7.81955C21.4982 7.74777 21.3768 7.82816 21.4186 7.91005Z" fill="#D6E1F6"/>
<path d="M4.08139 7.91005C2.20875 11.5819 2.20097 14.1168 4.09641 18.2731C4.13473 18.3571 4.01018 18.4311 3.95692 18.3556L0.0325197 12.7961C0.0132584 12.7688 0.0143622 12.732 0.0352271 12.706L3.94436 7.81955C4.00178 7.74777 4.12316 7.82816 4.08139 7.91005Z" fill="#D6E1F6"/>
</svg>
