<svg width="39" height="22" viewBox="0 0 39 22" fill="none" xmlns="http://www.w3.org/2000/svg">
<path d="M0.560165 9.22469L0.111878 19.4485C0.0508985 20.8392 1.16193 22 2.55398 22H33.3939C34.5346 22 35.5236 21.2111 35.7772 20.099L38.6453 7.51976C38.8609 6.57455 38.4974 5.59129 37.7189 5.01349L31.666 0.52086C31.2825 0.236228 30.8212 0.0684723 30.344 0.0481076C16.6251 -0.53743 5.98773 4.35606 1.51272 7.4406C0.925611 7.84528 0.591401 8.51231 0.560165 9.22469Z" fill="#FCFCFC"/>
<mask id="path-2-outside-1_2_166" maskUnits="userSpaceOnUse" x="13.7138" y="5" width="19" height="14" fill="black">
<rect fill="white" x="13.7138" y="5" width="19" height="14"/>
<path d="M21.164 18H14.0751V6.09668H16.7562V15.8252H21.164V18ZM22.7743 18V6.09668H27.1073C28.4354 6.09668 29.4564 6.34017 30.1703 6.82715C30.8842 7.31413 31.2411 8.00033 31.2411 8.88574C31.2411 9.52767 31.0225 10.0894 30.5853 10.5708C30.1537 11.0522 29.6003 11.387 28.9252 11.5752V11.6084C29.7719 11.7135 30.447 12.0262 30.9506 12.5464C31.4597 13.0666 31.7142 13.7002 31.7142 14.4473C31.7142 15.5374 31.3241 16.4035 30.5438 17.0454C29.7636 17.6818 28.6983 18 27.348 18H22.7743ZM25.4555 8.07227V10.8945H26.6342C27.1876 10.8945 27.622 10.7617 27.9374 10.4961C28.2584 10.2249 28.4188 9.85417 28.4188 9.38379C28.4188 8.50944 27.7658 8.07227 26.4599 8.07227H25.4555ZM25.4555 12.8867V16.0244H26.9081C27.5279 16.0244 28.0121 15.8805 28.3607 15.5928C28.7149 15.305 28.892 14.9121 28.892 14.4141C28.892 13.9382 28.7177 13.5646 28.369 13.2935C28.0259 13.0223 27.5445 12.8867 26.9247 12.8867H25.4555Z"/>
</mask>
<path d="M21.164 18H14.0751V6.09668H16.7562V15.8252H21.164V18ZM22.7743 18V6.09668H27.1073C28.4354 6.09668 29.4564 6.34017 30.1703 6.82715C30.8842 7.31413 31.2411 8.00033 31.2411 8.88574C31.2411 9.52767 31.0225 10.0894 30.5853 10.5708C30.1537 11.0522 29.6003 11.387 28.9252 11.5752V11.6084C29.7719 11.7135 30.447 12.0262 30.9506 12.5464C31.4597 13.0666 31.7142 13.7002 31.7142 14.4473C31.7142 15.5374 31.3241 16.4035 30.5438 17.0454C29.7636 17.6818 28.6983 18 27.348 18H22.7743ZM25.4555 8.07227V10.8945H26.6342C27.1876 10.8945 27.622 10.7617 27.9374 10.4961C28.2584 10.2249 28.4188 9.85417 28.4188 9.38379C28.4188 8.50944 27.7658 8.07227 26.4599 8.07227H25.4555ZM25.4555 12.8867V16.0244H26.9081C27.5279 16.0244 28.0121 15.8805 28.3607 15.5928C28.7149 15.305 28.892 14.9121 28.892 14.4141C28.892 13.9382 28.7177 13.5646 28.369 13.2935C28.0259 13.0223 27.5445 12.8867 26.9247 12.8867H25.4555Z" fill="black"/>
<path d="M21.164 18V18.1H21.264V18H21.164ZM14.0751 18H13.9751V18.1H14.0751V18ZM14.0751 6.09668V5.99668H13.9751V6.09668H14.0751ZM16.7562 6.09668H16.8562V5.99668H16.7562V6.09668ZM16.7562 15.8252H16.6562V15.9252H16.7562V15.8252ZM21.164 15.8252H21.264V15.7252H21.164V15.8252ZM21.164 17.9H14.0751V18.1H21.164V17.9ZM14.1751 18V6.09668H13.9751V18H14.1751ZM14.0751 6.19668H16.7562V5.99668H14.0751V6.19668ZM16.6562 6.09668V15.8252H16.8562V6.09668H16.6562ZM16.7562 15.9252H21.164V15.7252H16.7562V15.9252ZM21.064 15.8252V18H21.264V15.8252H21.064ZM22.7743 18H22.6743V18.1H22.7743V18ZM22.7743 6.09668V5.99668H22.6743V6.09668H22.7743ZM30.5853 10.5708L30.5113 10.5036L30.5109 10.504L30.5853 10.5708ZM28.9252 11.5752L28.8983 11.4789L28.8252 11.4993V11.5752H28.9252ZM28.9252 11.6084H28.8252V11.6967L28.9129 11.7076L28.9252 11.6084ZM30.9506 12.5464L30.8787 12.6159L30.8791 12.6163L30.9506 12.5464ZM30.5438 17.0454L30.607 17.1229L30.6074 17.1226L30.5438 17.0454ZM25.4555 8.07227V7.97227H25.3555V8.07227H25.4555ZM25.4555 10.8945H25.3555V10.9945H25.4555V10.8945ZM27.9374 10.4961L28.0018 10.5726L28.0019 10.5725L27.9374 10.4961ZM25.4555 12.8867V12.7867H25.3555V12.8867H25.4555ZM25.4555 16.0244H25.3555V16.1244H25.4555V16.0244ZM28.3607 15.5928L28.2977 15.5152L28.2971 15.5157L28.3607 15.5928ZM28.369 13.2935L28.307 13.3719L28.3076 13.3724L28.369 13.2935ZM22.8743 18V6.09668H22.6743V18H22.8743ZM22.7743 6.19668H27.1073V5.99668H22.7743V6.19668ZM27.1073 6.19668C28.4254 6.19668 29.4234 6.43869 30.114 6.90976L30.2267 6.74454C29.4895 6.24165 28.4455 5.99668 27.1073 5.99668V6.19668ZM30.114 6.90976C30.7997 7.37757 31.1411 8.03241 31.1411 8.88574H31.3411C31.3411 7.96824 30.9686 7.25069 30.2267 6.74454L30.114 6.90976ZM31.1411 8.88574C31.1411 9.50246 30.932 10.0403 30.5113 10.5036L30.6594 10.638C31.113 10.1384 31.3411 9.55288 31.3411 8.88574H31.1411ZM30.5109 10.504C30.093 10.9701 29.5567 11.2954 28.8983 11.4789L28.952 11.6715C29.6439 11.4787 30.2144 11.1344 30.6598 10.6376L30.5109 10.504ZM28.8252 11.5752V11.6084H29.0252V11.5752H28.8252ZM28.9129 11.7076C29.7411 11.8105 30.3937 12.115 30.8787 12.6159L31.0224 12.4768C30.5002 11.9374 29.8026 11.6166 28.9375 11.5092L28.9129 11.7076ZM30.8791 12.6163C31.3694 13.1173 31.6142 13.7256 31.6142 14.4473H31.8142C31.8142 13.6748 31.55 13.0159 31.022 12.4764L30.8791 12.6163ZM31.6142 14.4473C31.6142 15.5102 31.2355 16.3469 30.4803 16.9682L30.6074 17.1226C31.4127 16.4601 31.8142 15.5646 31.8142 14.4473H31.6142ZM30.4806 16.9679C29.7235 17.5855 28.6831 17.9 27.348 17.9V18.1C28.7135 18.1 29.8037 17.7782 30.607 17.1229L30.4806 16.9679ZM27.348 17.9H22.7743V18.1H27.348V17.9ZM25.3555 8.07227V10.8945H25.5555V8.07227H25.3555ZM25.4555 10.9945H26.6342V10.7945H25.4555V10.9945ZM26.6342 10.9945C27.203 10.9945 27.663 10.8579 28.0018 10.5726L27.873 10.4196C27.5809 10.6655 27.1721 10.7945 26.6342 10.7945V10.9945ZM28.0019 10.5725C28.3482 10.2799 28.5188 9.87965 28.5188 9.38379H28.3188C28.3188 9.82868 28.1685 10.17 27.8729 10.4197L28.0019 10.5725ZM28.5188 9.38379C28.5188 8.91766 28.3424 8.55653 27.9847 8.31705C27.6341 8.08233 27.1209 7.97227 26.4599 7.97227V8.17227C27.1048 8.17227 27.5711 8.28079 27.8735 8.48324C28.1688 8.68094 28.3188 8.97556 28.3188 9.38379H28.5188ZM26.4599 7.97227H25.4555V8.17227H26.4599V7.97227ZM25.3555 12.8867V16.0244H25.5555V12.8867H25.3555ZM25.4555 16.1244H26.9081V15.9244H25.4555V16.1244ZM26.9081 16.1244C27.5425 16.1244 28.0522 15.9771 28.4244 15.6699L28.2971 15.5157C27.972 15.784 27.5132 15.9244 26.9081 15.9244V16.1244ZM28.4238 15.6704C28.8037 15.3617 28.992 14.9391 28.992 14.4141H28.792C28.792 14.8851 28.6261 15.2483 28.2977 15.5152L28.4238 15.6704ZM28.992 14.4141C28.992 13.9101 28.8055 13.5063 28.4304 13.2145L28.3076 13.3724C28.6298 13.623 28.792 13.9663 28.792 14.4141H28.992ZM28.431 13.215C28.0642 12.9251 27.5578 12.7867 26.9247 12.7867V12.9867C27.5312 12.9867 27.9876 13.1195 28.307 13.3719L28.431 13.215ZM26.9247 12.7867H25.4555V12.9867H26.9247V12.7867Z" fill="black" mask="url(#path-2-outside-1_2_166)"/>
</svg>
