<svg width="32" height="32" viewBox="0 0 32 32" fill="none" xmlns="http://www.w3.org/2000/svg">
<circle cx="18.5" cy="16" r="12" fill="#D6E1F6"/>
<circle cx="18.5" cy="16" r="11.0769" fill="#1C212A"/>
<circle cx="18.5" cy="16" r="10.1538" fill="#D6E1F6"/>
<mask id="path-4-outside-1_2_83" maskUnits="userSpaceOnUse" x="15.5" y="9" width="8" height="14" fill="black">
<rect fill="white" x="15.5" y="9" width="8" height="14"/>
<path d="M22.9502 22H15.8613V10.0967H18.5425V19.8252H22.9502V22Z"/>
</mask>
<path d="M22.9502 22H15.8613V10.0967H18.5425V19.8252H22.9502V22Z" fill="#1C212A"/>
<path d="M22.9502 22V22.1H23.0502V22H22.9502ZM15.8613 22H15.7613V22.1H15.8613V22ZM15.8613 10.0967V9.99668H15.7613V10.0967H15.8613ZM18.5425 10.0967H18.6425V9.99668H18.5425V10.0967ZM18.5425 19.8252H18.4425V19.9252H18.5425V19.8252ZM22.9502 19.8252H23.0502V19.7252H22.9502V19.8252ZM22.9502 21.9H15.8613V22.1H22.9502V21.9ZM15.9613 22V10.0967H15.7613V22H15.9613ZM15.8613 10.1967H18.5425V9.99668H15.8613V10.1967ZM18.4425 10.0967V19.8252H18.6425V10.0967H18.4425ZM18.5425 19.9252H22.9502V19.7252H18.5425V19.9252ZM22.8502 19.8252V22H23.0502V19.8252H22.8502Z" fill="#1C212A" mask="url(#path-4-outside-1_2_83)"/>
<path d="M6.69186 9.54674C4.195 14.4425 4.18463 17.8224 6.71188 23.3641C6.76297 23.4762 6.5969 23.5748 6.52589 23.4742L1.29336 16.0614C1.26768 16.025 1.26915 15.9761 1.29697 15.9413L6.50915 9.42607C6.58571 9.33036 6.74754 9.43755 6.69186 9.54674Z" fill="#D6E1F6"/>
</svg>
