<svg width="32" height="32" viewBox="0 0 32 32" fill="none" xmlns="http://www.w3.org/2000/svg">
<circle cx="13" cy="16" r="12" fill="#D6E1F6"/>
<circle cx="13" cy="16" r="11.0769" fill="#1C212A"/>
<circle cx="13" cy="16" r="10.1538" fill="#D6E1F6"/>
<mask id="path-4-outside-1_2_75" maskUnits="userSpaceOnUse" x="10" y="9" width="8" height="14" fill="black">
<rect fill="white" x="10" y="9" width="8" height="14"/>
<path d="M17.4502 22H10.3613V10.0967H13.0425V19.8252H17.4502V22Z"/>
</mask>
<path d="M17.4502 22H10.3613V10.0967H13.0425V19.8252H17.4502V22Z" fill="#1C212A"/>
<path d="M17.4502 22V22.1H17.5502V22H17.4502ZM10.3613 22H10.2613V22.1H10.3613V22ZM10.3613 10.0967V9.99668H10.2613V10.0967H10.3613ZM13.0425 10.0967H13.1425V9.99668H13.0425V10.0967ZM13.0425 19.8252H12.9425V19.9252H13.0425V19.8252ZM17.4502 19.8252H17.5502V19.7252H17.4502V19.8252ZM17.4502 21.9H10.3613V22.1H17.4502V21.9ZM10.4613 22V10.0967H10.2613V22H10.4613ZM10.3613 10.1967H13.0425V9.99668H10.3613V10.1967ZM12.9425 10.0967V19.8252H13.1425V10.0967H12.9425ZM13.0425 19.9252H17.4502V19.7252H13.0425V19.9252ZM17.3502 19.8252V22H17.5502V19.8252H17.3502Z" fill="#1C212A" mask="url(#path-4-outside-1_2_75)"/>
<path d="M24.8081 9.54674C27.305 14.4425 27.3154 17.8224 24.7881 23.3641C24.737 23.4762 24.9031 23.5748 24.9741 23.4742L30.2066 16.0614C30.2323 16.025 30.2309 15.9761 30.203 15.9413L24.9909 9.42607C24.9143 9.33036 24.7525 9.43755 24.8081 9.54674Z" fill="#D6E1F6"/>
</svg>
