<svg width="34" height="34" viewBox="0 0 34 34" fill="none" xmlns="http://www.w3.org/2000/svg">
<rect y="5" width="34" height="16" rx="8" fill="#FCFCFC"/>
<rect x="9" y="21" width="16" height="8" fill="#FCFCFC"/>
<mask id="path-3-outside-1_2_252" maskUnits="userSpaceOnUse" x="14" y="6.5" width="8" height="14" fill="black">
<rect fill="white" x="14" y="6.5" width="8" height="14"/>
<path d="M21.4502 19.5H14.3613V7.59668H17.0425V17.3252H21.4502V19.5Z"/>
</mask>
<path d="M21.4502 19.5H14.3613V7.59668H17.0425V17.3252H21.4502V19.5Z" fill="black"/>
<path d="M21.4502 19.5V19.6H21.5502V19.5H21.4502ZM14.3613 19.5H14.2613V19.6H14.3613V19.5ZM14.3613 7.59668V7.49668H14.2613V7.59668H14.3613ZM17.0425 7.59668H17.1425V7.49668H17.0425V7.59668ZM17.0425 17.3252H16.9425V17.4252H17.0425V17.3252ZM21.4502 17.3252H21.5502V17.2252H21.4502V17.3252ZM21.4502 19.4H14.3613V19.6H21.4502V19.4ZM14.4613 19.5V7.59668H14.2613V19.5H14.4613ZM14.3613 7.69668H17.0425V7.49668H14.3613V7.69668ZM16.9425 7.59668V17.3252H17.1425V7.59668H16.9425ZM17.0425 17.4252H21.4502V17.2252H17.0425V17.4252ZM21.3502 17.3252V19.5H21.5502V17.3252H21.3502Z" fill="black" mask="url(#path-3-outside-1_2_252)"/>
</svg>
