<svg width="26" height="26" viewBox="0 0 26 26" fill="none" xmlns="http://www.w3.org/2000/svg">
<rect y="3.75" width="25.5" height="12" rx="6" fill="#D6E1F6"/>
<rect x="6.75" y="15.75" width="12" height="6" fill="#D6E1F6"/>
<mask id="path-3-outside-1_2_488" maskUnits="userSpaceOnUse" x="9.75" y="4.625" width="7" height="11" fill="black">
<rect fill="white" x="9.75" y="4.625" width="7" height="11"/>
<path d="M16.0876 14.625H10.771V5.69751H12.7819V12.9939H16.0876V14.625Z"/>
</mask>
<path d="M16.0876 14.625H10.771V5.69751H12.7819V12.9939H16.0876V14.625Z" fill="#1C212A"/>
<path d="M16.0876 14.625V14.7H16.1626V14.625H16.0876ZM10.771 14.625H10.696V14.7H10.771V14.625ZM10.771 5.69751V5.62251H10.696V5.69751H10.771ZM12.7819 5.69751H12.8569V5.62251H12.7819V5.69751ZM12.7819 12.9939H12.7069V13.0689H12.7819V12.9939ZM16.0876 12.9939H16.1626V12.9189H16.0876V12.9939ZM16.0876 14.55H10.771V14.7H16.0876V14.55ZM10.846 14.625V5.69751H10.696V14.625H10.846ZM10.771 5.77251H12.7819V5.62251H10.771V5.77251ZM12.7069 5.69751V12.9939H12.8569V5.69751H12.7069ZM12.7819 13.0689H16.0876V12.9189H12.7819V13.0689ZM16.0126 12.9939V14.625H16.1626V12.9939H16.0126Z" fill="#1C212A" mask="url(#path-3-outside-1_2_488)"/>
</svg>
