<svg width="32" height="32" viewBox="0 0 32 32" fill="none" xmlns="http://www.w3.org/2000/svg">
<circle cx="16" cy="19" r="12" fill="#D6E1F6"/>
<circle cx="16" cy="19" r="11.0769" fill="#1C212A"/>
<circle cx="16" cy="19" r="10.1538" fill="#D6E1F6"/>
<mask id="path-4-outside-1_2_91" maskUnits="userSpaceOnUse" x="13" y="12" width="8" height="14" fill="black">
<rect fill="white" x="13" y="12" width="8" height="14"/>
<path d="M20.4502 25H13.3613V13.0967H16.0425V22.8252H20.4502V25Z"/>
</mask>
<path d="M20.4502 25H13.3613V13.0967H16.0425V22.8252H20.4502V25Z" fill="#1C212A"/>
<path d="M20.4502 25V25.1H20.5502V25H20.4502ZM13.3613 25H13.2613V25.1H13.3613V25ZM13.3613 13.0967V12.9967H13.2613V13.0967H13.3613ZM16.0425 13.0967H16.1425V12.9967H16.0425V13.0967ZM16.0425 22.8252H15.9425V22.9252H16.0425V22.8252ZM20.4502 22.8252H20.5502V22.7252H20.4502V22.8252ZM20.4502 24.9H13.3613V25.1H20.4502V24.9ZM13.4613 25V13.0967H13.2613V25H13.4613ZM13.3613 13.1967H16.0425V12.9967H13.3613V13.1967ZM15.9425 13.0967V22.8252H16.1425V13.0967H15.9425ZM16.0425 22.9252H20.4502V22.7252H16.0425V22.9252ZM20.3502 22.8252V25H20.5502V22.8252H20.3502Z" fill="#1C212A" mask="url(#path-4-outside-1_2_91)"/>
<path d="M22.9533 7.44186C18.0575 4.945 14.6776 4.93463 9.13587 7.46188C9.02383 7.51297 8.92522 7.3469 9.02582 7.27589L16.4386 2.04336C16.475 2.01768 16.5239 2.01915 16.5587 2.04697L23.0739 7.25915C23.1696 7.33571 23.0624 7.49754 22.9533 7.44186Z" fill="#D6E1F6"/>
</svg>
