<svg width="32" height="32" viewBox="0 0 32 32" fill="none" xmlns="http://www.w3.org/2000/svg">
<circle cx="16" cy="14" r="12" fill="#D6E1F6"/>
<circle cx="16" cy="14" r="11.0769" fill="#1C212A"/>
<circle cx="16" cy="14" r="10.1538" fill="#D6E1F6"/>
<mask id="path-4-outside-1_2_67" maskUnits="userSpaceOnUse" x="13" y="7" width="8" height="14" fill="black">
<rect fill="white" x="13" y="7" width="8" height="14"/>
<path d="M20.4502 20H13.3613V8.09668H16.0425V17.8252H20.4502V20Z"/>
</mask>
<path d="M20.4502 20H13.3613V8.09668H16.0425V17.8252H20.4502V20Z" fill="#1C212A"/>
<path d="M20.4502 20V20.1H20.5502V20H20.4502ZM13.3613 20H13.2613V20.1H13.3613V20ZM13.3613 8.09668V7.99668H13.2613V8.09668H13.3613ZM16.0425 8.09668H16.1425V7.99668H16.0425V8.09668ZM16.0425 17.8252H15.9425V17.9252H16.0425V17.8252ZM20.4502 17.8252H20.5502V17.7252H20.4502V17.8252ZM20.4502 19.9H13.3613V20.1H20.4502V19.9ZM13.4613 20V8.09668H13.2613V20H13.4613ZM13.3613 8.19668H16.0425V7.99668H13.3613V8.19668ZM15.9425 8.09668V17.8252H16.1425V8.09668H15.9425ZM16.0425 17.9252H20.4502V17.7252H16.0425V17.9252ZM20.3502 17.8252V20H20.5502V17.8252H20.3502Z" fill="#1C212A" mask="url(#path-4-outside-1_2_67)"/>
<path d="M22.9533 25.5581C18.0575 28.055 14.6776 28.0654 9.13587 25.5381C9.02383 25.487 8.92522 25.6531 9.02582 25.7241L16.4386 30.9566C16.475 30.9823 16.5239 30.9809 16.5587 30.953L23.0739 25.7409C23.1696 25.6643 23.0624 25.5025 22.9533 25.5581Z" fill="#D6E1F6"/>
</svg>
