<svg width="30" height="17" viewBox="0 0 30 17" fill="none" xmlns="http://www.w3.org/2000/svg">
<path d="M28.8299 6.91851L29.1661 14.5864C29.2118 15.6294 28.3786 16.5 27.3345 16.5H4.20456C3.34906 16.5 2.60728 15.9083 2.4171 15.0742L0.265989 5.63982C0.104353 4.93091 0.376938 4.19347 0.960793 3.76012L5.50052 0.390645C5.78813 0.177171 6.13412 0.0513542 6.49197 0.0360807C16.7812 -0.403072 24.7592 3.26705 28.1155 5.58045C28.5558 5.88396 28.8064 6.38423 28.8299 6.91851Z" fill="#D6E1F6"/>
<mask id="path-2-outside-1_2_408" maskUnits="userSpaceOnUse" x="4.97327" y="3.5" width="17" height="11" fill="black">
<rect fill="white" x="4.97327" y="3.5" width="17" height="11"/>
<path d="M13.4836 13.5H11.174L9.78564 11.2028C9.68188 11.0284 9.58228 10.8728 9.48682 10.7358C9.39136 10.5989 9.29382 10.4827 9.19421 10.3872C9.09875 10.2876 8.99707 10.2129 8.88916 10.1631C8.7854 10.1091 8.67126 10.0822 8.54675 10.0822H8.00513V13.5H5.99426V4.57251H9.18176C11.3483 4.57251 12.4315 5.38184 12.4315 7.00049C12.4315 7.31177 12.3838 7.60022 12.2883 7.86584C12.1929 8.12732 12.058 8.36389 11.8837 8.57556C11.7094 8.78723 11.4977 8.96985 11.2487 9.12341C11.0038 9.27698 10.7299 9.39734 10.4269 9.4845V9.5094C10.5597 9.5509 10.6884 9.61938 10.8129 9.71484C10.9374 9.80615 11.0577 9.91406 11.174 10.0386C11.2902 10.1631 11.4001 10.298 11.5039 10.4432C11.6118 10.5844 11.7094 10.7234 11.7965 10.8604L13.4836 13.5ZM8.00513 6.0791V8.56311H8.87671C9.30835 8.56311 9.65491 8.4386 9.91638 8.18958C10.182 7.9364 10.3148 7.62305 10.3148 7.24951C10.3148 6.46924 9.8479 6.0791 8.91406 6.0791H8.00513ZM14.3241 13.5V4.57251H17.5739C18.5699 4.57251 19.3357 4.75513 19.8711 5.12036C20.4065 5.4856 20.6742 6.00024 20.6742 6.66431C20.6742 7.14575 20.5103 7.56702 20.1824 7.9281C19.8586 8.28918 19.4436 8.54028 18.9373 8.6814V8.7063C19.5723 8.78516 20.0786 9.01965 20.4563 9.40979C20.8381 9.79993 21.0291 10.2751 21.0291 10.8354C21.0291 11.6531 20.7365 12.3026 20.1512 12.7841C19.566 13.2614 18.7671 13.5 17.7544 13.5H14.3241ZM16.335 6.0542V8.1709H17.219C17.634 8.1709 17.9598 8.07129 18.1964 7.87207C18.4371 7.6687 18.5575 7.39062 18.5575 7.03784C18.5575 6.38208 18.0677 6.0542 17.0883 6.0542H16.335ZM16.335 9.66504V12.0183H17.4244C17.8893 12.0183 18.2524 11.9104 18.5139 11.6946C18.7795 11.4788 18.9124 11.1841 18.9124 10.8105C18.9124 10.4536 18.7816 10.1735 18.5201 9.97009C18.2628 9.76672 17.9017 9.66504 17.4369 9.66504H16.335Z"/>
</mask>
<path d="M13.4836 13.5H11.174L9.78564 11.2028C9.68188 11.0284 9.58228 10.8728 9.48682 10.7358C9.39136 10.5989 9.29382 10.4827 9.19421 10.3872C9.09875 10.2876 8.99707 10.2129 8.88916 10.1631C8.7854 10.1091 8.67126 10.0822 8.54675 10.0822H8.00513V13.5H5.99426V4.57251H9.18176C11.3483 4.57251 12.4315 5.38184 12.4315 7.00049C12.4315 7.31177 12.3838 7.60022 12.2883 7.86584C12.1929 8.12732 12.058 8.36389 11.8837 8.57556C11.7094 8.78723 11.4977 8.96985 11.2487 9.12341C11.0038 9.27698 10.7299 9.39734 10.4269 9.4845V9.5094C10.5597 9.5509 10.6884 9.61938 10.8129 9.71484C10.9374 9.80615 11.0577 9.91406 11.174 10.0386C11.2902 10.1631 11.4001 10.298 11.5039 10.4432C11.6118 10.5844 11.7094 10.7234 11.7965 10.8604L13.4836 13.5ZM8.00513 6.0791V8.56311H8.87671C9.30835 8.56311 9.65491 8.4386 9.91638 8.18958C10.182 7.9364 10.3148 7.62305 10.3148 7.24951C10.3148 6.46924 9.8479 6.0791 8.91406 6.0791H8.00513ZM14.3241 13.5V4.57251H17.5739C18.5699 4.57251 19.3357 4.75513 19.8711 5.12036C20.4065 5.4856 20.6742 6.00024 20.6742 6.66431C20.6742 7.14575 20.5103 7.56702 20.1824 7.9281C19.8586 8.28918 19.4436 8.54028 18.9373 8.6814V8.7063C19.5723 8.78516 20.0786 9.01965 20.4563 9.40979C20.8381 9.79993 21.0291 10.2751 21.0291 10.8354C21.0291 11.6531 20.7365 12.3026 20.1512 12.7841C19.566 13.2614 18.7671 13.5 17.7544 13.5H14.3241ZM16.335 6.0542V8.1709H17.219C17.634 8.1709 17.9598 8.07129 18.1964 7.87207C18.4371 7.6687 18.5575 7.39062 18.5575 7.03784C18.5575 6.38208 18.0677 6.0542 17.0883 6.0542H16.335ZM16.335 9.66504V12.0183H17.4244C17.8893 12.0183 18.2524 11.9104 18.5139 11.6946C18.7795 11.4788 18.9124 11.1841 18.9124 10.8105C18.9124 10.4536 18.7816 10.1735 18.5201 9.97009C18.2628 9.76672 17.9017 9.66504 17.4369 9.66504H16.335Z" fill="#1C212A"/>
<path d="M13.4836 13.5V13.5825H13.6343L13.5532 13.4556L13.4836 13.5ZM11.174 13.5L11.1033 13.5427L11.1274 13.5825H11.174V13.5ZM9.78564 11.2028L9.71475 11.245L9.71504 11.2454L9.78564 11.2028ZM9.19421 10.3872L9.1346 10.4443L9.13713 10.4468L9.19421 10.3872ZM8.88916 10.1631L8.85106 10.2364L8.85459 10.238L8.88916 10.1631ZM8.00513 10.0822V9.99965H7.92263V10.0822H8.00513ZM8.00513 13.5V13.5825H8.08763V13.5H8.00513ZM5.99426 13.5H5.91176V13.5825H5.99426V13.5ZM5.99426 4.57251V4.49001H5.91176V4.57251H5.99426ZM12.2883 7.86584L12.3658 7.89414L12.366 7.89375L12.2883 7.86584ZM11.2487 9.12341L11.2054 9.05319L11.2048 9.05352L11.2487 9.12341ZM10.4269 9.4845L10.4041 9.40521L10.3444 9.42238V9.4845H10.4269ZM10.4269 9.5094H10.3444V9.57005L10.4023 9.58814L10.4269 9.5094ZM10.8129 9.71484L10.7627 9.78033L10.7641 9.78137L10.8129 9.71484ZM11.5039 10.4432L11.4367 10.4912L11.4384 10.4934L11.5039 10.4432ZM11.7965 10.8604L11.7269 10.9046L11.727 10.9048L11.7965 10.8604ZM8.00513 6.0791V5.9966H7.92263V6.0791H8.00513ZM8.00513 8.56311H7.92263V8.64561H8.00513V8.56311ZM9.91638 8.18958L9.97328 8.24932L9.9733 8.24929L9.91638 8.18958ZM13.4836 13.4175H11.174V13.5825H13.4836V13.4175ZM11.2446 13.4573L9.85625 11.1601L9.71504 11.2454L11.1033 13.5427L11.2446 13.4573ZM9.85654 11.1606C9.75197 10.9849 9.6513 10.8275 9.5545 10.6887L9.41913 10.783C9.51326 10.9181 9.6118 11.072 9.71475 11.245L9.85654 11.1606ZM9.5545 10.6887C9.45655 10.5481 9.35556 10.4276 9.2513 10.3276L9.13713 10.4468C9.23209 10.5378 9.32617 10.6496 9.41913 10.783L9.5545 10.6887ZM9.25378 10.3301C9.15231 10.2242 9.04239 10.1429 8.92373 10.0882L8.85459 10.238C8.95175 10.2828 9.0452 10.351 9.13465 10.4443L9.25378 10.3301ZM8.92722 10.0899C8.81095 10.0294 8.68363 9.99965 8.54675 9.99965V10.1647C8.65889 10.1647 8.75985 10.1888 8.8511 10.2363L8.92722 10.0899ZM8.54675 9.99965H8.00513V10.1647H8.54675V9.99965ZM7.92263 10.0822V13.5H8.08763V10.0822H7.92263ZM8.00513 13.4175H5.99426V13.5825H8.00513V13.4175ZM6.07676 13.5V4.57251H5.91176V13.5H6.07676ZM5.99426 4.65501H9.18176V4.49001H5.99426V4.65501ZM9.18176 4.65501C10.2571 4.65501 11.0486 4.85629 11.5697 5.2456C12.0863 5.63153 12.349 6.21141 12.349 7.00049H12.514C12.514 6.17091 12.2352 5.53681 11.6685 5.11341C11.1063 4.69339 10.2729 4.49001 9.18176 4.49001V4.65501ZM12.349 7.00049C12.349 7.30323 12.3026 7.58214 12.2107 7.83794L12.366 7.89375C12.465 7.6183 12.514 7.3203 12.514 7.00049H12.349ZM12.2108 7.83755C12.1185 8.09039 11.9883 8.31877 11.82 8.52312L11.9474 8.62801C12.1277 8.40902 12.2672 8.16425 12.3658 7.89414L12.2108 7.83755ZM11.82 8.52312C11.6518 8.72732 11.4472 8.90407 11.2054 9.05319L11.292 9.19363C11.5482 9.03563 11.7669 8.84714 11.9474 8.62801L11.82 8.52312ZM11.2048 9.05352C10.9671 9.20263 10.7003 9.31999 10.4041 9.40521L10.4497 9.56378C10.7594 9.47468 11.0405 9.35132 11.2925 9.19331L11.2048 9.05352ZM10.3444 9.4845V9.5094H10.5094V9.4845H10.3444ZM10.4023 9.58814C10.5247 9.62642 10.6449 9.69 10.7627 9.78032L10.8631 9.64937C10.7318 9.54877 10.5946 9.47539 10.4515 9.43065L10.4023 9.58814ZM10.7641 9.78137C10.884 9.86934 11.0006 9.97374 11.1136 10.0949L11.2343 9.98228C11.1149 9.85439 10.9907 9.74296 10.8617 9.64832L10.7641 9.78137ZM11.1136 10.0949C11.2273 10.2166 11.335 10.3487 11.4368 10.4912L11.571 10.3953C11.4653 10.2472 11.353 10.1095 11.2343 9.98228L11.1136 10.0949ZM11.4384 10.4934C11.545 10.6328 11.6411 10.7699 11.7269 10.9046L11.8661 10.8161C11.7776 10.6769 11.6787 10.5359 11.5694 10.3931L11.4384 10.4934ZM11.727 10.9048L13.4141 13.5444L13.5532 13.4556L11.866 10.8159L11.727 10.9048ZM7.92263 6.0791V8.56311H8.08763V6.0791H7.92263ZM8.00513 8.64561H8.87671V8.48061H8.00513V8.64561ZM8.87671 8.64561C9.32513 8.64561 9.69355 8.51573 9.97328 8.24932L9.85949 8.12983C9.61627 8.36147 9.29157 8.48061 8.87671 8.48061V8.64561ZM9.9733 8.24929C10.2556 7.98024 10.3973 7.64516 10.3973 7.24951H10.2323C10.2323 7.60094 10.1084 7.89257 9.85946 8.12986L9.9733 8.24929ZM10.3973 7.24951C10.3973 6.84237 10.2748 6.52336 10.0175 6.3084C9.7631 6.09581 9.39045 5.9966 8.91406 5.9966V6.1616C9.37152 6.1616 9.69924 6.25747 9.91173 6.43501C10.1214 6.61019 10.2323 6.87638 10.2323 7.24951H10.3973ZM8.91406 5.9966H8.00513V6.1616H8.91406V5.9966ZM14.3241 13.5H14.2416V13.5825H14.3241V13.5ZM14.3241 4.57251V4.49001H14.2416V4.57251H14.3241ZM20.1824 7.9281L20.1213 7.87264L20.1209 7.87303L20.1824 7.9281ZM18.9373 8.6814L18.9151 8.60192L18.8548 8.61874V8.6814H18.9373ZM18.9373 8.7063H18.8548V8.77919L18.9271 8.78817L18.9373 8.7063ZM20.4563 9.40979L20.397 9.46717L20.3973 9.4675L20.4563 9.40979ZM20.1512 12.7841L20.2034 12.848L20.2037 12.8478L20.1512 12.7841ZM16.335 6.0542V5.9717H16.2525V6.0542H16.335ZM16.335 8.1709H16.2525V8.2534H16.335V8.1709ZM18.1964 7.87207L18.2496 7.93518L18.2497 7.93509L18.1964 7.87207ZM16.335 9.66504V9.58254H16.2525V9.66504H16.335ZM16.335 12.0183H16.2525V12.1008H16.335V12.0183ZM18.5139 11.6946L18.4619 11.6305L18.4614 11.631L18.5139 11.6946ZM18.5201 9.97009L18.469 10.0348L18.4695 10.0352L18.5201 9.97009ZM14.4066 13.5V4.57251H14.2416V13.5H14.4066ZM14.3241 4.65501H17.5739V4.49001H14.3241V4.65501ZM17.5739 4.65501C18.5617 4.65501 19.3084 4.83641 19.8246 5.18851L19.9176 5.05221C19.3629 4.67385 18.5782 4.49001 17.5739 4.49001V4.65501ZM19.8246 5.18851C20.3368 5.53793 20.5917 6.02671 20.5917 6.66431H20.7567C20.7567 5.97378 20.4762 5.43326 19.9176 5.05221L19.8246 5.18851ZM20.5917 6.66431C20.5917 7.12495 20.4356 7.52652 20.1213 7.87264L20.2435 7.98356C20.5849 7.60752 20.7567 7.16655 20.7567 6.66431H20.5917ZM20.1209 7.87303C19.8086 8.22142 19.4076 8.46467 18.9151 8.60192L18.9594 8.76087C19.4796 8.6159 19.9087 8.35695 20.2438 7.98317L20.1209 7.87303ZM18.8548 8.6814V8.7063H19.0198V8.6814H18.8548ZM18.9271 8.78817C19.5469 8.86514 20.0347 9.09288 20.397 9.46717L20.5156 9.35241C20.1225 8.94642 19.5976 8.70517 18.9474 8.62443L18.9271 8.78817ZM20.3973 9.4675C20.7636 9.84177 20.9466 10.2961 20.9466 10.8354H21.1116C21.1116 10.2542 20.9126 9.75809 20.5153 9.35208L20.3973 9.4675ZM20.9466 10.8354C20.9466 11.6306 20.6633 12.2559 20.0988 12.7203L20.2037 12.8478C20.8096 12.3493 21.1116 11.6755 21.1116 10.8354H20.9466ZM20.0991 12.7201C19.533 13.1819 18.7546 13.4175 17.7544 13.4175V13.5825C18.7796 13.5825 19.5991 13.3408 20.2034 12.848L20.0991 12.7201ZM17.7544 13.4175H14.3241V13.5825H17.7544V13.4175ZM16.2525 6.0542V8.1709H16.4175V6.0542H16.2525ZM16.335 8.2534H17.219V8.0884H16.335V8.2534ZM17.219 8.2534C17.6468 8.2534 17.9937 8.15064 18.2496 7.93518L18.1433 7.80897C17.926 7.99194 17.6213 8.0884 17.219 8.0884V8.2534ZM18.2497 7.93509C18.5113 7.71406 18.64 7.41165 18.64 7.03784H18.475C18.475 7.3696 18.363 7.62335 18.1432 7.80905L18.2497 7.93509ZM18.64 7.03784C18.64 6.68608 18.5067 6.41273 18.2361 6.23156C17.9713 6.0543 17.5846 5.9717 17.0883 5.9717V6.1367C17.5714 6.1367 17.9193 6.21804 18.1443 6.36866C18.3634 6.51537 18.475 6.73384 18.475 7.03784H18.64ZM17.0883 5.9717H16.335V6.1367H17.0883V5.9717ZM16.2525 9.66504V12.0183H16.4175V9.66504H16.2525ZM16.335 12.1008H17.4244V11.9358H16.335V12.1008ZM17.4244 12.1008C17.9014 12.1008 18.2855 11.9901 18.5664 11.7582L18.4614 11.631C18.2194 11.8307 17.8772 11.9358 17.4244 11.9358V12.1008ZM18.5659 11.7586C18.8528 11.5256 18.9949 11.2063 18.9949 10.8105H18.8299C18.8299 11.1618 18.7063 11.432 18.4619 11.6306L18.5659 11.7586ZM18.9949 10.8105C18.9949 10.4304 18.8541 10.1253 18.5708 9.90497L18.4695 10.0352C18.7091 10.2216 18.8299 10.4768 18.8299 10.8105H18.9949ZM18.5713 9.90537C18.2944 9.68654 17.9127 9.58254 17.4369 9.58254V9.74754C17.8907 9.74754 18.2312 9.84691 18.469 10.0348L18.5713 9.90537ZM17.4369 9.58254H16.335V9.74754H17.4369V9.58254Z" fill="#1C212A" mask="url(#path-2-outside-1_2_408)"/>
</svg>
