<svg width="39" height="22" viewBox="0 0 39 22" fill="none" xmlns="http://www.w3.org/2000/svg">
<path d="M38.4399 9.22469L38.8882 19.4485C38.9491 20.8392 37.8381 22 36.4461 22H5.60612C4.46545 22 3.47641 21.2111 3.22284 20.099L0.354691 7.51976C0.139175 6.57455 0.502621 5.59129 1.2811 5.01349L7.33406 0.52086C7.71755 0.236228 8.17886 0.0684723 8.656 0.0481076C22.375 -0.53743 33.0123 4.35606 37.4873 7.4406C38.0744 7.84528 38.4086 8.51231 38.4399 9.22469Z" fill="#FCFCFC"/>
<mask id="path-2-outside-1_2_170" maskUnits="userSpaceOnUse" x="7.631" y="5" width="21" height="14" fill="black">
<rect fill="white" x="7.631" y="5" width="21" height="14"/>
<path d="M17.9782 18H14.8986L13.0475 14.937C12.9092 14.7046 12.7763 14.4971 12.6491 14.3145C12.5218 14.1318 12.3917 13.9769 12.2589 13.8496C12.1317 13.7168 11.9961 13.6172 11.8522 13.5508C11.7138 13.4788 11.5617 13.4429 11.3957 13.4429H10.6735V18H7.99233V6.09668H12.2423C15.131 6.09668 16.5753 7.17578 16.5753 9.33398C16.5753 9.74902 16.5117 10.1336 16.3844 10.4878C16.2571 10.8364 16.0773 11.1519 15.8449 11.4341C15.6124 11.7163 15.3302 11.9598 14.9982 12.1646C14.6717 12.3693 14.3065 12.5298 13.9025 12.646V12.6792C14.0796 12.7345 14.2511 12.8258 14.4171 12.9531C14.5832 13.0749 14.7436 13.2188 14.8986 13.3848C15.0535 13.5508 15.2002 13.7306 15.3385 13.9243C15.4824 14.1125 15.6124 14.2979 15.7287 14.4805L17.9782 18ZM10.6735 8.10547V11.4175H11.8356C12.4111 11.4175 12.8732 11.2515 13.2218 10.9194C13.576 10.5819 13.7531 10.1641 13.7531 9.66602C13.7531 8.62565 13.1305 8.10547 11.8854 8.10547H10.6735ZM19.0988 18V6.09668H23.4318C24.7599 6.09668 25.7809 6.34017 26.4948 6.82715C27.2086 7.31413 27.5656 8.00033 27.5656 8.88574C27.5656 9.52767 27.347 10.0894 26.9098 10.5708C26.4782 11.0522 25.9248 11.387 25.2497 11.5752V11.6084C26.0963 11.7135 26.7715 12.0262 27.275 12.5464C27.7842 13.0666 28.0387 13.7002 28.0387 14.4473C28.0387 15.5374 27.6486 16.4035 26.8683 17.0454C26.088 17.6818 25.0228 18 23.6725 18H19.0988ZM21.7799 8.07227V10.8945H22.9586C23.512 10.8945 23.9464 10.7617 24.2619 10.4961C24.5828 10.2249 24.7433 9.85417 24.7433 9.38379C24.7433 8.50944 24.0903 8.07227 22.7843 8.07227H21.7799ZM21.7799 12.8867V16.0244H23.2326C23.8524 16.0244 24.3366 15.8805 24.6852 15.5928C25.0394 15.305 25.2165 14.9121 25.2165 14.4141C25.2165 13.9382 25.0421 13.5646 24.6935 13.2935C24.3504 13.0223 23.869 12.8867 23.2492 12.8867H21.7799Z"/>
</mask>
<path d="M17.9782 18H14.8986L13.0475 14.937C12.9092 14.7046 12.7763 14.4971 12.6491 14.3145C12.5218 14.1318 12.3917 13.9769 12.2589 13.8496C12.1317 13.7168 11.9961 13.6172 11.8522 13.5508C11.7138 13.4788 11.5617 13.4429 11.3957 13.4429H10.6735V18H7.99233V6.09668H12.2423C15.131 6.09668 16.5753 7.17578 16.5753 9.33398C16.5753 9.74902 16.5117 10.1336 16.3844 10.4878C16.2571 10.8364 16.0773 11.1519 15.8449 11.4341C15.6124 11.7163 15.3302 11.9598 14.9982 12.1646C14.6717 12.3693 14.3065 12.5298 13.9025 12.646V12.6792C14.0796 12.7345 14.2511 12.8258 14.4171 12.9531C14.5832 13.0749 14.7436 13.2188 14.8986 13.3848C15.0535 13.5508 15.2002 13.7306 15.3385 13.9243C15.4824 14.1125 15.6124 14.2979 15.7287 14.4805L17.9782 18ZM10.6735 8.10547V11.4175H11.8356C12.4111 11.4175 12.8732 11.2515 13.2218 10.9194C13.576 10.5819 13.7531 10.1641 13.7531 9.66602C13.7531 8.62565 13.1305 8.10547 11.8854 8.10547H10.6735ZM19.0988 18V6.09668H23.4318C24.7599 6.09668 25.7809 6.34017 26.4948 6.82715C27.2086 7.31413 27.5656 8.00033 27.5656 8.88574C27.5656 9.52767 27.347 10.0894 26.9098 10.5708C26.4782 11.0522 25.9248 11.387 25.2497 11.5752V11.6084C26.0963 11.7135 26.7715 12.0262 27.275 12.5464C27.7842 13.0666 28.0387 13.7002 28.0387 14.4473C28.0387 15.5374 27.6486 16.4035 26.8683 17.0454C26.088 17.6818 25.0228 18 23.6725 18H19.0988ZM21.7799 8.07227V10.8945H22.9586C23.512 10.8945 23.9464 10.7617 24.2619 10.4961C24.5828 10.2249 24.7433 9.85417 24.7433 9.38379C24.7433 8.50944 24.0903 8.07227 22.7843 8.07227H21.7799ZM21.7799 12.8867V16.0244H23.2326C23.8524 16.0244 24.3366 15.8805 24.6852 15.5928C25.0394 15.305 25.2165 14.9121 25.2165 14.4141C25.2165 13.9382 25.0421 13.5646 24.6935 13.2935C24.3504 13.0223 23.869 12.8867 23.2492 12.8867H21.7799Z" fill="black"/>
<path d="M17.9782 18V18.11H18.179L18.0709 17.9408L17.9782 18ZM14.8986 18L14.8044 18.0569L14.8365 18.11H14.8986V18ZM13.0475 14.937L12.953 14.9933L12.9534 14.9939L13.0475 14.937ZM12.2589 13.8496L12.1794 13.9258L12.1828 13.929L12.2589 13.8496ZM11.8522 13.5508L11.8014 13.6485L11.8061 13.6507L11.8522 13.5508ZM10.6735 13.4429V13.3329H10.5635V13.4429H10.6735ZM10.6735 18V18.11H10.7835V18H10.6735ZM7.99233 18H7.88233V18.11H7.99233V18ZM7.99233 6.09668V5.98668H7.88233V6.09668H7.99233ZM16.3844 10.4878L16.4878 10.5255L16.4879 10.525L16.3844 10.4878ZM14.9982 12.1646L14.9405 12.0709L14.9397 12.0714L14.9982 12.1646ZM13.9025 12.646L13.8721 12.5403L13.7925 12.5632V12.646H13.9025ZM13.9025 12.6792H13.7925V12.7601L13.8697 12.7842L13.9025 12.6792ZM14.4171 12.9531L14.3502 13.0404L14.3521 13.0418L14.4171 12.9531ZM15.3385 13.9243L15.249 13.9883L15.2511 13.9911L15.3385 13.9243ZM15.7287 14.4805L15.6359 14.5395L15.636 14.5397L15.7287 14.4805ZM10.6735 8.10547V7.99547H10.5635V8.10547H10.6735ZM10.6735 11.4175H10.5635V11.5275H10.6735V11.4175ZM13.2218 10.9194L13.2977 10.9991L13.2977 10.9991L13.2218 10.9194ZM17.9782 17.89H14.8986V18.11H17.9782V17.89ZM14.9927 17.9431L13.1417 14.8801L12.9534 14.9939L14.8044 18.0569L14.9927 17.9431ZM13.142 14.8807C13.0026 14.6465 12.8684 14.4367 12.7393 14.2516L12.5588 14.3774C12.6843 14.5574 12.8157 14.7627 12.953 14.9933L13.142 14.8807ZM12.7393 14.2516C12.6087 14.0642 12.4741 13.9034 12.335 13.7702L12.1828 13.929C12.3094 14.0504 12.4349 14.1995 12.5588 14.3774L12.7393 14.2516ZM12.3384 13.7735C12.2031 13.6323 12.0565 13.5239 11.8983 13.4509L11.8061 13.6507C11.9356 13.7104 12.0602 13.8013 12.1795 13.9257L12.3384 13.7735ZM11.9029 13.4532C11.7479 13.3726 11.5782 13.3329 11.3957 13.3329V13.5529C11.5452 13.5529 11.6798 13.5851 11.8014 13.6484L11.9029 13.4532ZM11.3957 13.3329H10.6735V13.5529H11.3957V13.3329ZM10.5635 13.4429V18H10.7835V13.4429H10.5635ZM10.6735 17.89H7.99233V18.11H10.6735V17.89ZM8.10233 18V6.09668H7.88233V18H8.10233ZM7.99233 6.20668H12.2423V5.98668H7.99233V6.20668ZM12.2423 6.20668C13.6762 6.20668 14.7315 6.47505 15.4263 6.99413C16.115 7.5087 16.4653 8.28188 16.4653 9.33398H16.6853C16.6853 8.22788 16.3135 7.38241 15.5579 6.81788C14.8084 6.25786 13.6972 5.98668 12.2423 5.98668V6.20668ZM16.4653 9.33398C16.4653 9.73764 16.4035 10.1095 16.2809 10.4506L16.4879 10.525C16.6199 10.1577 16.6853 9.76041 16.6853 9.33398H16.4653ZM16.2811 10.4501C16.158 10.7872 15.9843 11.0917 15.76 11.3642L15.9298 11.504C16.1702 11.212 16.3563 10.8857 16.4878 10.5255L16.2811 10.4501ZM15.76 11.3642C15.5357 11.6364 15.2629 11.8721 14.9405 12.0709L15.0559 12.2582C15.3976 12.0475 15.6892 11.7962 15.9298 11.504L15.76 11.3642ZM14.9397 12.0714C14.6227 12.2702 14.2671 12.4267 13.8721 12.5403L13.9329 12.7517C14.3459 12.6329 14.7207 12.4684 15.0566 12.2577L14.9397 12.0714ZM13.7925 12.646V12.6792H14.0125V12.646H13.7925ZM13.8697 12.7842C14.033 12.8352 14.1931 12.92 14.3502 13.0404L14.4841 12.8658C14.3091 12.7317 14.1262 12.6339 13.9353 12.5742L13.8697 12.7842ZM14.3521 13.0418C14.512 13.1591 14.6674 13.2983 14.8182 13.4598L14.979 13.3097C14.8198 13.1392 14.6543 12.9906 14.4822 12.8644L14.3521 13.0418ZM14.8182 13.4598C14.9697 13.6222 15.1133 13.7983 15.249 13.9883L15.428 13.8604C15.287 13.663 15.1374 13.4794 14.979 13.3097L14.8182 13.4598ZM15.2511 13.9911C15.3933 14.177 15.5215 14.3598 15.6359 14.5395L15.8215 14.4214C15.7034 14.2359 15.5715 14.0479 15.4259 13.8575L15.2511 13.9911ZM15.636 14.5397L17.8855 18.0592L18.0709 17.9408L15.8213 14.4212L15.636 14.5397ZM10.5635 8.10547V11.4175H10.7835V8.10547H10.5635ZM10.6735 11.5275H11.8356V11.3075H10.6735V11.5275ZM11.8356 11.5275C12.4335 11.5275 12.9247 11.3543 13.2977 10.9991L13.146 10.8398C12.8217 11.1486 12.3887 11.3075 11.8356 11.3075V11.5275ZM13.2977 10.9991C13.6741 10.6403 13.8631 10.1935 13.8631 9.66602H13.6431C13.6431 10.1346 13.4779 10.5234 13.1459 10.8398L13.2977 10.9991ZM13.8631 9.66602C13.8631 9.12317 13.6997 8.69781 13.3567 8.41119C13.0174 8.12774 12.5206 7.99547 11.8854 7.99547V8.21547C12.4953 8.21547 12.9323 8.34329 13.2156 8.58002C13.4952 8.81358 13.6431 9.1685 13.6431 9.66602H13.8631ZM11.8854 7.99547H10.6735V8.21547H11.8854V7.99547ZM19.0988 18H18.9888V18.11H19.0988V18ZM19.0988 6.09668V5.98668H18.9888V6.09668H19.0988ZM26.9098 10.5708L26.8284 10.4969L26.8279 10.4974L26.9098 10.5708ZM25.2497 11.5752L25.2201 11.4692L25.1397 11.4917V11.5752H25.2497ZM25.2497 11.6084H25.1397V11.7056L25.2361 11.7176L25.2497 11.6084ZM27.275 12.5464L27.196 12.6229L27.1964 12.6233L27.275 12.5464ZM26.8683 17.0454L26.9378 17.1307L26.9382 17.1304L26.8683 17.0454ZM21.7799 8.07227V7.96227H21.6699V8.07227H21.7799ZM21.7799 10.8945H21.6699V11.0045H21.7799V10.8945ZM24.2619 10.4961L24.3327 10.5802L24.3329 10.5801L24.2619 10.4961ZM21.7799 12.8867V12.7767H21.6699V12.8867H21.7799ZM21.7799 16.0244H21.6699V16.1344H21.7799V16.0244ZM24.6852 15.5928L24.6158 15.5074L24.6152 15.5079L24.6852 15.5928ZM24.6935 13.2935L24.6253 13.3798L24.626 13.3803L24.6935 13.2935ZM19.2088 18V6.09668H18.9888V18H19.2088ZM19.0988 6.20668H23.4318V5.98668H19.0988V6.20668ZM23.4318 6.20668C24.7489 6.20668 25.7446 6.44854 26.4328 6.91802L26.5568 6.73628C25.8172 6.23179 24.771 5.98668 23.4318 5.98668V6.20668ZM26.4328 6.91802C27.1157 7.38391 27.4556 8.03562 27.4556 8.88574H27.6756C27.6756 7.96503 27.3015 7.24435 26.5568 6.73628L26.4328 6.91802ZM27.4556 8.88574C27.4556 9.49993 27.2474 10.0354 26.8284 10.4969L26.9912 10.6447C27.4465 10.1434 27.6756 9.5554 27.6756 8.88574H27.4556ZM26.8279 10.4974C26.4114 10.9619 25.8768 11.2862 25.2201 11.4692L25.2792 11.6812C25.9728 11.4879 26.5449 11.1426 26.9917 10.6442L26.8279 10.4974ZM25.1397 11.5752V11.6084H25.3597V11.5752H25.1397ZM25.2361 11.7176C26.0625 11.8202 26.7129 12.1238 27.196 12.6229L27.3541 12.4699C26.83 11.9286 26.1302 11.6069 25.2632 11.4992L25.2361 11.7176ZM27.1964 12.6233C27.6848 13.1224 27.9287 13.7281 27.9287 14.4473H28.1487C28.1487 13.6723 27.8835 13.0108 27.3537 12.4694L27.1964 12.6233ZM27.9287 14.4473C27.9287 15.5075 27.5511 16.3412 26.7984 16.9605L26.9382 17.1304C27.7461 16.4657 28.1487 15.5674 28.1487 14.4473H27.9287ZM26.7988 16.9602C26.0439 17.5758 25.0061 17.89 23.6725 17.89V18.11C25.0395 18.11 26.1321 17.7878 26.9378 17.1307L26.7988 16.9602ZM23.6725 17.89H19.0988V18.11H23.6725V17.89ZM21.6699 8.07227V10.8945H21.8899V8.07227H21.6699ZM21.7799 11.0045H22.9586V10.7845H21.7799V11.0045ZM22.9586 11.0045C23.529 11.0045 23.9916 10.8675 24.3327 10.5802L24.191 10.412C23.9013 10.6559 23.495 10.7845 22.9586 10.7845V11.0045ZM24.3329 10.5801C24.6817 10.2854 24.8533 9.8822 24.8533 9.38379H24.6333C24.6333 9.82613 24.484 10.1645 24.1909 10.4121L24.3329 10.5801ZM24.8533 9.38379C24.8533 8.91477 24.6756 8.55031 24.3148 8.30874C23.9618 8.0724 23.4461 7.96227 22.7843 7.96227V8.18227C23.4285 8.18227 23.8924 8.29071 24.1924 8.49155C24.4845 8.68716 24.6333 8.97846 24.6333 9.38379H24.8533ZM22.7843 7.96227H21.7799V8.18227H22.7843V7.96227ZM21.6699 12.8867V16.0244H21.8899V12.8867H21.6699ZM21.7799 16.1344H23.2326V15.9144H21.7799V16.1344ZM23.2326 16.1344C23.8685 16.1344 24.3807 15.9868 24.7552 15.6776L24.6152 15.5079C24.2925 15.7743 23.8362 15.9144 23.2326 15.9144V16.1344ZM24.7546 15.6781C25.137 15.3674 25.3265 14.9418 25.3265 14.4141H25.1065C25.1065 14.8824 24.9417 15.2426 24.6158 15.5074L24.7546 15.6781ZM25.3265 14.4141C25.3265 13.9072 25.1388 13.5004 24.761 13.2066L24.626 13.3803C24.9455 13.6288 25.1065 13.9691 25.1065 14.4141H25.3265ZM24.7617 13.2072C24.3925 12.9154 23.8836 12.7767 23.2492 12.7767V12.9967C23.8543 12.9967 24.3083 13.1292 24.6253 13.3798L24.7617 13.2072ZM23.2492 12.7767H21.7799V12.9967H23.2492V12.7767Z" fill="black" mask="url(#path-2-outside-1_2_170)"/>
</svg>
