<svg width="26" height="26" viewBox="0 0 26 26" fill="none" xmlns="http://www.w3.org/2000/svg">
<rect y="3.75" width="25.5" height="12" rx="6" fill="#D6E1F6"/>
<rect x="6.75" y="15.75" width="12" height="6" fill="#D6E1F6"/>
<mask id="path-3-outside-1_2_483" maskUnits="userSpaceOnUse" x="8.25" y="4.625" width="9" height="11" fill="black">
<rect fill="white" x="8.25" y="4.625" width="9" height="11"/>
<path d="M16.7604 14.625H14.4507L13.0624 12.3278C12.9586 12.1534 12.859 11.9978 12.7635 11.8608C12.6681 11.7239 12.5706 11.6077 12.4709 11.5122C12.3755 11.4126 12.2738 11.3379 12.1659 11.2881C12.0621 11.2341 11.948 11.2072 11.8235 11.2072H11.2819V14.625H9.271V5.69751H12.4585C14.625 5.69751 15.7083 6.50684 15.7083 8.12549C15.7083 8.43677 15.6605 8.72522 15.5651 8.99084C15.4696 9.25232 15.3347 9.48889 15.1604 9.70056C14.9861 9.91223 14.7744 10.0948 14.5254 10.2484C14.2805 10.402 14.0066 10.5223 13.7036 10.6095V10.6344C13.8364 10.6759 13.9651 10.7444 14.0896 10.8398C14.2141 10.9312 14.3345 11.0391 14.4507 11.1636C14.5669 11.2881 14.6769 11.423 14.7806 11.5682C14.8885 11.7094 14.9861 11.8484 15.0732 11.9854L16.7604 14.625ZM11.2819 7.2041V9.68811H12.1534C12.5851 9.68811 12.9316 9.5636 13.1931 9.31458C13.4587 9.0614 13.5916 8.74805 13.5916 8.37451C13.5916 7.59424 13.1246 7.2041 12.1908 7.2041H11.2819Z"/>
</mask>
<path d="M16.7604 14.625H14.4507L13.0624 12.3278C12.9586 12.1534 12.859 11.9978 12.7635 11.8608C12.6681 11.7239 12.5706 11.6077 12.4709 11.5122C12.3755 11.4126 12.2738 11.3379 12.1659 11.2881C12.0621 11.2341 11.948 11.2072 11.8235 11.2072H11.2819V14.625H9.271V5.69751H12.4585C14.625 5.69751 15.7083 6.50684 15.7083 8.12549C15.7083 8.43677 15.6605 8.72522 15.5651 8.99084C15.4696 9.25232 15.3347 9.48889 15.1604 9.70056C14.9861 9.91223 14.7744 10.0948 14.5254 10.2484C14.2805 10.402 14.0066 10.5223 13.7036 10.6095V10.6344C13.8364 10.6759 13.9651 10.7444 14.0896 10.8398C14.2141 10.9312 14.3345 11.0391 14.4507 11.1636C14.5669 11.2881 14.6769 11.423 14.7806 11.5682C14.8885 11.7094 14.9861 11.8484 15.0732 11.9854L16.7604 14.625ZM11.2819 7.2041V9.68811H12.1534C12.5851 9.68811 12.9316 9.5636 13.1931 9.31458C13.4587 9.0614 13.5916 8.74805 13.5916 8.37451C13.5916 7.59424 13.1246 7.2041 12.1908 7.2041H11.2819Z" fill="#1C212A"/>
<path d="M16.7604 14.625V14.7H16.8973L16.8236 14.5846L16.7604 14.625ZM14.4507 14.625L14.3865 14.6638L14.4084 14.7H14.4507V14.625ZM13.0624 12.3278L12.9979 12.3661L12.9982 12.3666L13.0624 12.3278ZM12.4709 11.5122L12.4167 11.5641L12.4191 11.5664L12.4709 11.5122ZM12.1659 11.2881L12.1313 11.3547L12.1345 11.3562L12.1659 11.2881ZM11.2819 11.2072V11.1322H11.2069V11.2072H11.2819ZM11.2819 14.625V14.7H11.3569V14.625H11.2819ZM9.271 14.625H9.196V14.7H9.271V14.625ZM9.271 5.69751V5.62251H9.196V5.69751H9.271ZM15.5651 8.99084L15.6355 9.01657L15.6356 9.01621L15.5651 8.99084ZM14.5254 10.2484L14.486 10.1846L14.4855 10.1849L14.5254 10.2484ZM13.7036 10.6095L13.6829 10.5374L13.6286 10.553V10.6095H13.7036ZM13.7036 10.6344H13.6286V10.6895L13.6812 10.706L13.7036 10.6344ZM14.0896 10.8398L14.044 10.8994L14.0452 10.9003L14.0896 10.8398ZM14.7806 11.5682L14.7196 11.6119L14.7211 11.6138L14.7806 11.5682ZM15.0732 11.9854L15.01 12.0256L15.01 12.0257L15.0732 11.9854ZM11.2819 7.2041V7.1291H11.2069V7.2041H11.2819ZM11.2819 9.68811H11.2069V9.76311H11.2819V9.68811ZM13.1931 9.31458L13.2448 9.36889L13.2449 9.36887L13.1931 9.31458ZM16.7604 14.55H14.4507V14.7H16.7604V14.55ZM14.5149 14.5862L13.1266 12.289L12.9982 12.3666L14.3865 14.6638L14.5149 14.5862ZM13.1268 12.2894C13.0223 12.1139 12.9218 11.9567 12.8251 11.818L12.702 11.9037C12.7963 12.0389 12.8949 12.193 12.9979 12.3661L13.1268 12.2894ZM12.8251 11.818C12.7274 11.6777 12.6267 11.5576 12.5228 11.4581L12.4191 11.5664C12.5144 11.6578 12.6088 11.77 12.702 11.9037L12.8251 11.818ZM12.5251 11.4603C12.4242 11.355 12.315 11.2743 12.1973 11.22L12.1345 11.3562C12.2326 11.4015 12.3268 11.4702 12.4168 11.5641L12.5251 11.4603ZM12.2005 11.2215C12.0854 11.1617 11.9592 11.1322 11.8235 11.1322V11.2822C11.9368 11.2822 12.0389 11.3066 12.1313 11.3546L12.2005 11.2215ZM11.8235 11.1322H11.2819V11.2822H11.8235V11.1322ZM11.2069 11.2072V14.625H11.3569V11.2072H11.2069ZM11.2819 14.55H9.271V14.7H11.2819V14.55ZM9.346 14.625V5.69751H9.196V14.625H9.346ZM9.271 5.77251H12.4585V5.62251H9.271V5.77251ZM12.4585 5.77251C13.5346 5.77251 14.328 5.97389 14.8509 6.36459C15.3698 6.75222 15.6333 7.33457 15.6333 8.12549H15.7833C15.7833 7.29775 15.5051 6.66611 14.9407 6.24442C14.3804 5.8258 13.5489 5.62251 12.4585 5.62251V5.77251ZM15.6333 8.12549C15.6333 8.42901 15.5867 8.70879 15.4945 8.96548L15.6356 9.01621C15.7343 8.74165 15.7833 8.44453 15.7833 8.12549H15.6333ZM15.4946 8.96512C15.402 9.21874 15.2713 9.44787 15.1025 9.65288L15.2183 9.74824C15.3981 9.52991 15.5372 9.28589 15.6355 9.01657L15.4946 8.96512ZM15.1025 9.65288C14.9338 9.85777 14.7285 10.0351 14.486 10.1846L14.5648 10.3123C14.8203 10.1546 15.0384 9.96669 15.2183 9.74824L15.1025 9.65288ZM14.4855 10.1849C14.2471 10.3344 13.9797 10.452 13.6829 10.5374L13.7243 10.6816C14.0335 10.5927 14.3139 10.4696 14.5652 10.312L14.4855 10.1849ZM13.6286 10.6095V10.6344H13.7786V10.6095H13.6286ZM13.6812 10.706C13.8047 10.7446 13.9256 10.8086 14.044 10.8994L14.1352 10.7803C14.0046 10.6802 13.8682 10.6073 13.726 10.5628L13.6812 10.706ZM14.0452 10.9003C14.1656 10.9886 14.2825 11.0933 14.3959 11.2147L14.5055 11.1124C14.3864 10.9848 14.2626 10.8737 14.134 10.7794L14.0452 10.9003ZM14.3959 11.2147C14.5097 11.3368 14.6177 11.4691 14.7196 11.6118L14.8417 11.5246C14.7361 11.3768 14.6241 11.2394 14.5055 11.1124L14.3959 11.2147ZM14.7211 11.6138C14.8278 11.7534 14.9241 11.8906 15.01 12.0256L15.1365 11.9451C15.0481 11.8061 14.9493 11.6653 14.8402 11.5227L14.7211 11.6138ZM15.01 12.0257L16.6972 14.6654L16.8236 14.5846L15.1364 11.945L15.01 12.0257ZM11.2069 7.2041V9.68811H11.3569V7.2041H11.2069ZM11.2819 9.76311H12.1534V9.61311H11.2819V9.76311ZM12.1534 9.76311C12.6003 9.76311 12.9668 9.63372 13.2448 9.36889L13.1414 9.26026C12.8965 9.49348 12.5698 9.61311 12.1534 9.61311V9.76311ZM13.2449 9.36887C13.5256 9.10125 13.6666 8.76815 13.6666 8.37451H13.5166C13.5166 8.72795 13.3918 9.02155 13.1414 9.26029L13.2449 9.36887ZM13.6666 8.37451C13.6666 7.96892 13.5446 7.6523 13.2895 7.43915C13.0369 7.22815 12.6663 7.1291 12.1908 7.1291V7.2791C12.6491 7.2791 12.9789 7.37512 13.1933 7.55426C13.4051 7.73124 13.5166 7.99983 13.5166 8.37451H13.6666ZM12.1908 7.1291H11.2819V7.2791H12.1908V7.1291Z" fill="#1C212A" mask="url(#path-3-outside-1_2_483)"/>
</svg>
