<svg width="26" height="26" viewBox="0 0 26 26" fill="none" xmlns="http://www.w3.org/2000/svg">
<circle cx="12.75" cy="12.75" r="9" fill="#D6E1F6"/>
<circle cx="12.75" cy="12.75" r="8.30769" fill="#1C212A"/>
<circle cx="12.75" cy="12.75" r="7.61538" fill="#D6E1F6"/>
<mask id="path-4-outside-1_2_393" maskUnits="userSpaceOnUse" x="8.625" y="7.25" width="9" height="11" fill="black">
<rect fill="white" x="8.625" y="7.25" width="9" height="11"/>
<path d="M17.1354 17.25H14.8257L13.4374 14.9528C13.3336 14.7784 13.234 14.6228 13.1385 14.4858C13.0431 14.3489 12.9456 14.2327 12.8459 14.1372C12.7505 14.0376 12.6488 13.9629 12.5409 13.9131C12.4371 13.8591 12.323 13.8322 12.1985 13.8322H11.6569V17.25H9.646V8.32251H12.8335C15 8.32251 16.0833 9.13184 16.0833 10.7505C16.0833 11.0618 16.0355 11.3502 15.9401 11.6158C15.8446 11.8773 15.7097 12.1139 15.5354 12.3256C15.3611 12.5372 15.1494 12.7198 14.9004 12.8734C14.6555 13.027 14.3816 13.1473 14.0786 13.2345V13.2594C14.2114 13.3009 14.3401 13.3694 14.4646 13.4648C14.5891 13.5562 14.7095 13.6641 14.8257 13.7886C14.9419 13.9131 15.0519 14.048 15.1556 14.1932C15.2635 14.3344 15.3611 14.4734 15.4482 14.6104L17.1354 17.25ZM11.6569 9.8291V12.3131H12.5284C12.9601 12.3131 13.3066 12.1886 13.5681 11.9396C13.8337 11.6864 13.9666 11.373 13.9666 10.9995C13.9666 10.2192 13.4996 9.8291 12.5658 9.8291H11.6569Z"/>
</mask>
<path d="M17.1354 17.25H14.8257L13.4374 14.9528C13.3336 14.7784 13.234 14.6228 13.1385 14.4858C13.0431 14.3489 12.9456 14.2327 12.8459 14.1372C12.7505 14.0376 12.6488 13.9629 12.5409 13.9131C12.4371 13.8591 12.323 13.8322 12.1985 13.8322H11.6569V17.25H9.646V8.32251H12.8335C15 8.32251 16.0833 9.13184 16.0833 10.7505C16.0833 11.0618 16.0355 11.3502 15.9401 11.6158C15.8446 11.8773 15.7097 12.1139 15.5354 12.3256C15.3611 12.5372 15.1494 12.7198 14.9004 12.8734C14.6555 13.027 14.3816 13.1473 14.0786 13.2345V13.2594C14.2114 13.3009 14.3401 13.3694 14.4646 13.4648C14.5891 13.5562 14.7095 13.6641 14.8257 13.7886C14.9419 13.9131 15.0519 14.048 15.1556 14.1932C15.2635 14.3344 15.3611 14.4734 15.4482 14.6104L17.1354 17.25ZM11.6569 9.8291V12.3131H12.5284C12.9601 12.3131 13.3066 12.1886 13.5681 11.9396C13.8337 11.6864 13.9666 11.373 13.9666 10.9995C13.9666 10.2192 13.4996 9.8291 12.5658 9.8291H11.6569Z" fill="#1C212A"/>
<path d="M17.1354 17.25V17.325H17.2723L17.1986 17.2096L17.1354 17.25ZM14.8257 17.25L14.7615 17.2888L14.7834 17.325H14.8257V17.25ZM13.4374 14.9528L13.3729 14.9911L13.3732 14.9916L13.4374 14.9528ZM12.8459 14.1372L12.7917 14.1891L12.7941 14.1914L12.8459 14.1372ZM12.5409 13.9131L12.5063 13.9797L12.5095 13.9812L12.5409 13.9131ZM11.6569 13.8322V13.7572H11.5819V13.8322H11.6569ZM11.6569 17.25V17.325H11.7319V17.25H11.6569ZM9.646 17.25H9.571V17.325H9.646V17.25ZM9.646 8.32251V8.24751H9.571V8.32251H9.646ZM15.9401 11.6158L16.0105 11.6416L16.0106 11.6412L15.9401 11.6158ZM14.9004 12.8734L14.861 12.8096L14.8605 12.8099L14.9004 12.8734ZM14.0786 13.2345L14.0579 13.1624L14.0036 13.178V13.2345H14.0786ZM14.0786 13.2594H14.0036V13.3145L14.0562 13.331L14.0786 13.2594ZM14.4646 13.4648L14.419 13.5244L14.4202 13.5253L14.4646 13.4648ZM15.1556 14.1932L15.0946 14.2369L15.0961 14.2388L15.1556 14.1932ZM15.4482 14.6104L15.385 14.6506L15.385 14.6507L15.4482 14.6104ZM11.6569 9.8291V9.7541H11.5819V9.8291H11.6569ZM11.6569 12.3131H11.5819V12.3881H11.6569V12.3131ZM13.5681 11.9396L13.6198 11.9939L13.6199 11.9939L13.5681 11.9396ZM17.1354 17.175H14.8257V17.325H17.1354V17.175ZM14.8899 17.2112L13.5016 14.914L13.3732 14.9916L14.7615 17.2888L14.8899 17.2112ZM13.5018 14.9144C13.3973 14.7389 13.2968 14.5817 13.2001 14.443L13.077 14.5287C13.1713 14.6639 13.2699 14.818 13.3729 14.9911L13.5018 14.9144ZM13.2001 14.443C13.1024 14.3027 13.0017 14.1826 12.8978 14.0831L12.7941 14.1914C12.8894 14.2828 12.9838 14.395 13.077 14.5287L13.2001 14.443ZM12.9001 14.0853C12.7992 13.98 12.69 13.8993 12.5723 13.845L12.5095 13.9812C12.6076 14.0265 12.7018 14.0952 12.7918 14.1891L12.9001 14.0853ZM12.5755 13.8465C12.4604 13.7867 12.3342 13.7572 12.1985 13.7572V13.9072C12.3118 13.9072 12.4139 13.9316 12.5063 13.9796L12.5755 13.8465ZM12.1985 13.7572H11.6569V13.9072H12.1985V13.7572ZM11.5819 13.8322V17.25H11.7319V13.8322H11.5819ZM11.6569 17.175H9.646V17.325H11.6569V17.175ZM9.721 17.25V8.32251H9.571V17.25H9.721ZM9.646 8.39751H12.8335V8.24751H9.646V8.39751ZM12.8335 8.39751C13.9096 8.39751 14.703 8.59889 15.2259 8.98959C15.7448 9.37722 16.0083 9.95957 16.0083 10.7505H16.1583C16.1583 9.92275 15.8801 9.29111 15.3157 8.86942C14.7554 8.4508 13.9239 8.24751 12.8335 8.24751V8.39751ZM16.0083 10.7505C16.0083 11.054 15.9617 11.3338 15.8695 11.5905L16.0106 11.6412C16.1093 11.3667 16.1583 11.0695 16.1583 10.7505H16.0083ZM15.8696 11.5901C15.777 11.8437 15.6463 12.0729 15.4775 12.2779L15.5933 12.3732C15.7731 12.1549 15.9122 11.9109 16.0105 11.6416L15.8696 11.5901ZM15.4775 12.2779C15.3088 12.4828 15.1035 12.6601 14.861 12.8096L14.9398 12.9373C15.1953 12.7796 15.4134 12.5917 15.5933 12.3732L15.4775 12.2779ZM14.8605 12.8099C14.6221 12.9594 14.3547 13.077 14.0579 13.1624L14.0993 13.3066C14.4085 13.2177 14.6889 13.0946 14.9402 12.937L14.8605 12.8099ZM14.0036 13.2345V13.2594H14.1536V13.2345H14.0036ZM14.0562 13.331C14.1797 13.3696 14.3006 13.4336 14.419 13.5244L14.5102 13.4053C14.3796 13.3052 14.2432 13.2323 14.101 13.1878L14.0562 13.331ZM14.4202 13.5253C14.5406 13.6136 14.6575 13.7183 14.7709 13.8397L14.8805 13.7374C14.7614 13.6098 14.6376 13.4987 14.509 13.4044L14.4202 13.5253ZM14.7709 13.8397C14.8847 13.9618 14.9927 14.0941 15.0946 14.2368L15.2167 14.1496C15.1111 14.0018 14.9991 13.8644 14.8805 13.7374L14.7709 13.8397ZM15.0961 14.2388C15.2028 14.3784 15.2991 14.5156 15.385 14.6506L15.5115 14.5701C15.4231 14.4311 15.3243 14.2903 15.2152 14.1477L15.0961 14.2388ZM15.385 14.6507L17.0722 17.2904L17.1986 17.2096L15.5114 14.57L15.385 14.6507ZM11.5819 9.8291V12.3131H11.7319V9.8291H11.5819ZM11.6569 12.3881H12.5284V12.2381H11.6569V12.3881ZM12.5284 12.3881C12.9753 12.3881 13.3418 12.2587 13.6198 11.9939L13.5164 11.8853C13.2715 12.1185 12.9448 12.2381 12.5284 12.2381V12.3881ZM13.6199 11.9939C13.9006 11.7263 14.0416 11.3931 14.0416 10.9995H13.8916C13.8916 11.3529 13.7668 11.6466 13.5164 11.8853L13.6199 11.9939ZM14.0416 10.9995C14.0416 10.5939 13.9196 10.2773 13.6645 10.0642C13.4119 9.85315 13.0413 9.7541 12.5658 9.7541V9.9041C13.0241 9.9041 13.3539 10.0001 13.5683 10.1793C13.7801 10.3562 13.8916 10.6248 13.8916 10.9995H14.0416ZM12.5658 9.7541H11.6569V9.9041H12.5658V9.7541Z" fill="#1C212A" mask="url(#path-4-outside-1_2_393)"/>
<path d="M17.9649 4.08139C14.2931 2.20875 11.7582 2.20097 7.6019 4.09641C7.51787 4.13473 7.44392 4.01018 7.51937 3.95692L13.0789 0.0325197C13.1062 0.0132584 13.143 0.0143622 13.169 0.0352271L18.0554 3.94436C18.1272 4.00178 18.0468 4.12316 17.9649 4.08139Z" fill="#D6E1F6"/>
<path d="M17.9649 21.4186C14.2931 23.2913 11.7582 23.299 7.6019 21.4036C7.51787 21.3653 7.44392 21.4898 7.51937 21.5431L13.0789 25.4675C13.1062 25.4867 13.143 25.4856 13.169 25.4648L18.0554 21.5556C18.1272 21.4982 18.0468 21.3768 17.9649 21.4186Z" fill="#D6E1F6"/>
<path d="M21.4186 7.91005C23.2913 11.5819 23.299 14.1168 21.4036 18.2731C21.3653 18.3571 21.4898 18.4311 21.5431 18.3556L25.4675 12.7961C25.4867 12.7688 25.4856 12.732 25.4648 12.706L21.5556 7.81955C21.4982 7.74777 21.3768 7.82816 21.4186 7.91005Z" fill="#D6E1F6"/>
<path d="M4.08139 7.91005C2.20875 11.5819 2.20097 14.1168 4.09641 18.2731C4.13473 18.3571 4.01018 18.4311 3.95692 18.3556L0.0325197 12.7961C0.0132584 12.7688 0.0143622 12.732 0.0352271 12.706L3.94436 7.81955C4.00178 7.74777 4.12316 7.82816 4.08139 7.91005Z" fill="#D6E1F6"/>
</svg>
