<svg width="34" height="34" viewBox="0 0 34 34" fill="none" xmlns="http://www.w3.org/2000/svg">
<rect y="5" width="34" height="16" rx="8" fill="#FCFCFC"/>
<rect x="9" y="21" width="16" height="8" fill="#FCFCFC"/>
<mask id="path-3-outside-1_2_247" maskUnits="userSpaceOnUse" x="12" y="6.5" width="11" height="14" fill="black">
<rect fill="white" x="12" y="6.5" width="11" height="14"/>
<path d="M22.3472 19.5H19.2676L17.4165 16.437C17.2782 16.2046 17.1453 15.9971 17.0181 15.8145C16.8908 15.6318 16.7607 15.4769 16.6279 15.3496C16.5007 15.2168 16.3651 15.1172 16.2212 15.0508C16.0828 14.9788 15.9307 14.9429 15.7646 14.9429H15.0425V19.5H12.3613V7.59668H16.6113C19.5 7.59668 20.9443 8.67578 20.9443 10.834C20.9443 11.249 20.8807 11.6336 20.7534 11.9878C20.6261 12.3364 20.4463 12.6519 20.2139 12.9341C19.9814 13.2163 19.6992 13.4598 19.3672 13.6646C19.0407 13.8693 18.6755 14.0298 18.2715 14.146V14.1792C18.4486 14.2345 18.6201 14.3258 18.7861 14.4531C18.9521 14.5749 19.1126 14.7188 19.2676 14.8848C19.4225 15.0508 19.5692 15.2306 19.7075 15.4243C19.8514 15.6125 19.9814 15.7979 20.0977 15.9805L22.3472 19.5ZM15.0425 9.60547V12.9175H16.2046C16.7801 12.9175 17.2422 12.7515 17.5908 12.4194C17.945 12.0819 18.1221 11.6641 18.1221 11.166C18.1221 10.1257 17.4995 9.60547 16.2544 9.60547H15.0425Z"/>
</mask>
<path d="M22.3472 19.5H19.2676L17.4165 16.437C17.2782 16.2046 17.1453 15.9971 17.0181 15.8145C16.8908 15.6318 16.7607 15.4769 16.6279 15.3496C16.5007 15.2168 16.3651 15.1172 16.2212 15.0508C16.0828 14.9788 15.9307 14.9429 15.7646 14.9429H15.0425V19.5H12.3613V7.59668H16.6113C19.5 7.59668 20.9443 8.67578 20.9443 10.834C20.9443 11.249 20.8807 11.6336 20.7534 11.9878C20.6261 12.3364 20.4463 12.6519 20.2139 12.9341C19.9814 13.2163 19.6992 13.4598 19.3672 13.6646C19.0407 13.8693 18.6755 14.0298 18.2715 14.146V14.1792C18.4486 14.2345 18.6201 14.3258 18.7861 14.4531C18.9521 14.5749 19.1126 14.7188 19.2676 14.8848C19.4225 15.0508 19.5692 15.2306 19.7075 15.4243C19.8514 15.6125 19.9814 15.7979 20.0977 15.9805L22.3472 19.5ZM15.0425 9.60547V12.9175H16.2046C16.7801 12.9175 17.2422 12.7515 17.5908 12.4194C17.945 12.0819 18.1221 11.6641 18.1221 11.166C18.1221 10.1257 17.4995 9.60547 16.2544 9.60547H15.0425Z" fill="black"/>
<path d="M22.3472 19.5V19.6H22.5298L22.4314 19.4461L22.3472 19.5ZM19.2676 19.5L19.182 19.5517L19.2112 19.6H19.2676V19.5ZM17.4165 16.437L17.3306 16.4882L17.3309 16.4887L17.4165 16.437ZM16.6279 15.3496L16.5557 15.4189L16.5587 15.4218L16.6279 15.3496ZM16.2212 15.0508L16.175 15.1396L16.1793 15.1416L16.2212 15.0508ZM15.0425 14.9429V14.8429H14.9425V14.9429H15.0425ZM15.0425 19.5V19.6H15.1425V19.5H15.0425ZM12.3613 19.5H12.2613V19.6H12.3613V19.5ZM12.3613 7.59668V7.49668H12.2613V7.59668H12.3613ZM20.7534 11.9878L20.8474 12.0221L20.8475 12.0216L20.7534 11.9878ZM19.3672 13.6646L19.3147 13.5794L19.3141 13.5798L19.3672 13.6646ZM18.2715 14.146L18.2438 14.0499L18.1715 14.0707V14.146H18.2715ZM18.2715 14.1792H18.1715V14.2527L18.2417 14.2746L18.2715 14.1792ZM18.7861 14.4531L18.7253 14.5325L18.727 14.5338L18.7861 14.4531ZM19.7075 15.4243L19.6261 15.4825L19.6281 15.4851L19.7075 15.4243ZM20.0977 15.9805L20.0133 16.0342L20.0134 16.0343L20.0977 15.9805ZM15.0425 9.60547V9.50547H14.9425V9.60547H15.0425ZM15.0425 12.9175H14.9425V13.0175H15.0425V12.9175ZM17.5908 12.4194L17.6598 12.4918L17.6598 12.4918L17.5908 12.4194ZM22.3472 19.4H19.2676V19.6H22.3472V19.4ZM19.3532 19.4483L17.5021 16.3853L17.3309 16.4887L19.182 19.5517L19.3532 19.4483ZM17.5024 16.3859C17.3631 16.1518 17.229 15.9422 17.1001 15.7573L16.936 15.8716C17.0617 16.0519 17.1932 16.2574 17.3306 16.4882L17.5024 16.3859ZM17.1001 15.7573C16.9698 15.5703 16.8356 15.4101 16.6971 15.2774L16.5587 15.4218C16.6859 15.5437 16.8118 15.6933 16.936 15.8716L17.1001 15.7573ZM16.7001 15.2804C16.5656 15.14 16.42 15.0324 16.2631 14.96L16.1793 15.1416C16.3101 15.202 16.4357 15.2936 16.5557 15.4188L16.7001 15.2804ZM16.2673 14.9621C16.1138 14.8822 15.9457 14.8429 15.7646 14.8429V15.0429C15.9157 15.0429 16.0519 15.0754 16.1751 15.1395L16.2673 14.9621ZM15.7646 14.8429H15.0425V15.0429H15.7646V14.8429ZM14.9425 14.9429V19.5H15.1425V14.9429H14.9425ZM15.0425 19.4H12.3613V19.6H15.0425V19.4ZM12.4613 19.5V7.59668H12.2613V19.5H12.4613ZM12.3613 7.69668H16.6113V7.49668H12.3613V7.69668ZM16.6113 7.69668C18.0461 7.69668 19.104 7.96518 19.8012 8.48612C20.493 9.00296 20.8443 9.77943 20.8443 10.834H21.0443C21.0443 9.73034 20.6735 8.88815 19.9209 8.3259C19.1739 7.76773 18.0652 7.49668 16.6113 7.49668V7.69668ZM20.8443 10.834C20.8443 11.2387 20.7823 11.6117 20.6593 11.954L20.8475 12.0216C20.9791 11.6555 21.0443 11.2594 21.0443 10.834H20.8443ZM20.6595 11.9535C20.536 12.2917 20.3618 12.5972 20.1367 12.8705L20.2911 12.9977C20.5308 12.7066 20.7163 12.3812 20.8474 12.0221L20.6595 11.9535ZM20.1367 12.8705C19.9117 13.1437 19.638 13.3801 19.3147 13.5794L19.4197 13.7497C19.7604 13.5395 20.0512 13.2889 20.2911 12.9977L20.1367 12.8705ZM19.3141 13.5798C18.9962 13.7792 18.6396 13.936 18.2438 14.0499L18.2991 14.2421C18.7113 14.1235 19.0852 13.9594 19.4203 13.7493L19.3141 13.5798ZM18.1715 14.146V14.1792H18.3715V14.146H18.1715ZM18.2417 14.2746C18.4062 14.3261 18.5674 14.4114 18.7253 14.5325L18.847 14.3738C18.6728 14.2402 18.4909 14.143 18.3013 14.0838L18.2417 14.2746ZM18.727 14.5338C18.8875 14.6515 19.0434 14.7911 19.1945 14.953L19.3407 14.8165C19.1819 14.6464 19.0168 14.4983 18.8453 14.3725L18.727 14.5338ZM19.1945 14.953C19.3463 15.1157 19.4902 15.2921 19.6261 15.4824L19.7889 15.3662C19.6481 15.1691 19.4987 14.9859 19.3407 14.8165L19.1945 14.953ZM19.6281 15.4851C19.7704 15.6711 19.8988 15.8542 20.0133 16.0342L20.182 15.9268C20.0641 15.7415 19.9324 15.5538 19.787 15.3636L19.6281 15.4851ZM20.0134 16.0343L22.2629 19.5539L22.4314 19.4461L20.1819 15.9266L20.0134 16.0343ZM14.9425 9.60547V12.9175H15.1425V9.60547H14.9425ZM15.0425 13.0175H16.2046V12.8175H15.0425V13.0175ZM16.2046 13.0175C16.8005 13.0175 17.289 12.845 17.6598 12.4918L17.5219 12.347C17.1954 12.658 16.7598 12.8175 16.2046 12.8175V13.0175ZM17.6598 12.4918C18.0342 12.135 18.2221 11.6909 18.2221 11.166H18.0221C18.0221 11.6373 17.8558 12.0287 17.5218 12.347L17.6598 12.4918ZM18.2221 11.166C18.2221 10.6252 18.0594 10.2031 17.7193 9.91887C17.3826 9.63754 16.8884 9.50547 16.2544 9.50547V9.70547C16.8655 9.70547 17.3052 9.83349 17.591 10.0723C17.8735 10.3083 18.0221 10.6664 18.0221 11.166H18.2221ZM16.2544 9.50547H15.0425V9.70547H16.2544V9.50547Z" fill="black" mask="url(#path-3-outside-1_2_247)"/>
</svg>
