<svg width="32" height="32" viewBox="0 0 32 32" fill="none" xmlns="http://www.w3.org/2000/svg">
<circle cx="16" cy="16" r="12" fill="#FCFCFC"/>
<mask id="path-2-outside-1_2_27" maskUnits="userSpaceOnUse" x="9.30005" y="9" width="13" height="14" fill="black">
<rect fill="white" x="9.30005" y="9" width="13" height="14"/>
<path d="M21.3816 22H18.2024L16.1521 18.1235C16.0746 17.9797 15.9944 17.714 15.9114 17.3267H15.8782C15.8394 17.5093 15.7481 17.786 15.6042 18.1567L13.5457 22H10.3499L14.1433 16.0483L10.6736 10.0967H13.9358L15.6375 13.666C15.7703 13.9482 15.8892 14.283 15.9944 14.6704H16.0276C16.094 14.438 16.2185 14.0921 16.4011 13.6328L18.2937 10.0967H21.282L17.7126 15.9985L21.3816 22Z"/>
</mask>
<path d="M21.3816 22H18.2024L16.1521 18.1235C16.0746 17.9797 15.9944 17.714 15.9114 17.3267H15.8782C15.8394 17.5093 15.7481 17.786 15.6042 18.1567L13.5457 22H10.3499L14.1433 16.0483L10.6736 10.0967H13.9358L15.6375 13.666C15.7703 13.9482 15.8892 14.283 15.9944 14.6704H16.0276C16.094 14.438 16.2185 14.0921 16.4011 13.6328L18.2937 10.0967H21.282L17.7126 15.9985L21.3816 22Z" fill="black"/>
<path d="M21.3816 22V22.1H21.5599L21.4669 21.9478L21.3816 22ZM18.2024 22L18.114 22.0468L18.1422 22.1H18.2024V22ZM16.1521 18.1235L16.2405 18.0768L16.2401 18.0761L16.1521 18.1235ZM15.9114 17.3267L16.0092 17.3057L15.9922 17.2267H15.9114V17.3267ZM15.8782 17.3267V17.2267H15.7972L15.7804 17.3059L15.8782 17.3267ZM15.6042 18.1567L15.6931 18.2043L15.6975 18.1929L15.6042 18.1567ZM13.5457 22V22.1H13.6055L13.6338 22.0472L13.5457 22ZM10.3499 22L10.2655 21.9463L10.1675 22.1H10.3499V22ZM14.1433 16.0483L14.2276 16.1021L14.2604 16.0507L14.2297 15.998L14.1433 16.0483ZM10.6736 10.0967V9.99668H10.4995L10.5872 10.147L10.6736 10.0967ZM13.9358 10.0967L14.0261 10.0536L13.9989 9.99668H13.9358V10.0967ZM15.6375 13.666L15.7279 13.6234L15.7277 13.623L15.6375 13.666ZM15.9944 14.6704L15.8979 14.6966L15.9179 14.7704H15.9944V14.6704ZM16.0276 14.6704V14.7704H16.103L16.1237 14.6979L16.0276 14.6704ZM16.4011 13.6328L16.3124 13.5853L16.3082 13.5959L16.4011 13.6328ZM18.2937 10.0967V9.99668H18.2338L18.2055 10.0495L18.2937 10.0967ZM21.282 10.0967L21.3676 10.1484L21.4593 9.99668H21.282V10.0967ZM17.7126 15.9985L17.6271 15.9468L17.5956 15.9988L17.6273 16.0507L17.7126 15.9985ZM21.3816 21.9H18.2024V22.1H21.3816V21.9ZM18.2908 21.9532L16.2405 18.0768L16.0637 18.1703L18.114 22.0468L18.2908 21.9532ZM16.2401 18.0761C16.1701 17.9461 16.0922 17.6932 16.0092 17.3057L15.8136 17.3476C15.8966 17.7348 15.9791 18.0132 16.0641 18.1709L16.2401 18.0761ZM15.9114 17.2267H15.8782V17.4267H15.9114V17.2267ZM15.7804 17.3059C15.7434 17.4801 15.6546 17.7505 15.511 18.1206L15.6975 18.1929C15.8416 17.8214 15.9355 17.5384 15.976 17.3474L15.7804 17.3059ZM15.5161 18.1095L13.4575 21.9528L13.6338 22.0472L15.6924 18.204L15.5161 18.1095ZM13.5457 21.9H10.3499V22.1H13.5457V21.9ZM10.4342 22.0537L14.2276 16.1021L14.059 15.9946L10.2655 21.9463L10.4342 22.0537ZM14.2297 15.998L10.76 10.0463L10.5872 10.147L14.0569 16.0987L14.2297 15.998ZM10.6736 10.1967H13.9358V9.99668H10.6736V10.1967ZM13.8455 10.1397L15.5472 13.709L15.7277 13.623L14.0261 10.0536L13.8455 10.1397ZM15.547 13.7086C15.6767 13.9843 15.7939 14.3134 15.8979 14.6966L16.0909 14.6442C15.9846 14.2527 15.8638 13.9122 15.7279 13.6234L15.547 13.7086ZM15.9944 14.7704H16.0276V14.5704H15.9944V14.7704ZM16.1237 14.6979C16.1887 14.4705 16.3117 14.1285 16.494 13.6698L16.3082 13.5959C16.1253 14.0558 15.9993 14.4055 15.9314 14.6429L16.1237 14.6979ZM16.4893 13.68L18.3819 10.1439L18.2055 10.0495L16.313 13.5856L16.4893 13.68ZM18.2937 10.1967H21.282V9.99668H18.2937V10.1967ZM21.1964 10.0449L17.6271 15.9468L17.7982 16.0503L21.3676 10.1484L21.1964 10.0449ZM17.6273 16.0507L21.2963 22.0522L21.4669 21.9478L17.798 15.9464L17.6273 16.0507Z" fill="black" mask="url(#path-2-outside-1_2_27)"/>
</svg>
