<svg width="24" height="24" viewBox="0 0 24 24" fill="none" xmlns="http://www.w3.org/2000/svg">
<circle cx="12" cy="12" r="9" fill="#039AC9"/>
<mask id="path-2-outside-1_2_278" maskUnits="userSpaceOnUse" x="6.72504" y="6.5" width="10" height="11" fill="black">
<rect fill="white" x="6.72504" y="6.5" width="10" height="11"/>
<path d="M16.0362 16.5H13.6518L12.1141 13.5927C12.056 13.4847 11.9958 13.2855 11.9335 12.995H11.9086C11.8796 13.132 11.8111 13.3395 11.7032 13.6176L10.1592 16.5H7.76239L10.6075 12.0363L8.00519 7.57251H10.4518L11.7281 10.2495C11.8277 10.4612 11.9169 10.7123 11.9958 11.0028H12.0207C12.0705 10.8285 12.1639 10.5691 12.3008 10.2246L13.7203 7.57251H15.9615L13.2845 11.9989L16.0362 16.5Z"/>
</mask>
<path d="M16.0362 16.5H13.6518L12.1141 13.5927C12.056 13.4847 11.9958 13.2855 11.9335 12.995H11.9086C11.8796 13.132 11.8111 13.3395 11.7032 13.6176L10.1592 16.5H7.76239L10.6075 12.0363L8.00519 7.57251H10.4518L11.7281 10.2495C11.8277 10.4612 11.9169 10.7123 11.9958 11.0028H12.0207C12.0705 10.8285 12.1639 10.5691 12.3008 10.2246L13.7203 7.57251H15.9615L13.2845 11.9989L16.0362 16.5Z" fill="#1C212A"/>
<path d="M16.0362 16.5V16.575H16.1699L16.1002 16.4609L16.0362 16.5ZM13.6518 16.5L13.5855 16.5351L13.6066 16.575H13.6518V16.5ZM12.1141 13.5927L12.1804 13.5576L12.1801 13.5571L12.1141 13.5927ZM11.9335 12.995L12.0069 12.9793L11.9942 12.92H11.9335V12.995ZM11.9086 12.995V12.92H11.8479L11.8353 12.9794L11.9086 12.995ZM11.7032 13.6176L11.7698 13.6532L11.7731 13.6447L11.7032 13.6176ZM10.1592 16.5V16.575H10.2041L10.2254 16.5354L10.1592 16.5ZM7.76239 16.5L7.69914 16.4597L7.62565 16.575H7.76239V16.5ZM10.6075 12.0363L10.6707 12.0766L10.6953 12.038L10.6723 11.9985L10.6075 12.0363ZM8.00519 7.57251V7.49751H7.87465L7.94039 7.61028L8.00519 7.57251ZM10.4518 7.57251L10.5195 7.54023L10.4992 7.49751H10.4518V7.57251ZM11.7281 10.2495L11.796 10.2176L11.7958 10.2172L11.7281 10.2495ZM11.9958 11.0028L11.9234 11.0225L11.9384 11.0778H11.9958V11.0028ZM12.0207 11.0028V11.0778H12.0773L12.0928 11.0234L12.0207 11.0028ZM12.3008 10.2246L12.2343 10.189L12.2311 10.1969L12.3008 10.2246ZM13.7203 7.57251V7.49751H13.6754L13.6542 7.53712L13.7203 7.57251ZM15.9615 7.57251L16.0257 7.61132L16.0945 7.49751H15.9615V7.57251ZM13.2845 11.9989L13.2203 11.9601L13.1967 11.9991L13.2205 12.038L13.2845 11.9989ZM16.0362 16.425H13.6518V16.575H16.0362V16.425ZM13.7181 16.4649L12.1804 13.5576L12.0478 13.6277L13.5855 16.5351L13.7181 16.4649ZM12.1801 13.5571C12.1276 13.4596 12.0692 13.2699 12.0069 12.9793L11.8602 13.0107C11.9224 13.3011 11.9843 13.5099 12.048 13.6282L12.1801 13.5571ZM11.9335 12.92H11.9086V13.07H11.9335V12.92ZM11.8353 12.9794C11.8075 13.1101 11.741 13.3129 11.6333 13.5904L11.7731 13.6447C11.8812 13.3661 11.9516 13.1538 11.982 13.0106L11.8353 12.9794ZM11.6371 13.5821L10.0931 16.4646L10.2254 16.5354L11.7693 13.653L11.6371 13.5821ZM10.1592 16.425H7.76239V16.575H10.1592V16.425ZM7.82564 16.5403L10.6707 12.0766L10.5442 11.9959L7.69914 16.4597L7.82564 16.5403ZM10.6723 11.9985L8.06998 7.53474L7.94039 7.61028L10.5427 12.074L10.6723 11.9985ZM8.00519 7.64751H10.4518V7.49751H8.00519V7.64751ZM10.3841 7.60479L11.6604 10.2818L11.7958 10.2172L10.5195 7.54023L10.3841 7.60479ZM11.6602 10.2814C11.7575 10.4882 11.8454 10.735 11.9234 11.0225L12.0682 10.9832C11.9885 10.6895 11.8979 10.4341 11.7959 10.2176L11.6602 10.2814ZM11.9958 11.0778H12.0207V10.9278H11.9958V11.0778ZM12.0928 11.0234C12.1415 10.8529 12.2338 10.5963 12.3705 10.2523L12.2311 10.1969C12.094 10.5418 11.9995 10.8041 11.9486 10.9822L12.0928 11.0234ZM12.367 10.26L13.7864 7.6079L13.6542 7.53712L12.2347 10.1892L12.367 10.26ZM13.7203 7.64751H15.9615V7.49751H13.7203V7.64751ZM15.8973 7.5337L13.2203 11.9601L13.3487 12.0377L16.0257 7.61132L15.8973 7.5337ZM13.2205 12.038L15.9722 16.5391L16.1002 16.4609L13.3485 11.9598L13.2205 12.038Z" fill="#1C212A" mask="url(#path-2-outside-1_2_278)"/>
</svg>
