<svg width="32" height="32" viewBox="0 0 32 32" fill="none" xmlns="http://www.w3.org/2000/svg">
<circle cx="16" cy="16" r="12" fill="#FCFCFC"/>
<mask id="path-2-outside-1_2_39" maskUnits="userSpaceOnUse" x="9.75" y="9.5" width="12" height="14" fill="black">
<rect fill="white" x="9.75" y="9.5" width="12" height="14"/>
<path d="M21.0845 10.5967L17.208 18.2666V22.5H14.5269V18.3164L10.75 10.5967H13.813L15.7305 15.0376C15.7637 15.1206 15.855 15.4443 16.0044 16.0088H16.0376C16.1095 15.6104 16.1953 15.2977 16.2949 15.0708L18.2456 10.5967H21.0845Z"/>
</mask>
<path d="M21.0845 10.5967L17.208 18.2666V22.5H14.5269V18.3164L10.75 10.5967H13.813L15.7305 15.0376C15.7637 15.1206 15.855 15.4443 16.0044 16.0088H16.0376C16.1095 15.6104 16.1953 15.2977 16.2949 15.0708L18.2456 10.5967H21.0845Z" fill="black"/>
<path d="M21.0845 10.5967L21.1737 10.6418L21.2471 10.4967H21.0845V10.5967ZM17.208 18.2666L17.1188 18.2215L17.108 18.2428V18.2666H17.208ZM17.208 22.5V22.6H17.308V22.5H17.208ZM14.5269 22.5H14.4269V22.6H14.5269V22.5ZM14.5269 18.3164H14.6269V18.2933L14.6167 18.2725L14.5269 18.3164ZM10.75 10.5967V10.4967H10.5897L10.6602 10.6406L10.75 10.5967ZM13.813 10.5967L13.9048 10.557L13.8787 10.4967H13.813V10.5967ZM15.7305 15.0376L15.8234 15.0004L15.8223 14.998L15.7305 15.0376ZM16.0044 16.0088L15.9077 16.0344L15.9274 16.1088H16.0044V16.0088ZM16.0376 16.0088V16.1088H16.1212L16.136 16.0266L16.0376 16.0088ZM16.2949 15.0708L16.3865 15.111L16.3866 15.1108L16.2949 15.0708ZM18.2456 10.5967V10.4967H18.1801L18.1539 10.5567L18.2456 10.5967ZM20.9952 10.5516L17.1188 18.2215L17.2973 18.3117L21.1737 10.6418L20.9952 10.5516ZM17.108 18.2666V22.5H17.308V18.2666H17.108ZM17.208 22.4H14.5269V22.6H17.208V22.4ZM14.6269 22.5V18.3164H14.4269V22.5H14.6269ZM14.6167 18.2725L10.8398 10.5527L10.6602 10.6406L14.437 18.3604L14.6167 18.2725ZM10.75 10.6967H13.813V10.4967H10.75V10.6967ZM13.7212 10.6363L15.6387 15.0772L15.8223 14.998L13.9048 10.557L13.7212 10.6363ZM15.6376 15.0747C15.6679 15.1505 15.7573 15.466 15.9077 16.0344L16.1011 15.9832C15.9527 15.4227 15.8594 15.0907 15.8233 15.0005L15.6376 15.0747ZM16.0044 16.1088H16.0376V15.9088H16.0044V16.1088ZM16.136 16.0266C16.2073 15.6316 16.2914 15.3276 16.3865 15.111L16.2034 15.0306C16.0992 15.2677 16.0118 15.5891 15.9392 15.991L16.136 16.0266ZM16.3866 15.1108L18.3373 10.6366L18.1539 10.5567L16.2033 15.0308L16.3866 15.1108ZM18.2456 10.6967H21.0845V10.4967H18.2456V10.6967Z" fill="black" mask="url(#path-2-outside-1_2_39)"/>
</svg>
