<svg width="24" height="24" viewBox="0 0 24 24" fill="none" xmlns="http://www.w3.org/2000/svg">
<circle cx="12" cy="12" r="9" fill="#F1D514"/>
<mask id="path-2-outside-1_2_290" maskUnits="userSpaceOnUse" x="7.0625" y="6.875" width="9" height="11" fill="black">
<rect fill="white" x="7.0625" y="6.875" width="9" height="11"/>
<path d="M15.8134 7.94751L12.906 13.7V16.875H10.8951V13.7373L8.0625 7.94751H10.3597L11.7979 11.2782C11.8228 11.3405 11.8912 11.5833 12.0033 12.0066H12.0282C12.0822 11.7078 12.1465 11.4733 12.2212 11.3031L13.6842 7.94751H15.8134Z"/>
</mask>
<path d="M15.8134 7.94751L12.906 13.7V16.875H10.8951V13.7373L8.0625 7.94751H10.3597L11.7979 11.2782C11.8228 11.3405 11.8912 11.5833 12.0033 12.0066H12.0282C12.0822 11.7078 12.1465 11.4733 12.2212 11.3031L13.6842 7.94751H15.8134Z" fill="#1C212A"/>
<path d="M15.8134 7.94751L15.8803 7.98134L15.9353 7.87251H15.8134V7.94751ZM12.906 13.7L12.8391 13.6661L12.831 13.6821V13.7H12.906ZM12.906 16.875V16.95H12.981V16.875H12.906ZM10.8951 16.875H10.8201V16.95H10.8951V16.875ZM10.8951 13.7373H10.9701V13.7199L10.9625 13.7043L10.8951 13.7373ZM8.0625 7.94751V7.87251H7.94231L7.99513 7.98047L8.0625 7.94751ZM10.3597 7.94751L10.4286 7.91778L10.4091 7.87251H10.3597V7.94751ZM11.7979 11.2782L11.8675 11.2503L11.8667 11.2485L11.7979 11.2782ZM12.0033 12.0066L11.9308 12.0258L11.9456 12.0816H12.0033V12.0066ZM12.0282 12.0066V12.0816H12.0909L12.102 12.0199L12.0282 12.0066ZM12.2212 11.3031L12.2899 11.3333L12.2899 11.3331L12.2212 11.3031ZM13.6842 7.94751V7.87251H13.6351L13.6155 7.91754L13.6842 7.94751ZM15.7464 7.91368L12.8391 13.6661L12.9729 13.7338L15.8803 7.98134L15.7464 7.91368ZM12.831 13.7V16.875H12.981V13.7H12.831ZM12.906 16.8H10.8951V16.95H12.906V16.8ZM10.9701 16.875V13.7373H10.8201V16.875H10.9701ZM10.9625 13.7043L8.12987 7.91455L7.99513 7.98047L10.8278 13.7703L10.9625 13.7043ZM8.0625 8.02251H10.3597V7.87251H8.0625V8.02251ZM10.2909 7.97724L11.729 11.3079L11.8667 11.2485L10.4286 7.91778L10.2909 7.97724ZM11.7282 11.3061C11.7509 11.3628 11.8179 11.5995 11.9308 12.0258L12.0758 11.9874C11.9645 11.567 11.8946 11.3181 11.8675 11.2503L11.7282 11.3061ZM12.0033 12.0816H12.0282V11.9316H12.0033V12.0816ZM12.102 12.0199C12.1555 11.7237 12.2185 11.4957 12.2899 11.3332L12.1525 11.273C12.0744 11.4508 12.0088 11.6918 11.9544 11.9933L12.102 12.0199ZM12.2899 11.3331L13.753 7.97748L13.6155 7.91754L12.1524 11.2731L12.2899 11.3331ZM13.6842 8.02251H15.8134V7.87251H13.6842V8.02251Z" fill="#1C212A" mask="url(#path-2-outside-1_2_290)"/>
</svg>
