<svg width="100" height="100" viewBox="0 0 100 100" fill="none" xmlns="http://www.w3.org/2000/svg">
<g clip-path="url(#clip0_649_10648)">
<path d="M44.7063 61.0991L44.7063 48.8398" stroke="#DFD0FF" stroke-width="3" stroke-linecap="round"/>
<path d="M47.7983 62.8766L57.8864 57.3691" stroke="#DFD0FF" stroke-width="3" stroke-linecap="round"/>
<path d="M11.4384 34.6749C11.2372 34.7335 11.0664 34.8675 10.9616 35.049L6.12227 43.431C5.82165 43.9517 6.17065 44.6072 6.77046 44.6486L53.2945 47.8544C53.3293 47.8565 53.3576 47.8764 53.3922 47.882C53.4964 47.8953 53.5903 47.9296 53.6897 47.9636C53.7857 47.9973 53.88 48.0247 53.9644 48.0753C54.0456 48.1221 54.1132 48.1864 54.1871 48.2489C54.2703 48.3204 54.3503 48.3882 54.4158 48.4748C54.4366 48.5012 54.4652 48.5141 54.4845 48.5433L80.5228 87.2313C80.8585 87.7301 81.6008 87.7046 81.9014 87.1839L86.7408 78.8019C86.8455 78.6204 86.8762 78.4054 86.8263 78.2019L72.053 17.9098C71.9429 17.4604 71.4804 17.1934 71.0361 17.3227L11.4384 34.6749Z" fill="#460F6F" stroke="#DFD0FF" stroke-width="5" stroke-linecap="round"/>
<path d="M54.2133 48.6316C54.0781 48.4198 53.8525 48.2824 53.6022 48.2595L36.3774 46.6844C35.8857 46.6395 35.4678 47.0396 35.4913 47.5327L35.8886 55.8721C35.9019 56.1516 36.058 56.4046 36.3019 56.5419L46.0653 62.0372L55.8538 67.6886C56.0838 67.8214 56.3642 67.8335 56.6047 67.7209L63.3107 64.5846C63.7556 64.3765 63.9158 63.8245 63.6514 63.4106L54.2133 48.6316Z" stroke="#DFD0FF" stroke-width="3" stroke-linecap="round"/>
</g>
<defs>
<clipPath id="clip0_649_10648">
<rect width="100" height="100" fill="white"/>
</clipPath>
</defs>
</svg>
