<svg width="16" height="18" viewBox="0 0 16 18" fill="none" xmlns="http://www.w3.org/2000/svg">
<path d="M6.77814 9.01438C6.12424 9.00615 5.48828 9.22825 4.98168 9.64177C4.47507 10.0553 4.13011 10.6339 4.00723 11.2762C3.86905 12.0035 3.73087 12.8544 3.65087 13.6107C3.57993 14.0005 3.64258 14.4028 3.82867 14.7526C4.01477 15.1023 4.31342 15.3791 4.67632 15.538C5.71245 15.8913 6.80402 16.0539 7.89814 16.018C8.98985 16.0535 10.079 15.8909 11.1127 15.538C11.47 15.3803 11.7647 15.1081 11.9504 14.7645C12.136 14.4208 12.2021 14.0252 12.1381 13.6398C12.0581 12.9126 11.92 12.0471 11.7818 11.3053C11.6589 10.663 11.3139 10.0844 10.8073 9.67087C10.3007 9.25734 9.66477 9.03524 9.01087 9.04347L6.77814 9.01438Z" stroke="#161518" stroke-width="2" stroke-linecap="round" stroke-linejoin="round"/>
<path d="M7.97817 6.78887C9.37596 6.78887 10.5091 5.65574 10.5091 4.25796C10.5091 2.86018 9.37596 1.72705 7.97817 1.72705C6.58039 1.72705 5.44727 2.86018 5.44727 4.25796C5.44727 5.65574 6.58039 6.78887 7.97817 6.78887Z" stroke="#161518" stroke-width="2" stroke-linecap="round" stroke-linejoin="round"/>
</svg>
