<svg width="24" height="25" viewBox="0 0 24 25" fill="none" xmlns="http://www.w3.org/2000/svg">
<path d="M3.63 4.14746C3.24 4.53746 3.24 5.16746 3.63 5.55746L7.29 9.21746L7 9.51746H4C3.45 9.51746 3 9.96746 3 10.5175V14.5175C3 15.0675 3.45 15.5175 4 15.5175H7L10.29 18.8075C10.92 19.4375 12 18.9875 12 18.0975V13.9275L16.18 18.1075C15.69 18.4775 15.16 18.7875 14.58 19.0175C14.22 19.1675 14 19.5475 14 19.9375C14 20.6575 14.73 21.1175 15.39 20.8475C16.19 20.5175 16.94 20.0775 17.61 19.5375L18.95 20.8775C19.34 21.2675 19.97 21.2675 20.36 20.8775C20.75 20.4875 20.75 19.8575 20.36 19.4675L5.05 4.14746C4.66 3.75746 4.03 3.75746 3.63 4.14746ZM19 12.5175C19 13.3375 18.85 14.1275 18.59 14.8575L20.12 16.3875C20.68 15.2175 21 13.9075 21 12.5175C21 8.68746 18.6 5.40746 15.22 4.11746C14.63 3.88746 14 4.34746 14 4.97746V5.16746C14 5.54746 14.25 5.87746 14.61 6.01746C17.18 7.05746 19 9.57746 19 12.5175ZM10.29 6.22746L10.12 6.39746L12 8.27746V6.92746C12 6.03746 10.92 5.59746 10.29 6.22746ZM16.5 12.5175C16.5 10.7475 15.48 9.22746 14 8.48746V10.2775L16.48 12.7575C16.49 12.6775 16.5 12.5975 16.5 12.5175Z" fill="white"/>
</svg>
