<svg width="24" height="25" viewBox="0 0 24 25" fill="none" xmlns="http://www.w3.org/2000/svg">
<path d="M3 10.5175V14.5175C3 15.0675 3.45 15.5175 4 15.5175H7L10.29 18.8075C10.92 19.4375 12 18.9875 12 18.0975V6.92746C12 6.03746 10.92 5.58746 10.29 6.21746L7 9.51746H4C3.45 9.51746 3 9.96746 3 10.5175ZM16.5 12.5175C16.5 10.7475 15.48 9.22745 14 8.48746V16.5375C15.48 15.8075 16.5 14.2875 16.5 12.5175ZM14 4.96746V5.16746C14 5.54746 14.25 5.87746 14.6 6.01746C17.18 7.04746 19 9.57746 19 12.5175C19 15.4575 17.18 17.9875 14.6 19.0175C14.24 19.1575 14 19.4875 14 19.8675V20.0675C14 20.6975 14.63 21.1375 15.21 20.9175C18.6 19.6275 21 16.3575 21 12.5175C21 8.67746 18.6 5.40746 15.21 4.11746C14.63 3.88746 14 4.33746 14 4.96746Z" fill="white"/>
</svg>
