<svg width="37" height="36" viewBox="0 0 37 36" fill="none" xmlns="http://www.w3.org/2000/svg">
<path d="M9.65576 19.9925V28.1661C9.65576 28.5996 9.81106 29.0154 10.0875 29.322C10.3639 29.6285 10.7389 29.8008 11.1298 29.8008H25.8703C26.2612 29.8008 26.6361 29.6285 26.9126 29.322C27.189 29.0154 27.3443 28.5996 27.3443 28.1661V19.9925C27.3443 17.3912 26.4125 14.8965 24.7539 13.0571C23.0953 11.2177 20.8457 10.1843 18.5 10.1843C16.1544 10.1843 13.9048 11.2177 12.2462 13.0571C10.5876 14.8965 9.65576 17.3912 9.65576 19.9925Z" stroke="#716B7C" stroke-width="2" stroke-linecap="round" stroke-linejoin="round"/>
<line x1="10.1597" y1="22.8486" x2="26.8444" y2="22.8486" stroke="#716B7C" stroke-linecap="round" stroke-linejoin="round"/>
<line x1="14.9773" y1="23.4717" x2="14.9773" y2="25.2496" stroke="#716B7C" stroke-width="2" stroke-linecap="round" stroke-linejoin="round"/>
<path d="M14.4568 11.2598V8.50513C14.4568 7.95284 14.0091 7.50513 13.4568 7.50513H12.0974C11.5451 7.50513 11.0974 7.95284 11.0974 8.50513V14.4416" stroke="#716B7C" stroke-linecap="round" stroke-linejoin="round"/>
<path d="M22.2693 11.0241V8.50513C22.2693 7.95284 22.717 7.50513 23.2693 7.50513H24.6287C25.1809 7.50513 25.6287 7.95284 25.6287 8.50513L25.6287 14.2059" stroke="#716B7C" stroke-linecap="round" stroke-linejoin="round"/>
</svg>
