<svg width="54" height="54" viewBox="0 0 54 54" fill="none" xmlns="http://www.w3.org/2000/svg">
<path d="M11.8031 21.5228C11.8672 17.65 13.4964 13.9568 16.3394 11.24C19.1823 8.52311 23.0111 7.00029 26.9999 7C30.9887 6.99971 34.8177 8.52196 37.6611 11.2384C40.5045 13.9548 42.1343 17.6478 42.1989 21.5206L42.1995 27.5712L45.8366 35.52C45.9649 35.8008 46.0191 36.1083 45.994 36.4145C45.969 36.7208 45.8657 37.0161 45.6933 37.2737C45.521 37.5313 45.2851 37.7431 45.0071 37.8897C44.7291 38.0364 44.4179 38.1134 44.1015 38.1136L32.9997 38.1146L33.0058 38.1265L20.9915 38.1272L20.9991 38.1144L9.89924 38.1122C9.58291 38.112 9.27162 38.0352 8.99361 37.8887C8.7156 37.7422 8.47966 37.5305 8.3072 37.273C8.13475 37.0155 8.03123 36.7203 8.00603 36.4141C7.98084 36.1079 8.03478 35.8005 8.16295 35.5196L11.8018 27.5766L11.8012 21.526L11.8031 21.5228ZM15.603 21.5227L15.6013 27.9683C15.6011 28.2259 15.5453 28.4806 15.4376 28.716L12.8238 34.4258L41.1782 34.4253L38.5621 28.7148C38.4553 28.4795 38.4003 28.2252 38.4006 27.9681L38.3971 21.5238C38.3424 18.6233 37.1173 15.8596 34.9855 13.8273C32.8537 11.795 29.9855 10.6566 26.9981 10.6568C24.0106 10.6571 21.1427 11.7961 19.0113 13.8288C16.8799 15.8615 15.6553 18.6254 15.6011 21.5259L15.603 21.5227Z" fill="#FCFCFC"/>
<path d="M22.3281 40.8958C22.3281 42.4992 24.0901 44.3333 27 44.3333C29.9099 44.3333 31.6719 42.4992 31.6719 40.8958H34.6719C34.6719 44.7461 30.9074 47.3333 27 47.3333C23.0926 47.3333 19.3281 44.7461 19.3281 40.8958H22.3281Z" fill="#FCFCFC"/>
</svg>
