<svg width="24" height="24" viewBox="0 0 24 24" fill="none" xmlns="http://www.w3.org/2000/svg">
<path d="M4.94502 9.8509C4.97489 7.99196 5.73428 6.21925 7.05939 4.91516C8.3845 3.61107 10.1691 2.88011 12.0283 2.87997C13.8875 2.87983 15.6722 3.61052 16.9975 4.91441C18.3229 6.2183 19.0825 7.9909 19.1127 9.84984L19.1129 12.7542L20.8082 16.5696C20.868 16.7044 20.8932 16.852 20.8816 16.9989C20.8699 17.1459 20.8217 17.2877 20.7414 17.4114C20.6611 17.535 20.5511 17.6366 20.4216 17.707C20.292 17.7774 20.1469 17.8144 19.9995 17.8145L14.8249 17.815L14.8277 17.8207L9.22778 17.821L9.23132 17.8149L4.05761 17.8138C3.91017 17.8138 3.76507 17.7769 3.63549 17.7066C3.50591 17.6362 3.39593 17.5346 3.31555 17.411C3.23517 17.2874 3.18692 17.1457 3.17518 16.9987C3.16343 16.8518 3.18857 16.7042 3.24831 16.5694L4.94439 12.7567L4.94414 9.85244L4.94502 9.8509Z" fill="white"/>
<path d="M8.97592 19.4391C9.0858 20.1734 9.45559 20.8438 10.018 21.3285C10.5805 21.8131 11.2982 22.0798 12.0407 22.08C12.7831 22.0801 13.501 21.8138 14.0636 21.3294C14.6263 20.845 14.9964 20.1747 15.1066 19.4405L8.97592 19.4391Z" fill="white"/>
</svg>
