<svg width="24" height="24" viewBox="0 0 24 24" fill="none" xmlns="http://www.w3.org/2000/svg">
<path d="M4.4614 9.85093C4.49175 7.99199 5.26349 6.21928 6.61015 4.91519C7.9568 3.6111 9.77045 2.88014 11.6599 2.88C13.5493 2.87987 15.363 3.61055 16.7099 4.91444C18.0568 6.21833 18.8288 7.99093 18.8594 9.84987L18.8597 12.7542L20.5825 16.5696C20.6433 16.7044 20.6689 16.852 20.6571 16.999C20.6452 17.146 20.5963 17.2877 20.5146 17.4114C20.433 17.535 20.3213 17.6367 20.1896 17.7071C20.0579 17.7775 19.9105 17.8144 19.7606 17.8145L14.5019 17.815L14.5048 17.8207L8.81379 17.821L8.81739 17.8149L3.55955 17.8138C3.40971 17.8138 3.26226 17.7769 3.13057 17.7066C2.99888 17.6362 2.88712 17.5347 2.80543 17.4111C2.72374 17.2875 2.6747 17.1458 2.66277 16.9988C2.65084 16.8518 2.67639 16.7042 2.7371 16.5694L4.46075 12.7568L4.4605 9.85247L4.4614 9.85093ZM6.26134 9.85091L6.26051 12.9448C6.26041 13.0684 6.234 13.1907 6.18298 13.3037L4.94487 16.0444L18.3759 16.0441L17.1367 13.3031C17.0861 13.1902 17.06 13.0681 17.0602 12.9447L17.0586 9.85143C17.0326 8.4592 16.4523 7.13263 15.4425 6.15713C14.4327 5.18163 13.0741 4.63516 11.659 4.63529C10.2439 4.63542 8.88539 5.18215 7.87577 6.15784C6.86616 7.13354 6.28612 8.46022 6.26044 9.85244L6.26134 9.85091Z" fill="white"/>
<path d="M8.55784 19.4391C8.6695 20.1734 9.04531 20.8439 9.6169 21.3285C10.1885 21.8132 10.9179 22.0798 11.6724 22.08C12.4269 22.0802 13.1565 21.8138 13.7283 21.3294C14.3001 20.845 14.6762 20.1747 14.7882 19.4405L8.55784 19.4391Z" fill="white"/>
</svg>
