<svg width="20" height="20" viewBox="0 0 20 20" fill="none" xmlns="http://www.w3.org/2000/svg">
<g clip-path="url(#clip0_49_1703)">
<path d="M6.66667 4.44444C7.05958 4.44444 7.4364 4.28836 7.71423 4.01053C7.99206 3.7327 8.14815 3.35588 8.14815 2.96296C8.14815 2.68148 8.07407 2.42222 7.93333 2.2L6.66667 0L5.4 2.2C5.25926 2.42222 5.18518 2.68148 5.18518 2.96296C5.18518 3.77778 5.85185 4.44444 6.66667 4.44444ZM11.1111 6.66667H7.40741V5.18518H5.92593V6.66667H2.22222C0.992593 6.66667 0 7.65926 0 8.88889V15.5556C0 15.963 0.333333 16.2963 0.740741 16.2963H12.5926C13 16.2963 13.3333 15.963 13.3333 15.5556V8.88889C13.3333 7.65926 12.3407 6.66667 11.1111 6.66667ZM11.8519 14.8148H1.48148V12.5926C2.14815 12.5926 2.78519 12.3185 3.25926 11.8519L4.07407 11.0519L4.85926 11.8519C5.82963 12.8148 7.51852 12.8074 8.48148 11.8519L9.28148 11.0519L10.0741 11.8519C10.5481 12.3185 11.1852 12.5926 11.8519 12.5926V14.8148ZM11.8519 11.4815C11.4815 11.4815 11.1111 11.3333 10.8519 11.0593L9.25926 9.48148L7.68889 11.0593C7.14074 11.6074 6.18518 11.6074 5.63704 11.0593L4.07407 9.48148L2.47407 11.0593C2.22222 11.3259 1.85185 11.4815 1.48148 11.4815V8.88889C1.48148 8.48148 1.81481 8.14815 2.22222 8.14815H11.1111C11.5185 8.14815 11.8519 8.48148 11.8519 8.88889V11.4815Z" fill="#FFFFFF" fill-opacity="0.7"/>
</g>
<defs>
<clipPath id="clip0_49_1703">
<rect width="20" height="20" fill="white"/>
</clipPath>
</defs>
</svg>
