<svg width="32" height="32" viewBox="0 0 32 32" fill="none" xmlns="http://www.w3.org/2000/svg">
<path fill-rule="evenodd" clip-rule="evenodd" d="M31.0356 20.2001C31.0356 23.5031 28.3575 26.1818 25.0539 26.1818C21.7508 26.1818 19.0728 23.5031 19.0728 20.2001C19.0728 16.897 21.7508 14.2184 25.0539 14.2184C28.3575 14.2184 31.0356 16.897 31.0356 20.2001Z" stroke="white" stroke-width="1.5" stroke-linecap="round" stroke-linejoin="round"/>
<path d="M29.1105 16.1451L20.958 24.2976" stroke="white" stroke-width="1.13279" stroke-linecap="round" stroke-linejoin="round"/>
<path d="M18.4938 29.1145C14.8451 30.3874 9.75346 30.3532 6.4409 29.0828C4.90828 28.495 4.21148 26.8587 4.39155 25.2271C4.55866 23.713 4.82976 22.0477 5.10394 20.5551C5.59287 17.8934 7.94892 16.0292 10.6551 16.0292L14.5769 16.0292" stroke="#FFFFFF" stroke-width="2.5" stroke-linecap="round" stroke-linejoin="round"/>
<circle cx="13.0413" cy="6.50954" r="5.05498" stroke="#FFFFFF" stroke-width="2" stroke-linecap="round" stroke-linejoin="round"/>
</svg>
