<svg width="23" height="22" viewBox="0 0 23 22" fill="none" xmlns="http://www.w3.org/2000/svg">
<path fill-rule="evenodd" clip-rule="evenodd" d="M21.337 13.8876C21.337 16.1584 19.4958 18 17.2246 18C14.9537 18 13.1125 16.1584 13.1125 13.8876C13.1125 11.6167 14.9537 9.77515 17.2246 9.77515C19.4958 9.77515 21.337 11.6167 21.337 13.8876Z" stroke="white" stroke-width="1.5" stroke-linecap="round" stroke-linejoin="round"/>
<path d="M20.0133 11.0997L14.4084 16.7046" stroke="white" stroke-width="1.13279" stroke-linecap="round" stroke-linejoin="round"/>
<path d="M12.7144 20.0162C10.2059 20.8913 6.70541 20.8678 4.42803 19.9944C3.37435 19.5903 2.8953 18.4653 3.0191 17.3436C3.13398 16.3027 3.32037 15.1578 3.50887 14.1316C3.845 12.3017 5.46479 11.0201 7.3253 11.0201L10.0215 11.0201" stroke="#FCFCFC" stroke-width="2" stroke-linecap="round" stroke-linejoin="round"/>
<circle cx="8.96554" cy="4.4753" r="3.4753" stroke="#FCFCFC" stroke-width="2" stroke-linecap="round" stroke-linejoin="round"/>
</svg>
