<svg width="53" height="40" viewBox="0 0 53 40" fill="none" xmlns="http://www.w3.org/2000/svg">
<path d="M50.0275 17.2627C51.2339 18.8499 51.2339 20.9926 50.0275 22.5773C46.2275 27.5667 37.1106 37.84 26.4665 37.84C15.8225 37.84 6.70558 27.5667 2.90559 22.5773C2.31863 21.8173 2 20.8824 2 19.92C2 18.9577 2.31863 18.0227 2.90559 17.2627C6.70558 12.2733 15.8225 2 26.4665 2C37.1106 2 46.2275 12.2733 50.0275 17.2627V17.2627Z" stroke="#FCFCFC" stroke-width="4" stroke-linecap="round" stroke-linejoin="round"/>
<path d="M26.4679 27.6C30.6849 27.6 34.1035 24.1615 34.1035 19.92C34.1035 15.6784 30.6849 12.24 26.4679 12.24C22.2509 12.24 18.8323 15.6784 18.8323 19.92C18.8323 24.1615 22.2509 27.6 26.4679 27.6Z" stroke="#FCFCFC" stroke-width="3" stroke-linecap="round" stroke-linejoin="round"/>
</svg>
