<svg width="68" height="68" viewBox="0 0 68 68" fill="none" xmlns="http://www.w3.org/2000/svg">
<path d="M50.4256 41.4224C50.4256 43.7355 48.4487 44.999 46.8006 45.1753C45.4591 45.3187 44.0507 44.8578 43.0135 43.7563V60.5796C43.0135 62.1579 42.1686 63.3285 41.1014 64.0171C40.0968 64.6652 38.8879 64.9126 37.8006 64.8999C36.7119 64.8872 35.5134 64.6106 34.5223 63.9497C34.2368 63.7593 33.9674 63.5331 33.7254 63.2739C33.4778 63.5257 33.2039 63.7443 32.9139 63.9253C31.9098 64.5516 30.7088 64.7849 29.6385 64.7769C28.566 64.7688 27.3859 64.5171 26.4041 63.9136C25.3823 63.2854 24.451 62.1684 24.451 60.5796V43.9546C24.2669 44.1319 24.069 44.2889 23.8621 44.4224C23.0095 44.9723 22.0021 45.1788 21.1131 45.1772C20.2238 45.1756 19.2192 44.9652 18.3699 44.4165C17.4645 43.8314 16.7 42.8132 16.7 41.4224V41.2124L16.744 41.0073L19.8484 26.3892C20.0979 24.966 20.5001 23.4142 21.3787 22.021C22.2949 20.5683 23.6538 19.4075 25.6043 18.6655L25.616 18.6606C26.3582 18.3837 26.9739 18.1786 27.7654 18.0649C26.0401 16.4911 24.9568 14.2249 24.9568 11.7056C24.9569 6.95304 28.8099 3.10032 33.5623 3.1001C38.3151 3.1001 42.1686 6.95288 42.1688 11.7056C42.1688 14.2491 41.0637 16.5334 39.3094 18.1089C39.9203 18.1928 40.5165 18.3122 41.0965 18.4722L41.6277 18.6313L41.6541 18.6392L41.6805 18.6489C43.822 19.4061 45.2405 20.586 46.1717 22.0796C46.8288 23.1336 47.1956 24.2781 47.4559 25.3218L47.6873 26.3247L47.6951 26.3589L47.701 26.3931L50.3924 41.062L50.4256 41.2407V41.4224Z" stroke="#FCFCFC" stroke-width="4"/>
</svg>
