<svg width="22" height="22" viewBox="0 0 22 22" fill="none" xmlns="http://www.w3.org/2000/svg">
<path d="M2.06724 13.4615C2.32034 14.2984 4.09209 14.8456 7.06609 15.4894C7.44575 15.5859 7.76213 15.6503 7.92032 15.6825C8.2367 15.7791 8.55309 16.3262 8.80619 16.8091C9.15421 17.4206 9.43896 17.9356 9.88189 18C9.91353 18 9.97681 18 10.0084 18C10.5147 18 11.0841 17.5494 11.7169 17.0022C12.1915 16.6159 12.6977 16.2297 13.0774 16.0687C13.3621 15.9722 14.0581 15.8756 14.8807 15.7791C17.4434 15.4572 19.9112 14.7812 20.544 13.8478C21.3982 12.5281 20.1327 4.67433 18.8988 3.83745C17.6016 2.90401 6.4966 2.42119 3.71243 4.19151C2.25707 5.12495 1.81413 12.4959 2.06724 13.4615Z" stroke="#FCFCFC" stroke-width="2"/>
<line x1="6.79004" y1="8.50037" x2="16.0754" y2="8.50037" stroke="#FCFCFC" stroke-linecap="round"/>
<path d="M7.14673 11.1431H13.3608" stroke="#FCFCFC" stroke-linecap="round"/>
</svg>
