<svg width="12" height="10" viewBox="0 0 12 10" fill="none" xmlns="http://www.w3.org/2000/svg">
<path d="M3.51251 9.03299L3.51244 9.03305L3.51952 9.03977C4.03526 9.52899 4.86195 9.50199 5.38835 8.97648L5.39426 8.97058L5.39997 8.96448L10.6487 3.36927C11.1783 2.84111 11.0671 2.02445 10.5911 1.57293L10.5857 1.5678L10.5801 1.56283L10.0816 1.11695C9.54679 0.616405 8.72978 0.727431 8.26876 1.17845L8.26248 1.18459L8.25641 1.19094L4.376 5.25819L3.47616 4.3804L3.4762 4.38036L3.47105 4.37548C2.97392 3.90392 2.15202 3.89706 1.65121 4.38394L1.13616 4.87411L1.13613 4.87408L1.13111 4.87899C0.633457 5.36584 0.612584 6.18925 1.12972 6.68411L3.51251 9.03299Z" fill="#161518" stroke="#FCFCFC" stroke-width="1.01754"/>
</svg>
