<svg width="24" height="24" viewBox="0 0 24 24" fill="none" xmlns="http://www.w3.org/2000/svg">
<path fill-rule="evenodd" clip-rule="evenodd" d="M21.3999 11.9C21.3999 17.1467 17.1466 21.4 11.8999 21.4C6.6532 21.4 2.3999 17.1467 2.3999 11.9C2.3999 6.65329 6.6532 2.39999 11.8999 2.39999C17.1466 2.39999 21.3999 6.65329 21.3999 11.9ZM11.8999 19.4C16.042 19.4 19.3999 16.0421 19.3999 11.9C19.3999 7.75786 16.042 4.39999 11.8999 4.39999C7.75777 4.39999 4.3999 7.75786 4.3999 11.9C4.3999 16.0421 7.75777 19.4 11.8999 19.4Z" fill="white"/>
<path fill-rule="evenodd" clip-rule="evenodd" d="M11.3999 7.89999C11.676 7.89999 11.8999 8.12385 11.8999 8.39999V11.9H14.3999C14.676 11.9 14.8999 12.1239 14.8999 12.4C14.8999 12.6761 14.676 12.9 14.3999 12.9H10.8999V8.39999C10.8999 8.12385 11.1238 7.89999 11.3999 7.89999Z" fill="white"/>
</svg>
