<svg width="25" height="25" viewBox="0 0 25 25" fill="none" xmlns="http://www.w3.org/2000/svg">
<path fill-rule="evenodd" clip-rule="evenodd" d="M19.637 5.32043C20.3027 5.98724 20.3022 7.06784 19.6359 7.73402L7.68681 19.6803C7.02047 20.3464 5.94062 20.3459 5.2749 19.6791C4.60918 19.0123 4.60968 17.9317 5.27603 17.2655L17.2251 5.31931C17.8914 4.65312 18.9713 4.65363 19.637 5.32043Z" fill="white"/>
<path fill-rule="evenodd" clip-rule="evenodd" d="M19.637 19.6796C18.9713 20.3464 17.8914 20.3469 17.2251 19.6807L5.27603 7.73446C4.60969 7.06828 4.60918 5.98767 5.2749 5.32087C5.94062 4.65406 7.02047 4.65356 7.68681 5.31975L19.6359 17.266C20.3022 17.9322 20.3027 19.0128 19.637 19.6796Z" fill="white"/>
</svg>
