<svg width="10" height="10" viewBox="0 0 10 10" fill="none" xmlns="http://www.w3.org/2000/svg">
<path fill-rule="evenodd" clip-rule="evenodd" d="M9.3822 0.624928C9.78816 1.03126 9.78785 1.68975 9.38152 2.09571L2.095 9.37545C1.68866 9.7814 1.03017 9.78109 0.624213 9.37476C0.218257 8.96843 0.218563 8.30993 0.624898 7.90398L7.91142 0.624243C8.31775 0.218287 8.97625 0.218594 9.3822 0.624928Z" fill="#ECEBED"/>
<path fill-rule="evenodd" clip-rule="evenodd" d="M9.3822 9.37502C8.97625 9.78136 8.31775 9.78167 7.91142 9.37571L0.624899 2.09598C0.218565 1.69002 0.218258 1.03153 0.624214 0.625195C1.03017 0.21886 1.68866 0.218553 2.095 0.624509L9.38152 7.90424C9.78785 8.3102 9.78816 8.96869 9.3822 9.37502Z" fill="#ECEBED"/>
</svg>
