<svg width="25" height="24" viewBox="0 0 25 24" fill="none" xmlns="http://www.w3.org/2000/svg">
<circle cx="8.57202" cy="16.206" r="1.2356" fill="white"/>
<circle cx="6.77112" cy="11.4181" r="1.2356" fill="white"/>
<circle cx="9.86047" cy="7.09348" r="1.2356" fill="white"/>
<circle cx="14.8025" cy="6.9391" r="1.2356" fill="white"/>
<circle cx="17.6544" cy="10.1827" r="1.2356" fill="white"/>
<path d="M21.9119 12.48C21.9119 14.3464 21.3472 16.9977 19.0884 16.9977C16.851 16.9977 17.1068 15.0585 14.3679 16.1193C14.3164 16.1392 14.2625 16.1676 14.217 16.199C11.0138 18.4115 15.2626 20.8823 12.4475 22.0279C12.3613 22.0629 12.2638 22.0803 12.1708 22.079C6.93391 22.0035 2.71191 17.7348 2.71191 12.48C2.71191 7.17807 7.00998 2.88 12.3119 2.88C17.6138 2.88 21.9119 7.17807 21.9119 12.48Z" stroke="white" stroke-width="2"/>
</svg>
