<svg width="24" height="24" viewBox="0 0 24 24" fill="none" xmlns="http://www.w3.org/2000/svg">
<g clip-path="url(#clip0_49_1649)">
<path d="M9 3C4.0374 3 0 7.0374 0 12C0 16.9626 4.0374 21 9 21C13.9626 21 18 16.9626 18 12C18 7.0374 13.9626 3 9 3ZM1.8 12C1.8 11.1909 1.9404 10.4142 2.1879 9.6879L3.6 11.1L5.4 12.9V14.7L7.2 16.5L8.1 17.4V19.1379C4.5549 18.6924 1.8 15.6648 1.8 12ZM14.697 16.3857C14.1093 15.9123 13.2183 15.6 12.6 15.6V14.7C12.6 14.2226 12.4104 13.7648 12.0728 13.4272C11.7352 13.0896 11.2774 12.9 10.8 12.9H7.2V10.2C7.67739 10.2 8.13523 10.0104 8.47279 9.67279C8.81036 9.33523 9 8.87739 9 8.4V7.5H9.9C10.3774 7.5 10.8352 7.31036 11.1728 6.97279C11.5104 6.63523 11.7 6.17739 11.7 5.7V5.3301C14.3352 6.4002 16.2 8.985 16.2 12C16.1998 13.5882 15.671 15.1312 14.697 16.3857Z" fill="#FFFFFF" fill-opacity="0.7"/>
</g>
<defs>
<clipPath id="clip0_49_1649">
<rect width="24" height="24" fill="white"/>
</clipPath>
</defs>
</svg>
