<svg width="48" height="48" viewBox="0 0 48 48" fill="none" xmlns="http://www.w3.org/2000/svg">
<path d="M4.7882 34.5615C3.13462 33.8784 2.34789 31.9841 3.03099 30.3306L5.59795 24.1166L3.01921 17.9077C2.33298 16.2554 3.11613 14.3596 4.76842 13.6734L10.9774 11.0947L13.5444 4.88085C14.2275 3.22725 16.1217 2.44054 17.7753 3.12364L23.9891 5.69059L30.1982 3.11186C31.8504 2.42563 33.7462 3.20878 34.4323 4.86107L37.0112 11.07L43.2249 13.637C44.8785 14.3201 45.6652 16.2144 44.9822 17.868L42.4153 24.0817L44.994 30.2908C45.6802 31.9431 44.8971 33.8389 43.2448 34.5251L37.0357 37.1038L34.4689 43.3176C33.7856 44.9711 31.8915 45.7579 30.2379 45.0748L24.024 42.5079L17.815 45.0866C16.1627 45.7729 14.267 44.9897 13.5807 43.3374L11.002 37.1284L4.7882 34.5615Z" fill="url(#paint0_linear_12_979)"/>
<path d="M7.4009 33.1695C5.98362 32.5841 5.30934 30.9606 5.8948 29.5432L8.09493 24.2175L5.88472 18.8957C5.29655 17.4796 5.96778 15.8548 7.38395 15.2666L12.7056 13.0564L14.9058 7.73055C15.4912 6.31327 17.1148 5.63899 18.5321 6.22445L23.8579 8.4246L29.1795 6.21439C30.5957 5.62622 32.2206 6.29743 32.8087 7.7136L35.019 13.0353L40.3447 15.2354C41.7621 15.8209 42.4363 17.4445 41.8509 18.8617L39.6508 24.1875L41.8609 29.5093C42.4491 30.9253 41.7778 32.5502 40.3616 33.1384L35.04 35.3486L32.8399 40.6744C32.2545 42.0917 30.6309 42.7659 29.2136 42.1806L23.8877 39.9804L18.5661 42.1907C17.1499 42.7787 15.5251 42.1076 14.9369 40.6914L12.7267 35.3696L7.4009 33.1695Z" fill="url(#paint1_linear_12_979)"/>
<path d="M10.209 31.6108C9.02175 31.1203 8.45693 29.7604 8.94735 28.5731L10.7903 24.1117L8.93889 19.6541C8.44622 18.4678 9.00848 17.1067 10.1948 16.614L14.6526 14.7626L16.4955 10.3013C16.986 9.11411 18.346 8.54927 19.5332 9.03971L23.9944 10.8827L28.4522 9.03126C29.6385 8.53856 30.9996 9.10084 31.4923 10.2871L33.3437 14.7449L37.8051 16.5879C38.9921 17.0783 39.5571 18.4383 39.0666 19.6254L37.2236 24.0868L39.075 28.5446C39.5677 29.7309 39.0054 31.092 37.8191 31.5846L33.3613 33.4361L31.5184 37.8973C31.0281 39.0846 29.6679 39.6493 28.4807 39.159L24.0195 37.3159L19.5617 39.1674C18.3754 39.66 17.0144 39.0979 16.5217 37.9116L14.6702 33.4538L10.209 31.6108Z" fill="url(#paint2_linear_12_979)"/>
<path d="M11.6548 30.8235C10.5921 30.3844 10.0864 29.1669 10.5254 28.1042L12.1753 24.1104L10.5179 20.1197C10.0768 19.0577 10.5802 17.8393 11.6421 17.3983L15.6328 15.7409L17.2826 11.7471C17.7217 10.6843 18.9392 10.1787 20.0019 10.6177L23.9957 12.2675L27.9864 10.6101C29.0484 10.1691 30.2668 10.6724 30.7078 11.7344L32.3653 15.725L36.3591 17.3749C37.4218 17.8139 37.9275 19.0314 37.4884 20.0942L35.8386 24.0879L37.4961 28.0787C37.9371 29.1407 37.4336 30.3591 36.3718 30.8001L32.3811 32.4576L30.7312 36.4513C30.2921 37.5141 29.0747 38.0197 28.0119 37.5806L24.0182 35.9308L20.0274 37.5883C18.9654 38.0293 17.7471 37.5259 17.306 36.4641L15.6486 32.4733L11.6548 30.8235Z" fill="url(#paint3_linear_12_979)"/>
<path d="M11.6548 30.8235C10.5921 30.3844 10.0864 29.1669 10.5254 28.1042L12.1753 24.1104L10.5179 20.1197C10.0768 19.0577 10.5802 17.8393 11.6421 17.3983L15.6328 15.7409L17.2826 11.7471C17.7217 10.6843 18.9392 10.1787 20.0019 10.6177L23.9957 12.2675L27.9864 10.6101C29.0484 10.1691 30.2668 10.6724 30.7078 11.7344L32.3653 15.725L36.3591 17.3749C37.4218 17.8139 37.9275 19.0314 37.4884 20.0942L35.8386 24.0879L37.4961 28.0787C37.9371 29.1407 37.4336 30.3591 36.3718 30.8001L32.3811 32.4576L30.7312 36.4513C30.2921 37.5141 29.0747 38.0197 28.0119 37.5806L24.0182 35.9308L20.0274 37.5883C18.9654 38.0293 17.7471 37.5259 17.306 36.4641L15.6486 32.4733L11.6548 30.8235Z" fill="url(#paint4_linear_12_979)"/>
<path d="M13.0617 8.90506C13.446 9.12074 13.9373 8.97527 14.159 8.58014C14.3808 8.185 14.2491 7.68984 13.8648 7.47416C13.4805 7.25847 12.9892 7.40394 12.7674 7.79908C12.5456 8.19421 12.6774 8.68937 13.0617 8.90506Z" fill="white"/>
<path d="M14.0488 6.90473C14.4829 7.14834 15.2378 6.62777 15.7349 5.74201C16.232 4.85624 16.2832 3.94069 15.8491 3.69708C15.415 3.45347 14.6602 3.97404 14.163 4.85981C13.6659 5.74557 13.6148 6.66112 14.0488 6.90473Z" fill="white"/>
<path opacity="0.8" fill-rule="evenodd" clip-rule="evenodd" d="M28.386 17.4739L28.3839 17.263C28.3598 14.8906 26.3833 12.981 23.9618 13.0057C21.54 13.0303 19.6029 14.9797 19.6271 17.3522L19.6292 17.5631L18.0204 17.5794C17.4467 17.5853 16.9696 18.0143 16.9141 18.5742L15.6374 31.4666C15.5729 32.1178 16.0987 32.6799 16.7661 32.6732L31.6637 32.5215C32.3327 32.5146 32.8476 31.9391 32.767 31.2878L31.1758 18.4247C31.107 17.8679 30.6221 17.4511 30.0501 17.4569L28.386 17.4739ZM25.914 17.2882C25.9035 16.2462 25.0369 15.4165 23.9863 15.4272C22.9358 15.4379 22.0864 16.2851 22.0969 17.327L22.0991 17.5379L25.9163 17.499L25.914 17.2882ZM28.4074 19.5653L28.4209 20.886C28.4276 21.5546 27.8801 22.1023 27.1982 22.1094C26.5161 22.1164 25.9577 21.5799 25.9509 20.9111L25.9374 19.5904L22.1203 19.6292L22.1338 20.9501C22.1406 21.6188 21.5933 22.1664 20.9113 22.1734C20.2292 22.1803 19.6708 21.6439 19.6641 20.9752L19.6506 19.6543L18.9495 19.6614L17.8692 30.5704L30.5134 30.4418L29.167 19.5574L28.4074 19.5653Z" fill="url(#paint5_linear_12_979)"/>
<defs>
<linearGradient id="paint0_linear_12_979" x1="39.5827" y1="40.9657" x2="14.5273" y2="5.09338" gradientUnits="userSpaceOnUse">
<stop stop-color="#9BFFFF"/>
<stop offset="0.5" stop-color="#B8B9FF"/>
<stop offset="0.885" stop-color="#FFCBFF"/>
<stop offset="1" stop-color="#FDFCFF"/>
</linearGradient>
<linearGradient id="paint1_linear_12_979" x1="42.3525" y1="41.0578" x2="13.4905" y2="6.25916" gradientUnits="userSpaceOnUse">
<stop stop-color="#5285BF"/>
<stop offset="1" stop-color="#AE66F0"/>
</linearGradient>
<linearGradient id="paint2_linear_12_979" x1="36.6347" y1="41.4476" x2="17.0937" y2="3.11848" gradientUnits="userSpaceOnUse">
<stop stop-color="#9BFFFF"/>
<stop offset="0.5" stop-color="#B8B9FF"/>
<stop offset="1" stop-color="#FFCBFF"/>
</linearGradient>
<linearGradient id="paint3_linear_12_979" x1="19.3402" y1="8.02845" x2="24.9142" y2="25.1563" gradientUnits="userSpaceOnUse">
<stop stop-color="white"/>
<stop offset="1" stop-color="white" stop-opacity="0"/>
</linearGradient>
<linearGradient id="paint4_linear_12_979" x1="20.4637" y1="10.4834" x2="23.3361" y2="20.5307" gradientUnits="userSpaceOnUse">
<stop stop-color="white"/>
<stop offset="1" stop-color="white" stop-opacity="0"/>
</linearGradient>
<linearGradient id="paint5_linear_12_979" x1="24.2149" y1="32.5973" x2="24.0154" y2="13.0051" gradientUnits="userSpaceOnUse">
<stop stop-color="#6141A6"/>
<stop offset="1" stop-color="#6C84FF"/>
</linearGradient>
</defs>
</svg>
