<svg width="24" height="25" viewBox="0 0 24 25" fill="none" xmlns="http://www.w3.org/2000/svg">
<path d="M19.6551 13.8481C19.6551 12.4916 19.6551 8.46198 19.6551 5.99776C19.6551 4.89319 18.7597 4 17.6551 4H9.28925C8.85145 3.99956 8.42345 4.12441 8.05992 4.3586C7.69638 4.59279 7.41382 4.9257 7.24831 5.31479C6.3322 7.46848 4.98179 10.7865 4.34998 13.1254C4.06017 14.1982 4.90431 15.0984 6.01558 15.0903C7.84738 15.0769 10.5266 15.0598 12.297 15.0598C12.3171 15.0594 12.3371 15.0633 12.3554 15.0714C12.3737 15.0794 12.3899 15.0913 12.4028 15.1061C12.4157 15.121 12.425 15.1384 12.4299 15.1572C12.4348 15.1759 12.4353 15.1955 12.4312 15.2144C12.4312 15.2144 11.3839 19.0042 11.3839 19.4424C11.3839 19.8807 12.4044 21.5822 12.8609 21.2986L18.9837 15.3949C19.1995 15.1946 19.3704 14.9541 19.4859 14.6881C19.6013 14.4221 19.6589 14.1362 19.6551 13.8481Z" stroke="white" stroke-width="2"/>
</svg>
