<svg width="20" height="20" viewBox="0 0 20 20" fill="none" xmlns="http://www.w3.org/2000/svg">
<path d="M12.0811 4.03178L15.5225 7.46342L15.9316 7.87162L15.5244 8.2808L5.625 18.2456L5.45508 18.4165H1.19434V14.1675L1.36328 13.9986L11.2627 4.03373L11.6709 3.6226L12.0811 4.03178ZM14.9961 1.04252C15.3895 1.04252 15.7562 1.20977 16.041 1.49369L18.1152 3.56205C18.4 3.84599 18.5683 4.21218 18.5684 4.606C18.5684 4.99733 18.4015 5.36086 18.1201 5.64408L18.1211 5.64506L16.5186 7.28959L16.1104 7.70951L15.6953 7.29545L12.3486 3.95854L11.9434 3.55424L12.3428 3.14506L13.9453 1.49955L13.9512 1.49369C14.236 1.20971 14.6027 1.04256 14.9961 1.04252Z" stroke="#FFFFFF" stroke-width="1.15734"/>
</svg>
