<svg width="22" height="23" viewBox="0 0 22 23" fill="none" xmlns="http://www.w3.org/2000/svg">
<path d="M14.7144 21.0161C12.2059 21.8912 8.70541 21.8677 6.42803 20.9943C5.37435 20.5902 4.8953 19.4652 5.0191 18.3435C5.13398 17.3026 5.32037 16.1577 5.50887 15.1315C5.845 13.3016 7.46479 12.0199 9.3253 12.0199L12.0215 12.0199" stroke="#FCFCFC" stroke-width="2" stroke-linecap="round" stroke-linejoin="round"/>
<circle cx="10.9657" cy="5.47518" r="3.4753" stroke="#FCFCFC" stroke-width="2" stroke-linecap="round" stroke-linejoin="round"/>
<path d="M18.5581 10.7501L18.5581 10.7501L18.553 10.7553L17.9608 11.3631L17.9534 11.3708L17.9167 11.3342L17.5637 11.6896L13.9062 15.3712L13.7609 15.5175V15.7236V16.9914V17.4914H14.2609H15.5323H15.7404L15.887 17.3438L19.5445 13.6621L19.5555 13.651L19.5607 13.6562L19.9137 13.2939L20.5038 12.6882C20.6549 12.5361 20.7522 12.3312 20.7522 12.1028C20.7522 11.8728 20.6536 11.6667 20.5008 11.5142L19.7344 10.7501C19.5815 10.5977 19.3755 10.5 19.1463 10.5C18.917 10.5 18.711 10.5977 18.5581 10.7501Z" stroke="#FCFCFC"/>
</svg>
