<svg width="50" height="50" viewBox="0 0 50 50" fill="none" xmlns="http://www.w3.org/2000/svg">
<path opacity="0.25" d="M17.9456 44.7477C17.695 45.5169 16.8658 45.9415 16.1149 45.6407C13.517 44.6003 11.1359 43.0832 9.09427 41.1676C8.50513 40.6148 8.53845 39.6854 9.12767 39.1327L11.9121 36.5209C12.5024 35.9673 13.4256 36.0034 14.0311 36.5403C15.2762 37.6445 16.6885 38.544 18.2151 39.2052C18.9566 39.5264 19.3798 40.3461 19.1294 41.1145L17.9456 44.7477Z" fill="#FCFCFC"/>
<path d="M30.9772 4.75231C31.2279 3.98315 32.057 3.55853 32.808 3.85928C35.4058 4.89969 37.787 6.41682 39.8286 8.33239C40.4177 8.88516 40.3844 9.81459 39.7952 10.3673L37.0107 12.9791C36.4205 13.5327 35.4972 13.4966 34.8918 12.9597C33.6466 11.8555 32.2344 10.956 30.7078 10.2948C29.9662 9.97356 29.5431 9.15393 29.7934 8.38554L30.9772 4.75231Z" fill="#FCFCFC"/>
<path opacity="0.25" d="M3.4523 24.75C2.64374 24.75 1.98333 24.0938 2.03583 23.287C2.21775 20.4916 2.91954 17.7546 4.10498 15.2171C4.44746 14.484 5.34307 14.227 6.05192 14.6171L9.39478 16.4571C10.1026 16.8467 10.3541 17.7339 10.0326 18.4751C9.36933 20.0039 8.95264 21.6285 8.79812 23.288C8.72316 24.0931 8.07475 24.75 7.26619 24.75H3.4523Z" fill="#FCFCFC"/>
<path opacity="0.25" d="M45.4706 24.75C46.2791 24.75 46.9395 25.4062 46.887 26.213C46.7051 29.0084 46.0033 31.7454 44.8179 34.2829C44.4754 35.016 43.5798 35.273 42.8709 34.8829L39.5281 33.0429C38.8202 32.6533 38.5687 31.7661 38.8903 31.0249C39.5535 29.4961 39.9702 27.8715 40.1247 26.212C40.1997 25.4069 40.8481 24.75 41.6567 24.75H45.4706Z" fill="#FCFCFC"/>
<path opacity="0.25" d="M7.46635 37.1141C6.81199 37.5902 5.8911 37.4474 5.45943 36.763C3.96558 34.3944 2.92657 31.7671 2.39602 29.0166C2.24291 28.2228 2.81569 27.4892 3.61767 27.3877L7.40152 26.9089C8.20384 26.8073 8.9297 27.3779 9.10497 28.1674C9.46614 29.7942 10.083 31.3535 10.9324 32.7868C11.3443 33.4818 11.206 34.3935 10.5527 34.8688L7.46635 37.1141Z" fill="#FCFCFC"/>
<path opacity="0.25" d="M41.4565 12.3859C42.1109 11.9098 43.0317 12.0526 43.4634 12.737C44.9573 15.1056 45.9963 17.7329 46.5268 20.4834C46.6799 21.2772 46.1072 22.0108 45.3052 22.1123L41.5213 22.5911C40.719 22.6927 39.9932 22.1221 39.8179 21.3326C39.4567 19.7058 38.8399 18.1465 37.9905 16.7132C37.5786 16.0182 37.7169 15.1065 38.3702 14.6312L41.4565 12.3859Z" fill="#FCFCFC"/>
<path opacity="0.25" d="M7.45128 12.4009C6.79751 11.9263 6.64817 11.0083 7.16356 10.3861C8.94976 8.22987 11.1226 6.42642 13.5701 5.0688C14.2776 4.67633 15.1535 4.99395 15.4983 5.72587L17.1267 9.18201C17.471 9.91297 17.1538 10.7789 16.4584 11.1904C15.0262 12.0377 13.7372 13.1072 12.6396 14.3589C12.1061 14.9673 11.1947 15.1186 10.5399 14.6432L7.45128 12.4009Z" fill="#FCFCFC"/>
<path opacity="0.25" d="M17.9684 4.78687C17.7189 4.01819 18.1387 3.18781 18.9218 2.98837C21.6335 2.29783 24.4503 2.12037 27.2271 2.46513C28.0292 2.56473 28.5498 3.33613 28.3985 4.13015L27.6832 7.88432C27.5319 8.67884 26.7648 9.19286 25.9597 9.11573C24.3046 8.95717 22.6347 9.06234 21.0125 9.42731C20.2232 9.60487 19.3977 9.19094 19.1479 8.42149L17.9684 4.78687Z" fill="#FCFCFC"/>
<path opacity="0.25" d="M20.5141 45.3922C20.3586 46.1852 20.875 46.9593 21.6765 47.0633C24.4514 47.4233 27.2692 47.2613 29.9845 46.5857C30.7688 46.3905 31.193 45.5622 30.9476 44.7921L29.787 41.151C29.5414 40.3803 28.7182 39.9621 27.9281 40.1353C26.304 40.4914 24.6335 40.5874 22.9793 40.4199C22.1744 40.3383 21.4045 40.8483 21.249 41.6422L20.5141 45.3922Z" fill="#FCFCFC"/>
<path opacity="0.25" d="M41.4716 37.0991C42.1253 37.5737 42.2747 38.4917 41.7593 39.1139C39.9731 41.2701 37.8002 43.0736 35.3528 44.4312C34.6453 44.8237 33.7694 44.5061 33.4245 43.7741L31.7962 40.318C31.4518 39.587 31.769 38.7211 32.4645 38.3096C33.8967 37.4623 35.1857 36.3928 36.2832 35.1411C36.8167 34.5327 37.7281 34.3814 38.383 34.8568L41.4716 37.0991Z" fill="#FCFCFC"/>
</svg>
