<svg width="24" height="25" viewBox="0 0 24 25" fill="none" xmlns="http://www.w3.org/2000/svg">
<path d="M9.70288 8.80736C11.8054 8.80049 13.5043 7.09767 13.4975 5.00402C13.4906 2.91037 11.7806 1.21871 9.67808 1.22559C7.57554 1.23246 5.87665 2.93528 5.88349 5.02893C5.89034 7.12258 7.60034 8.81424 9.70288 8.80736Z" stroke="#FFFFFF" stroke-width="2" stroke-linecap="round" stroke-linejoin="round"/>
<path d="M9.81854 12.1809L8.19214 12.1809C6.1625 12.1809 4.39545 13.5791 4.02876 15.5753C3.82313 16.6948 3.6198 17.9438 3.49447 19.0794C3.35942 20.303 3.88202 21.5303 5.03148 21.9711C7.31787 22.848 10.7344 22.9396 13.3974 22.2045" stroke="#FFFFFF" stroke-width="2.5" stroke-linecap="round" stroke-linejoin="round"/>
<circle cx="9.98167" cy="5.04124" r="3.79124" stroke="#FFFFFF" stroke-width="2.5" stroke-linecap="round" stroke-linejoin="round"/>
<path fill-rule="evenodd" clip-rule="evenodd" d="M18.9727 11.8199C18.5652 11.8177 18.1619 11.905 17.7895 12.0759C17.6077 12.1594 17.4353 12.2619 17.2749 12.3814C17.1067 12.5068 16.9516 12.6509 16.8127 12.8116C16.6737 12.6509 16.5187 12.5068 16.3505 12.3814C16.1901 12.2619 16.0177 12.1594 15.8359 12.076C15.4635 11.905 15.0602 11.8178 14.6527 11.82C14.3083 11.8134 13.9661 11.8778 13.646 12.0094C13.326 12.141 13.0346 12.3372 12.7888 12.5865C12.543 12.8358 12.3477 13.1331 12.2145 13.4612C12.0812 13.7894 12.0126 14.1416 12.0127 14.4974C12.0126 16.6658 14.0535 18.3895 15.7469 19.8197C15.9173 19.9636 16.0841 20.1045 16.245 20.2426C16.5719 20.5232 17.0544 20.5245 17.3821 20.2449C17.5297 20.119 17.6822 19.9906 17.8378 19.8596C19.5405 18.4263 21.6126 16.6819 21.6127 14.4973C21.6127 14.1415 21.5441 13.7892 21.4109 13.4611C21.2776 13.133 21.0824 12.8356 20.8366 12.5864C20.5908 12.3371 20.2994 12.1409 19.9794 12.0093C19.6593 11.8777 19.3171 11.8133 18.9727 11.8199Z" stroke="white" stroke-width="1.8"/>
</svg>
