<svg width="22" height="23" viewBox="0 0 22 23" fill="none" xmlns="http://www.w3.org/2000/svg">
<path d="M8.89357 8.9275C10.8209 8.9212 12.3782 7.36028 12.3719 5.44111C12.3657 3.52193 10.7982 1.97123 8.87084 1.97754C6.94351 1.98384 5.38619 3.54475 5.39247 5.46393C5.39875 7.38311 6.96624 8.9338 8.89357 8.9275Z" stroke="#FCFCFC" stroke-width="2" stroke-linecap="round" stroke-linejoin="round"/>
<path d="M9.5049 11.3975L7.39535 11.3772C6.26344 11.3667 5.1629 11.7518 4.28659 12.4665C3.41011 13.1813 2.81355 14.1807 2.6034 15.2903L2.60317 15.2916C2.41535 16.2904 2.22614 17.4666 2.1152 18.5268C1.9906 19.27 2.11754 20.0333 2.47614 20.697C2.84109 21.3724 3.42408 21.9043 4.12938 22.2081C4.15502 22.2192 4.18111 22.2291 4.20758 22.238C5.73753 22.7502 7.34762 22.9848 8.96092 22.9308C10.5712 22.9736 12.1764 22.7285 13.6997 22.2068C13.7269 22.1975 13.7537 22.187 13.78 22.1754C13.8594 22.1403 13.9371 22.1023 14.0132 22.0616C13.8836 21.9819 13.7589 21.8912 13.6403 21.7895C13.4801 21.652 13.3129 21.5107 13.1346 21.3601L13.0781 21.3124C12.8082 21.0845 12.5134 20.8356 12.2088 20.5678C11.1591 20.8396 10.0741 20.9623 8.9865 20.9307C8.96489 20.9301 8.94327 20.9302 8.92166 20.9309C7.55261 20.98 6.18601 20.7853 4.88667 20.3561C4.60796 20.2274 4.37986 20.013 4.23571 19.7462C4.08582 19.4688 4.03492 19.1501 4.09051 18.8412C4.09495 18.8166 4.09846 18.7917 4.10104 18.7668C4.20387 17.771 4.38495 16.6385 4.56858 15.6619C4.69075 15.0175 5.03768 14.4347 5.55063 14.0164C6.06378 13.5979 6.71009 13.371 7.37646 13.3771L8.62864 13.3892C8.68831 13.0752 8.77894 12.767 8.89978 12.4695C9.05496 12.0874 9.25828 11.727 9.5049 11.3975Z" fill="white"/>
<path fill-rule="evenodd" clip-rule="evenodd" d="M17.3947 11.8826C16.9935 11.8804 16.5965 11.9663 16.2299 12.1346C16.051 12.2168 15.8812 12.3177 15.7233 12.4354C15.5577 12.5588 15.4051 12.7007 15.2683 12.8589C15.1315 12.7007 14.9789 12.5588 14.8133 12.4354C14.6554 12.3177 14.4857 12.2168 14.3067 12.1347C13.9401 11.9664 13.5431 11.8805 13.1419 11.8827C12.8029 11.8762 12.466 11.9396 12.1509 12.0691C11.8358 12.1987 11.5489 12.3918 11.307 12.6372C11.065 12.8826 10.8728 13.1754 10.7416 13.4984C10.6104 13.8214 10.5429 14.1682 10.5429 14.5185C10.5429 16.6531 12.5521 18.35 14.2191 19.7579C14.3868 19.8996 14.5511 20.0383 14.7095 20.1742C15.0313 20.4505 15.5062 20.4518 15.8289 20.1765C15.9742 20.0526 16.1243 19.9262 16.2775 19.7972C17.9537 18.3862 19.9936 16.6689 19.9936 14.5183C19.9937 14.1681 19.9261 13.8213 19.795 13.4983C19.6638 13.1753 19.4716 12.8825 19.2296 12.6371C18.9877 12.3917 18.7008 12.1986 18.3857 12.0691C18.0707 11.9395 17.7338 11.8761 17.3947 11.8826Z" fill="white"/>
</svg>
