<svg width="52" height="59" viewBox="0 0 52 59" fill="none" xmlns="http://www.w3.org/2000/svg">
<path d="M19.2717 33.3007C19.2498 33.6063 19.2388 33.913 19.2388 34.2203C19.2387 41.4605 24.1452 47.6318 29.824 52.9957C29.772 53.0293 29.7194 53.0616 29.6662 53.0924C27.2579 54.1728 24.7185 54.6754 22.171 54.5758C19.6186 54.6933 17.0702 54.2074 14.6493 53.1415C13.801 52.6612 13.1014 51.8225 12.6638 50.7609C12.2261 49.6994 12.076 48.4771 12.2376 47.292C12.4167 44.9926 12.7307 42.4055 13.0458 40.1941C13.3261 38.2411 14.1252 36.48 15.3031 35.2193C16.4252 34.0184 17.8228 33.3446 19.2717 33.3007Z" fill="#FF7439"/>
<path d="M19.7235 22.007C25.4508 21.9882 30.0787 17.3497 30.06 11.6466C30.0413 5.94347 25.3833 1.33535 19.6559 1.35408C13.9286 1.37281 9.30077 6.01131 9.31942 11.7144C9.33807 17.4176 13.9961 22.0257 19.7235 22.007Z" stroke="#FCFCFC" stroke-width="2.70808" stroke-linecap="round" stroke-linejoin="round"/>
<path d="M33.5852 56.4972C33.5852 56.4972 33.5852 56.4972 33.5852 56.4972Z" fill="#FCFCFC"/>
<path d="M32.6636 55.806C32.8465 55.963 33.0344 56.1112 33.2266 56.2506L33.1557 56.2823C33.0903 56.3112 33.0237 56.3373 32.9561 56.3604C28.6416 57.838 24.0951 58.5318 19.5338 58.4103L19.5113 58.4111C14.9416 58.564 10.3809 57.8995 6.04739 56.4488C5.98159 56.4267 5.91675 56.402 5.85303 56.3745C3.91283 55.5386 2.30951 54.0757 1.30599 52.2185C0.319937 50.3936 -0.0283073 48.295 0.314264 46.2519L0.316682 46.2288C0.632567 43.2097 1.17189 39.8561 1.70793 37.0056L1.70852 37.0024C2.29308 33.9157 3.95255 31.1355 6.39132 29.1465C8.82964 27.1579 11.8924 26.0862 15.0425 26.1152L20.3593 26.1666C19.821 26.9689 19.366 27.8258 19.0015 28.7233C18.6861 29.4999 18.4408 30.3011 18.2671 31.117L14.9954 31.0854C13.0022 31.0673 11.0685 31.7458 9.53272 32.9983C7.99746 34.2504 6.95828 35.996 6.59233 37.9262C6.06595 40.7255 5.54611 43.9757 5.25058 46.8375C5.24419 46.8995 5.23546 46.9612 5.22442 47.0225C5.05034 47.9897 5.20981 48.9876 5.67887 49.8557C6.1299 50.6904 6.84309 51.3602 7.71339 51.7623C7.72631 51.7683 7.73956 51.7735 7.75307 51.778C11.5117 53.0193 15.4648 53.5827 19.425 53.4407C19.4787 53.4388 19.5324 53.4386 19.5861 53.4402C22.6657 53.5295 25.7381 53.1914 28.7148 52.4395C29.5356 53.1582 30.3304 53.8293 31.0578 54.4435L31.2194 54.58C31.7296 55.0108 32.2068 55.4139 32.6636 55.806Z" fill="#FCFCFC"/>
<path fill-rule="evenodd" clip-rule="evenodd" d="M43.6471 27.1858C42.4997 27.1796 41.3641 27.4253 40.3156 27.9066C39.8037 28.1416 39.3183 28.4302 38.8666 28.7668C38.393 29.1198 37.9564 29.5256 37.5652 29.9781C37.174 29.5256 36.7374 29.1198 36.2638 28.7669C35.8121 28.4302 35.3267 28.1417 34.8148 27.9067C33.7663 27.4254 32.6307 27.1797 31.4833 27.186C30.5135 27.1675 29.5499 27.3488 28.6488 27.7193C27.7477 28.0899 26.9271 28.6423 26.235 29.3442C25.5429 30.0461 24.9931 30.8834 24.6179 31.8073C24.2427 32.7311 24.0495 33.723 24.0497 34.7249C24.0496 40.8303 29.7962 45.6837 34.5643 49.7107C35.044 50.1159 35.5138 50.5127 35.9668 50.9015C36.8873 51.6916 38.2457 51.6954 39.1685 50.9081C39.5841 50.5536 40.0136 50.1921 40.4517 49.8232C45.2459 45.7873 51.0804 40.8756 51.0805 34.7245C51.0807 33.7226 50.8876 32.7308 50.5124 31.8069C50.1372 30.8831 49.5875 30.0457 48.8954 29.3438C48.2033 28.642 47.3827 28.0896 46.4816 27.7191C45.5805 27.3485 44.6169 27.1673 43.6471 27.1858Z" fill="#FCFCFC"/>
</svg>
