<svg width="24" height="24" viewBox="0 0 24 24" fill="none" xmlns="http://www.w3.org/2000/svg">
<mask id="path-1-outside-1_8727_4712" maskUnits="userSpaceOnUse" x="0.159912" y="1.84" width="22" height="22" fill="black">
<rect fill="white" x="0.159912" y="1.84" width="22" height="22"/>
<path fill-rule="evenodd" clip-rule="evenodd" d="M10.1445 21.12C9.69743 21.12 9.32171 20.7841 9.27188 20.3398L8.79484 16.0862C8.74643 15.6545 8.41401 15.3091 7.98445 15.2443L3.62702 14.5866C3.19753 14.5217 2.87996 14.1526 2.87996 13.7183V11.0907C2.87996 10.6497 3.20695 10.2772 3.64416 10.22L7.93935 9.65798C8.37475 9.60101 8.71593 9.25576 8.76774 8.81972L9.26736 4.61453C9.31985 4.17275 9.69445 3.84002 10.1393 3.84002H12.7474C13.1862 3.84002 13.5577 4.16398 13.6174 4.59873L14.1921 8.78623C14.2506 9.21215 14.5852 9.54721 15.011 9.60624L19.4024 10.2149C19.8366 10.2751 20.16 10.6464 20.16 11.0847V13.7227C20.16 14.1551 19.8451 14.5232 19.4179 14.5902L14.9777 15.2867C14.5574 15.3526 14.2308 15.6873 14.1751 16.1091L13.614 20.3569C13.5563 20.7936 13.184 21.12 12.7435 21.12H10.1445Z"/>
</mask>
<path d="M9.27188 20.3398L11.2594 20.1169L9.27188 20.3398ZM3.62702 14.5866L3.32851 16.5642V16.5642L3.62702 14.5866ZM3.64416 10.22L3.38468 8.23687L3.38469 8.23687L3.64416 10.22ZM9.26736 4.61453L7.28133 4.37857V4.37857L9.26736 4.61453ZM13.6174 4.59873L15.5988 4.32677V4.32677L13.6174 4.59873ZM19.4024 10.2149L19.1278 12.196H19.1278L19.4024 10.2149ZM19.4179 14.5902L19.7279 16.566H19.7279L19.4179 14.5902ZM13.614 20.3569L11.6312 20.095V20.095L13.614 20.3569ZM14.9777 15.2867L15.2876 17.2625L14.9777 15.2867ZM14.1751 16.1091L12.1923 15.8472L14.1751 16.1091ZM14.1921 8.78623L16.1735 8.51427L14.1921 8.78623ZM15.011 9.60624L15.2856 7.62518L15.011 9.60624ZM7.93935 9.65798L8.19882 11.6411L7.93935 9.65798ZM8.76774 8.81972L10.7538 9.05568L8.76774 8.81972ZM7.98445 15.2443L8.28296 13.2667L7.98445 15.2443ZM11.2594 20.1169C11.1958 19.5492 10.7157 19.12 10.1445 19.12V23.12C8.67911 23.12 7.44766 22.019 7.28434 20.5627L11.2594 20.1169ZM10.7824 15.8633L11.2594 20.1169L7.28434 20.5627L6.8073 16.3091L10.7824 15.8633ZM3.92552 12.609L8.28296 13.2667L7.68595 17.2219L3.32851 16.5642L3.92552 12.609ZM4.87996 13.7183C4.87996 13.1633 4.47424 12.6918 3.92552 12.609L3.32851 16.5642C1.92081 16.3517 0.879961 15.1419 0.879961 13.7183H4.87996ZM4.87996 11.0907V13.7183H0.879961V11.0907H4.87996ZM3.90363 12.2031C4.4622 12.13 4.87996 11.654 4.87996 11.0907H0.879961C0.879961 9.64545 1.9517 8.42436 3.38468 8.23687L3.90363 12.2031ZM8.19882 11.6411L3.90363 12.2031L3.38469 8.23687L7.67988 7.67488L8.19882 11.6411ZM11.2534 4.8505L10.7538 9.05568L6.78171 8.58375L7.28133 4.37857L11.2534 4.8505ZM10.1393 5.84002C10.7077 5.84002 11.1863 5.41493 11.2534 4.8505L7.28133 4.37857C7.45337 2.93056 8.68115 1.84002 10.1393 1.84002V5.84002ZM12.7474 5.84002H10.1393V1.84002H12.7474V5.84002ZM11.6359 4.87069C11.7122 5.42613 12.1868 5.84002 12.7474 5.84002V1.84002C14.1857 1.84002 15.4032 2.90183 15.5988 4.32677L11.6359 4.87069ZM12.2107 9.05819L11.6359 4.87069L15.5988 4.32677L16.1735 8.51427L12.2107 9.05819ZM19.1278 12.196L14.7364 11.5873L15.2856 7.62518L19.677 8.23389L19.1278 12.196ZM18.16 11.0847C18.16 11.6448 18.573 12.1191 19.1278 12.196L19.677 8.23389C21.1003 8.43117 22.16 9.6479 22.16 11.0847H18.16ZM18.16 13.7227V11.0847H22.16V13.7227H18.16ZM19.108 12.6144C18.5622 12.7 18.16 13.1702 18.16 13.7227H22.16C22.16 15.14 21.1281 16.3464 19.7279 16.566L19.108 12.6144ZM14.6677 13.3109L19.108 12.6144L19.7279 16.566L15.2876 17.2625L14.6677 13.3109ZM11.6312 20.095L12.1923 15.8472L16.1578 16.3709L15.5968 20.6188L11.6312 20.095ZM12.7435 19.12C12.1806 19.12 11.7049 19.537 11.6312 20.095L15.5968 20.6188C15.4077 22.0502 14.1873 23.12 12.7435 23.12V19.12ZM10.1445 19.12H12.7435V23.12H10.1445V19.12ZM15.2876 17.2625C15.7432 17.1911 16.0974 16.8282 16.1578 16.3709L12.1923 15.8472C12.3641 14.5465 13.3716 13.5142 14.6677 13.3109L15.2876 17.2625ZM16.1735 8.51427C16.1102 8.05247 15.7474 7.68918 15.2856 7.62518L14.7364 11.5873C13.423 11.4052 12.391 10.3718 12.2107 9.05819L16.1735 8.51427ZM7.67988 7.67488C7.2078 7.73665 6.83788 8.11098 6.78171 8.58375L10.7538 9.05568C10.594 10.4005 9.5417 11.4654 8.19882 11.6411L7.67988 7.67488ZM6.8073 16.3091C6.8598 16.7772 7.22021 17.1516 7.68595 17.2219L8.28296 13.2667C9.60781 13.4667 10.6331 14.5318 10.7824 15.8633L6.8073 16.3091Z" fill="#FCFCFC" mask="url(#path-1-outside-1_8727_4712)"/>
<circle cx="2.62991" cy="2.62991" r="2.62991" transform="matrix(0.5 -0.866025 -0.866025 -0.5 12.4827 16.0725)" stroke="#FCFCFC" stroke-linejoin="round"/>
</svg>
