<svg width="25" height="24" viewBox="0 0 25 24" fill="none" xmlns="http://www.w3.org/2000/svg">
<path d="M3.16357 7.00799C3.16357 6.31874 3.72232 5.75999 4.41157 5.75999H19.3876C20.0768 5.75999 20.6356 6.31874 20.6356 7.00799C20.6356 7.69725 20.0768 8.25599 19.3876 8.25599H4.41157C3.72232 8.25599 3.16357 7.69725 3.16357 7.00799Z" fill="white"/>
<path d="M3.16357 12C3.16357 11.3107 3.72232 10.752 4.41157 10.752H19.3876C20.0768 10.752 20.6356 11.3107 20.6356 12C20.6356 12.6892 20.0768 13.248 19.3876 13.248H4.41157C3.72232 13.248 3.16357 12.6892 3.16357 12Z" fill="white"/>
<path d="M3.16357 16.992C3.16357 16.3027 3.72232 15.744 4.41157 15.744H19.3876C20.0768 15.744 20.6356 16.3027 20.6356 16.992C20.6356 17.6812 20.0768 18.24 19.3876 18.24H4.41157C3.72232 18.24 3.16357 17.6812 3.16357 16.992Z" fill="white"/>
</svg>
