<svg width="40" height="40" viewBox="0 0 40 40" fill="none" xmlns="http://www.w3.org/2000/svg">
<path d="M26.5977 23.4903C26.6017 23.5191 26.6062 23.5516 26.6106 23.5902L26.6094 23.5926C26.63 23.5685 26.6477 23.5482 26.6633 23.5303C26.6971 23.4914 26.721 23.464 26.7425 23.435C26.9339 23.1787 27.1248 22.9221 27.3158 22.6655C27.3726 22.6109 27.4209 22.5467 27.4578 22.4745C27.9392 21.8274 28.4206 21.1805 28.9063 20.5373C29.2307 20.1093 29.6688 19.8547 30.2037 19.799C30.8463 19.7311 31.403 19.8959 31.8157 20.4355C32.3034 21.0732 32.3506 21.9522 31.9185 22.6712C31.7709 22.9161 31.6148 23.1561 31.4586 23.3962C31.2516 23.7155 31.0448 24.035 30.8381 24.3545C30.2316 25.2916 29.6253 26.2285 29.0116 27.1607C28.5927 27.7972 28.1672 28.4298 27.7417 29.0624C27.458 29.4841 27.1743 29.9059 26.8926 30.3288C26.2996 31.2187 25.5541 31.9534 24.661 32.5402C23.4617 33.3283 22.1281 33.7405 20.7218 33.9199C20.1808 33.9905 19.63 33.994 19.0818 33.9974C19.0181 33.9978 18.9544 33.9982 18.8908 33.9987C18.3547 34.0024 17.8149 34.0024 17.2836 33.9393C16.6132 33.8593 15.9549 33.6932 15.3207 33.4471C13.8527 32.8785 12.7164 31.9267 11.9479 30.5421C11.5122 29.7577 11.2218 28.9211 11.1008 28.0337C11.0521 27.68 11.0518 27.3195 11.0516 26.9608C11.0516 26.8916 11.0515 26.8224 11.0511 26.7534C11.0395 24.6229 11.031 22.4918 11.0225 20.361C11.0204 19.8265 11.0182 19.292 11.016 18.7575C11.0143 18.3292 11.012 17.9008 11.0097 17.4723C11.0041 16.4428 10.9986 15.413 11.0003 14.3831C11.0013 13.8846 11.0208 13.386 11.0404 12.8875C11.0453 12.7628 11.0502 12.6382 11.0548 12.5136C11.0584 12.3948 11.0645 12.265 11.1117 12.1595C11.5219 11.2418 12.5191 10.8526 13.3892 11.4382C13.7668 11.6916 14.0355 12.048 14.073 12.5075C14.1111 12.9669 14.1103 13.43 14.1095 13.8919C14.1094 13.9579 14.1093 14.0238 14.1093 14.0897C14.1119 15.3393 14.1114 16.5896 14.1109 17.8396C14.1107 18.3396 14.1105 18.8396 14.1105 19.3395C14.1105 19.3546 14.1104 19.3698 14.1102 19.385C14.1098 19.4303 14.1093 19.4756 14.1129 19.5201C14.1311 19.7262 14.3828 19.9529 14.6006 19.9626C14.8294 19.9723 15.0363 19.8147 15.0811 19.588C15.1005 19.491 15.1138 19.3892 15.1162 19.2897C15.1212 19.0465 15.1268 18.8033 15.1324 18.5601C15.1484 17.8678 15.1643 17.176 15.167 16.4842C15.1743 14.2061 15.1767 11.928 15.1634 9.64985C15.161 9.234 15.2856 8.8824 15.5434 8.58657C15.8713 8.21072 16.301 7.98521 16.8092 8.05432C17.6261 8.16465 18.2191 8.65931 18.2336 9.63167C18.2366 9.8513 18.2406 10.0711 18.2446 10.2909C18.252 10.6997 18.2595 11.1086 18.2603 11.517C18.263 12.7994 18.2638 14.0819 18.2646 15.3644C18.2653 16.3903 18.2659 17.4163 18.2675 18.4423C18.2675 18.8084 18.6863 19.0376 19.0057 18.8569C19.203 18.7454 19.2756 18.5817 19.2756 18.3586C19.2751 18.1443 19.2746 17.9299 19.2741 17.7156C19.2707 16.3208 19.2672 14.9253 19.2756 13.5308C19.2865 11.8419 19.2974 10.153 19.3361 8.46412C19.3567 7.54996 20.2184 6.87707 21.1175 7.01892C21.719 7.11349 22.3919 7.74394 22.3725 8.46533C22.3557 9.08591 22.3668 9.70697 22.3779 10.3282C22.3845 10.6925 22.391 11.0568 22.3919 11.4212C22.3951 12.4776 22.3959 13.5336 22.3967 14.5896C22.3974 15.4946 22.3981 16.3997 22.4003 17.305C22.4016 17.6918 22.4076 18.0798 22.4391 18.4653C22.4621 18.749 22.7005 18.9369 22.9607 18.9212C23.2366 18.9042 23.4302 18.7041 23.446 18.418C23.4496 18.3428 23.4496 18.2665 23.4496 18.1913C23.4556 15.6622 23.4617 13.1319 23.4665 10.6028C23.4665 10.4161 23.5004 10.2427 23.573 10.0645C23.855 9.37464 24.7542 8.91998 25.4585 9.14428C26.0212 9.32372 26.5622 10.0706 26.5549 10.524C26.5402 11.4042 26.546 12.2844 26.5518 13.1646C26.5541 13.5114 26.5563 13.8581 26.5574 14.2049C26.564 16.5873 26.5713 18.9704 26.5788 21.353C25.5347 21.1591 24.0968 21.1342 22.7207 21.6188C21.1104 22.1859 19.6177 23.4442 18.9801 25.8135C18.8764 26.1992 19.1049 26.596 19.4906 26.6998C19.8763 26.8036 20.2731 26.575 20.3769 26.1893C20.881 24.3158 22.0048 23.4044 23.2012 22.9831C24.4142 22.556 25.7327 22.6272 26.5835 22.8322C26.5841 23.0085 26.5846 23.1848 26.5852 23.361C26.5852 23.4005 26.5906 23.4395 26.5977 23.4903Z" fill="#FCFCFC"/>
</svg>
