<svg width="72" height="72" viewBox="0 0 72 72" fill="none" xmlns="http://www.w3.org/2000/svg">
<path d="M49.249 11.8354C51.0059 11.8015 52.754 12.1339 54.3926 12.8149C56.0315 13.4961 57.5317 14.514 58.8018 15.8159C60.072 17.118 61.0859 18.6777 61.7803 20.4058C62.4747 22.134 62.8342 23.9933 62.834 25.8735V25.8745C62.8339 31.8079 60.0523 37.3271 55.7627 42.5972C51.4662 47.8756 45.8822 52.6364 40.6455 57.0923C39.6959 57.9003 38.7577 58.699 37.8486 59.4829C36.7888 60.3968 35.2327 60.3951 34.1699 59.4731C33.1779 58.6126 32.1508 57.7355 31.1113 56.8481C25.9025 52.4015 20.3806 47.6778 16.1387 42.4468C11.9051 37.226 9.16705 31.7624 9.16699 25.8745V25.8735C9.16673 23.9933 9.52533 22.134 10.2197 20.4058C10.9141 18.6776 11.929 17.118 13.1992 15.8159C14.4692 14.5141 15.9695 13.4961 17.6084 12.8149C19.247 12.134 20.9951 11.8015 22.752 11.8354L22.7832 11.8364H22.8145C24.9336 11.8247 27.0344 12.2829 28.9785 13.1851C29.928 13.6256 30.8306 14.1676 31.6719 14.8013C32.5538 15.4656 33.3688 16.231 34.1006 17.0864L36 19.3071L37.9004 17.0864C38.6322 16.231 39.4472 15.4656 40.3291 14.8013C41.1703 14.1676 42.073 13.6256 43.0225 13.1851C44.9666 12.283 47.0674 11.8247 49.1865 11.8364H49.2178L49.249 11.8354Z" stroke="#FCFCFC" stroke-width="5"/>
</svg>
