<svg width="20" height="18" viewBox="0 0 20 18" fill="none" xmlns="http://www.w3.org/2000/svg">
<path d="M14.1039 0.840864C13.3296 0.836639 12.5633 1.00156 11.8558 1.32469C11.5104 1.48243 11.1829 1.67612 10.8781 1.9021C10.5585 2.13903 10.2639 2.41146 9.99988 2.71517C9.73589 2.41146 9.44129 2.13903 9.12171 1.9021C8.8169 1.67612 8.48935 1.48243 8.14395 1.32469C7.43642 1.00156 6.67014 0.836639 5.89588 0.840864C5.24151 0.82841 4.59129 0.950108 3.98322 1.19885C3.37515 1.44759 2.82143 1.81837 2.35442 2.28954C1.8874 2.76071 1.51647 3.32281 1.26329 3.94298C1.01011 4.56315 0.879771 5.22896 0.879883 5.90149C0.879883 9.99995 4.75765 13.258 7.9751 15.9613L7.97543 15.9616C8.29902 16.2335 8.61593 16.4998 8.92154 16.7607C9.54268 17.2911 10.4593 17.2936 11.082 16.7652C11.3624 16.5272 11.6522 16.2845 11.9479 16.0369C15.1829 13.3277 19.1199 10.0306 19.1199 5.90149C19.12 5.22896 18.9897 4.56315 18.7365 3.94298C18.4833 3.32281 18.1124 2.76071 17.6453 2.28954C17.1783 1.81837 16.6246 1.44759 16.0165 1.19885C15.4085 0.950108 14.7583 0.82841 14.1039 0.840864Z" fill="white"/>
</svg>
