<svg width="24" height="24" viewBox="0 0 24 24" fill="none" xmlns="http://www.w3.org/2000/svg">
<g clip-path="url(#clip0_49_1726)">
<path fill-rule="evenodd" clip-rule="evenodd" d="M19.0462 11.0095C19.3068 12.0942 19.4891 13.2582 19.5413 14.3164C19.5934 15.4805 19.4891 16.3271 19.1765 16.8826C18.942 17.4911 18.5512 17.8086 18.1082 17.9408C17.6914 18.0467 17.1963 17.9938 16.6752 17.7821C15.8154 17.4382 14.7993 16.6445 13.8092 15.7186C13.1057 15.0307 11.803 14.6868 10.5003 14.6868C9.19754 14.6868 7.8948 15.0307 7.19133 15.7186C6.20125 16.6445 5.21117 17.4117 4.32531 17.7821C3.80422 18.0202 3.30918 18.0467 2.8923 17.9408C2.42332 17.8086 2.05855 17.4646 1.82406 16.9091C1.58957 16.3271 1.4593 15.4805 1.51141 14.3164C1.56351 13.2582 1.7459 12.0942 2.00644 11.0095C2.26699 9.97773 2.63176 8.99888 3.04863 8.25812C4.61093 5.42916 6.32936 5.87656 8.35996 6.40524L8.36379 6.40623C9.01516 6.59142 9.69258 6.75016 10.4221 6.82952H10.6566C11.2798 6.75921 11.903 6.60586 12.49 6.46142C12.5655 6.44282 12.6406 6.42434 12.7149 6.40623C14.7472 5.85067 16.4668 5.42738 18.0301 8.23167C18.447 8.97242 18.7857 9.95128 19.0462 11.0095Z" stroke="#FFFFFF" stroke-opacity="0.7" stroke-width="2"/>
<path fill-rule="evenodd" clip-rule="evenodd" d="M15.2169 9.15707C15.2169 9.5954 14.867 9.95074 14.4353 9.95074C14.0036 9.95074 13.6537 9.5954 13.6537 9.15707C13.6537 8.71874 14.0036 8.3634 14.4353 8.3634C14.867 8.3634 15.2169 8.71874 15.2169 9.15707ZM14.4353 13.2052C14.867 13.2052 15.2169 12.8498 15.2169 12.4115C15.2169 11.9732 14.867 11.6178 14.4353 11.6178C14.0036 11.6178 13.6537 11.9732 13.6537 12.4115C13.6537 12.8498 14.0036 13.2052 14.4353 13.2052ZM13.6275 10.7975C13.6275 11.2358 13.2775 11.5911 12.8458 11.5911C12.4141 11.5911 12.0642 11.2358 12.0642 10.7975C12.0642 10.3591 12.4141 10.0038 12.8458 10.0038C13.2775 10.0038 13.6275 10.3591 13.6275 10.7975ZM16.0507 11.5911C16.4824 11.5911 16.8323 11.2358 16.8323 10.7975C16.8323 10.3591 16.4824 10.0038 16.0507 10.0038C15.619 10.0038 15.269 10.3591 15.269 10.7975C15.269 11.2358 15.619 11.5911 16.0507 11.5911ZM6.56407 13.4986H5.70044C5.57249 13.4986 5.44455 13.4012 5.44455 13.2388V11.9071H4.13309C4.00514 11.9071 3.90918 11.8097 3.90918 11.6473V10.7704C3.90918 10.6405 4.00514 10.5105 4.16507 10.5105H5.44455V9.17897C5.44455 9.04906 5.54051 8.91914 5.70044 8.91914H6.56407C6.69202 8.91914 6.81997 9.01658 6.81997 9.17897V10.5105H8.16338C8.29133 10.5105 8.41928 10.608 8.41928 10.7704V11.6473C8.41928 11.7772 8.32332 11.9071 8.16338 11.9071H6.81997V13.2388C6.81997 13.3687 6.72401 13.4986 6.56407 13.4986Z" fill="#FFFFFF" fill-opacity="0.7"/>
</g>
<defs>
<clipPath id="clip0_49_1726">
<rect width="24" height="24" fill="white"/>
</clipPath>
</defs>
</svg>
