<svg width="110" height="20" viewBox="0 0 110 20" fill="none" xmlns="http://www.w3.org/2000/svg">
<path fill-rule="evenodd" clip-rule="evenodd" d="M84.2723 14.7221H86.1652V4.87842H84.2723V14.7221ZM31.7129 13.0945H30.2997V6.9487H31.7129C33.4371 6.9487 34.4096 8.02939 34.4096 9.99563C34.4096 12.0269 33.4631 13.0945 31.7129 13.0945ZM36.4051 9.98914C36.4051 7.00735 34.7521 5.32764 31.9453 5.32764H28.3412V14.7222H31.9453C34.7521 14.7222 36.4051 12.9708 36.4051 9.98914ZM42.145 10.3995H39.0659C39.1307 9.48163 39.7659 8.85011 40.6281 8.85011C41.5032 8.85011 42.1125 9.46205 42.145 10.3995ZM40.6809 14.8459C42.4181 14.8459 43.7082 13.9214 43.9156 12.5347H42.1718C41.9903 13.088 41.4262 13.4266 40.7132 13.4266C39.7149 13.4266 39.0473 12.73 39.0473 11.6948V11.5776H43.9738V10.9918C43.9738 8.81068 42.6645 7.43055 40.6095 7.43055C38.5158 7.43055 37.1803 8.88888 37.1803 11.1675C37.1803 13.4461 38.5093 14.8459 40.6809 14.8459ZM49.6002 10.1976C49.4965 9.45537 48.9779 8.92801 48.1546 8.92801C47.1823 8.92801 46.5665 9.76134 46.5665 11.1351C46.5665 12.5348 47.1823 13.3422 48.1611 13.3422C48.9584 13.3422 49.4835 12.9059 49.6067 12.1181H51.3699C51.2597 13.7848 50.0151 14.846 48.1416 14.846C46.0089 14.846 44.6476 13.4398 44.6476 11.1351C44.6476 8.86301 46.0089 7.43065 48.1286 7.43065C50.0474 7.43065 51.2727 8.60259 51.3634 10.1976H49.6002ZM56.9352 10.3995H53.856C53.9209 9.48163 54.556 8.85011 55.4183 8.85011C56.2934 8.85011 56.9027 9.46205 56.9352 10.3995ZM55.4699 14.8459C57.2071 14.8459 58.4972 13.9214 58.7047 12.5347H56.9608C56.7794 13.088 56.2153 13.4266 55.5023 13.4266C54.504 13.4266 53.8363 12.73 53.8363 11.6948V11.5776H58.7629V10.9918C58.7629 8.81068 57.4535 7.43055 55.3986 7.43055C53.3049 7.43055 51.9694 8.88888 51.9694 11.1675C51.9694 13.4461 53.2984 14.8459 55.4699 14.8459ZM59.7014 7.55435H61.5295V8.83684H61.5683C61.9767 7.93199 62.7027 7.45019 63.7982 7.45019C65.3799 7.45019 66.2745 8.45282 66.2745 10.126V14.7222H64.3815V10.5231C64.3815 9.57253 63.9408 9.03226 63.0462 9.03226C62.1388 9.03226 61.5943 9.68323 61.5943 10.6338V14.7222H59.7014V7.55435ZM69.8451 7.55409V5.9591H67.9522V7.55409H66.9863V8.99297H67.9522V12.7885C67.9522 14.1882 68.6005 14.7481 70.2534 14.7481C70.6359 14.7481 70.973 14.7091 71.1675 14.67V13.2638C71.0508 13.2832 70.8627 13.2963 70.6943 13.2963C70.1174 13.2963 69.8451 13.0293 69.8451 12.476V8.99297H71.1675V7.55409H69.8451ZM72.183 7.5544H74.0111V8.83689H74.0499C74.2897 7.95148 74.9055 7.46982 75.7483 7.46982C75.9687 7.46982 76.1631 7.49579 76.2993 7.54135V9.22106C76.1373 9.15592 75.878 9.11036 75.5992 9.11036C74.6399 9.11036 74.0759 9.70939 74.0759 10.7119V14.7223H72.183V7.5544ZM81.1695 11.5646V12.092C81.1695 12.8732 80.4695 13.4201 79.5942 13.4201C78.9072 13.4201 78.4598 13.0881 78.4598 12.5607C78.4598 12.0333 78.8812 11.7208 79.6721 11.6688L81.1695 11.5646ZM79.3864 10.51C77.565 10.6207 76.5732 11.3564 76.5732 12.6584C76.5732 13.9411 77.6038 14.8069 78.978 14.8069C79.8921 14.8069 80.7737 14.3641 81.1626 13.6155H81.2014V14.7222H83.0295V9.80693C83.0295 8.37457 81.8302 7.43055 79.9958 7.43055C78.2131 7.43055 76.9815 8.37457 76.9297 9.74179H78.6604C78.7512 9.22096 79.2308 8.85638 79.918 8.85638C80.6959 8.85638 81.1691 9.23401 81.1691 9.92415V10.3993L79.3864 10.51ZM91.7186 11.5644V12.0918C91.7186 12.873 91.0186 13.42 90.1433 13.42C89.4563 13.42 89.0089 13.0879 89.0089 12.5605C89.0089 12.0332 89.4303 11.7207 90.2212 11.6686L91.7186 11.5644ZM89.9356 10.51C88.1142 10.6207 87.1224 11.3564 87.1224 12.6584C87.1224 13.9411 88.153 14.8069 89.5272 14.8069C90.4413 14.8069 91.3229 14.3641 91.7118 13.6155H91.7506V14.7222H93.5787V9.80693C93.5787 8.37457 92.3794 7.43055 90.545 7.43055C88.7623 7.43055 87.5307 8.37457 87.4789 9.74179H89.2096C89.3004 9.22096 89.78 8.85638 90.4672 8.85638C91.245 8.85638 91.7183 9.23401 91.7183 9.92415V10.3993L89.9356 10.51ZM94.7702 7.55435H96.5983V8.83684H96.6371C97.0455 7.93199 97.7715 7.45019 98.8671 7.45019C100.449 7.45019 101.343 8.45282 101.343 10.126V14.7222H99.4505V10.5231C99.4505 9.57253 99.0096 9.03226 98.115 9.03226C97.2076 9.03226 96.6631 9.68323 96.6631 10.6338V14.7222H94.7702V7.55435ZM105.881 13.2702C104.896 13.2702 104.267 12.45 104.267 11.1348C104.267 9.83275 104.896 9.00595 105.881 9.00595C106.86 9.00595 107.495 9.84581 107.495 11.1414C107.495 12.4369 106.86 13.2702 105.881 13.2702ZM105.258 7.46972C103.482 7.46972 102.328 8.88249 102.328 11.1286C102.328 13.3877 103.475 14.8069 105.251 14.8069C106.301 14.8069 107.125 14.2861 107.475 13.4984H107.507V14.7223H109.374V4.87862H107.481V8.77832H107.442C107.086 7.98416 106.288 7.46972 105.258 7.46972Z" fill="white"/>
<path fill-rule="evenodd" clip-rule="evenodd" d="M9.99995 19.9999C15.5228 19.9999 19.9999 15.5228 19.9999 9.99995C19.9999 4.47713 15.5228 0 9.99995 0C4.47713 0 0 4.47713 0 9.99995C0 15.5228 4.47713 19.9999 9.99995 19.9999Z" fill="url(#paint0_linear_144_4077)"/>
<path fill-rule="evenodd" clip-rule="evenodd" d="M7.08539 6.49988V13.9998H13.3354L7.08539 6.49988Z" fill="url(#paint1_linear_144_4077)"/>
<path fill-rule="evenodd" clip-rule="evenodd" d="M0.834869 14.0004H7.08484V6.50049L0.834869 14.0004Z" fill="white"/>
<path fill-rule="evenodd" clip-rule="evenodd" d="M3.99997 18C5.66996 19.255 7.74995 20 9.99994 20C12.2499 20 14.3299 19.255 15.9999 18H3.99997Z" fill="#FF2D55"/>
<path fill-rule="evenodd" clip-rule="evenodd" d="M1.99997 16C2.56997 16.755 3.24496 17.43 3.99996 18H15.9999C16.7549 17.43 17.4299 16.755 17.9999 16H1.99997Z" fill="#FC9965"/>
<path fill-rule="evenodd" clip-rule="evenodd" d="M13.4159 14.0004H0.835968C1.14597 14.7154 1.54096 15.3854 2.00096 16.0004H13.4209V14.0004H13.4159Z" fill="#FFBC5B"/>
<path fill-rule="evenodd" clip-rule="evenodd" d="M13.4172 10.5V16H18.0022L13.4172 10.5Z" fill="url(#paint2_linear_144_4077)"/>
<path fill-rule="evenodd" clip-rule="evenodd" d="M8.83627 16H13.4162V10.5L8.83627 16Z" fill="white"/>
<path fill-rule="evenodd" clip-rule="evenodd" d="M13.4154 9.0001C14.7961 9.0001 15.9154 7.88081 15.9154 6.50011C15.9154 5.1194 14.7961 4.00012 13.4154 4.00012C12.0347 4.00012 10.9154 5.1194 10.9154 6.50011C10.9154 7.88081 12.0347 9.0001 13.4154 9.0001Z" fill="#FFC95B"/>
<path fill-rule="evenodd" clip-rule="evenodd" d="M7.08535 4.99999C7.7757 4.99999 8.33534 4.44035 8.33534 3.74999C8.33534 3.05964 7.7757 2.5 7.08535 2.5C6.395 2.5 5.83536 3.05964 5.83536 3.74999C5.83536 4.44035 6.395 4.99999 7.08535 4.99999Z" fill="#FFC95B"/>
<defs>
<linearGradient id="paint0_linear_144_4077" x1="9.99995" y1="-4.14211" x2="-4.14211" y2="9.99995" gradientUnits="userSpaceOnUse">
<stop stop-color="#FF2D55"/>
<stop offset="1" stop-color="#FFBC5B"/>
</linearGradient>
<linearGradient id="paint1_linear_144_4077" x1="7.08329" y1="6.49988" x2="7.08329" y2="13.9998" gradientUnits="userSpaceOnUse">
<stop stop-color="#A524B3"/>
<stop offset="1" stop-color="#FF2D55"/>
</linearGradient>
<linearGradient id="paint2_linear_144_4077" x1="13.4156" y1="10.5" x2="13.4156" y2="16" gradientUnits="userSpaceOnUse">
<stop stop-color="#A524B3"/>
<stop offset="1" stop-color="#FF2D55"/>
</linearGradient>
</defs>
</svg>
