<svg width="15" height="16" viewBox="0 0 15 16" fill="none" xmlns="http://www.w3.org/2000/svg">
<rect x="0.746672" y="1.13644" width="13.5122" height="13.5122" rx="4.35394" stroke="#FCFCFC" stroke-opacity="0.3" stroke-width="0.900815"/>
<path d="M11.5331 7.33109L8.72433 4.52368C8.22363 4.02323 7.38098 4.37721 7.38098 5.08516V6.01283C7.35656 6.01283 7.34435 6.01283 7.31992 6.01283H4.65562C4.20377 6.01283 3.8374 6.3668 3.8374 6.81843V8.9545C3.8374 9.40612 4.20377 9.7723 4.65562 9.7723H7.30771C7.33213 9.7723 7.34435 9.7723 7.36877 9.7723V10.7C7.36877 11.4079 8.22363 11.7619 8.71212 11.2614L11.5209 8.45405C11.8384 8.13669 11.8384 7.63624 11.5331 7.33109Z" fill="#FCFCFC"/>
</svg>
