<svg width="33" height="32" viewBox="0 0 33 32" fill="none" xmlns="http://www.w3.org/2000/svg">
<rect x="1.22266" y="1" width="30" height="30" rx="9.66667" stroke="#FCFCFC" stroke-opacity="0.3" stroke-width="2"/>
<path d="M25.1702 14.7534L18.934 8.52037C17.8223 7.40926 15.9515 8.19516 15.9515 9.76697V11.8266C15.8973 11.8266 15.8701 11.8266 15.8159 11.8266H9.90061C8.8974 11.8266 8.08398 12.6125 8.08398 13.6152V18.3577C8.08398 19.3604 8.8974 20.1734 9.90061 20.1734H15.7888C15.843 20.1734 15.8701 20.1734 15.9244 20.1734V22.233C15.9244 23.8048 17.8223 24.5907 18.9069 23.4796L25.143 17.2466C25.848 16.542 25.848 15.4309 25.1702 14.7534Z" fill="white"/>
</svg>
