<svg width="25" height="24" viewBox="0 0 25 24" fill="none" xmlns="http://www.w3.org/2000/svg">
<rect x="2.7677" y="2.58774" width="18.8245" height="18.8245" rx="5" stroke="white" stroke-width="2"/>
<path d="M18.3028 11.2467L14.1733 7.10806C13.4371 6.3703 12.1982 6.89213 12.1982 7.93579V9.21357C12.1982 9.26315 12.1581 9.30335 12.1085 9.30335V9.30335H8.19137C7.52704 9.30335 6.9884 9.82518 6.9884 10.491V13.6399C6.9884 14.3057 7.52704 14.8455 8.19137 14.8455H12.0905V14.8455C12.1401 14.8455 12.1803 14.8857 12.1803 14.9353V16.2131C12.1803 17.2568 13.4371 17.7786 14.1553 17.0408L18.2849 12.9022C18.7517 12.4343 18.7517 11.6966 18.3028 11.2467Z" stroke="white"/>
</svg>
