<svg width="24" height="24" viewBox="0 0 24 24" fill="none" xmlns="http://www.w3.org/2000/svg">
<path d="M4.32705 6.10078C4.28189 6.10078 4.2456 6.10078 4.20931 6.10078C3.70042 6.10078 3.19233 6.09998 2.68344 6.10159C2.62215 6.10159 2.58183 6.09836 2.58263 6.01933C2.58505 5.50157 2.58425 4.98461 2.58505 4.46685C2.58505 4.45798 2.5907 4.4483 2.59796 4.42814C2.63183 4.42814 2.66731 4.42814 2.70361 4.42814C3.28911 4.42814 3.87462 4.42733 4.46012 4.42975C4.5319 4.42975 4.56335 4.41362 4.58029 4.3362C4.67303 3.91038 4.77465 3.48698 4.86901 3.06116C4.88594 2.98373 4.92788 2.99583 4.9803 3.01196C5.35128 3.12326 5.72226 3.23455 6.09325 3.34584C6.23438 3.38778 6.3739 3.43214 6.51665 3.47004C6.58762 3.48859 6.60455 3.5144 6.58359 3.59021C6.51907 3.82247 6.46423 4.05797 6.40697 4.29265C6.39729 4.33136 6.39729 4.37169 6.39084 4.42572H8.11348C8.11671 4.46685 8.12074 4.49589 8.12074 4.52492C8.12074 5.00881 8.11832 5.4927 8.12235 5.97659C8.12235 6.06933 8.10219 6.1032 7.99977 6.1024C7.42071 6.09675 6.84166 6.1024 6.26341 6.09836C6.18518 6.09836 6.14889 6.1153 6.14405 6.19917C6.12309 6.55483 6.09728 6.90968 6.0747 7.26454C6.07228 7.29679 6.07712 7.32986 6.07954 7.3726C6.21986 7.36293 6.35213 7.35486 6.48439 7.34599C6.92311 7.31615 7.36023 7.32663 7.79573 7.38551C7.94896 7.40648 7.95057 7.40648 7.98364 7.25728C8.02557 7.07098 8.0659 6.88388 8.10542 6.69677C8.11832 6.63548 8.12961 6.59677 8.2151 6.61451C8.7385 6.72339 9.26272 6.82662 9.78854 6.9242C9.87242 6.93952 9.87564 6.9734 9.86113 7.03953C9.80145 7.30083 9.74822 7.56374 9.6837 7.82423C9.66434 7.90327 9.6837 7.93875 9.75144 7.97343C10.224 8.21376 10.6474 8.52184 11.0039 8.91702C11.6184 9.59849 11.9644 10.3913 11.9531 11.3187C11.9427 12.1607 11.6338 12.8946 11.1055 13.5406C10.562 14.2051 9.84419 14.5963 9.04335 14.8519C8.40381 15.0559 7.74573 15.1382 7.07635 15.1382C7.0086 15.1382 6.99812 15.1124 6.99812 15.0559C6.99973 14.5116 7.00054 13.9672 6.99812 13.4228C6.99812 13.3414 7.03522 13.3309 7.10377 13.3325C7.61588 13.3414 8.11913 13.2817 8.60463 13.1147C9.16433 12.922 9.64015 12.6115 9.94419 12.0849C10.2869 11.4913 10.2248 10.7824 9.79338 10.2477C9.61676 10.0292 9.41272 9.84366 9.17158 9.6985C9.10303 9.65737 9.07158 9.66462 9.03771 9.74124C8.81673 10.2421 8.56834 10.7292 8.26268 11.1832C7.76427 11.9228 7.1707 12.5663 6.39648 13.026C5.7513 13.4091 5.05369 13.6309 4.3085 13.6696C3.06007 13.7341 1.96406 13.0672 1.61002 11.8212C1.34711 10.8945 1.56969 10.0533 2.12536 9.29284C2.58263 8.66781 3.19959 8.24441 3.89962 7.93391C3.9972 7.89036 4.09962 7.85649 4.19479 7.80891C4.22624 7.79278 4.26173 7.74842 4.26334 7.71536C4.28915 7.19921 4.31012 6.68226 4.33108 6.1653C4.33108 6.14917 4.32867 6.13224 4.32544 6.09917L4.32705 6.10078ZM4.28834 9.73075C4.17947 9.80737 4.06737 9.87834 3.96414 9.9598C3.64235 10.213 3.39799 10.5211 3.31169 10.9332C3.23346 11.3082 3.39799 11.6494 3.72058 11.7841C3.98994 11.897 4.26818 11.8728 4.54642 11.8405C4.46012 11.1381 4.37544 10.4437 4.28753 9.73075H4.28834ZM6.20938 10.8622L6.24567 10.8711C6.72069 10.3743 7.06264 9.79124 7.35458 9.15251C6.91908 9.12993 6.49891 9.1396 6.06421 9.19203C6.11341 9.75495 6.16099 10.3082 6.20938 10.8614V10.8622Z" fill="#FFFFFF" fill-opacity="0.7"/>
<path d="M20.751 20.7135H18.5444C18.2678 19.9336 17.9896 19.1554 17.7162 18.3755C17.6912 18.3029 17.6492 18.2989 17.5879 18.2989C16.8315 18.2997 16.0758 18.2989 15.3193 18.2989C14.8274 18.2989 14.3354 18.3005 13.8434 18.2973C13.7765 18.2973 13.7459 18.3142 13.7225 18.3811C13.4588 19.1271 13.1894 19.8707 12.9265 20.6167C12.8974 20.699 12.8571 20.7207 12.7757 20.7199C12.1369 20.7167 11.4974 20.7183 10.8587 20.7183C10.8256 20.7183 10.7933 20.7183 10.7441 20.7183C10.8079 20.5473 10.8675 20.3877 10.9272 20.2288C11.6345 18.3537 12.3418 16.4786 13.0499 14.6044C13.5878 13.1818 14.1289 11.7599 14.6661 10.3365C14.6959 10.2583 14.7338 10.2308 14.8185 10.2316C15.4379 10.2357 16.0564 10.2349 16.6758 10.2316C16.754 10.2316 16.7919 10.2518 16.821 10.33C17.7541 12.793 18.6896 15.2552 19.6259 17.7174C20.0009 18.7037 20.3759 19.6909 20.751 20.6772C20.7534 20.6828 20.751 20.6901 20.751 20.7119V20.7135ZM14.3499 16.6254H17.1073C16.6492 15.3012 16.1951 13.9915 15.7419 12.6817C15.7338 12.6833 15.7266 12.685 15.7185 12.6874C15.2637 13.9963 14.8088 15.3052 14.3499 16.6254Z" fill="#FFFFFF" fill-opacity="0.7"/>
</svg>
