<svg width="24" height="25" viewBox="0 0 24 25" fill="none" xmlns="http://www.w3.org/2000/svg">
<path d="M4.00018 11.4822C4.00018 12.8387 4.00018 16.8683 4.00018 19.3325C4.00018 20.4371 4.89561 21.3303 6.00018 21.3303H14.366C14.8038 21.3307 15.2318 21.2059 15.5954 20.9717C15.9589 20.7375 16.2415 20.4046 16.407 20.0155C17.3231 17.8618 18.6735 14.5438 19.3053 12.2049C19.5951 11.1321 18.751 10.2319 17.6397 10.24C15.8079 10.2534 13.1286 10.2705 11.3583 10.2705C11.3382 10.2709 11.3182 10.267 11.2999 10.2589C11.2816 10.2509 11.2653 10.239 11.2524 10.2242C11.2396 10.2093 11.2303 10.1919 11.2254 10.1731C11.2205 10.1544 11.22 10.1348 11.224 10.1158C11.224 10.1158 12.2714 6.32614 12.2714 5.88787C12.2714 5.4496 11.2509 3.7481 10.7944 4.03169L4.67154 9.93538C4.45572 10.1357 4.28484 10.3762 4.16939 10.6422C4.05394 10.9082 3.99636 11.1941 4.00018 11.4822Z" stroke="white" stroke-width="2"/>
</svg>
