<svg width="22" height="23" viewBox="0 0 22 23" fill="none" xmlns="http://www.w3.org/2000/svg">
<path d="M11.3139 9.19805L13.3656 8.20133C13.6029 8.08609 13.8801 8.08764 14.1161 8.20552L17.5583 9.9255C17.846 10.0693 18.0278 10.3633 18.0278 10.6849V17.1363C18.0278 17.7509 17.3949 18.1619 16.8334 17.9118L14.0873 16.6887C13.8674 16.5908 13.6163 16.5908 13.3965 16.6887L9.80135 18.2899C9.5815 18.3878 9.33041 18.3878 9.11056 18.2899L5.67361 16.7592C5.36735 16.6228 5.17004 16.3189 5.17004 15.9837V12.6444" stroke="#716B7C" stroke-width="1.69792" stroke-linejoin="round"/>
<line x1="13.8318" y1="8.12708" x2="13.8318" y2="16.8189" stroke="#716B7C" stroke-width="0.848958" stroke-linejoin="round"/>
<path d="M9.39789 13.0148L9.39789 18.4436" stroke="#716B7C" stroke-width="0.848958" stroke-linejoin="round"/>
<path d="M6.04321 14.2112C6.75201 15.0653 8.04479 15.0653 8.75359 14.2112C9.26551 13.5944 9.97368 12.691 10.5584 11.7551C10.8507 11.2872 11.1224 10.7951 11.3232 10.3147C11.5195 9.84519 11.6736 9.32764 11.6736 8.82534C11.6736 6.44684 9.77208 4.49577 7.3984 4.49577C5.02472 4.49577 3.12321 6.44684 3.12321 8.82534C3.12321 9.32764 3.27734 9.84519 3.47361 10.3147C3.67444 10.7951 3.9461 11.2872 4.23842 11.7551C4.82312 12.691 5.53129 13.5944 6.04321 14.2112Z" stroke="#716B7C" stroke-width="1.69792"/>
<path fill-rule="evenodd" clip-rule="evenodd" d="M7.39768 10.0556C8.06669 10.0556 8.60903 9.50468 8.60903 8.82505C8.60903 8.14543 8.06669 7.59448 7.39768 7.59448C6.72868 7.59448 6.18634 8.14543 6.18634 8.82505C6.18634 9.50468 6.72868 10.0556 7.39768 10.0556Z" fill="#716B7C"/>
</svg>
