<svg width="37" height="37" viewBox="0 0 37 37" fill="none" xmlns="http://www.w3.org/2000/svg">
<path d="M15.8676 29.341L11.377 27.1605V24.7156C11.377 24.7156 13.1566 26.3738 14.9806 24.7156C16.8046 23.0575 20.6909 16.6214 20.6909 16.6214L22.964 15.4572L30 18.7281V29.341L22.964 26.157L15.8676 29.341Z" fill="#FF2D55"/>
<path fill-rule="evenodd" clip-rule="evenodd" d="M12.014 22.6209C12.4538 23.1411 13.2393 23.1411 13.6791 22.6209C15.1865 20.8381 18.2132 16.9767 18.2132 14.7156C18.2132 11.7046 15.8104 9.26379 12.8466 9.26379C9.88268 9.26379 7.47998 11.7046 7.47998 14.7156C7.47998 16.9767 10.5066 20.8381 12.014 22.6209Z" fill="#FF2D55"/>
<line x1="22.9395" y1="12.4595" x2="22.9395" y2="26.6824" stroke="#FCFCFC" stroke-linejoin="round"/>
<path d="M15.9717 20.1595L15.9717 29.341" stroke="#FCFCFC" stroke-linejoin="round"/>
<path d="M18.7739 14.3516L22.5421 12.5003C22.8224 12.3626 23.1508 12.3637 23.4301 12.5033L29.4471 15.5098C29.786 15.6792 30.0002 16.0255 30.0002 16.4044V27.8011C30.0002 28.5251 29.2547 29.0092 28.5933 28.7146L23.3937 26.3989C23.1347 26.2835 22.839 26.2835 22.58 26.3989L16.3804 29.16C16.1214 29.2753 15.8256 29.2753 15.5667 29.16L9.55336 26.4818C9.19261 26.3212 8.96021 25.9632 8.96021 25.5683V19.6551" stroke="#FCFCFC" stroke-width="2" stroke-linejoin="round"/>
<path d="M11.0119 22.5522C11.8517 23.543 13.3614 23.543 14.2013 22.5522C14.9939 21.617 16.2191 20.0988 17.2516 18.4981C17.7677 17.698 18.2485 16.8577 18.6032 16.045C18.9511 15.2476 19.2131 14.3982 19.2131 13.6019C19.2131 9.91898 16.2701 6.90637 12.6066 6.90637C8.94307 6.90637 6 9.91898 6 13.6019C6 14.3982 6.26199 15.2476 6.60997 16.045C6.96467 16.8577 7.44545 17.698 7.96153 18.4981C8.99401 20.0988 10.2192 21.617 11.0119 22.5522Z" stroke="#FCFCFC" stroke-width="2"/>
<path fill-rule="evenodd" clip-rule="evenodd" d="M12.6055 15.615C13.7002 15.615 14.5877 14.7135 14.5877 13.6014C14.5877 12.4893 13.7002 11.5877 12.6055 11.5877C11.5108 11.5877 10.6233 12.4893 10.6233 13.6014C10.6233 14.7135 11.5108 15.615 12.6055 15.615Z" fill="#FCFCFC"/>
</svg>
