<svg width="24" height="25" viewBox="0 0 24 25" fill="none" xmlns="http://www.w3.org/2000/svg">
<path d="M10.4795 11.7816C8.42569 11.7816 6.60421 13.2008 6.22488 15.2659C6.05591 16.1857 5.88662 17.2236 5.78152 18.1758C5.64201 19.4399 6.17361 20.9055 7.594 21.4503C8.79557 21.9111 10.3148 22.1275 11.8373 22.0972C13.3598 22.1275 14.879 21.9111 16.0806 21.4503C17.501 20.9055 18.0326 19.4399 17.8931 18.1758C17.788 17.2236 17.6187 16.1857 17.4497 15.2659C17.0704 13.2008 15.2489 11.7816 13.1951 11.7816H10.4795Z" fill="white"/>
<path fill-rule="evenodd" clip-rule="evenodd" d="M7.96655 6.86681C7.96655 4.676 9.74255 2.9 11.9334 2.9C14.1242 2.9 15.9002 4.676 15.9002 6.86681C15.9002 9.05761 14.1242 10.8336 11.9334 10.8336C9.74255 10.8336 7.96655 9.05761 7.96655 6.86681Z" fill="white"/>
</svg>
