<svg width="22" height="22" viewBox="0 0 22 22" fill="none" xmlns="http://www.w3.org/2000/svg">
<path d="M10.9063 21.2188C9.3125 21.2188 7.90365 21 6.67969 20.5625C5.45573 20.1302 4.42708 19.4922 3.59375 18.6484C2.76042 17.8047 2.13021 16.7708 1.70313 15.5469C1.27604 14.3229 1.0625 12.9219 1.0625 11.3437C1.0625 9.81771 1.27865 8.45312 1.71094 7.25C2.14844 6.04687 2.78125 5.02604 3.60938 4.1875C4.44271 3.34375 5.45313 2.70052 6.64063 2.25781C7.83333 1.8151 9.18229 1.59375 10.6875 1.59375C12.151 1.59375 13.4323 1.83333 14.5313 2.3125C15.6354 2.78646 16.5573 3.42969 17.2969 4.24219C18.0417 5.04948 18.599 5.95833 18.9688 6.96875C19.3438 7.97917 19.5313 9.02083 19.5313 10.0937C19.5313 10.849 19.4948 11.6146 19.4219 12.3906C19.349 13.1667 19.1953 13.8802 18.9609 14.5312C18.7266 15.1771 18.3646 15.6979 17.875 16.0937C17.3906 16.4896 16.7344 16.6875 15.9063 16.6875C15.5417 16.6875 15.1406 16.6302 14.7031 16.5156C14.2656 16.401 13.8776 16.2109 13.5391 15.9453C13.2005 15.6797 13 15.3229 12.9375 14.875H12.8437C12.7188 15.1771 12.526 15.4635 12.2656 15.7344C12.0104 16.0052 11.6745 16.2214 11.2578 16.3828C10.8464 16.5443 10.3438 16.6146 9.75 16.5937C9.07292 16.5677 8.47656 16.4167 7.96094 16.1406C7.44531 15.8594 7.01302 15.4792 6.66406 15C6.32031 14.5156 6.0599 13.9557 5.88281 13.3203C5.71094 12.6797 5.625 11.9896 5.625 11.25C5.625 10.5469 5.72917 9.90365 5.9375 9.32031C6.14583 8.73698 6.4349 8.22656 6.80469 7.78906C7.17969 7.35156 7.61719 7.0026 8.11719 6.74219C8.6224 6.47656 9.16667 6.3125 9.75 6.25C10.2708 6.19792 10.7448 6.22135 11.1719 6.32031C11.599 6.41406 11.9505 6.55729 12.2266 6.75C12.5026 6.9375 12.6771 7.14583 12.75 7.375H12.8437V6.5H14.5V13.5625C14.5 14 14.6224 14.3854 14.8672 14.7187C15.112 15.0521 15.4688 15.2187 15.9375 15.2187C16.4688 15.2187 16.875 15.0365 17.1563 14.6719C17.4427 14.3073 17.638 13.7448 17.7422 12.9844C17.8516 12.224 17.9063 11.25 17.9063 10.0625C17.9063 9.36458 17.8099 8.67708 17.6172 8C17.4297 7.31771 17.1432 6.67969 16.7578 6.08594C16.3776 5.49219 15.8958 4.96875 15.3125 4.51562C14.7292 4.0625 14.0443 3.70833 13.2578 3.45312C12.4766 3.19271 11.5885 3.0625 10.5938 3.0625C9.36979 3.0625 8.27344 3.2526 7.30469 3.63281C6.34115 4.00781 5.52083 4.55729 4.84375 5.28125C4.17188 6 3.65885 6.875 3.30469 7.90625C2.95573 8.93229 2.78125 10.099 2.78125 11.4062C2.78125 12.7344 2.95573 13.9141 3.30469 14.9453C3.65885 15.9766 4.17969 16.8464 4.86719 17.5547C5.5599 18.263 6.41667 18.7995 7.4375 19.1641C8.45833 19.5339 9.63542 19.7188 10.9688 19.7188C11.5417 19.7188 12.1068 19.6641 12.6641 19.5547C13.2214 19.4453 13.7135 19.3255 14.1406 19.1953C14.5677 19.0651 14.875 18.9688 15.0625 18.9062L15.5 20.3438C15.1771 20.4792 14.7552 20.6146 14.2344 20.75C13.7188 20.8854 13.1667 20.9974 12.5781 21.0859C11.9948 21.1745 11.4375 21.2188 10.9063 21.2188ZM10 15C10.6979 15 11.263 14.8594 11.6953 14.5781C12.1276 14.2969 12.4427 13.8724 12.6406 13.3047C12.8385 12.737 12.9375 12.0208 12.9375 11.1562C12.9375 10.2812 12.8281 9.59896 12.6094 9.10937C12.3906 8.61979 12.0677 8.27604 11.6406 8.07812C11.2135 7.88021 10.6875 7.78125 10.0625 7.78125C9.46875 7.78125 8.96094 7.9375 8.53906 8.25C8.1224 8.55729 7.80208 8.96875 7.57813 9.48437C7.35938 9.99479 7.25 10.5521 7.25 11.1562C7.25 11.8229 7.33854 12.4505 7.51563 13.0391C7.69271 13.6224 7.98177 14.0964 8.38281 14.4609C8.78385 14.8203 9.32292 15 10 15Z" fill="#FCFCFC"/>
</svg>
