<svg width="62" height="64" viewBox="0 0 62 64" fill="none" xmlns="http://www.w3.org/2000/svg">
<g filter="url(#filter0_d_349_312)">
<path fill-rule="evenodd" clip-rule="evenodd" d="M27.2008 14.2661C27.2008 13.2453 26.8098 12.7572 26.4152 12.474C25.943 12.1351 25.3271 12.0056 24.927 12.0056C23.6752 12.0056 22.6531 13.033 22.6531 14.3165V35.6726C22.6531 36.3049 22.2587 36.8709 21.6633 37.093C21.0678 37.3152 20.3962 37.1469 19.9778 36.6708L14.7389 30.7096C14.7213 30.6895 14.7042 30.669 14.6877 30.6481C14.3494 30.2196 13.8867 29.9049 13.3624 29.7466C12.838 29.5883 12.2774 29.5942 11.7566 29.7633L11.7529 29.7645C10.1548 30.2791 9.53156 32.0353 10.3493 33.3517L10.3577 33.3654L14.3392 39.9288C18.1491 46.2413 20.7542 49.7633 23.493 51.7641C26.1251 53.6869 29.0269 54.3027 33.7933 54.3027C38.4479 54.3027 42.5169 53.1038 45.3869 50.8515C48.2117 48.6346 50.0003 45.3048 50.0003 40.7095V21.8213C50.0003 20.5398 49.0257 19.5608 47.7771 19.5608C47.3546 19.5608 46.7245 19.6932 46.2448 20.0338C45.8485 20.3152 45.462 20.7937 45.4528 21.7851L45.4529 28.1173C45.4529 28.9552 44.7697 29.6345 43.9269 29.6345C43.084 29.6345 42.4008 28.9553 42.4008 28.1174L42.4006 21.8441C42.4005 21.8365 42.4004 21.829 42.4004 21.8213V14.2661C42.4004 12.9845 41.4259 12.0056 40.1773 12.0056C39.7751 12.0056 39.142 12.1362 38.6543 12.4807C38.2455 12.7695 37.8528 13.2578 37.8528 14.2661L37.8531 28.1173C37.8531 28.9552 37.1699 29.6345 36.327 29.6345C35.4842 29.6345 34.8009 28.9553 34.8009 28.1174L34.8006 9.22925C34.8006 7.9477 33.8261 6.96875 32.5774 6.96875C31.2738 6.96875 30.2529 8.00015 30.2529 9.22925V28.1174C30.2529 28.9553 29.5697 29.6345 28.7269 29.6345C27.884 29.6345 27.2008 28.9553 27.2008 28.1174V14.2661Z" fill="#FCFCFC"/>
<path d="M32.8735 3.5556C35.8035 3.70307 38.0589 6.02914 38.2114 8.91693C38.9323 8.67466 39.628 8.5849 40.1772 8.5849C43.3565 8.5849 45.8208 11.1379 45.8208 14.2665V16.4648C46.5359 16.2279 47.2266 16.1406 47.7769 16.1406L48.0728 16.1484C51.1078 16.3009 53.4204 18.7904 53.4204 21.8212V40.7099C53.4203 46.3087 51.1853 50.6486 47.4985 53.5419C43.8696 56.3899 38.9874 57.7226 33.7935 57.7226C28.7375 57.7226 24.9672 57.0774 21.4751 54.5263C18.1132 52.0703 15.1996 47.9739 11.4146 41.7031L7.43311 35.1396V35.1386C5.47972 31.9699 6.97253 27.9401 10.3696 26.6279L10.7046 26.5087C11.8137 26.1495 13.0013 26.1158 14.1265 26.4091L14.3511 26.4726L14.5728 26.5439C15.6561 26.9166 16.6151 27.588 17.3364 28.4843L19.2329 30.6415V14.3163C19.233 11.1853 21.7455 8.5849 24.9272 8.5849L25.2983 8.59857C25.7621 8.63018 26.2946 8.72175 26.8423 8.90326C27.0136 5.88895 29.5457 3.54877 32.5776 3.54877L32.8735 3.5556Z" stroke="#FCFCFC" stroke-width="6.84064" stroke-linecap="round" stroke-linejoin="round"/>
</g>
<path fill-rule="evenodd" clip-rule="evenodd" d="M28.9171 17.1896C28.9171 16.1997 28.5398 15.7264 28.1591 15.4518C27.7035 15.1232 27.1091 14.9976 26.723 14.9976C25.5152 14.9976 24.529 15.9939 24.529 17.2384V37.9474C24.529 38.5605 24.1484 39.1094 23.5739 39.3248C22.9993 39.5402 22.3513 39.3771 21.9475 38.9154L16.8925 33.1348C16.8755 33.1153 16.859 33.0955 16.8431 33.0752C16.5166 32.6597 16.0702 32.3545 15.5642 32.201C15.0583 32.0475 14.5174 32.0532 14.0148 32.2172L14.0112 32.2184C12.4692 32.7174 11.8678 34.4203 12.6569 35.6969L12.665 35.7101L16.5068 42.0746C20.183 48.1959 22.6967 51.6112 25.3394 53.5513C27.8791 55.4158 30.6791 56.013 35.2783 56.013C39.7695 56.013 43.6958 54.8504 46.4651 52.6663C49.1908 50.5167 50.9166 47.2877 50.9166 42.8316V24.5159C50.9166 23.2732 49.9762 22.3239 48.7714 22.3239C48.3638 22.3239 47.7558 22.4522 47.2929 22.7825C46.9105 23.0554 46.5375 23.5194 46.5286 24.4807L46.5288 30.6211C46.5288 31.4336 45.8695 32.0923 45.0563 32.0923C44.243 32.0923 43.5838 31.4337 43.5837 30.6212L43.5836 24.538C43.5835 24.5306 43.5834 24.5233 43.5834 24.5159V17.1896C43.5834 15.9469 42.6431 14.9976 41.4383 14.9976C41.0502 14.9976 40.4393 15.1242 39.9688 15.4583C39.5743 15.7383 39.1953 16.2119 39.1953 17.1896L39.1956 30.6211C39.1956 31.4336 38.5364 32.0923 37.7231 32.0923C36.9099 32.0923 36.2506 31.4337 36.2506 30.6212L36.2503 12.3054C36.2503 11.0627 35.3099 10.1134 34.1051 10.1134C32.8472 10.1134 31.8622 11.1135 31.8622 12.3054V30.6211C31.8622 31.4336 31.2029 32.0923 30.3896 32.0923C29.5764 32.0923 28.9171 31.4336 28.9171 30.6211V17.1896Z" fill="#FF2D55"/>
<path d="M28.39 12.4951V27.2698V12.4951Z" fill="#E00000"/>
<path d="M36.4489 12.4951L36.4492 27.2698L36.4489 12.4951Z" fill="#E00000"/>
<path d="M44.5078 12.4951L44.5082 27.2698L44.5078 12.4951Z" fill="#E00000"/>
<path d="M44.5078 12.4951V20.554C44.5078 17.3304 47.1941 16.5245 48.591 16.5245C50.8448 16.5245 52.5667 18.3297 52.5667 20.554V40.7013C52.5667 51.4465 44.1478 56.819 33.7625 56.819C23.3773 56.819 19.8045 54.1326 11.7456 40.7011L7.52541 33.7033C6.08555 31.3716 7.23797 28.3468 9.89204 27.4872C10.7599 27.2037 11.6939 27.1939 12.5675 27.4591C13.4411 27.7244 14.212 28.2519 14.7757 28.97L20.3311 35.3287V12.5488C20.3311 10.3219 22.1041 8.46563 24.3605 8.46563C25.7225 8.46563 28.39 9.27152 28.39 12.4951M44.5078 12.4951C44.5078 10.2708 42.7859 8.46563 40.5321 8.46563C39.1701 8.46563 36.4489 9.27152 36.4489 12.4951M44.5078 12.4951L44.5082 27.2698M36.4489 12.4951V7.12247C36.4489 4.89821 34.727 3.09302 32.4732 3.09302C30.2167 3.09302 28.39 4.89821 28.39 7.12247V12.4951M36.4489 12.4951L36.4492 27.2698M28.39 12.4951V27.2698" stroke="#161518" stroke-width="4" stroke-linecap="round" stroke-linejoin="round"/>
<defs>
<filter id="filter0_d_349_312" x="0.856992" y="0.128113" width="55.9838" height="63.2955" filterUnits="userSpaceOnUse" color-interpolation-filters="sRGB">
<feFlood flood-opacity="0" result="BackgroundImageFix"/>
<feColorMatrix in="SourceAlpha" type="matrix" values="0 0 0 0 0 0 0 0 0 0 0 0 0 0 0 0 0 0 127 0" result="hardAlpha"/>
<feOffset dx="-2.28021" dy="2.28021"/>
<feComposite in2="hardAlpha" operator="out"/>
<feColorMatrix type="matrix" values="0 0 0 0 0 0 0 0 0 0 0 0 0 0 0 0 0 0 0.15 0"/>
<feBlend mode="normal" in2="BackgroundImageFix" result="effect1_dropShadow_349_312"/>
<feBlend mode="normal" in="SourceGraphic" in2="effect1_dropShadow_349_312" result="shape"/>
</filter>
</defs>
</svg>
