<svg width="124" height="102" viewBox="0 0 124 102" fill="none" xmlns="http://www.w3.org/2000/svg">
<path d="M112 33.0137C110.048 31.5325 90.6113 15.5873 61.5 15.5873C55.7732 15.5873 50.4369 16.1973 45.491 17.2428L89.3965 61.3316L112 33.0137ZM27.3127 11.2743C25.6207 9.57523 22.8875 9.57523 21.1954 11.2743C19.5034 12.9734 19.5034 15.718 21.1954 17.4171L27.0524 23.2985C17.7247 27.6115 11.9979 32.2295 11 33.0137L54.732 87.7326C58.2028 92.0892 64.7973 92.0892 68.2681 87.7326L78.4635 74.9677L89.7869 86.3384C91.479 88.0375 94.2122 88.0375 95.9042 86.3384C97.5962 84.6394 97.5962 81.8947 95.9042 80.1956L27.3127 11.2743Z" fill="white"/>
<path d="M17.4435 7.05214C21.4965 2.98246 28.0621 2.98278 32.1154 7.05214L32.1174 7.05411L37.8511 12.8153L44.737 11.3622C50.0732 10.2342 55.8195 9.57737 61.9695 9.57737C93.1929 9.57737 114.005 26.6581 116.044 28.2056L121 31.9668L92.4755 67.6971L100.602 75.8631C104.65 79.9271 104.651 86.5021 100.604 90.5663C96.551 94.6361 89.9835 94.6361 85.9303 90.5663L79.4029 84.0113L73.4506 91.4646L73.4486 91.4626C67.5617 98.844 56.3784 98.8463 50.4903 91.4666L3 32.0497L7.81383 28.2688C8.62083 27.6346 11.9837 24.9348 17.4573 21.7691L17.4435 21.7553C13.3964 17.6912 13.3963 11.1162 17.4435 7.05214ZM27.8334 11.3365C26.1439 9.64098 23.4147 9.64045 21.7255 11.3365C20.0361 13.0329 20.0361 15.7746 21.7255 17.4709L27.5734 23.3427C18.2604 27.6487 12.5426 32.2599 11.5463 33.0428L55.2116 87.6738C58.6771 92.0231 65.2619 92.0231 68.7273 87.6738L78.9065 74.9292L90.2143 86.2819C91.7982 87.8715 94.2955 87.9714 95.9933 86.58L96.3222 86.2819C97.9058 84.6916 98.0032 82.1841 96.6176 80.4792L96.3222 80.1475L27.8334 11.3365ZM61.9695 15.6426C56.2516 15.6426 50.9239 16.2534 45.9857 17.2972L89.8243 61.3139L112.393 33.0428C110.443 31.564 91.0364 15.6426 61.9695 15.6426Z" fill="#FCFCFC"/>
<path d="M79 68.264L66.0859 82L30 37.075C30.7878 36.4591 34.5532 33.4426 40.7285 30.0911L79 68.264Z" fill="#FF2D55"/>
<path d="M75 21.3851L106 33.3542L92.1914 49.5545L64.1504 21.539C67.9455 20.7408 71.9729 20.2028 76.2324 20L75 21.3851Z" fill="#FF2D55"/>
<path d="M21.1947 11.2739C22.8864 9.5751 25.6198 9.57563 27.3119 11.2739L95.9051 80.1945L96.201 80.5248C97.5897 82.2325 97.4915 84.7455 95.9051 86.3387L95.5757 86.6373C93.9883 87.9382 91.7026 87.9382 90.1153 86.6373L89.7879 86.3387L78.4629 74.9679L68.2682 87.7328C64.7974 92.0891 58.2026 92.0891 54.7318 87.7328L11 33.0148C11.9978 32.2306 17.7243 27.6121 27.0515 23.2992L21.1947 17.4181C19.5027 15.719 19.5027 12.9729 21.1947 11.2739ZM30.4366 30.6536C27.4379 32.0402 24.8569 33.4597 22.7353 34.7412L61.0463 82.6783C61.2529 82.9367 61.6123 82.9691 61.8571 82.7752L61.9616 82.6704L72.1563 69.9055L73.0874 68.7368L33.6895 29.1487L30.4366 30.6536ZM61.5 15.5869C90.6113 15.5869 110.048 31.5336 112 33.0148L89.3973 61.3309L45.4919 17.244C50.4376 16.1986 55.7735 15.5869 61.5 15.5869ZM88.7305 49.1988L100.271 34.7412C92.8487 30.2327 79.9206 24.1406 63.3503 23.7125L88.7305 49.1988Z" fill="#161518"/>
</svg>
