<svg width="124" height="102" viewBox="0 0 124 102" fill="none" xmlns="http://www.w3.org/2000/svg">
<g filter="url(#filter0_d_54_824)">
<path d="M108 51C108 76.9574 87.1812 98 61.5 98C35.8188 98 15 76.9574 15 51C15 25.0426 35.8188 4 61.5 4C87.1812 4 108 25.0426 108 51Z" fill="#FCFCFC"/>
</g>
<path d="M37.7495 25.75C52.5231 10.9765 76.4759 10.9765 91.2495 25.75C106.023 40.5236 106.023 64.4764 91.2495 79.25C76.4759 94.0235 52.5231 94.0235 37.7495 79.25C22.976 64.4764 22.976 40.5236 37.7495 25.75ZM47.5913 75.6797C58.8134 83.8868 74.6485 82.9231 84.7856 72.7861C94.9228 62.649 95.8873 46.8131 87.6802 35.5908L47.5913 75.6797ZM80.938 28.9805C69.7473 21.1397 54.2093 22.2179 44.2134 32.2139C34.2177 42.2098 33.1413 57.7461 40.9819 68.9365L80.938 28.9805Z" fill="#FF2D55"/>
<path d="M31.5713 20.3592C48.3668 3.56369 75.5986 3.56369 92.3942 20.3592C109.19 37.1548 109.19 64.3866 92.3942 81.1821C75.5987 97.9776 48.3668 97.9775 31.5713 81.1821C14.7757 64.3866 14.7757 37.1548 31.5713 20.3592ZM88.7319 24.0198C73.9582 9.24687 50.0053 9.24642 35.2319 24.0198C20.4585 38.7932 20.4589 62.7462 35.2319 77.5198C50.0055 92.2935 73.9582 92.2935 88.7319 77.5198C103.505 62.7462 103.505 38.7934 88.7319 24.0198ZM85.164 33.8606C93.3713 45.0828 92.4058 60.9193 82.2685 71.0565C72.1312 81.1938 56.2949 82.1579 45.0727 73.9502L85.164 33.8606ZM53.6023 72.7418C61.9934 75.9365 71.849 74.1548 78.6079 67.3959C85.3671 60.6367 87.1507 50.7799 83.9556 42.3885L53.6023 72.7418ZM41.6969 30.4849C51.6929 20.4889 67.2302 19.4115 78.4208 27.2523L38.4644 67.2088C30.6235 56.0182 31.701 40.4808 41.6969 30.4849ZM69.7665 28.5804C61.5081 25.6906 51.9565 27.5464 45.3575 34.1455C38.7585 40.7445 36.9026 50.2961 39.7924 58.5545L69.7665 28.5804Z" fill="#161518"/>
<defs>
<filter id="filter0_d_54_824" x="13" y="4" width="95" height="96" filterUnits="userSpaceOnUse" color-interpolation-filters="sRGB">
<feFlood flood-opacity="0" result="BackgroundImageFix"/>
<feColorMatrix in="SourceAlpha" type="matrix" values="0 0 0 0 0 0 0 0 0 0 0 0 0 0 0 0 0 0 127 0" result="hardAlpha"/>
<feOffset dx="-2" dy="2"/>
<feComposite in2="hardAlpha" operator="out"/>
<feColorMatrix type="matrix" values="0 0 0 0 0 0 0 0 0 0 0 0 0 0 0 0 0 0 0.15 0"/>
<feBlend mode="normal" in2="BackgroundImageFix" result="effect1_dropShadow_54_824"/>
<feBlend mode="normal" in="SourceGraphic" in2="effect1_dropShadow_54_824" result="shape"/>
</filter>
</defs>
</svg>
