<svg width="124" height="100" viewBox="0 0 124 100" fill="none" xmlns="http://www.w3.org/2000/svg">
<g filter="url(#filter0_d_54_610)">
<path d="M56.7143 18.4245C58.5196 15.4713 62.809 15.4713 64.6143 18.4245L99.6593 75.752C101.545 78.8369 99.325 82.7963 95.7092 82.7963H25.6193C22.0036 82.7963 19.7834 78.8369 21.6693 75.752L56.7143 18.4245Z" fill="#FCFCFC"/>
</g>
<g filter="url(#filter1_d_54_610)">
<path d="M45.9834 11.1456C52.9106 0.61408 68.4181 0.61408 75.3454 11.1456L75.6745 11.6628L110.719 68.9906C117.885 80.7134 109.448 95.7593 95.7085 95.7593H25.6202C11.8805 95.7593 3.4438 80.7134 10.6101 68.9906L45.6542 11.6628L45.9834 11.1456ZM64.614 18.4246C62.8086 15.4715 58.5201 15.4715 56.7147 18.4246L21.6688 75.7524C19.8426 78.7407 21.8688 82.5499 25.2839 82.7855L25.6202 82.7963H95.7085C99.2112 82.7963 101.405 79.0805 99.8245 76.0436L99.66 75.7524L64.614 18.4246Z" fill="#FCFCFC"/>
</g>
<path d="M64.3453 14.3681C65.3159 12.7471 67.6646 12.7471 68.6352 14.3681L107.526 79.3228C108.523 80.9892 107.323 83.1071 105.381 83.1071H27.5996C25.6575 83.1071 24.457 80.9892 25.4547 79.3228L64.3453 14.3681Z" fill="#FFA25A"/>
<path d="M50.6067 13.6141C55.2067 5.93142 66.2376 5.81158 71.0385 13.2542L71.2628 13.6141L106.396 72.2947C111.199 80.3178 105.419 90.5148 96.0675 90.5148H25.802C16.4508 90.5148 10.6707 80.3178 15.4739 72.2947L50.6067 13.6141ZM64.9061 17.4191C63.1086 14.4184 58.7609 14.4184 56.9634 17.4191L21.8288 76.0997C20.0396 79.0887 22.0696 82.863 25.4674 83.0965L25.802 83.1074H96.0675L96.402 83.0965C99.6905 82.8706 101.698 79.3282 100.202 76.3908L100.041 76.0997L64.9061 17.4191Z" fill="#161518"/>
<path d="M61.3745 34.2383C63.1555 34.2384 64.5991 35.6828 64.5991 37.4639V54.7549C64.5989 56.5357 63.1554 57.9794 61.3745 57.9795C59.5936 57.9795 58.1492 56.5358 58.1489 54.7549V37.4639C58.1489 35.6828 59.5934 34.2383 61.3745 34.2383Z" fill="#161518"/>
<path d="M61.3735 65.8369C63.1545 65.8369 64.5989 67.2806 64.5991 69.0615C64.5991 70.8426 63.1547 72.2871 61.3735 72.2871C59.5926 72.2869 58.1489 70.8425 58.1489 69.0615C58.1492 67.2807 59.5927 65.8371 61.3735 65.8369ZM61.3745 32.1543C64.306 32.1546 66.6831 34.5333 66.6831 37.4648V54.7549C66.6828 57.6862 64.3058 60.0622 61.3745 60.0625C58.4431 60.0623 56.0652 57.6862 56.0649 54.7549V37.4639C56.0652 34.5325 58.4431 32.1545 61.3745 32.1543ZM61.3745 34.2383C59.705 34.2384 58.3319 35.5079 58.1665 37.1338L58.1489 37.4639V54.7549C58.1492 56.5357 59.5937 57.9793 61.3745 57.9795C63.1552 57.9792 64.5988 56.5356 64.5991 54.7549V37.4648C64.5991 35.795 63.3299 34.419 61.7036 34.2539L61.3745 34.2383Z" fill="#161518"/>
<path d="M61.3735 63.7529C64.3052 63.753 66.6831 66.1309 66.6831 69.0625C66.6828 71.9939 64.305 74.37 61.3735 74.3701C58.4423 74.3698 56.0662 71.9938 56.0659 69.0625C56.0659 66.131 58.4421 63.7532 61.3735 63.7529ZM61.0444 65.8545C59.4182 66.0196 58.1489 67.3927 58.1489 69.0625C58.1492 70.8432 59.5928 72.2868 61.3735 72.2871C63.1544 72.287 64.5998 70.8433 64.6001 69.0625L64.5815 68.7314C64.416 67.1057 63.043 65.836 61.3735 65.8359L61.0444 65.8545Z" fill="#161518"/>
<defs>
<filter id="filter0_d_54_610" x="18.9824" y="16.2096" width="81.3638" height="68.5867" filterUnits="userSpaceOnUse" color-interpolation-filters="sRGB">
<feFlood flood-opacity="0" result="BackgroundImageFix"/>
<feColorMatrix in="SourceAlpha" type="matrix" values="0 0 0 0 0 0 0 0 0 0 0 0 0 0 0 0 0 0 127 0" result="hardAlpha"/>
<feOffset dx="-2" dy="2"/>
<feComposite in2="hardAlpha" operator="out"/>
<feColorMatrix type="matrix" values="0 0 0 0 0 0 0 0 0 0 0 0 0 0 0 0 0 0 0.15 0"/>
<feBlend mode="normal" in2="BackgroundImageFix" result="effect1_dropShadow_54_610"/>
<feBlend mode="normal" in="SourceGraphic" in2="effect1_dropShadow_54_610" result="shape"/>
</filter>
<filter id="filter1_d_54_610" x="6" y="3.24695" width="107.329" height="94.5123" filterUnits="userSpaceOnUse" color-interpolation-filters="sRGB">
<feFlood flood-opacity="0" result="BackgroundImageFix"/>
<feColorMatrix in="SourceAlpha" type="matrix" values="0 0 0 0 0 0 0 0 0 0 0 0 0 0 0 0 0 0 127 0" result="hardAlpha"/>
<feOffset dx="-2" dy="2"/>
<feComposite in2="hardAlpha" operator="out"/>
<feColorMatrix type="matrix" values="0 0 0 0 0 0 0 0 0 0 0 0 0 0 0 0 0 0 0.15 0"/>
<feBlend mode="normal" in2="BackgroundImageFix" result="effect1_dropShadow_54_610"/>
<feBlend mode="normal" in="SourceGraphic" in2="effect1_dropShadow_54_610" result="shape"/>
</filter>
</defs>
</svg>
