<svg width="72" height="72" viewBox="0 0 72 72" fill="none" xmlns="http://www.w3.org/2000/svg">
<path d="M55.0156 50.5781H28.4277L37.6309 41.1152L40.2656 46.3613L47.4326 39.7783L55.0156 50.5781ZM33.0371 31.9678L19.0576 46.3398L30.5986 27.1113L33.0371 31.9678Z" fill="#E8B9FF" fill-opacity="0.7"/>
<path d="M62.4705 15.5791C62.5969 16.144 62.6667 16.7309 62.6667 17.334V54.667C62.6667 59.0851 59.0849 62.6668 54.6667 62.667H17.3337L16.9216 62.6572C16.8462 62.6534 16.7709 62.6456 16.696 62.6396L21.8582 57.334H54.6667C56.1393 57.3338 57.3337 56.1396 57.3337 54.667V20.8604L62.4705 15.5791ZM54.6667 9.33398C54.841 9.33399 55.0138 9.34156 55.1853 9.35254L50.0173 14.667H17.3337C15.861 14.667 14.6667 15.8612 14.6667 17.334V51.0107L9.50464 56.3174C9.39292 55.7848 9.33375 55.2328 9.33374 54.667V17.334C9.33374 12.9157 12.9155 9.33399 17.3337 9.33398H54.6667Z" fill="#E8B9FF" fill-opacity="0.7"/>
<line x1="8.83267" y1="63.8008" x2="63.166" y2="7.93967" stroke="#E8B9FF" stroke-opacity="0.7" stroke-width="4"/>
</svg>
