<svg width="40" height="40" viewBox="0 0 40 40" fill="none" xmlns="http://www.w3.org/2000/svg">
<path fill-rule="evenodd" clip-rule="evenodd" d="M23.862 11.9621C24.1328 11.5335 24.6454 11.2999 25.0953 11.5009L33.4668 16.2314C33.9114 16.4301 34.1189 16.9708 33.9303 17.4391L31.7663 21.6801C31.5777 22.1484 31.0643 22.3671 30.6197 22.1684L29.1034 21.4909C28.801 21.3558 28.4596 21.5765 28.4586 21.9077L28.4245 33.4056C28.4245 33.9143 28.033 34.3267 27.55 34.3267H12.9857C12.5027 34.3267 12.1112 33.9143 12.1112 33.4056L12.0771 21.8559C12.0762 21.5248 11.7349 21.3041 11.4325 21.439L9.80371 22.1659C9.35911 22.3643 8.84598 22.1456 8.65743 21.6774L6.59072 17.4364C6.40207 16.9679 6.60977 16.4271 7.05457 16.2286L15.3313 11.5005C15.7812 11.2997 16.2936 11.5333 16.5643 11.9618C16.8797 12.4611 17.2861 12.8935 17.7629 13.2323C18.4868 13.7466 19.34 14.0216 20.2132 14.022C21.0864 14.0216 21.9396 13.7466 22.6635 13.2323C23.1402 12.8936 23.5466 12.4613 23.862 11.9621ZM17.0546 19.671H23.4663C23.7193 19.671 23.9243 19.8761 23.9243 20.129V28.7142C23.9243 29.1113 23.4534 29.3203 23.159 29.0537L20.5678 26.7078C20.3934 26.5498 20.1276 26.5498 19.9531 26.7078L17.362 29.0537C17.0676 29.3202 16.5966 29.1113 16.5966 28.7142V20.129C16.5966 19.8761 16.8017 19.671 17.0546 19.671Z" fill="#FCFCFC"/>
<path d="M18.2548 5.59854C18.6523 5.02028 19.3051 4.64307 20.0431 4.64307C21.2542 4.64307 22.236 5.65904 22.236 6.91232C22.236 7.93255 21.5853 8.79552 20.69 9.08119C20.3442 9.19153 20.0431 9.47584 20.0431 9.83883V10.6148" stroke="#FCFCFC" stroke-width="1.97179" stroke-linecap="round"/>
</svg>
