<svg width="22" height="22" viewBox="0 0 22 22" fill="none" xmlns="http://www.w3.org/2000/svg">
<path d="M9.32007 11.02C8.42095 11.0087 7.54652 11.3141 6.84993 11.8827C6.15335 12.4513 5.67903 13.2468 5.51007 14.13C5.32007 15.13 5.13007 16.3 5.02007 17.34C4.92253 17.876 5.00867 18.4291 5.26455 18.91C5.52043 19.391 5.93108 19.7715 6.43007 19.99C7.85475 20.4758 9.35566 20.6994 10.8601 20.65C12.3612 20.6989 13.8587 20.4752 15.2801 19.99C15.7714 19.7731 16.1766 19.3989 16.4319 18.9264C16.6872 18.4539 16.778 17.9098 16.6901 17.38C16.5801 16.38 16.3901 15.19 16.2001 14.17C16.0311 13.2868 15.5568 12.4913 14.8602 11.9227C14.1636 11.3541 13.2892 11.0487 12.3901 11.06L9.32007 11.02Z" stroke="#FCFCFC" stroke-width="2" stroke-linecap="round" stroke-linejoin="round"/>
<path d="M10.97 7.96C12.8919 7.96 14.45 6.40195 14.45 4.48C14.45 2.55805 12.8919 1 10.97 1C9.04804 1 7.48999 2.55805 7.48999 4.48C7.48999 6.40195 9.04804 7.96 10.97 7.96Z" stroke="#FCFCFC" stroke-width="2" stroke-linecap="round" stroke-linejoin="round"/>
</svg>
