<svg width="24" height="24" viewBox="0 0 24 24" fill="none" xmlns="http://www.w3.org/2000/svg">
<path d="M7.44465 12.1092C6.62727 12.0989 5.83233 12.3765 5.19907 12.8934C4.56581 13.4103 4.13462 14.1336 3.98101 14.9364C3.80828 15.8455 3.63555 16.9092 3.53555 17.8546C3.44689 18.3418 3.52519 18.8447 3.75781 19.2819C3.99043 19.7191 4.36375 20.065 4.81737 20.2637C6.11254 20.7053 7.477 20.9086 8.84465 20.8637C10.2093 20.9081 11.5707 20.7048 12.8628 20.2637C13.3095 20.0665 13.6779 19.7264 13.9099 19.2968C14.142 18.8672 14.2246 18.3726 14.1446 17.891C14.0446 16.9819 13.8719 15.9001 13.6992 14.9728C13.5456 14.1699 13.1144 13.4467 12.4811 12.9298C11.8479 12.4129 11.0529 12.1352 10.2356 12.1455L7.44465 12.1092Z" fill="white"/>
<path d="M8.94464 10.3273C10.6919 10.3273 12.1083 8.91086 12.1083 7.16364C12.1083 5.41641 10.6919 4 8.94464 4C7.19741 4 5.78101 5.41641 5.78101 7.16364C5.78101 8.91086 7.19741 10.3273 8.94464 10.3273Z" fill="white"/>
</svg>
