<svg width="24" height="24" viewBox="0 0 24 24" fill="none" xmlns="http://www.w3.org/2000/svg">
<path d="M20.8903 11.4835C21.3427 12.0787 21.3427 12.8823 20.8903 13.4765C19.4653 15.3475 16.0465 19.2 12.055 19.2C8.06344 19.2 4.6446 15.3475 3.2196 13.4765C2.99949 13.1915 2.88 12.8409 2.88 12.48C2.88 12.1191 2.99949 11.7685 3.2196 11.4835C4.6446 9.61249 8.06344 5.76001 12.055 5.76001C16.0465 5.76001 19.4653 9.61249 20.8903 11.4835V11.4835Z" stroke="#FCFCFC" stroke-width="1.91917" stroke-linecap="round" stroke-linejoin="round"/>
<path d="M12.0555 15.36C13.6369 15.36 14.9188 14.0706 14.9188 12.48C14.9188 10.8895 13.6369 9.60004 12.0555 9.60004C10.4741 9.60004 9.19214 10.8895 9.19214 12.48C9.19214 14.0706 10.4741 15.36 12.0555 15.36Z" stroke="#FCFCFC" stroke-width="0.959585" stroke-linecap="round" stroke-linejoin="round"/>
</svg>
