<svg width="30" height="30" viewBox="0 0 30 30" fill="none" xmlns="http://www.w3.org/2000/svg">
<g clip-path="url(#clip0_141_4191)">
<rect width="30" height="30" rx="15" fill="#ECEBED"/>
<g clip-path="url(#clip1_141_4191)">
<path d="M12.9005 18.8496C9.18577 18.8496 5.89121 21.4166 5.20512 25.1517C4.8995 26.8154 4.59329 28.6926 4.4032 30.415C4.15086 32.7014 5.11238 35.3523 7.68147 36.3376C9.85478 37.1711 12.6027 37.5625 15.3564 37.5077C18.1102 37.5625 20.8581 37.1711 23.0314 36.3376C25.6005 35.3523 26.562 32.7014 26.3097 30.415C26.1196 28.6926 25.8134 26.8154 25.5077 25.1517C24.8217 21.4166 21.5271 18.8496 17.8124 18.8496H12.9005Z" fill="#161518"/>
<path fill-rule="evenodd" clip-rule="evenodd" d="M8.35513 9.96051C8.35513 5.99794 11.5674 2.78564 15.53 2.78564C19.4926 2.78564 22.7049 5.99794 22.7049 9.96051C22.7049 13.9231 19.4926 17.1354 15.53 17.1354C11.5674 17.1354 8.35513 13.9231 8.35513 9.96051Z" fill="#161518"/>
</g>
</g>
<defs>
<clipPath id="clip0_141_4191">
<rect width="30" height="30" rx="15" fill="white"/>
</clipPath>
<clipPath id="clip1_141_4191">
<rect width="30" height="30" fill="white" transform="translate(0 -0.355469)"/>
</clipPath>
</defs>
</svg>
