<svg width="24" height="24" viewBox="0 0 24 24" fill="none" xmlns="http://www.w3.org/2000/svg">
<g clip-path="url(#clip0_49_1663)">
<path d="M10.0991 3.84961C12.9433 3.84963 15.2495 6.15577 15.2495 9C15.2495 11.8442 12.9433 14.1504 10.0991 14.1504C7.25489 14.1504 4.94876 11.8442 4.94873 9C4.94873 6.15576 7.25488 3.84961 10.0991 3.84961Z" stroke="#FFFFFF" stroke-opacity="0.7" stroke-width="1.7"/>
<path d="M6.5 9.84973C9.34422 9.84976 11.6504 12.1559 11.6504 15.0001C11.6504 17.8443 9.34421 20.1505 6.5 20.1505C3.65577 20.1505 1.34963 17.8443 1.34961 15.0001C1.34961 12.1559 3.65576 9.84973 6.5 9.84973Z" stroke="#FFFFFF" stroke-opacity="0.7" stroke-width="1.7"/>
<path d="M13.7998 9.84973C16.644 9.84976 18.9502 12.1559 18.9502 15.0001C18.9502 17.8443 16.644 20.1505 13.7998 20.1505C10.9556 20.1505 8.64944 17.8443 8.64941 15.0001C8.64941 12.1559 10.9556 9.84973 13.7998 9.84973Z" stroke="#FFFFFF" stroke-opacity="0.7" stroke-width="1.7"/>
</g>
<defs>
<clipPath id="clip0_49_1663">
<rect width="24" height="24" fill="white"/>
</clipPath>
</defs>
</svg>
