<svg width="24" height="24" viewBox="0 0 24 24" fill="none" xmlns="http://www.w3.org/2000/svg">
<g clip-path="url(#clip0_49_1720)">
<path d="M8.52644 20.4C7.1648 20.4 5.95446 20.2141 4.89541 19.8424C3.84068 19.4749 2.95021 18.9324 2.22401 18.2149C1.4978 17.5016 0.946662 16.6306 0.570591 15.6018C0.19452 14.573 0.00432265 13.3973 0 12.0745C0.00432265 10.7821 0.196681 9.61711 0.577074 8.57967C0.957468 7.53792 1.51293 6.64745 2.24346 5.90827C2.97399 5.16478 3.86661 4.59419 4.92134 4.1965C5.97607 3.79882 7.17561 3.59998 8.51995 3.59998C9.78649 3.59998 10.9082 3.79233 11.8851 4.17705C12.8664 4.56177 13.6942 5.09778 14.3685 5.78508C15.0472 6.46806 15.5594 7.26775 15.9052 8.18415C16.2553 9.09623 16.4304 10.0861 16.4304 11.1538C16.4304 11.893 16.3742 12.5933 16.2618 13.2546C16.1494 13.9117 15.9571 14.4952 15.6848 15.0053C15.4167 15.5154 15.0515 15.9217 14.589 16.2243C14.1264 16.5226 13.5472 16.6847 12.8513 16.7106C12.4147 16.7322 12.0321 16.6911 11.7036 16.5874C11.3751 16.4836 11.1092 16.3215 10.9061 16.1011C10.7072 15.8763 10.5819 15.6018 10.53 15.2776H10.4522C10.3528 15.537 10.1647 15.7747 9.88807 15.9909C9.61575 16.2027 9.27858 16.3691 8.87657 16.4901C8.47457 16.6068 8.02717 16.6544 7.53439 16.6328C7.00702 16.6068 6.51856 16.4858 6.06901 16.2697C5.62377 16.0492 5.23474 15.7423 4.90189 15.349C4.57337 14.9513 4.31833 14.4715 4.13678 13.9095C3.95523 13.3476 3.86445 12.71 3.86445 11.9967C3.86445 11.3008 3.96387 10.687 4.16272 10.1553C4.36156 9.6236 4.6274 9.16972 4.96025 8.79365C5.29741 8.41757 5.67781 8.12363 6.10143 7.91182C6.52505 7.69569 6.96164 7.55737 7.41119 7.49685C7.87804 7.43201 8.31679 7.43849 8.72744 7.5163C9.13809 7.59411 9.47958 7.71298 9.75191 7.87292C10.0286 8.03286 10.2015 8.20793 10.2706 8.39812H10.3614V7.67192H12.1704V13.8447C12.1748 14.1689 12.2526 14.4304 12.4039 14.6292C12.5595 14.8281 12.7756 14.9275 13.0523 14.9275C13.3981 14.9275 13.6769 14.7913 13.8887 14.519C14.1048 14.2424 14.2604 13.8187 14.3555 13.2481C14.455 12.6732 14.5025 11.9384 14.4982 11.0436C14.5025 10.3087 14.4052 9.64305 14.2064 9.04652C14.0119 8.44567 13.7352 7.91831 13.3765 7.46443C13.0177 7.01055 12.5876 6.63232 12.0861 6.32973C11.589 6.02282 11.0357 5.79156 10.4262 5.63595C9.81675 5.48033 9.16619 5.40252 8.47457 5.40252C7.41551 5.40252 6.48398 5.56462 5.67997 5.88882C4.87595 6.2087 4.20162 6.66474 3.65697 7.25694C3.11663 7.84915 2.70814 8.55158 2.43149 9.36424C2.15917 10.1726 2.023 11.0674 2.023 12.0486C2.023 13.099 2.16565 14.0305 2.45095 14.8432C2.74056 15.6515 3.16418 16.3324 3.72181 16.8857C4.27943 17.439 4.96889 17.8583 5.7902 18.1435C6.61582 18.4288 7.56465 18.5715 8.63666 18.5715C9.12945 18.5715 9.61142 18.5326 10.0826 18.4548C10.5538 18.377 10.9774 18.2862 11.3535 18.1825C11.7295 18.0787 12.0191 17.9879 12.2223 17.9101L12.7734 19.5571C12.5054 19.6954 12.1423 19.8294 11.6841 19.9591C11.2303 20.0887 10.7288 20.1946 10.1799 20.2768C9.6352 20.3589 9.08406 20.4 8.52644 20.4ZM8.07256 14.7719C8.62154 14.7719 9.06028 14.666 9.38881 14.4542C9.71733 14.238 9.95291 13.9182 10.0956 13.4945C10.2382 13.0709 10.3074 12.5435 10.303 11.9124C10.303 11.3246 10.2296 10.8426 10.0826 10.4665C9.93562 10.0904 9.70004 9.81163 9.37584 9.63008C9.05164 9.44853 8.62154 9.35775 8.08553 9.35775C7.60139 9.35775 7.18857 9.46798 6.84709 9.68844C6.50992 9.90889 6.25056 10.2136 6.06901 10.6027C5.89178 10.9874 5.80316 11.4261 5.80316 11.9189C5.80316 12.4117 5.87449 12.8764 6.01714 13.313C6.16411 13.7452 6.40185 14.0975 6.73037 14.3699C7.06322 14.6379 7.51061 14.7719 8.07256 14.7719Z" fill="#FFFFFF" fill-opacity="0.7"/>
</g>
<defs>
<clipPath id="clip0_49_1720">
<rect width="24" height="24" fill="white"/>
</clipPath>
</defs>
</svg>
