<svg width="24" height="24" viewBox="0 0 24 24" fill="none" xmlns="http://www.w3.org/2000/svg">
<g clip-path="url(#clip0_49_1683)">
<path fill-rule="evenodd" clip-rule="evenodd" d="M12.4911 5.00068C11.8183 4.99706 11.1524 5.13853 10.5376 5.41573C10.2374 5.55105 9.95283 5.7172 9.68796 5.91106C9.41025 6.11431 9.15426 6.34801 8.92486 6.60854C8.69547 6.34801 8.43948 6.11431 8.16177 5.91106C7.8969 5.7172 7.61228 5.55105 7.31215 5.41573C6.69733 5.13853 6.03147 4.99706 5.35868 5.00068C4.79006 4.99 4.22505 5.0944 3.69666 5.30778C3.16828 5.52115 2.68712 5.83923 2.2813 6.24342C1.87549 6.64761 1.55316 7.1298 1.33316 7.66181C1.11316 8.19382 0.999903 8.76498 1 9.34191C1 12.8577 4.3696 15.6527 7.16542 17.9717C7.44671 18.205 7.72218 18.4335 7.98783 18.6574C8.52757 19.1124 9.32409 19.1146 9.86518 18.6612C10.1088 18.4571 10.3607 18.2489 10.6176 18.0365C13.4286 15.7124 16.8497 12.8841 16.8497 9.34191C16.8498 8.76498 16.7366 8.19382 16.5166 7.66181C16.2966 7.1298 15.9742 6.64761 15.5684 6.24342C15.1626 5.83923 14.6815 5.52115 14.1531 5.30778C13.6247 5.0944 13.0597 4.99 12.4911 5.00068Z" stroke="#FFFFFF" stroke-opacity="0.7" stroke-width="2"/>
</g>
<defs>
<clipPath id="clip0_49_1683">
<rect width="24" height="24" fill="white"/>
</clipPath>
</defs>
</svg>
