<svg width="22" height="22" viewBox="0 0 22 22" fill="none" xmlns="http://www.w3.org/2000/svg">
<path fill-rule="evenodd" clip-rule="evenodd" d="M3.01953 13.4582C3.00666 13.3941 3 13.3282 3 13.2614V2.8769C3 2.56148 3.21129 2.19337 3.47579 2.02517C3.48677 2.01826 3.50078 2.00957 3.51776 1.99931C3.55172 1.97879 3.59763 1.95193 3.65509 1.92025C3.76994 1.85693 3.93137 1.7741 4.13609 1.68405C4.54511 1.50416 5.13032 1.29401 5.86428 1.15455C7.34253 0.873677 9.3975 0.88561 11.7852 1.96579C13.759 2.85873 15.3906 2.8468 16.5084 2.63439C17.0726 2.52721 17.5128 2.3674 17.8048 2.23899C17.9505 2.17489 18.0584 2.11899 18.1253 2.08211C18.1587 2.06369 18.1818 2.05009 18.194 2.04267L18.204 2.03658C18.5104 1.83891 18.9003 1.8236 19.2214 1.99711C19.5446 2.17175 19.7461 2.50953 19.7461 2.8769V13.2614C19.7461 13.6528 19.5178 14.0082 19.1618 14.1709L18.7461 13.2614C19.1618 14.1709 19.1618 14.1709 19.1618 14.1709L19.1584 14.1725L19.1537 14.1746L19.1401 14.1807C19.1293 14.1854 19.115 14.1917 19.0972 14.1993C19.0617 14.2145 19.0125 14.235 18.9503 14.2595C18.8261 14.3086 18.65 14.3742 18.429 14.4461C17.9879 14.5895 17.3627 14.7598 16.6107 14.8734C15.1121 15.0996 13.0625 15.1067 10.9669 14.1753C9.32408 13.4451 7.68716 13.438 6.43386 13.6271C5.85719 13.7142 5.3718 13.8414 5.01953 13.9519L5.01953 20.9999H3.01953L3.01953 13.4582ZM5.01953 11.8744C5.34679 11.7915 5.72191 11.712 6.13534 11.6495C7.63395 11.4233 9.68354 11.4162 11.7792 12.3476C13.422 13.0778 15.0589 13.0849 16.3122 12.8958C16.8996 12.8071 17.3923 12.6767 17.7461 12.5648V4.3875C17.4871 4.46583 17.1983 4.53911 16.8818 4.59924C15.4035 4.88012 13.3486 4.86818 10.9609 3.788C8.98705 2.89506 7.3555 2.907 6.23761 3.1194C5.7218 3.21741 5.30954 3.35942 5.01953 3.48118L5.01953 11.8744Z" fill="white"/>
</svg>
