<svg width="70" height="32" viewBox="0 0 70 32" fill="none" xmlns="http://www.w3.org/2000/svg">
<rect x="1.25" y="1.25" width="67.5" height="29.5" rx="8.75" fill="#34CE76"/>
<rect x="1.25" y="1.25" width="67.5" height="29.5" rx="8.75" stroke="#FCFCFC" stroke-width="2.5"/>
<path d="M15.9006 14C15.8665 13.5739 15.7067 13.2415 15.4212 13.0028C15.1399 12.7642 14.7116 12.6449 14.1364 12.6449C13.7699 12.6449 13.4695 12.6896 13.2351 12.7791C13.005 12.8643 12.8345 12.9815 12.7237 13.1307C12.6129 13.2798 12.5554 13.4503 12.5511 13.642C12.5426 13.7997 12.5703 13.9425 12.6342 14.0703C12.7024 14.1939 12.8089 14.3068 12.9538 14.4091C13.0987 14.5071 13.2841 14.5966 13.5099 14.6776C13.7358 14.7585 14.0043 14.831 14.3153 14.8949L15.3892 15.125C16.1136 15.2784 16.7337 15.4808 17.2493 15.7322C17.7649 15.9837 18.1868 16.2798 18.5149 16.6207C18.843 16.9574 19.0838 17.3366 19.2372 17.7585C19.3949 18.1804 19.4759 18.6406 19.4801 19.1392C19.4759 20 19.2607 20.7287 18.8345 21.3253C18.4084 21.9219 17.799 22.3757 17.0064 22.6868C16.218 22.9979 15.2699 23.1534 14.1619 23.1534C13.0241 23.1534 12.0313 22.9851 11.1832 22.6484C10.3395 22.3118 9.68324 21.794 9.21449 21.0952C8.75 20.392 8.51563 19.4929 8.51136 18.3977H11.8864C11.9077 18.7983 12.0078 19.1349 12.1868 19.4077C12.3658 19.6804 12.6172 19.8871 12.9411 20.0277C13.2692 20.1683 13.6591 20.2386 14.1108 20.2386C14.4901 20.2386 14.8075 20.1918 15.0632 20.098C15.3189 20.0043 15.5128 19.8743 15.6449 19.7081C15.777 19.5419 15.8452 19.3523 15.8494 19.1392C15.8452 18.9389 15.7791 18.7642 15.6513 18.6151C15.5277 18.4616 15.3232 18.3253 15.0376 18.206C14.7521 18.0824 14.3665 17.9673 13.8807 17.8608L12.5767 17.5795C11.4176 17.3281 10.5036 16.9084 9.83452 16.3203C9.16974 15.728 8.83949 14.9205 8.84375 13.8977C8.83949 13.0668 9.06108 12.3402 9.50852 11.718C9.96023 11.0916 10.5845 10.6037 11.3814 10.2543C12.1825 9.90483 13.1009 9.73011 14.1364 9.73011C15.1932 9.73011 16.1072 9.90696 16.8786 10.2607C17.6499 10.6143 18.2443 11.1129 18.6619 11.7564C19.0838 12.3956 19.2969 13.1435 19.3011 14H15.9006ZM25.869 23H20.832V9.90909H25.8178C27.1644 9.90909 28.3278 10.1712 29.3079 10.6953C30.2923 11.2152 31.0508 11.9652 31.5835 12.9453C32.1204 13.9212 32.3889 15.0909 32.3889 16.4545C32.3889 17.8182 32.1225 18.9901 31.5898 19.9702C31.0572 20.946 30.3029 21.696 29.3271 22.2202C28.3512 22.7401 27.1985 23 25.869 23ZM24.386 19.983H25.7411C26.3888 19.983 26.9407 19.8786 27.3967 19.6697C27.8569 19.4609 28.2063 19.1009 28.445 18.5895C28.6879 18.0781 28.8093 17.3665 28.8093 16.4545C28.8093 15.5426 28.6857 14.831 28.4386 14.3196C28.1957 13.8082 27.8377 13.4482 27.3647 13.2393C26.896 13.0305 26.3207 12.9261 25.6388 12.9261H24.386V19.983ZM34.0332 23V9.90909H37.5872V15.2017H37.7662L41.7037 9.90909H45.8457L41.4224 15.7386L45.948 23H41.7037L38.7633 18.0909L37.5872 19.625V23H34.0332ZM55.9835 23.179C55.2207 23.179 54.4963 23.0597 53.8102 22.821C53.1284 22.5781 52.5233 22.1967 51.9949 21.6768C51.4664 21.157 51.051 20.4794 50.7484 19.6442C50.4501 18.8089 50.3031 17.7969 50.3074 16.608C50.3116 15.5469 50.448 14.5923 50.7164 13.7443C50.9892 12.8963 51.3748 12.174 51.8734 11.5774C52.3762 10.9808 52.9771 10.5249 53.676 10.2095C54.3748 9.88991 55.1525 9.73011 56.0091 9.73011C56.9721 9.73011 57.8201 9.91548 58.5531 10.2862C59.286 10.657 59.8699 11.1534 60.3045 11.7756C60.7434 12.3935 60.9991 13.0753 61.0716 13.821H57.5687C57.4877 13.4503 57.3002 13.1797 57.0062 13.0092C56.7164 12.8345 56.3841 12.7472 56.0091 12.7472C55.2633 12.7472 54.7157 13.071 54.3663 13.7188C54.0211 14.3665 53.8443 15.2187 53.8358 16.2756H53.9125C54.0787 15.875 54.3301 15.532 54.6667 15.2464C55.0034 14.9609 55.3954 14.7415 55.8429 14.5881C56.2903 14.4347 56.7633 14.358 57.2619 14.358C58.0545 14.358 58.747 14.5369 59.3393 14.8949C59.9359 15.2528 60.4004 15.7429 60.7328 16.3651C61.0652 16.9872 61.2292 17.6989 61.225 18.5C61.2292 19.4375 61.0076 20.2578 60.5602 20.9609C60.117 21.6641 59.5012 22.2095 58.7129 22.5973C57.9245 22.9851 57.0147 23.179 55.9835 23.179ZM55.9579 20.4943C56.3116 20.4943 56.6248 20.4134 56.8976 20.2514C57.1745 20.0895 57.3897 19.8679 57.5431 19.5866C57.7008 19.3054 57.7775 18.9858 57.7733 18.6278C57.7775 18.2656 57.7008 17.946 57.5431 17.669C57.3897 17.3878 57.1745 17.1662 56.8976 17.0043C56.6248 16.8423 56.3116 16.7614 55.9579 16.7614C55.698 16.7614 55.4572 16.8082 55.2356 16.902C55.0183 16.9915 54.8287 17.1214 54.6667 17.2919C54.5048 17.4581 54.377 17.6562 54.2832 17.8864C54.1937 18.1122 54.1468 18.3594 54.1426 18.6278C54.1468 18.9858 54.2278 19.3054 54.3855 19.5866C54.5431 19.8679 54.7583 20.0895 55.0311 20.2514C55.3038 20.4134 55.6127 20.4943 55.9579 20.4943Z" fill="#FCFCFC"/>
</svg>
