<svg width="37" height="37" viewBox="0 0 37 37" fill="none" xmlns="http://www.w3.org/2000/svg">
<path d="M29.3726 17.4303L29.3753 17.4279C29.8322 17.0252 30.132 16.474 30.2218 15.8716C30.311 15.2728 30.187 14.6619 29.8716 14.1454L28.0116 10.9929C27.7853 10.6028 27.4608 10.2788 27.0704 10.0531C26.6793 9.82707 26.2359 9.70759 25.7843 9.70654C25.5048 9.70476 25.2269 9.74836 24.9614 9.83565L24.9614 9.83563L24.954 9.83812L23.4819 10.3349C23.3892 10.2798 23.2956 10.2262 23.2012 10.1741L22.8934 8.65314C22.8932 8.65247 22.8931 8.6518 22.8929 8.65112C22.7746 8.05762 22.4515 7.52453 21.98 7.145C21.5108 6.76729 20.9244 6.5656 20.3223 6.57463H16.6378C16.0358 6.5656 15.4494 6.76729 14.9801 7.145C14.5087 7.52455 14.1855 8.05768 14.0672 8.65123C14.067 8.65187 14.0669 8.6525 14.0668 8.65314L13.7593 10.1723C13.6667 10.223 13.5748 10.2752 13.4838 10.3288L12.0578 9.81351C12.029 9.8031 11.9998 9.79402 11.9701 9.7863C11.7115 9.71891 11.4441 9.69211 11.1774 9.70679C10.7362 9.71296 10.3037 9.8321 9.92143 10.0531C9.53098 10.2788 9.2065 10.6028 8.98024 10.9928L7.11585 14.1528L7.11583 14.1528L7.11287 14.1579C6.81156 14.6755 6.6996 15.2818 6.79615 15.8729C6.89206 16.4601 7.18778 16.9959 7.63311 17.3901L8.79615 18.4546V18.7753L7.64264 19.8006C7.18364 20.1977 6.87912 20.7439 6.78274 21.3433C6.68614 21.9442 6.80489 22.5598 7.11794 23.0815L8.98023 26.2379C9.20649 26.628 9.53098 26.952 9.92142 27.1777C10.3124 27.4037 10.7559 27.5232 11.2075 27.5242C11.4869 27.526 11.7648 27.4824 12.0303 27.3951L12.0303 27.3952L12.0377 27.3927L13.5099 26.8959C13.6026 26.951 13.6962 27.0046 13.7906 27.0566L14.0984 28.5776C14.0985 28.5783 14.0987 28.5789 14.0988 28.5795C14.2172 29.1731 14.5403 29.7062 15.0118 30.0858C15.481 30.4635 16.0674 30.6652 16.6695 30.6561H20.3856C20.9876 30.6652 21.574 30.4635 22.0433 30.0858C22.5148 29.7062 22.8379 29.173 22.9563 28.5794C22.9564 28.5788 22.9565 28.5782 22.9566 28.5776L23.2641 27.0585C23.3604 27.0058 23.4559 26.9515 23.5505 26.8956L25.0161 27.3923L25.0161 27.3923L25.0247 27.3951C25.2902 27.4824 25.5681 27.526 25.8476 27.5242C26.2992 27.5232 26.7426 27.4037 27.1336 27.1777C27.5256 26.9511 27.8511 26.6254 28.0775 26.2334L28.0802 26.2286L29.8815 23.0684C30.1809 22.5517 30.2919 21.9472 30.1956 21.3579C30.0997 20.7707 29.804 20.2349 29.3587 19.8407L28.1956 18.7761V18.4602L29.3726 17.4303Z" stroke="#716B7C" stroke-width="2" stroke-linejoin="round"/>
<path d="M18.4963 23.3606C17.5578 23.3606 16.6403 23.0823 15.8599 22.5609C15.0796 22.0395 14.4714 21.2984 14.1122 20.4313C13.753 19.5642 13.6591 18.61 13.8422 17.6895C14.0253 16.769 14.4772 15.9235 15.1408 15.2599C15.8045 14.5962 16.65 14.1443 17.5705 13.9612C18.491 13.7781 19.4451 13.8721 20.3122 14.2312C21.1793 14.5904 21.9204 15.1986 22.4419 15.979C22.9633 16.7593 23.2416 17.6768 23.2416 18.6153C23.2479 19.2402 23.1295 19.8601 22.8933 20.4387C22.6571 21.0173 22.3078 21.543 21.8659 21.9849C21.424 22.4268 20.8983 22.7761 20.3197 23.0123C19.7411 23.2486 19.1212 23.367 18.4963 23.3606Z" stroke="#716B7C" stroke-linecap="round" stroke-linejoin="round"/>
</svg>
