<svg width="37" height="37" viewBox="0 0 37 37" fill="none" xmlns="http://www.w3.org/2000/svg">
<path fill-rule="evenodd" clip-rule="evenodd" d="M27.3285 18.7774V19.9091L28.7265 21.1888C28.9846 21.415 29.1559 21.724 29.2113 22.0627C29.2666 22.4014 29.2024 22.7488 29.0298 23.0454L27.3433 26.0041C27.2136 26.2288 27.0271 26.4154 26.8025 26.5452C26.5779 26.675 26.3231 26.7435 26.0637 26.7438C25.9029 26.745 25.743 26.72 25.5903 26.6698L23.8002 26.0633C23.4874 26.2695 23.1612 26.4549 22.8239 26.618L22.4466 28.482C22.379 28.8226 22.1937 29.1285 21.9233 29.3462C21.6528 29.5639 21.3144 29.6796 20.9673 29.6729H17.476C17.1288 29.6796 16.7904 29.5639 16.52 29.3462C16.2495 29.1285 16.0642 28.8226 15.9966 28.482L15.6194 26.618C15.2844 26.4548 14.9607 26.2695 14.6504 26.0633L12.853 26.6698C12.7002 26.72 12.5403 26.745 12.3796 26.7438C12.1201 26.7435 11.8653 26.675 11.6407 26.5452C11.4161 26.4154 11.2296 26.2288 11.0999 26.0041L9.35426 23.0454C9.1737 22.7459 9.10509 22.3921 9.16061 22.0468C9.21613 21.7015 9.39218 21.387 9.65753 21.1592L11.0555 19.9165V18.7848L9.65753 17.5052C9.39947 17.2789 9.2281 16.97 9.17278 16.6313C9.11745 16.2926 9.18161 15.9452 9.35426 15.6486L11.0999 12.6898C11.2296 12.4652 11.4161 12.2786 11.6407 12.1487C11.8653 12.0189 12.1201 11.9504 12.3796 11.9502C12.5387 11.9393 12.6986 11.9543 12.853 11.9945L14.6134 12.6307C14.9263 12.4244 15.2524 12.2391 15.5898 12.0759L15.967 10.2119C16.0346 9.87137 16.2199 9.56546 16.4904 9.34774C16.7608 9.13003 17.0992 9.01437 17.4464 9.02102H20.9081C21.2552 9.01437 21.5936 9.13003 21.8641 9.34774C22.1345 9.56546 22.3198 9.87137 22.3874 10.2119L22.7647 12.0759C23.0996 12.2391 23.4233 12.4245 23.7337 12.6307L25.5311 12.0241C25.6838 11.9739 25.8437 11.9489 26.0045 11.9502C26.2639 11.9504 26.5187 12.0189 26.7433 12.1487C26.9679 12.2786 27.1544 12.4652 27.2841 12.6898L29.0298 15.6486C29.2129 15.9456 29.2852 16.2978 29.2337 16.643C29.1823 16.9882 29.0105 17.304 28.7487 17.5348L27.3285 18.7774ZM15.8594 22.5963C16.6398 23.1177 17.5572 23.396 18.4958 23.396C19.1207 23.4023 19.7406 23.2839 20.3192 23.0477C20.8978 22.8115 21.4234 22.4622 21.8653 22.0203C22.3073 21.5784 22.6566 21.0527 22.8928 20.4741C23.129 19.8955 23.2474 19.2756 23.2411 18.6507C23.2411 17.7122 22.9628 16.7947 22.4413 16.0143C21.9199 15.234 21.1788 14.6258 20.3117 14.2666C19.4446 13.9074 18.4905 13.8135 17.57 13.9966C16.6495 14.1797 15.804 14.6316 15.1403 15.2952C14.4767 15.9589 14.0247 16.8044 13.8416 17.7249C13.6585 18.6454 13.7525 19.5995 14.1117 20.4666C14.4708 21.3337 15.079 22.0748 15.8594 22.5963Z" fill="#691FA9"/>
<path d="M29.3726 17.447L29.3753 17.4446C29.8322 17.0419 30.132 16.4907 30.2218 15.8883C30.311 15.2896 30.187 14.6786 29.8716 14.1621L28.0116 11.0096C27.7853 10.6195 27.4608 10.2955 27.0704 10.0698C26.6793 9.8438 26.2359 9.72431 25.7843 9.72327C25.5048 9.72148 25.2269 9.76508 24.9614 9.85238L24.9614 9.85235L24.954 9.85484L23.4819 10.3516C23.3892 10.2965 23.2956 10.2429 23.2012 10.1909L22.8934 8.66986C22.8932 8.66919 22.8931 8.66852 22.8929 8.66785C22.7746 8.07434 22.4515 7.54125 21.98 7.16173C21.5108 6.78402 20.9244 6.58232 20.3223 6.59136H16.6378C16.0358 6.58232 15.4494 6.78402 14.9801 7.16173C14.5087 7.54128 14.1855 8.0744 14.0672 8.66795C14.067 8.66859 14.0669 8.66923 14.0668 8.66986L13.7593 10.189C13.6667 10.2397 13.5748 10.2919 13.4838 10.3455L12.0578 9.83023C12.029 9.81982 11.9998 9.81074 11.9701 9.80302C11.7115 9.73564 11.4441 9.70884 11.1774 9.72351C10.7362 9.72968 10.3037 9.84882 9.92143 10.0698C9.53098 10.2955 9.2065 10.6195 8.98024 11.0096L7.11585 14.1695L7.11583 14.1695L7.11287 14.1746C6.81156 14.6922 6.6996 15.2985 6.79615 15.8896C6.89206 16.4768 7.18778 17.0127 7.63311 17.4068L8.79615 18.4714V18.792L7.64264 19.8174C7.18364 20.2144 6.87912 20.7606 6.78274 21.3601C6.68614 21.9609 6.80489 22.5765 7.11794 23.0982L8.98023 26.2547C9.20649 26.6447 9.53098 26.9687 9.92142 27.1944C10.3124 27.4204 10.7559 27.5399 11.2075 27.541C11.4869 27.5427 11.7648 27.4991 12.0303 27.4118L12.0303 27.4119L12.0377 27.4094L13.5099 26.9126C13.6026 26.9677 13.6962 27.0213 13.7906 27.0734L14.0984 28.5944C14.0985 28.595 14.0987 28.5956 14.0988 28.5962C14.2172 29.1898 14.5403 29.7229 15.0118 30.1025C15.481 30.4802 16.0674 30.6819 16.6695 30.6729H20.3856C20.9876 30.6819 21.574 30.4802 22.0433 30.1025C22.5148 29.7229 22.8379 29.1897 22.9563 28.5961C22.9564 28.5955 22.9565 28.5949 22.9566 28.5944L23.2641 27.0752C23.3604 27.0225 23.4559 26.9682 23.5505 26.9124L25.0161 27.409L25.0161 27.409L25.0247 27.4118C25.2902 27.4991 25.5681 27.5427 25.8476 27.541C26.2992 27.5399 26.7426 27.4204 27.1336 27.1944C27.5256 26.9678 27.8511 26.6422 28.0775 26.2501L28.0802 26.2453L29.8815 23.0851C30.1809 22.5684 30.2919 21.964 30.1956 21.3746C30.0997 20.7875 29.804 20.2516 29.3587 19.8575L28.1956 18.7929V18.4769L29.3726 17.447Z" stroke="#FCFCFC" stroke-width="2" stroke-linejoin="round"/>
<path d="M18.4958 23.3773C17.5573 23.3773 16.6398 23.099 15.8594 22.5776C15.0791 22.0562 14.4709 21.3151 14.1117 20.448C13.7525 19.5809 13.6586 18.6268 13.8417 17.7063C14.0248 16.7858 14.4767 15.9402 15.1404 15.2766C15.804 14.6129 16.6495 14.161 17.57 13.9779C18.4905 13.7948 19.4447 13.8888 20.3118 14.2479C21.1788 14.6071 21.92 15.2153 22.4414 15.9957C22.9628 16.776 23.2411 17.6935 23.2411 18.632C23.2475 19.257 23.129 19.8769 22.8928 20.4555C22.6566 21.0341 22.3073 21.5597 21.8654 22.0016C21.4235 22.4435 20.8978 22.7928 20.3192 23.0291C19.7406 23.2653 19.1207 23.3837 18.4958 23.3773Z" stroke="#FCFCFC" stroke-linecap="round" stroke-linejoin="round"/>
</svg>
