<svg width="20" height="20" viewBox="0 0 20 20" fill="none" xmlns="http://www.w3.org/2000/svg">
<path fill-rule="evenodd" clip-rule="evenodd" d="M10.8654 6.66709C10.505 6.66514 10.1483 6.74093 9.81889 6.88943C9.65811 6.96192 9.50563 7.05094 9.36373 7.15479C9.21496 7.26367 9.07783 7.38887 8.95494 7.52844C8.83205 7.38887 8.69491 7.26367 8.54614 7.15479C8.40424 7.05094 8.25177 6.96192 8.09098 6.88943C7.76162 6.74093 7.4049 6.66514 7.04448 6.66709C6.73986 6.66136 6.43718 6.71729 6.15411 6.8316C5.87105 6.94591 5.61329 7.11631 5.39588 7.33284C5.17848 7.54937 5.00581 7.80768 4.88795 8.09269C4.7701 8.3777 4.70942 8.68367 4.70947 8.99274C4.70947 10.8762 6.51462 12.3735 8.01238 13.6158C8.16307 13.7408 8.31064 13.8632 8.45296 13.9832C8.7421 14.2269 9.16881 14.2281 9.45868 13.9852C9.58921 13.8759 9.72411 13.7643 9.86175 13.6505C11.3677 12.4055 13.2004 10.8903 13.2004 8.99274C13.2005 8.68367 13.1398 8.3777 13.0219 8.09269C12.9041 7.80768 12.7314 7.54937 12.514 7.33284C12.2966 7.11631 12.0388 6.94591 11.7558 6.8316C11.4727 6.71729 11.17 6.66136 10.8654 6.66709Z" stroke="#FFFFFF" stroke-opacity="0.7" stroke-width="1.66667"/>
<path d="M13.972 2.5H16.6387L12.9165 6.05552" stroke="#FFFFFF" stroke-opacity="0.7" stroke-width="1.25" stroke-linecap="round" stroke-linejoin="round"/>
<path d="M3.97571 2.5H1.30906L5.03125 6.05552" stroke="#FFFFFF" stroke-opacity="0.7" stroke-width="1.25" stroke-linecap="round" stroke-linejoin="round"/>
<path d="M16.6978 5.222V2.55536" stroke="#FFFFFF" stroke-opacity="0.7" stroke-width="1.25" stroke-linecap="round" stroke-linejoin="round"/>
<path d="M1.25 5.222V2.55536" stroke="#FFFFFF" stroke-opacity="0.7" stroke-width="1.25" stroke-linecap="round" stroke-linejoin="round"/>
<path d="M6.8335 16.4189H11.0002" stroke="#FFFFFF" stroke-opacity="0.7" stroke-width="1.25" stroke-linecap="round" stroke-linejoin="round"/>
<path d="M2.9165 5.93445L4.68427 4.16668" stroke="#FFFFFF" stroke-opacity="0.7" stroke-width="1.25" stroke-linecap="round" stroke-linejoin="round"/>
<line x1="8.91683" y1="14.1666" x2="8.91683" y2="18.3333" stroke="#FFFFFF" stroke-opacity="0.7" stroke-width="1.66667" stroke-linecap="round" stroke-linejoin="round"/>
</svg>
