<svg width="22" height="22" viewBox="0 0 22 22" fill="none" xmlns="http://www.w3.org/2000/svg">
<path d="M10.4921 17.4064C10.5447 17.4476 10.6012 17.4838 10.6613 17.5131C10.8182 17.5895 10.9752 17.6553 11.1321 17.6553C11.2026 17.6553 11.3265 17.6553 11.4232 17.6151C11.484 17.5898 11.534 17.5441 11.587 17.505C11.838 17.3198 12.0668 17.0584 12.0668 16.7206V4.94315C12.0668 4.56926 11.8798 4.28884 11.506 4.1019C11.2255 3.91496 10.8517 4.00843 10.5712 4.19537L6.54601 7.43305C6.36837 7.57594 6.14723 7.65384 5.91925 7.65384H4.40208C3.6543 7.65384 3 8.21467 3 9.05592V12.7013C3 13.4491 3.6543 14.1034 4.40208 14.1034H5.92674C6.15014 14.1034 6.36711 14.1782 6.54304 14.3159L10.4921 17.4064Z" stroke="#FCFCFC" stroke-width="2" stroke-linejoin="round"/>
<path d="M6.31787 7.56836V14.1165" stroke="#FCFCFC" stroke-linecap="round" stroke-linejoin="round"/>
<path d="M15.3384 7.84082C16.7405 9.14943 17.2078 11.6732 15.4319 13.7296" stroke="#FCFCFC" stroke-linecap="round" stroke-linejoin="round"/>
<path d="M17.5942 6.62598C19.5572 8.40195 20.2115 12.0474 17.6877 14.8515" stroke="#FCFCFC" stroke-linecap="round" stroke-linejoin="round"/>
</svg>
