<svg width="22" height="22" viewBox="0 0 22 22" fill="none" xmlns="http://www.w3.org/2000/svg">
<path d="M9.32007 11.0199C8.42095 11.0086 7.54652 11.314 6.84993 11.8826C6.15335 12.4512 5.67903 13.2467 5.51007 14.1299C5.32007 15.1299 5.13007 16.2999 5.02007 17.3399C4.92253 17.8758 5.00867 18.429 5.26455 18.9099C5.52043 19.3908 5.93108 19.7713 6.43007 19.9899C7.85475 20.4757 9.35566 20.6993 10.8601 20.6499C12.3612 20.6987 13.8587 20.4751 15.2801 19.9899C15.7714 19.773 16.1766 19.3988 16.4319 18.9263C16.6872 18.4537 16.778 17.9097 16.6901 17.3799C16.5801 16.3799 16.3901 15.1899 16.2001 14.1699C16.0311 13.2867 15.5568 12.4912 14.8602 11.9226C14.1636 11.354 13.2892 11.0486 12.3901 11.0599L9.32007 11.0199Z" stroke="#FCFCFC" stroke-width="2" stroke-linecap="round" stroke-linejoin="round"/>
<path d="M10.97 7.95988C12.8919 7.95988 14.45 6.40183 14.45 4.47988C14.45 2.55793 12.8919 0.999878 10.97 0.999878C9.04804 0.999878 7.48999 2.55793 7.48999 4.47988C7.48999 6.40183 9.04804 7.95988 10.97 7.95988Z" stroke="#FCFCFC" stroke-width="2" stroke-linecap="round" stroke-linejoin="round"/>
</svg>
