<svg width="40" height="40" viewBox="0 0 40 40" fill="none" xmlns="http://www.w3.org/2000/svg">
<g clip-path="url(#clip0_4039_12396)">
<path d="M22.8834 35.0001C22.5904 35.5052 22.1698 35.9245 21.6638 36.216C21.1578 36.5074 20.584 36.6608 20.0001 36.6608C19.4161 36.6608 18.8424 36.5074 18.3364 36.216C17.8303 35.9245 17.4098 35.5052 17.1167 35.0001M31.0501 21.6667C30.3086 18.9524 29.9551 16.1468 30.0001 13.3334C30.0028 11.5219 29.5133 9.74359 28.584 8.18857C27.6546 6.63354 26.3203 5.36018 24.7236 4.50448C23.1269 3.64878 21.3277 3.2429 19.5182 3.33019C17.7088 3.41748 15.957 3.99466 14.4501 5.00008M10.4334 10.4334C10.1439 11.3728 9.99777 12.3504 10.0001 13.3334C10.0001 25.0001 5.00008 28.3334 5.00008 28.3334H28.3334M1.66675 1.66675L38.3334 38.3334" stroke="white" stroke-width="3.5" stroke-linecap="round" stroke-linejoin="round"/>
</g>
<defs>
<clipPath id="clip0_4039_12396">
<rect width="40" height="40" fill="white"/>
</clipPath>
</defs>
</svg>
