<svg width="51" height="52" viewBox="0 0 51 52" fill="none" xmlns="http://www.w3.org/2000/svg">
<path d="M29.1041 45.5C28.7378 46.1567 28.2121 46.7017 27.5796 47.0806C26.947 47.4595 26.2299 47.659 25.4999 47.659C24.77 47.659 24.0528 47.4595 23.4203 47.0806C22.7877 46.7017 22.262 46.1567 21.8958 45.5M39.3124 28.1667C38.3856 24.638 37.9437 20.9908 37.9999 17.3333C38.0033 14.9783 37.3914 12.6665 36.2298 10.645C35.0681 8.62349 33.4003 6.96811 31.4043 5.85571C29.4084 4.7433 27.1594 4.21566 24.8976 4.32913C22.6358 4.44261 20.4461 5.19294 18.5624 6.49999M13.5416 13.5633C13.1796 14.7845 12.997 16.0555 12.9999 17.3333C12.9999 32.5 6.74992 36.8333 6.74992 36.8333H35.9166M2.58325 2.16666L48.4166 49.8333" stroke="#F3F3F3" stroke-width="4" stroke-linecap="round" stroke-linejoin="round"/>
</svg>
