<svg width="32" height="32" viewBox="0 0 32 32" fill="none" xmlns="http://www.w3.org/2000/svg">
<path d="M14.104 6.19287C15.0211 4.87986 16.98 4.8797 17.897 6.19287L17.9849 6.32861L27.7808 22.5581C28.7133 24.1032 27.6011 26.0747 25.7964 26.0747H6.20361C4.39918 26.0744 3.2868 24.103 4.21924 22.5581L14.0151 6.32861L14.104 6.19287Z" stroke="white" stroke-width="2.37037"/>
<path d="M17.1855 18.389C17.1855 19.0436 16.6549 19.5742 16.0004 19.5742C15.3458 19.5742 14.8152 19.0436 14.8152 18.389L14.8152 13.6483C14.8152 12.9937 15.3458 12.4631 16.0004 12.4631C16.6549 12.4631 17.1855 12.9937 17.1855 13.6483L17.1855 18.389Z" fill="white"/>
<circle cx="1.18519" cy="1.18519" r="1.18519" transform="matrix(1 8.74228e-08 8.74228e-08 -1 14.8149 23.1294)" fill="white"/>
</svg>
