<svg width="56" height="56" viewBox="0 0 56 56" fill="none" xmlns="http://www.w3.org/2000/svg">
<path d="M22.0664 11.2311C24.4114 7.3149 30.0857 7.31488 32.4307 11.2311L48.8447 38.6461C51.2552 42.6721 48.3554 47.7894 43.6631 47.7897L10.834 47.7897C6.14163 47.7894 3.24185 42.6721 5.65234 38.6461L22.0664 11.2311Z" fill="#FFC95B" stroke="#161518" stroke-width="2.20448"/>
<path d="M29.8857 31.0971C29.8857 32.5538 28.7049 33.7347 27.2482 33.7347C25.7915 33.7347 24.6106 32.5538 24.6106 31.0971L24.6106 20.5468C24.6106 19.0901 25.7915 17.9092 27.2482 17.9092C28.7049 17.9092 29.8857 19.0901 29.8857 20.5468L29.8857 31.0971Z" fill="black"/>
<circle cx="2.63757" cy="2.63757" r="2.63757" transform="matrix(1 8.73849e-08 8.73849e-08 -1 24.6104 41.65)" fill="black"/>
</svg>
