<svg width="36" height="36" viewBox="0 0 36 36" fill="none" xmlns="http://www.w3.org/2000/svg">
<path d="M6.08225 20.7981C6.39189 21.8219 8.55935 22.4913 12.1976 23.2789C15.4553 23.984 14.6644 28 15.4553 28C16.545 28 18.1208 24.5941 19.5515 23.9876C19.8998 23.8695 20.7513 23.7514 21.7577 23.6332C24.8927 23.2395 27.9117 22.4126 28.6858 21.2706C29.7308 19.6562 28.1826 10.0483 26.6731 9.02449C25.0863 7.88257 11.5009 7.29192 8.0949 9.45764C6.31448 10.5996 5.77262 19.6168 6.08225 20.7981Z" stroke="#FCFCFC" stroke-width="2" stroke-linecap="round" stroke-linejoin="round"/>
<line x1="11.7473" y1="14.8411" x2="23.3299" y2="14.8411" stroke="#FCFCFC" stroke-linecap="round" stroke-linejoin="round"/>
<path d="M12.2964 17.9622L19.8983 17.9622" stroke="#FCFCFC" stroke-linecap="round" stroke-linejoin="round"/>
</svg>
