<svg width="36" height="36" viewBox="0 0 36 36" fill="none" xmlns="http://www.w3.org/2000/svg">
<path d="M24.9923 16.1775L26.6577 14.5121C27.3647 13.805 28.5111 13.805 29.2182 14.5121L29.3686 14.6625C30.0756 15.3695 30.0756 16.5159 29.3686 17.223L20.936 25.6676C19.3742 27.2316 16.84 27.2326 15.2771 25.6697L10.0388 20.4313C9.28854 19.6811 8.8671 18.6641 8.86716 17.6031C8.8672 16.7451 8.86724 15.568 8.86724 14.1048C8.86724 10.7959 5.92216 9.25911 7.42934 8.52191C9.98009 7.27428 11.6718 9.24303 12.1709 11.2394C12.6701 13.2358 14.6354 14.1048 14.6354 14.1048" stroke="#FCFCFC" stroke-width="2" stroke-linejoin="round"/>
<path d="M20.7415 12.1451L17.2567 15.6302C16.6368 16.25 16.6362 17.2547 17.2553 17.8754V17.8754C17.8754 18.4971 18.8824 18.4977 19.5033 17.8768L23.0075 14.3726" stroke="#FCFCFC" stroke-linecap="round" stroke-linejoin="round"/>
<path d="M22.9462 14.432L19.4999 17.8783C18.8782 18.5 18.8782 19.5081 19.4999 20.1298V20.1298C20.1217 20.7516 21.1297 20.7516 21.7514 20.1298L25.3799 16.5013" stroke="#FCFCFC" stroke-linecap="round" stroke-linejoin="round"/>
<path d="M20.5918 12.2882L17.2499 15.6301C16.629 16.2511 15.622 16.2505 15.0018 15.6287C14.3828 15.0081 14.3834 14.0034 15.0032 13.3835L17.191 11.205C17.9726 10.4268 19.2366 10.4282 20.0164 11.2081L25.3088 16.5004" stroke="#FCFCFC" stroke-linecap="round" stroke-linejoin="round"/>
</svg>
