<svg width="36" height="36" viewBox="0 0 36 36" fill="none" xmlns="http://www.w3.org/2000/svg">
<path d="M10.2482 15.304C10.2482 12.2707 9.39292 11.031 8.56822 9.84816C7.07598 7.70797 10.6647 8.8805 11.0575 10.4394C11.2592 11.2399 12.0625 12.5187 12.7964 13.5738C13.4777 14.5531 14.866 14.6364 15.7123 13.7956L17.219 12.2986C17.9989 11.5237 19.258 11.5236 20.0381 12.2984L23.2627 15.5014C24.0439 16.2774 25.3054 16.276 26.0848 15.4982L26.3491 15.2345C27.0019 14.5864 28.0603 14.5864 28.7132 15.2345L28.852 15.3724C29.5048 16.0205 29.5048 17.0714 28.852 17.7196L19.4213 27.0986C18.6416 27.8741 17.3821 27.8746 16.6018 27.0998L10.4671 21.0089C9.87399 20.42 9.70086 19.5174 9.88813 18.7028C10.0718 17.9038 10.2482 16.758 10.2482 15.304Z" fill="url(#paint0_linear_261_389)"/>
<path d="M23.9923 16.1774L25.6577 14.512C26.3647 13.805 27.5111 13.805 28.2182 14.512L28.3686 14.6624C29.0756 15.3695 29.0756 16.5158 28.3686 17.2229L19.936 25.6676C18.3742 27.2316 15.84 27.2325 14.2771 25.6696L9.03879 20.4312C8.28854 19.681 7.8671 18.664 7.86716 17.603C7.8672 16.7451 7.86724 15.568 7.86724 14.1047C7.86724 10.7958 4.92216 9.25903 6.42934 8.52184C8.98009 7.2742 10.6718 9.24295 11.1709 11.2393C11.6701 13.2357 13.6354 14.1047 13.6354 14.1047" stroke="#FCFCFC" stroke-width="2" stroke-linejoin="round"/>
<path d="M19.7415 12.145L16.2567 15.6301C15.6368 16.25 15.6362 17.2547 16.2553 17.8753V17.8753C16.8754 18.4971 17.8824 18.4977 18.5033 17.8767L22.0075 14.3726" stroke="#FCFCFC" stroke-linecap="round" stroke-linejoin="round"/>
<path d="M21.9462 14.432L18.4999 17.8783C17.8782 18.5 17.8782 19.5081 18.4999 20.1298V20.1298C19.1217 20.7515 20.1297 20.7515 20.7514 20.1298L24.3799 16.5013" stroke="#FCFCFC" stroke-linecap="round" stroke-linejoin="round"/>
<path d="M19.5918 12.2882L16.2499 15.6301C15.629 16.2511 14.622 16.2504 14.0018 15.6287C13.3828 15.0081 13.3834 14.0033 14.0032 13.3835L16.191 11.205C16.9726 10.4268 18.2366 10.4282 19.0164 11.2081L24.3088 16.5004" stroke="#FCFCFC" stroke-linecap="round" stroke-linejoin="round"/>
<defs>
<linearGradient id="paint0_linear_261_389" x1="25.6925" y1="-5.3673" x2="0.973689" y2="7.51167" gradientUnits="userSpaceOnUse">
<stop stop-color="#FF2D55"/>
<stop offset="1" stop-color="#FFBC5B"/>
</linearGradient>
</defs>
</svg>
