<svg width="36" height="36" viewBox="0 0 36 36" fill="none" xmlns="http://www.w3.org/2000/svg">
<path d="M12 20.5789H16.3846V28C16.3846 28.4311 16.6609 28.8137 17.0702 28.9493C17.4795 29.0848 17.9295 28.9428 18.1869 28.5969L26.8023 17.0181C27.028 16.7147 27.0633 16.31 26.8936 15.9722C26.7238 15.6344 26.3781 15.4211 26 15.4211H21.6154V8C21.6154 7.56887 21.3391 7.18627 20.9298 7.05072C20.5205 6.91516 20.0705 7.05717 19.8131 7.40305L11.1977 18.9819C10.972 19.2853 10.9367 19.69 11.1064 20.0278C11.2762 20.3657 11.6219 20.5789 12 20.5789Z" stroke="#FCFCFC" stroke-width="2" stroke-linecap="round" stroke-linejoin="round"/>
</svg>
