<svg width="36" height="36" viewBox="0 0 36 36" fill="none" xmlns="http://www.w3.org/2000/svg">
<path d="M22.8154 16.4211C22.7049 16.4211 22.6154 16.3316 22.6154 16.2211V8.60384C22.6154 8.41125 22.3699 8.32994 22.2549 8.48445L14.2376 19.2595C14.1395 19.3914 14.2336 19.5789 14.3981 19.5789H19.1846C19.2951 19.5789 19.3846 19.6684 19.3846 19.7789V27.3962C19.3846 27.5888 19.6301 27.6701 19.7451 27.5156L27.7624 16.7405C27.8605 16.6086 27.7664 16.4211 27.6019 16.4211H22.8154Z" fill="url(#paint0_linear_705_909)"/>
<path d="M25.6019 15.4211H21.6154V8.60384C21.6154 7.4483 20.1424 6.96043 19.4526 7.8875L11.4354 18.6626C10.8463 19.4542 11.4113 20.5789 12.3981 20.5789H16.3846V27.3962C16.3846 28.5517 17.8576 29.0396 18.5474 28.1125L17.7451 27.5156L18.5474 28.1125L26.5646 17.3375C27.1537 16.5458 26.5887 15.4211 25.6019 15.4211Z" stroke="#FCFCFC" stroke-width="2" stroke-linecap="round" stroke-linejoin="round"/>
<defs>
<linearGradient id="paint0_linear_705_909" x1="25.5827" y1="-6.17851" x2="6.94353" y2="0.195955" gradientUnits="userSpaceOnUse">
<stop stop-color="#FF2D55"/>
<stop offset="1" stop-color="#FFBC5B"/>
</linearGradient>
</defs>
</svg>
