<svg width="36" height="36" viewBox="0 0 36 36" fill="none" xmlns="http://www.w3.org/2000/svg">
<path d="M19.0543 23.9378C19.1493 22.6305 19.2304 20.6408 18.9436 19.7089C16.5 19.5961 14.5 19.5961 13.04 19.5961C12.2907 19.6482 11.6845 20.1947 11.5396 20.9317C11.3844 21.721 11.1912 22.7978 11.0569 23.8717C10.8883 25.2191 11.7155 26.368 13.0709 26.4508C14.5882 26.5435 16.5371 26.442 17.8944 25.8613C18.6412 25.5417 18.9954 24.748 19.0543 23.9378Z" fill="url(#paint0_linear_261_388)"/>
<path d="M27.8654 24.4895C27.8654 24.4895 27.9472 20.6711 27.5 19.218H22.5C21.8673 19.218 21.2572 19.997 21.5 21.218C21.6904 22.1755 22 23.718 22.0521 25.3838C23.3936 25.831 26.0767 25.831 27.8654 24.4895Z" fill="url(#paint1_linear_261_388)"/>
<path d="M12.3391 17.738C11.44 17.7267 10.5656 18.032 9.86898 18.6006C9.17239 19.1692 8.69808 19.9648 8.52911 20.848C8.33911 21.848 8.14911 23.018 8.03911 24.058C7.94157 24.5939 8.02771 25.1471 8.28359 25.628C8.53947 26.1089 8.95013 26.4894 9.44911 26.708C10.8738 27.1938 12.3747 27.4174 13.8791 27.368C15.3802 27.4168 16.8778 27.1932 18.2991 26.708C18.7904 26.4911 19.1956 26.1169 19.4509 25.6444C19.7062 25.1718 19.797 24.6278 19.7091 24.098C19.5991 23.098 19.4091 21.908 19.2191 20.888C19.0501 20.0048 18.5758 19.2092 17.8792 18.6406C17.1827 18.072 16.3082 17.7667 15.4091 17.778L12.3391 17.738Z" stroke="#FCFCFC" stroke-width="2" stroke-linecap="round" stroke-linejoin="round"/>
<path d="M13.9893 14.678C15.9112 14.678 17.4693 13.1199 17.4693 11.198C17.4693 9.27601 15.9112 7.71796 13.9893 7.71796C12.0673 7.71796 10.5093 9.27601 10.5093 11.198C10.5093 13.1199 12.0673 14.678 13.9893 14.678Z" stroke="#FCFCFC" stroke-width="2" stroke-linecap="round" stroke-linejoin="round"/>
<path d="M20.5226 25.1867C22.5895 25.9078 25.474 25.8885 27.3506 25.1688C28.2189 24.8358 28.6136 23.9088 28.5116 22.9845C28.4169 22.1267 28.2634 21.1833 28.108 20.3377C27.831 18.8298 26.4963 17.7737 24.9632 17.7737H15.0192" stroke="#FCFCFC" stroke-width="1.3" stroke-linecap="round" stroke-linejoin="round"/>
<circle cx="2.8637" cy="2.8637" r="2.8637" transform="matrix(-1 0 0 1 26.4753 9.51727)" stroke="#FCFCFC" stroke-width="1.3" stroke-linecap="round" stroke-linejoin="round"/>
<defs>
<linearGradient id="paint0_linear_261_388" x1="24.9643" y1="14.0691" x2="13.9958" y2="26.4911" gradientUnits="userSpaceOnUse">
<stop stop-color="#FF2D55"/>
<stop offset="1" stop-color="#FFBC5B"/>
</linearGradient>
<linearGradient id="paint1_linear_261_388" x1="24.9643" y1="14.0691" x2="13.9958" y2="26.4911" gradientUnits="userSpaceOnUse">
<stop stop-color="#FF2D55"/>
<stop offset="1" stop-color="#FFBC5B"/>
</linearGradient>
</defs>
</svg>
