<svg width="37" height="37" viewBox="0 0 37 37" fill="none" xmlns="http://www.w3.org/2000/svg">
<path d="M13.3806 18.9072C12.4813 18.8989 11.6078 19.2049 10.9131 19.7715C10.2183 20.3382 9.7465 21.1294 9.58038 22.0065C9.39362 22.9997 9.2074 24.1616 9.10077 25.1942C9.00497 25.7264 9.09291 26.2752 9.35037 26.7517C9.60783 27.2282 10.0197 27.6045 10.5195 27.8198C11.9458 28.2973 13.4476 28.5143 14.9519 28.4604C16.4533 28.504 17.9502 28.2771 19.3701 27.7909C19.8608 27.574 20.2648 27.2012 20.5186 26.7314C20.7723 26.2616 20.8614 25.7213 20.7718 25.1957C20.6585 24.2035 20.4646 23.023 20.2713 22.0112C20.0994 21.1352 19.6225 20.3471 18.924 19.785C18.2256 19.223 17.3501 18.9227 16.4509 18.9369L13.3806 18.9072Z" stroke="#FCFCFC" stroke-width="2" stroke-linecap="round" stroke-linejoin="round"/>
<path d="M15.0249 15.7279C17.0274 15.7214 18.6454 14.0996 18.6389 12.1057C18.6323 10.1117 17.0038 8.5006 15.0013 8.50715C12.9989 8.5137 11.3809 10.1354 11.3874 12.1294C11.3939 14.1234 13.0225 15.7345 15.0249 15.7279Z" stroke="#FCFCFC" stroke-width="1.5" stroke-linecap="round" stroke-linejoin="round"/>
<path d="M20.5173 18.3004L20.9293 17.4031C21.1387 17.4993 21.3387 17.6133 21.5275 17.7437C21.7163 17.6133 21.9164 17.4992 22.1258 17.4031C22.641 17.1666 23.2002 17.0444 23.7663 17.0458C24.2577 17.038 24.745 17.1308 25.1999 17.3178C25.6585 17.5064 26.074 17.7866 26.4228 18.1404C26.7716 18.4942 27.0469 18.9144 27.2343 19.3757C27.4216 19.8369 27.5176 20.3309 27.5175 20.8291L20.5173 18.3004ZM20.5173 18.3004L20.9293 17.4031C20.414 17.1666 19.8549 17.0445 19.2888 17.0458M20.5173 18.3004L19.2888 17.0458M20.9042 26.8406L20.2861 27.5607C20.1223 27.4202 19.952 27.2763 19.7743 27.1262L19.7425 27.0994C18.8826 26.3732 17.8538 25.5043 17.0449 24.5175C16.2231 23.5149 15.5375 22.2835 15.5374 20.8295L20.9042 26.8406ZM20.9042 26.8406L20.2861 27.5607C20.9987 28.1723 22.052 28.1764 22.7685 27.5651C22.919 27.4367 23.075 27.3054 23.2373 27.1688L23.2688 27.1422C24.1338 26.4141 25.1731 25.5392 25.9914 24.5447C26.8219 23.5352 27.5175 22.2936 27.5175 20.8293L20.9042 26.8406ZM19.2888 17.0458C18.7974 17.0381 18.3101 17.1308 17.8552 17.3179C17.3965 17.5065 16.9811 17.7867 16.6322 18.1406C16.2834 18.4943 16.0081 18.9145 15.8207 19.3758C15.6334 19.837 15.5374 20.331 15.5374 20.8293L19.2888 17.0458Z" fill="#FCFCFC" stroke="#43404A" stroke-width="2"/>
</svg>
