<svg width="36" height="36" viewBox="0 0 36 36" fill="none" xmlns="http://www.w3.org/2000/svg">
<path d="M12.3391 17.879C11.44 17.8676 10.5656 18.173 9.86898 18.7416C9.17239 19.3102 8.69808 20.1058 8.52911 20.989C8.33911 21.989 8.14911 23.159 8.03911 24.199C7.94157 24.7349 8.02771 25.2881 8.28359 25.769C8.53947 26.2499 8.95013 26.6304 9.44911 26.849C10.8738 27.3347 12.3747 27.5584 13.8791 27.509C15.3802 27.5578 16.8778 27.3342 18.2991 26.849C18.7904 26.6321 19.1956 26.2579 19.4509 25.7853C19.7062 25.3128 19.797 24.7688 19.7091 24.239C19.5991 23.239 19.4091 22.049 19.2191 21.029C19.0501 20.1458 18.5758 19.3502 17.8792 18.7816C17.1827 18.213 16.3082 17.9076 15.4091 17.919L12.3391 17.879Z" stroke="#FCFCFC" stroke-width="2" stroke-linecap="round" stroke-linejoin="round"/>
<path d="M13.9893 14.8189C15.9112 14.8189 17.4693 13.2609 17.4693 11.3389C17.4693 9.417 15.9112 7.85895 13.9893 7.85895C12.0673 7.85895 10.5093 9.417 10.5093 11.3389C10.5093 13.2609 12.0673 14.8189 13.9893 14.8189Z" stroke="#FCFCFC" stroke-width="2" stroke-linecap="round" stroke-linejoin="round"/>
<path d="M20.5226 25.3277C22.5895 26.0488 25.474 26.0295 27.3506 25.3098C28.2189 24.9768 28.6136 24.0498 28.5116 23.1255C28.4169 22.2677 28.2634 21.3243 28.108 20.4787C27.831 18.9708 26.4963 17.9147 24.9632 17.9147H15.0192" stroke="#FCFCFC" stroke-width="1.3" stroke-linecap="round" stroke-linejoin="round"/>
<circle cx="2.8637" cy="2.8637" r="2.8637" transform="matrix(-1 0 0 1 26.4753 9.65826)" stroke="#FCFCFC" stroke-width="1.3" stroke-linecap="round" stroke-linejoin="round"/>
</svg>
