<svg width="36" height="36" viewBox="0 0 36 36" fill="none" xmlns="http://www.w3.org/2000/svg">
<path d="M17.2146 20.8856C16.9224 20.8856 16.6823 20.6357 16.6823 20.3315C16.6823 20.2989 16.6823 20.2663 16.6823 20.2228C16.6823 19.234 16.8284 18.6581 17.2146 18.0931C17.5068 17.6911 17.6008 17.6041 18.4566 16.9848C19.0515 16.5719 19.2394 16.2676 19.2394 15.7895C19.2394 15.1158 18.8219 14.7138 18.0913 14.7138C17.5486 14.7138 17.152 14.942 16.9224 15.3875C16.8597 15.5179 16.8076 15.6265 16.7762 15.7787C16.7136 16.0503 16.4631 16.235 16.2022 16.2024L14.7723 16.0503C14.4592 16.0177 14.2505 15.7026 14.3131 15.3875C14.4384 14.7247 14.6367 14.2792 14.9915 13.8011C15.6908 12.8558 16.7658 12.3668 18.1539 12.3668C20.377 12.3668 21.7547 13.6164 21.7547 15.6048C21.7547 16.4849 21.5146 17.1586 21.0032 17.7128C20.711 18.0279 20.5962 18.1257 19.5421 18.908C19.0306 19.2992 18.8532 19.6686 18.8532 20.3315C18.8532 20.6357 18.6132 20.8965 18.3105 20.8965L17.2146 20.8856Z" fill="#FCFCFC"/>
<path d="M17.8409 24.24C18.4775 24.24 18.9994 23.7076 18.9994 23.0339C18.9994 22.3711 18.4775 21.8278 17.8409 21.8278C17.2042 21.8278 16.6824 22.3711 16.6824 23.0339C16.6824 23.6967 17.2042 24.24 17.8409 24.24Z" fill="#FCFCFC"/>
<circle cx="18" cy="18" r="11.25" stroke="#FCFCFC" stroke-width="1.5"/>
</svg>
