<svg width="36" height="36" viewBox="0 0 36 36" fill="none" xmlns="http://www.w3.org/2000/svg">
<path d="M9.35413 19.5807L11.9902 19.5807C13.087 19.5807 13.9761 20.4698 13.9761 21.5665L13.9761 24.7055C13.9761 25.8023 13.087 26.6914 11.9902 26.6914L9.35413 26.6914" stroke="#FCFCFC" stroke-linecap="round" stroke-linejoin="round"/>
<path d="M27.4864 19.5807L24.8504 19.5807C23.7536 19.5807 22.8645 20.4698 22.8645 21.5665L22.8645 24.7055C22.8645 25.8023 23.7536 26.6914 24.8504 26.6914L27.4864 26.6914" stroke="#FCFCFC" stroke-linecap="round" stroke-linejoin="round"/>
<path d="M9.1416 26.3952L9.1416 19.2724C9.1416 16.6895 10.1213 14.2124 11.8652 12.386C13.6091 10.5596 15.9743 9.53354 18.4405 9.53354C20.9068 9.53354 23.272 10.5596 25.0159 12.386C26.7598 14.2124 27.7395 16.6895 27.7395 19.2724L27.7395 26.3952" stroke="#FCFCFC" stroke-width="2" stroke-linecap="round" stroke-linejoin="round"/>
</svg>
