<svg width="54" height="54" viewBox="0 0 54 54" fill="none" xmlns="http://www.w3.org/2000/svg">
<path d="M23.7998 10.4492C25.3473 8.23432 28.6527 8.23432 30.2002 10.4492L30.3496 10.6787L46.8809 38.0664H46.8799C48.4536 40.6737 46.5766 43.9999 43.5312 44H10.4688C7.42349 43.9999 5.54566 40.6736 7.11914 38.0664L23.6504 10.6787L23.7998 10.4492Z" stroke="white" stroke-width="4"/>
<path d="M29 31.0315C29 32.1361 28.1046 33.0315 27 33.0315C25.8954 33.0315 25 32.1361 25 31.0315L25 23.0315C25 21.9269 25.8954 21.0315 27 21.0315C28.1046 21.0315 29 21.9269 29 23.0315L29 31.0315Z" fill="white"/>
<circle cx="2" cy="2" r="2" transform="matrix(1 8.74228e-08 8.74228e-08 -1 25.0002 39.0315)" fill="white"/>
</svg>
