<svg width="54" height="54" viewBox="0 0 54 54" fill="none" xmlns="http://www.w3.org/2000/svg">
<path d="M37.875 5.0625C38.9796 5.0625 39.875 5.95793 39.875 7.0625V8.9375H42C44.2091 8.9375 46 10.7284 46 12.9375V44.9375C46 47.1466 44.2091 48.9375 42 48.9375H12C9.79086 48.9375 8 47.1466 8 44.9375V12.9375C8 10.7284 9.79086 8.9375 12 8.9375H14V7.0625C14 5.95793 14.8954 5.0625 16 5.0625C17.1046 5.0625 18 5.95793 18 7.0625V8.9375H35.875V7.0625C35.875 5.95793 36.7704 5.0625 37.875 5.0625ZM12 44.9375H42V22.3125H12V44.9375ZM12 18.3125H42V12.9375H12V18.3125Z" fill="#FCFCFC"/>
</svg>
