<svg width="32" height="32" viewBox="0 0 32 32" fill="none" xmlns="http://www.w3.org/2000/svg">
<g opacity="0.9">
<path fill-rule="evenodd" clip-rule="evenodd" d="M1.51366 4.69764C0.678538 3.86337 0.67791 2.51001 1.51225 1.67482L1.65891 1.52801C2.49325 0.692819 3.84661 0.692072 4.68173 1.52634L15.8537 12.687L27.0153 1.514C27.8496 0.678808 29.203 0.67806 30.0381 1.51233L30.1849 1.65897C31.02 2.49324 31.0207 3.84661 30.1863 4.6818L19.0247 15.8548L30.1967 27.0154C31.0318 27.8496 31.0324 29.203 30.1981 30.0382L30.0514 30.185C29.2171 31.0202 27.8637 31.0209 27.0286 30.1867L15.8566 19.0261L4.69505 30.199C3.8607 31.0342 2.50734 31.0349 1.67222 30.2007L1.52543 30.054C0.69031 29.2198 0.689683 27.8664 1.52403 27.0312L12.6856 15.8583L1.51366 4.69764Z" fill="#FCFCFC"/>
</g>
</svg>
