<svg width="54" height="54" viewBox="0 0 54 54" fill="none" xmlns="http://www.w3.org/2000/svg">
<path d="M44.4997 29.5938C44.4997 25.9865 44.4997 13.7573 44.4997 9.48658C44.4997 8.66183 43.8311 8 43.0064 8H21.3251C20.3464 7.99904 19.3895 8.2728 18.5768 8.78631C17.764 9.29982 17.1323 10.0298 16.7623 10.8829C14.2933 16.5757 10.4134 25.9783 9.6377 30.8578C9.50745 31.6772 10.1743 32.3467 11.0039 32.3402C14.4348 32.3132 22.9372 32.2507 28.0494 32.2507C28.0944 32.2498 28.139 32.2585 28.18 32.2761C28.221 32.2937 28.2572 32.3197 28.2861 32.3523C28.3149 32.3849 28.3356 32.4231 28.3465 32.4643C28.3575 32.5054 28.3586 32.5483 28.3496 32.5898C28.3496 32.5898 26.0081 40.8995 26.0081 41.8605C26.0081 42.8215 28.2895 46.5523 29.3102 45.9305L42.9988 32.9855C43.4813 32.5464 43.8633 32.0189 44.1214 31.4357C44.3795 30.8524 44.5083 30.2256 44.4997 29.5938Z" fill="#FCFCFC" stroke="#FCFCFC" stroke-width="4"/>
</svg>
