<svg width="54" height="54" viewBox="0 0 54 54" fill="none" xmlns="http://www.w3.org/2000/svg">
<path d="M44.4997 30.5938C44.4997 26.9865 44.4997 14.7573 44.4997 10.4866C44.4997 9.66184 43.8311 9 43.0064 9H21.3251C20.3464 8.99904 19.3895 9.2728 18.5768 9.78631C17.764 10.2998 17.1323 11.0298 16.7623 11.8829C14.2933 17.5757 10.4134 26.9783 9.6377 31.8578C9.50745 32.6772 10.1743 33.3467 11.0039 33.3402C14.4348 33.3132 22.9372 33.2507 28.0494 33.2507C28.0944 33.2498 28.139 33.2585 28.18 33.2761C28.221 33.2937 28.2572 33.3197 28.2861 33.3523C28.3149 33.3849 28.3356 33.4231 28.3466 33.4643C28.3575 33.5054 28.3586 33.5483 28.3496 33.5898C28.3496 33.5898 26.0081 41.8995 26.0081 42.8605C26.0081 43.8215 28.2895 47.5523 29.3102 46.9305L42.9988 33.9855C43.4813 33.5464 43.8633 33.0189 44.1214 32.4357C44.3795 31.8524 44.5083 31.2256 44.4997 30.5938Z" stroke="#FCFCFC" stroke-width="4"/>
</svg>
