<svg width="54" height="54" viewBox="0 0 54 54" fill="none" xmlns="http://www.w3.org/2000/svg">
<path d="M38 46.5C34.1341 46.4999 31 43.3659 31 39.5C31 39.26 31.0125 39.0229 31.0361 38.7891L20.7959 32.0986C19.5431 33.2775 17.856 34 16 34C12.134 34 9 30.866 9 27C9.00007 23.1341 12.1341 20 16 20C17.5173 20 18.9208 20.4844 20.0674 21.3047L31.0088 15.6357C30.9485 15.266 30.915 14.8868 30.915 14.5C30.9151 10.6342 34.0492 7.50023 37.915 7.5C41.781 7.5 44.915 10.634 44.915 14.5C44.915 18.366 41.781 21.5 37.915 21.5C35.8748 21.4999 34.0392 20.6262 32.7598 19.2334L22.5479 24.5244C22.8391 25.2942 23 26.1282 23 27C23 27.5627 22.932 28.1095 22.8066 28.6338L32.6074 35.0381C33.8914 33.488 35.83 32.5 38 32.5C41.8659 32.5 45 35.6341 45 39.5C45 43.366 41.8659 46.5 38 46.5ZM37.915 17.5C39.5719 17.5 40.915 16.1569 40.915 14.5C40.915 12.8432 39.5719 11.5 37.915 11.5C36.2584 11.5002 34.9151 12.8433 34.915 14.5C34.9151 16.1567 36.2584 17.4998 37.915 17.5ZM16 30C17.6569 30 19 28.6569 19 27C18.9999 25.3432 17.6568 24 16 24C14.3432 24 13.0001 25.3432 13 27C13 28.6569 14.3431 30 16 30ZM38 42.5C39.6568 42.5 41 41.1568 41 39.5C41 37.8432 39.6568 36.5 38 36.5C36.3432 36.5001 35 37.8432 35 39.5C35 41.1568 36.3432 42.4999 38 42.5Z" fill="#FCFCFC"/>
</svg>
