<svg width="100" height="100" viewBox="0 0 100 100" fill="none" xmlns="http://www.w3.org/2000/svg">
<rect x="1.5" y="1.5" width="97" height="97" rx="15.6429" stroke="#FCFCFC" stroke-width="3"/>
<path fill-rule="evenodd" clip-rule="evenodd" d="M59.8576 20.001C58.7588 20.001 57.8678 20.9015 57.8678 22.012C57.8678 26.4928 54.2703 30.1287 49.8369 30.1287C45.4035 30.1287 41.806 26.4928 41.806 22.012C41.806 20.9015 40.9151 20.001 39.8163 20.001H32.3032C31.8937 20.001 31.4957 20.1294 31.1609 20.3673L18.8482 29.0784C17.9493 29.714 17.7299 30.9691 18.3588 31.8777L25.5458 42.247C26.1747 43.1556 27.4165 43.3773 28.3155 42.7417L30.3133 41.3295V67.5808C30.3133 68.6914 31.2007 69.5918 32.3031 69.5918H67.366C68.4648 69.5918 69.3557 68.6914 69.3557 67.5808V41.3249L71.3579 42.7407C72.2569 43.3763 73.4987 43.1546 74.1277 42.246L81.3147 31.8767C81.9436 30.9682 81.7242 29.7131 80.8252 29.0774L68.5126 20.3663C68.1777 20.1284 67.7798 20 67.3703 20L59.8576 20.001ZM61.6794 24.023H66.7461L76.9134 31.2188L72.0109 38.2933L68.5085 35.8155C67.9 35.3854 67.1077 35.3333 66.4477 35.679C65.7904 36.0246 65.3764 36.7123 65.3764 37.4611V65.5695H34.293V37.4634C34.293 36.7155 33.8791 36.0278 33.2191 35.6813C32.5617 35.3321 31.7658 35.3877 31.1609 35.8142L27.6628 38.292L22.7603 31.2175L32.9276 24.0217H37.9943C38.9412 29.7648 43.8872 34.1495 49.8369 34.1495C55.7866 34.1495 60.7325 29.7648 61.6794 24.0217L61.6794 24.023Z" fill="#FCFCFC"/>
<path d="M49.8369 42.5592C49.8369 42.0249 50.27 41.5918 50.8043 41.5918H59.2332C59.7674 41.5918 60.2006 42.0249 60.2006 42.5592V49.656C60.2006 50.038 59.9757 50.3842 59.6267 50.5397L55.4123 52.4165C55.1618 52.5281 54.8757 52.5281 54.6252 52.4165L50.4107 50.5397C50.0617 50.3842 49.8369 50.038 49.8369 49.656V42.5592Z" fill="#FCFCFC"/>
<rect x="45.041" y="79.1836" width="28.1633" height="3.67347" rx="1.83673" fill="#FCFCFC"/>
<rect x="27.8975" y="79.1836" width="10.4082" height="3.67347" rx="1.83673" fill="#FCFCFC"/>
</svg>
