<svg width="26" height="32" viewBox="0 0 26 32" fill="none" xmlns="http://www.w3.org/2000/svg">
<g clip-path="url(#clip0_2754_1979)">
<path d="M11.6933 8.97969C13.5881 8.16359 15.237 8.95861 15.9284 10.6488C17.6669 9.62537 19.9992 10.4661 20.6387 12.635C21.1948 12.5349 21.743 12.3583 22.2929 12.3521C23.8487 12.3354 25.2208 13.6698 25.2674 15.2282C25.306 16.5275 25.2858 22.2832 25.2797 23.5842C25.2797 24.0665 24.9968 24.352 24.569 24.3547C24.1254 24.3547 23.8522 24.0648 23.8495 23.5491C23.8434 22.3658 23.8495 16.7278 23.8495 15.5436C23.8495 14.8997 23.6044 14.3753 23.0475 14.0283C22.0197 13.387 20.7731 14.0353 20.7283 15.2449C20.7002 16.0039 20.7222 16.7647 20.7187 17.529C20.7187 18.1087 20.4551 18.425 19.9931 18.4206C19.531 18.4162 19.2903 18.1052 19.2903 17.5123C19.2903 16.1946 19.2964 14.8812 19.2859 13.5662C19.278 12.5849 18.7096 11.8804 17.818 11.7073C16.8824 11.5255 16.0751 12.1466 16.0496 13.0997C16.0285 13.8903 16.0443 14.681 16.0417 15.4663C16.0417 15.866 15.9161 16.1919 15.4865 16.3009C14.9752 16.4309 14.587 16.0786 14.5834 15.4733C14.5764 14.1723 14.5834 12.8713 14.5773 11.5712C14.572 10.85 14.1205 10.2921 13.4537 10.141C13.2471 10.0914 13.0321 10.0882 12.8241 10.1316C12.6161 10.175 12.4203 10.2639 12.2508 10.392C12.0813 10.5201 11.9423 10.6842 11.8438 10.8724C11.7452 11.0607 11.6896 11.2684 11.681 11.4807C11.6581 12.0201 11.681 12.5612 11.6731 13.1023C11.6731 13.6611 11.3832 14.008 10.9396 14.0045C10.4959 14.001 10.2175 13.6593 10.2166 13.09C10.2166 9.77295 10.2166 6.45556 10.2166 3.13787C10.2166 2.05559 9.70794 1.46438 8.77149 1.45999C7.81923 1.45999 7.11734 2.17067 7.11646 3.17476C7.11177 7.96828 7.11177 12.7621 7.11646 17.5562C7.11646 17.6871 7.11646 17.8197 7.11646 17.9506C7.11646 18.3266 6.96097 18.6165 6.59465 18.7237C6.20812 18.8361 5.91208 18.6736 5.71618 18.3231C5.27928 17.5418 4.84415 16.7612 4.41077 15.9811C4.16392 15.5357 3.80726 15.23 3.29775 15.1404C2.66613 15.0306 2.13378 15.2282 1.7534 15.743C1.37303 16.2578 1.32207 16.8499 1.619 17.4376C2.40259 18.9896 3.18823 20.5392 3.97593 22.0865C5.05469 24.2071 6.14926 26.3198 7.2087 28.4492C7.91147 29.8671 9.02361 30.5523 10.6084 30.5365C12.7422 30.5154 14.8769 30.5365 17.0107 30.5294C20.7336 30.5101 23.5992 27.7974 23.8399 24.085C23.8469 23.9831 23.8443 23.8803 23.8531 23.7784C23.8899 23.3444 24.1904 23.0493 24.5831 23.0598C24.9757 23.0703 25.2727 23.3752 25.2788 23.8109C25.3084 25.0741 25.0138 26.3237 24.4232 27.4407C22.863 30.3546 20.4218 31.9042 17.1073 31.9745C14.8865 32.0219 12.664 31.993 10.4423 31.9807C8.4324 31.9692 6.93286 31.0662 6.01573 29.2838C4.11912 25.5986 2.24974 21.8993 0.377719 18.201C-0.394456 16.6733 0.0482929 14.9665 1.41256 14.1161C2.77682 13.2657 4.42307 13.6083 5.49129 14.9673C5.51589 14.9981 5.54839 15.0218 5.64414 15.1114V14.5896C5.64414 10.8333 5.64561 7.07722 5.64854 3.32147C5.64854 1.82807 6.37415 0.720321 7.63739 0.211687C9.59111 -0.578935 11.7846 0.946087 11.6898 2.94373C11.5949 4.9115 11.6704 6.88805 11.6722 8.8611C11.6764 8.90109 11.6834 8.94072 11.6933 8.97969Z" fill="white"/>
</g>
<defs>
<clipPath id="clip0_2754_1979">
<rect width="25.2911" height="32" fill="white"/>
</clipPath>
</defs>
</svg>
