<svg width="82" height="82" viewBox="0 0 82 82" fill="none" xmlns="http://www.w3.org/2000/svg">
<path d="M20.8547 43.2417V61.8592C20.8547 62.8467 21.2085 63.7938 21.8381 64.4921C22.4678 65.1904 23.3218 65.5827 24.2123 65.5827H57.7878C58.6782 65.5827 59.5322 65.1904 60.1619 64.4921C60.7916 63.7938 61.1453 62.8467 61.1453 61.8592V43.2417C61.1453 37.3165 59.0229 31.634 55.2449 27.4443C51.4669 23.2545 46.3429 20.9008 41 20.9008C35.6572 20.9008 30.5331 23.2545 26.7552 27.4443C22.9772 31.634 20.8547 37.3165 20.8547 43.2417Z" stroke="#FCFCFC" stroke-width="3" stroke-linecap="round" stroke-linejoin="round"/>
<line x1="22.3634" y1="49.3863" x2="59.6453" y2="49.3863" stroke="#FCFCFC" stroke-width="3" stroke-linecap="round" stroke-linejoin="round"/>
<line x1="32.198" y1="50.3887" x2="32.198" y2="55.9939" stroke="#FCFCFC" stroke-width="3" stroke-linecap="round" stroke-linejoin="round"/>
<path d="M31.7906 23.3503V15.7486C31.7906 15.2236 31.3651 14.7981 30.8401 14.7981H25.0892C24.5642 14.7981 24.1387 15.2236 24.1387 15.7486V30.5979" stroke="#FCFCFC" stroke-width="3" stroke-linecap="round" stroke-linejoin="round"/>
<path d="M49.5856 22.8135V15.7486C49.5856 15.2236 50.0112 14.7981 50.5361 14.7981H56.287C56.812 14.7981 57.2375 15.2236 57.2375 15.7486L57.2375 30.061" stroke="#FCFCFC" stroke-width="3" stroke-linecap="round" stroke-linejoin="round"/>
</svg>
