<svg width="82" height="82" viewBox="0 0 82 82" fill="none" xmlns="http://www.w3.org/2000/svg">
<path d="M40.9998 14.0046C46.2936 14.0043 51.3678 16.0249 55.1287 19.6179C58.8878 23.2094 61.0336 28.0827 61.1189 33.1833L61.1199 41.7654V42.0925L61.2556 42.3894L66.4294 53.696C66.5056 53.8629 66.5367 54.0432 66.5222 54.2214C66.5076 54.4001 66.4469 54.5761 66.3425 54.7322C66.238 54.8884 66.0919 55.0219 65.9138 55.116C65.7353 55.2102 65.5321 55.2603 65.324 55.2605L49.5339 55.2625H47.0867L47.0945 55.2791H35.0906L35.1013 55.2625L32.4646 55.2615L16.6765 55.2585C16.4685 55.2585 16.2652 55.2081 16.0867 55.114C15.9085 55.02 15.7626 54.8864 15.658 54.7302C15.5535 54.5742 15.493 54.3991 15.4783 54.2205C15.4636 54.0419 15.4937 53.8604 15.5701 53.6931L20.7458 42.3972L20.8816 42.1003V33.2996L20.8835 33.1863C20.968 28.0855 23.114 23.2119 26.8728 19.6199C30.633 16.0265 35.7061 14.0051 40.9998 14.0046Z" stroke="#FCFCFC" stroke-width="3"/>
<path d="M49.7665 60.718C49.7665 64.7397 45.8416 67.9999 41 67.9999C36.1585 67.9999 32.2336 64.7397 32.2336 60.718" stroke="white" stroke-width="3" stroke-linecap="round"/>
</svg>
