<svg width="82" height="82" viewBox="0 0 82 82" fill="none" xmlns="http://www.w3.org/2000/svg">
<path fill-rule="evenodd" clip-rule="evenodd" d="M51.2668 60.7178C51.2668 65.8163 46.3975 69.4999 41.0002 69.5C35.6028 69.4999 30.7336 65.8163 30.7336 60.7178V59.2178H51.2668V60.7178ZM41.0002 12.5049C46.6736 12.5045 52.1199 14.6695 56.1642 18.5332C60.2087 22.3971 62.5273 27.6505 62.6193 33.1592V41.7656L67.7932 53.0713C67.9757 53.4706 68.0523 53.9082 68.0168 54.3438C67.9812 54.7793 67.8342 55.2 67.5891 55.5664C67.3439 55.9326 67.0087 56.2338 66.6135 56.4424C66.2181 56.651 65.7753 56.7604 65.3254 56.7607L49.5344 56.7617L49.5432 56.7793L32.4533 56.7803L32.4641 56.7617L16.676 56.7588C16.226 56.7586 15.7833 56.6489 15.3879 56.4404C14.9925 56.232 14.6566 55.9316 14.4113 55.5654C14.1661 55.1993 14.0185 54.7791 13.9826 54.3438C13.9468 53.9083 14.024 53.4707 14.2062 53.0713L19.382 41.7725L19.381 33.166L19.384 33.1621C19.4751 27.6534 21.7923 22.3996 25.8361 18.5352C29.8799 14.6708 35.3266 12.5053 41.0002 12.5049Z" fill="url(#paint0_linear_28_1207)"/>
<defs>
<linearGradient id="paint0_linear_28_1207" x1="19.5009" y1="18.8766" x2="66.2735" y2="66.1234" gradientUnits="userSpaceOnUse">
<stop stop-color="#E8B9FF"/>
<stop offset="1" stop-color="#691FA9"/>
</linearGradient>
</defs>
</svg>
