<svg width="82" height="82" viewBox="0 0 82 82" fill="none" xmlns="http://www.w3.org/2000/svg">
<path d="M45.17 14.3519V14.3529C46.3573 14.3369 47.5132 14.734 48.4386 15.4789C49.3701 16.2288 50.0091 17.2819 50.2433 18.4545L51.0177 22.2836C51.437 22.5059 51.8491 22.7415 52.2531 22.9906L55.9493 21.7445L55.9601 21.7406C56.4833 21.5686 57.0314 21.4827 57.5822 21.4857H57.5929C58.4845 21.4883 59.3599 21.7241 60.132 22.1703C60.9026 22.6158 61.5432 23.2552 61.9904 24.0248L66.2423 31.2308H66.2413C66.8618 32.2502 67.1058 33.4552 66.9298 34.6361C66.7523 35.8265 66.1598 36.9155 65.257 37.7113L65.2531 37.7152L62.3068 40.2924V41.7084L65.2003 44.3578L65.3634 44.5072C66.1626 45.2716 66.6933 46.277 66.8722 47.3724C67.0622 48.5362 66.8424 49.729 66.2521 50.7494L66.2531 50.7504L62.1456 57.9564L62.1417 57.9633C61.6944 58.7381 61.0511 59.3817 60.2765 59.8295C59.5043 60.2758 58.6283 60.5116 57.7365 60.514L57.7374 60.515C57.7342 60.515 57.7309 60.515 57.7277 60.515L57.7267 60.514C57.1758 60.5171 56.628 60.4312 56.1046 60.2592L56.0919 60.2552L52.4113 59.0072C52.0023 59.2576 51.5856 59.4948 51.1613 59.7181L50.3868 63.5453C50.1527 64.7178 49.5146 65.771 48.5831 66.5209C47.6576 67.266 46.5011 67.664 45.3136 67.6478L36.8107 67.6488V67.6478C35.6235 67.6638 34.4674 67.2658 33.5421 66.5209C32.6107 65.771 31.9725 64.7178 31.7384 63.5453L30.963 59.7152C30.5437 59.4928 30.1316 59.2573 29.7277 59.0082L26.0314 60.2552L26.0206 60.2592C25.497 60.4313 24.9488 60.5172 24.3976 60.514V60.515L24.3947 60.514C24.3924 60.514 24.3901 60.515 24.3878 60.515V60.514C23.4963 60.5114 22.6207 60.2757 21.8488 59.8295C21.0781 59.3839 20.4374 58.7446 19.9904 57.975L15.7394 50.7699L15.7404 50.7689C15.123 49.7384 14.8875 48.5236 15.0782 47.3373C15.2697 46.1464 15.877 45.0616 16.7921 44.2758L19.6749 41.7123V40.2924L16.7804 37.642C15.8906 36.8617 15.2994 35.7963 15.1085 34.6283C14.9177 33.46 15.139 32.2608 15.7345 31.2377L15.7394 31.2308L19.9904 24.0248C20.4375 23.2552 21.0781 22.6158 21.8488 22.1703C22.5944 21.7393 23.437 21.5065 24.297 21.4886C24.7774 21.456 25.2598 21.4918 25.7296 21.5941L25.9298 21.642L26.0616 21.683L29.6573 22.9818C30.061 22.7352 30.4722 22.501 30.8907 22.2806L31.6661 18.4545C31.9003 17.282 32.5385 16.2287 33.4698 15.4789C34.3954 14.7338 35.5519 14.3368 36.7394 14.3529V14.3519H45.17Z" stroke="#FCFCFC" stroke-width="3" stroke-linejoin="round"/>
<path d="M40.9905 51.8086C38.8528 51.8086 36.763 51.1746 34.9855 49.987C33.208 48.7993 31.8226 47.1112 31.0045 45.1361C30.1864 43.1611 29.9724 40.9878 30.3895 38.8911C30.8065 36.7944 31.8359 34.8685 33.3476 33.3569C34.8592 31.8452 36.7852 30.8158 38.8818 30.3987C40.9785 29.9817 43.1518 30.1957 45.1269 31.0138C47.1019 31.8319 48.79 33.2173 49.9777 34.9948C51.1654 36.7723 51.7993 38.862 51.7993 40.9998C51.8137 42.4233 51.544 43.8353 51.006 45.1532C50.4679 46.4711 49.6723 47.6684 48.6657 48.675C47.6591 49.6815 46.4618 50.4772 45.1439 51.0152C43.826 51.5533 42.414 51.823 40.9905 51.8086Z" stroke="#FCFCFC" stroke-width="3" stroke-linecap="round" stroke-linejoin="round"/>
</svg>
