<svg width="82" height="82" viewBox="0 0 82 82" fill="none" xmlns="http://www.w3.org/2000/svg">
<path d="M45.1699 15.8512C46.0153 15.835 46.8394 16.117 47.498 16.6471C48.1566 17.1773 48.6077 17.9224 48.7725 18.7516L49.6914 23.2916C50.5071 23.6891 51.296 24.14 52.0518 24.6422L56.4287 23.1656C56.8007 23.0434 57.1905 22.982 57.582 22.985C58.2138 22.9856 58.8348 23.1532 59.3818 23.4694C59.9286 23.7855 60.3824 24.2398 60.6982 24.7867L64.9502 31.9928C65.3961 32.7162 65.5715 33.5741 65.4463 34.4147C65.321 35.2552 64.9031 36.0246 64.2656 36.5865L60.8066 39.6129V42.3688L64.2109 45.486C64.8394 46.037 65.2568 46.789 65.3916 47.6139C65.5263 48.4388 65.3707 49.2851 64.9502 50.0074L60.8428 57.2135C60.5269 57.7606 60.0723 58.2147 59.5254 58.5309C58.9785 58.847 58.3582 59.0136 57.7266 59.0143C57.3351 59.0173 56.9452 58.9569 56.5732 58.8346L52.2139 57.3571C51.4519 57.8594 50.6575 58.3112 49.8359 58.7086L48.917 63.2477C48.7523 64.0769 48.3011 64.822 47.6426 65.3522C46.984 65.8823 46.1597 66.1642 45.3145 66.1481H36.8115C35.9661 66.1643 35.1411 65.8824 34.4824 65.3522C33.824 64.822 33.3727 64.0769 33.208 63.2477L32.2891 58.7086C31.4734 58.3111 30.6854 57.8592 29.9297 57.3571L25.5518 58.8346C25.18 58.9568 24.7907 59.0172 24.3994 59.0143C23.7676 59.0136 23.1466 58.8471 22.5996 58.5309C22.0527 58.2147 21.5981 57.7606 21.2822 57.2135L17.0312 50.0074C16.5915 49.278 16.4244 48.4158 16.5596 47.5748C16.6948 46.7341 17.1235 45.9685 17.7695 45.4137L21.1748 42.3873V39.6305L17.7695 36.5143C17.1412 35.9633 16.7237 35.2111 16.5889 34.3864C16.4541 33.5615 16.6108 32.7152 17.0312 31.9928L21.2822 24.7867C21.5981 24.2397 22.0527 23.7855 22.5996 23.4694C23.1466 23.1532 23.7676 22.9856 24.3994 22.985C24.7868 22.9587 25.176 22.9955 25.5518 23.0934L29.8398 24.6422C30.6017 24.14 31.3964 23.6889 32.2178 23.2916L33.1357 18.7516C33.3005 17.9223 33.7525 17.1773 34.4111 16.6471C35.0698 16.117 35.894 15.835 36.7393 15.8512H45.1699ZM45.127 31.0133C43.1519 30.1952 40.9785 29.982 38.8818 30.399C36.7852 30.8161 34.8593 31.8454 33.3477 33.3571C31.8361 34.8687 30.8067 36.7946 30.3896 38.8912C29.9726 40.9879 30.1868 43.1614 31.0049 45.1364C31.823 47.1112 33.208 48.7993 34.9854 49.9869C36.7628 51.1746 38.8526 51.8082 40.9902 51.8082C42.4136 51.8227 43.8257 51.5532 45.1436 51.0153C46.4615 50.4772 47.6594 49.681 48.666 48.6744C49.6724 47.6679 50.4679 46.4707 51.0059 45.153C51.5439 43.8351 51.8133 42.4231 51.7988 40.9996C51.7988 38.8619 51.1652 36.7722 49.9775 34.9948C48.7899 33.2173 47.102 31.8314 45.127 31.0133Z" fill="url(#paint0_linear_1_1421)"/>
<defs>
<linearGradient id="paint0_linear_1_1421" x1="41" y1="15.8512" x2="41" y2="66.1494" gradientUnits="userSpaceOnUse">
<stop stop-color="#E8B9FF"/>
<stop offset="1" stop-color="#691FA9"/>
</linearGradient>
</defs>
</svg>
