<svg width="82" height="82" viewBox="0 0 82 82" fill="none" xmlns="http://www.w3.org/2000/svg">
<path fill-rule="evenodd" clip-rule="evenodd" d="M41.3102 40.0587C40.4283 40.9538 39.7301 42.0184 39.2556 43.1876C38.7811 44.3568 38.5376 45.611 38.5378 46.8751C38.5381 50.5961 40.2909 53.7874 42.4704 56.4483C44.6441 59.1019 47.4265 61.4444 49.7849 63.4376C49.8542 63.4961 49.9223 63.5553 49.9909 63.6133C49.8633 63.7053 49.7365 63.7966 49.6081 63.8829C48.7912 64.4318 47.8745 64.9137 46.9313 65.1299L46.9323 65.1309C40.7558 66.8357 32.8401 66.6457 27.4186 64.5665C23.9977 63.2543 22.6494 59.6928 23.0017 56.4981C23.2849 53.9315 23.7414 51.124 24.1999 48.628C25.1586 43.4112 29.7653 39.8058 34.987 39.8057L41.5729 39.8047C41.4844 39.8879 41.3957 39.972 41.3102 40.0587ZM59.1325 39.126C60.1501 39.112 61.1594 39.3045 62.1022 39.6924C63.0571 40.0854 63.9234 40.6689 64.6511 41.4073C65.3786 42.1456 65.954 43.0239 66.3454 43.9883C66.7367 44.9527 66.9373 45.9868 66.9372 47.0294C66.937 50.1208 65.4698 52.7755 63.652 54.9864C61.8383 57.1924 59.5204 59.1383 57.5642 60.7862C57.2016 61.0916 56.8505 61.3872 56.5124 61.6758C55.1211 62.8633 53.0753 62.8555 51.6911 61.667C51.3231 61.351 50.9396 61.027 50.5427 60.6915C48.5975 59.0476 46.3033 57.1155 44.5104 54.9268C42.7126 52.732 41.2665 50.0997 41.2663 47.0303C41.2661 45.9878 41.4668 44.9536 41.8581 43.9893C42.2496 43.0248 42.8259 42.1466 43.5534 41.4083C44.281 40.67 45.1465 40.0854 46.1013 39.6924C47.0439 39.3046 48.0536 39.1131 49.071 39.127V39.1251C49.0745 39.1251 49.0782 39.127 49.0817 39.127C49.0914 39.1271 49.1013 39.1249 49.111 39.1251L49.1101 39.127C50.2896 39.1263 51.4546 39.3806 52.529 39.8741C53.0591 40.1176 53.5618 40.4161 54.028 40.7637C54.053 40.7823 54.0775 40.8025 54.1022 40.8213C54.1269 40.8025 54.1515 40.7823 54.1765 40.7637C54.6425 40.4162 55.1445 40.1176 55.6745 39.8741C56.7487 39.3807 57.9142 39.1255 59.0934 39.126V39.1251C59.1027 39.125 59.1126 39.1262 59.1218 39.126C59.1256 39.1259 59.1297 39.125 59.1335 39.1251L59.1325 39.126ZM38.903 15.0147C44.7899 14.9956 49.578 19.7519 49.5974 25.6387C49.6166 31.5258 44.8594 36.3138 38.9724 36.3331C33.0855 36.3523 28.2975 31.5959 28.278 25.709C28.2588 19.822 33.016 15.034 38.903 15.0147Z" fill="url(#paint0_linear_28_1187)"/>
<defs>
<linearGradient id="paint0_linear_28_1187" x1="21.6621" y1="23.3789" x2="57.0254" y2="58.1395" gradientUnits="userSpaceOnUse">
<stop stop-color="#E8B9FF"/>
<stop offset="1" stop-color="#691FA9"/>
</linearGradient>
</defs>
</svg>
