<svg width="82" height="82" viewBox="0 0 82 82" fill="none" xmlns="http://www.w3.org/2000/svg">
<mask id="path-1-inside-1_28_1177" fill="white">
<path fill-rule="evenodd" clip-rule="evenodd" d="M39.4114 39.4324C40.2396 39.4326 40.9113 40.1042 40.9114 40.9324C40.9114 41.7608 40.2397 42.4323 39.4114 42.4324H35.2581C31.2651 42.4326 27.7925 45.1832 27.0715 49.1043C26.6641 51.3221 26.2622 53.7986 26.0139 56.0477C25.7477 58.4618 26.7831 60.8519 29.0169 61.7088C33.5213 63.4362 40.2544 63.6214 45.5149 62.1805C46.027 62.0233 46.6064 62.1468 47.0129 62.5506L47.0139 62.5516C47.3931 62.9283 47.5437 63.4779 47.4085 63.9949C47.2729 64.5121 46.872 64.9189 46.3567 65.0613C40.5597 66.6614 33.1374 66.5027 27.9426 64.5106C24.0484 63.0169 22.6676 59.0271 23.0325 55.7186C23.2917 53.37 23.7074 50.8158 24.1213 48.5623C25.1183 43.1394 29.898 39.4326 35.2581 39.4324H39.4114ZM59.1995 38.8084C60.2309 38.7941 61.2546 38.9885 62.2102 39.3817C63.178 39.7799 64.0557 40.3726 64.7932 41.1209C65.5306 41.8692 66.1142 42.7596 66.511 43.7371C66.9076 44.7145 67.1108 45.7625 67.1106 46.8191C67.1104 49.9524 65.6238 52.6429 63.7815 54.8836C61.9431 57.1195 59.5933 59.0913 57.6106 60.7615C57.2432 61.071 56.8878 61.3704 56.5452 61.6629C55.1349 62.8668 53.0605 62.86 51.6575 61.6551C51.2845 61.3347 50.8967 61.0058 50.4944 60.6658C48.5229 58.9996 46.1972 57.0414 44.3801 54.8231C42.558 52.5984 41.0922 49.9301 41.092 46.8191C41.092 45.7625 41.296 44.7145 41.6926 43.7371C42.0894 42.7596 42.673 41.8692 43.4104 41.1209C44.1479 40.3727 45.0257 39.7808 45.9934 39.3826C46.9487 38.9896 47.9712 38.7953 49.0022 38.8094V38.8074C49.0057 38.8074 49.0094 38.8093 49.0129 38.8094C49.0228 38.8095 49.0333 38.8073 49.0432 38.8074L49.0422 38.8094C50.2377 38.8087 51.4182 39.0671 52.5071 39.5672C53.0444 39.814 53.5542 40.1163 54.0266 40.4686C54.0518 40.4874 54.0768 40.5081 54.1018 40.5272C54.1269 40.508 54.1517 40.4875 54.177 40.4686C54.6495 40.1162 55.1582 39.8131 55.6956 39.5662C56.7843 39.0661 57.9652 38.8079 59.1604 38.8084V38.8074C59.1698 38.8073 59.1793 38.8085 59.1887 38.8084C59.1927 38.8084 59.1974 38.8074 59.2014 38.8074L59.1995 38.8084ZM38.9016 14.6922C44.8204 14.6728 49.634 19.4551 49.6536 25.3738C49.6729 31.2927 44.8907 36.1073 38.9719 36.1268C33.053 36.1461 28.2393 31.363 28.22 25.4441C28.2007 19.5254 32.9828 14.7116 38.9016 14.6922Z"/>
</mask>
<path d="M39.4114 39.4324L39.412 36.4324H39.4114V39.4324ZM40.9114 40.9324L43.9114 40.9325V40.9323L40.9114 40.9324ZM39.4114 42.4324V45.4324H39.412L39.4114 42.4324ZM35.2581 42.4324V39.4324H35.2579L35.2581 42.4324ZM27.0715 49.1043L24.121 48.5618L24.1209 48.5623L27.0715 49.1043ZM26.0139 56.0477L23.032 55.7186L23.032 55.7188L26.0139 56.0477ZM29.0169 61.7088L27.9424 64.5098L27.9427 64.5099L29.0169 61.7088ZM45.5149 62.1805L46.3074 65.0739L46.3514 65.0618L46.3951 65.0485L45.5149 62.1805ZM47.0129 62.5506L49.1343 60.4293L49.127 60.4221L47.0129 62.5506ZM47.0139 62.5516L44.8926 64.6729L44.8994 64.6797L47.0139 62.5516ZM47.4085 63.9949L50.3104 64.7557L50.3108 64.7542L47.4085 63.9949ZM46.3567 65.0613L47.1549 67.9532L47.1557 67.953L46.3567 65.0613ZM27.9426 64.5106L26.8683 67.3116L26.8685 67.3117L27.9426 64.5106ZM23.0325 55.7186L20.0506 55.3895L20.0505 55.3897L23.0325 55.7186ZM24.1213 48.5623L21.1708 48.0199L21.1707 48.0203L24.1213 48.5623ZM35.2581 39.4324V36.4324H35.258L35.2581 39.4324ZM59.1995 38.8084L57.8578 36.1251L59.2411 41.8081L59.1995 38.8084ZM62.2102 39.3817L63.3517 36.6073L63.3515 36.6072L62.2102 39.3817ZM64.7932 41.1209L66.9301 39.0153L66.9299 39.0151L64.7932 41.1209ZM66.511 43.7371L69.2908 42.6091L69.2907 42.6089L66.511 43.7371ZM67.1106 46.8191L64.1106 46.8187V46.8189L67.1106 46.8191ZM63.7815 54.8836L66.0988 56.7889L66.0988 56.7888L63.7815 54.8836ZM57.6106 60.7615L55.6778 58.4671H55.6778L57.6106 60.7615ZM56.5452 61.6629L58.493 63.9446L58.493 63.9446L56.5452 61.6629ZM51.6575 61.6551L49.7028 63.9309L49.7029 63.931L51.6575 61.6551ZM50.4944 60.6658L52.4309 58.3745L52.4309 58.3745L50.4944 60.6658ZM44.3801 54.8231L42.0593 56.724L42.0593 56.7241L44.3801 54.8231ZM41.092 46.8191L44.092 46.819V46.8189L41.092 46.8191ZM41.6926 43.7371L38.9129 42.6088L38.9128 42.609L41.6926 43.7371ZM43.4104 41.1209L41.2738 39.015L41.2735 39.0153L43.4104 41.1209ZM45.9934 39.3826L44.852 36.6083L44.8518 36.6083L45.9934 39.3826ZM49.0022 38.8094L48.9612 41.8091L52.0022 41.8507V38.8094H49.0022ZM49.0022 38.8074L48.9859 35.8075L46.0022 35.8237V38.8074H49.0022ZM49.0129 38.8094L48.9226 41.808L48.945 41.8087L48.9675 41.809L49.0129 38.8094ZM49.0432 38.8074L51.7265 40.1491L53.8581 35.8859L49.0924 35.8078L49.0432 38.8074ZM49.0422 38.8094L46.359 37.4677L44.1867 41.8123L49.044 41.8094L49.0422 38.8094ZM52.5071 39.5672L53.7594 36.8411L53.7592 36.841L52.5071 39.5672ZM54.0266 40.4686L55.8209 38.0643L55.8198 38.0635L54.0266 40.4686ZM54.1018 40.5272L52.281 42.9114L54.1014 44.3016L55.9221 42.9118L54.1018 40.5272ZM54.177 40.4686L52.3837 38.0636L52.3835 38.0637L54.177 40.4686ZM55.6956 39.5662L54.4433 36.8401L54.4432 36.8401L55.6956 39.5662ZM59.1604 38.8084L59.1591 41.8084L62.1604 41.8098V38.8084H59.1604ZM59.1604 38.8074L59.1113 35.8078L56.1604 35.8562V38.8074H59.1604ZM59.1887 38.8084L59.2006 35.8084L59.1769 35.8083L59.1533 35.8086L59.1887 38.8084ZM59.2014 38.8074L60.5431 41.4907L59.1982 35.8074L59.2014 38.8074ZM38.9016 14.6922L38.8918 11.6922H38.8918L38.9016 14.6922ZM49.6536 25.3738L52.6536 25.364V25.3639L49.6536 25.3738ZM38.9719 36.1268L38.9817 39.1268H38.9818L38.9719 36.1268ZM28.22 25.4441L25.22 25.4539L25.22 25.454L28.22 25.4441ZM39.4114 39.4324L39.4107 42.4324C38.5831 42.4323 37.9114 41.7615 37.9114 40.9326L40.9114 40.9324L43.9114 40.9323C43.9113 38.4468 41.8961 36.433 39.412 36.4324L39.4114 39.4324ZM40.9114 40.9324L37.9114 40.9324C37.9114 40.1033 38.5832 39.4326 39.4108 39.4324L39.4114 42.4324L39.412 45.4324C41.8961 45.432 43.9114 43.4182 43.9114 40.9325L40.9114 40.9324ZM39.4114 42.4324V39.4324H35.2581V42.4324V45.4324H39.4114V42.4324ZM35.2581 42.4324L35.2579 39.4324C29.8951 39.4327 25.1176 43.1418 24.121 48.5618L27.0715 49.1043L30.0221 49.6468C30.4675 47.2245 32.6351 45.4325 35.2582 45.4324L35.2581 42.4324ZM27.0715 49.1043L24.1209 48.5623C23.7069 50.816 23.2912 53.3701 23.032 55.7186L26.0139 56.0477L28.9958 56.3768C29.2331 54.2271 29.6214 51.8282 30.0222 49.6463L27.0715 49.1043ZM26.0139 56.0477L23.032 55.7188C22.6643 59.053 24.0677 63.0234 27.9424 64.5098L29.0169 61.7088L30.0913 58.9078C29.4985 58.6804 28.8311 57.8707 28.9958 56.3765L26.0139 56.0477ZM29.0169 61.7088L27.9427 64.5099C33.1241 66.4969 40.5194 66.6593 46.3074 65.0739L45.5149 62.1805L44.7224 59.2871C39.9894 60.5835 33.9185 60.3755 30.091 58.9077L29.0169 61.7088ZM45.5149 62.1805L46.3951 65.0485C45.8888 65.2038 45.3066 65.0841 44.8989 64.6791L47.0129 62.5506L49.127 60.4221C47.9061 59.2094 46.1651 58.8428 44.6347 59.3125L45.5149 62.1805ZM47.0129 62.5506L44.8916 64.6719L44.8926 64.6729L47.0139 62.5516L49.1352 60.4303L49.1343 60.4293L47.0129 62.5506ZM47.0139 62.5516L44.8994 64.6797C44.5225 64.3051 44.3701 63.7556 44.5061 63.2356L47.4085 63.9949L50.3108 64.7542C50.7173 63.2002 50.2637 61.5514 49.1284 60.4234L47.0139 62.5516ZM47.4085 63.9949L44.5065 63.2341C44.6416 62.719 45.0403 62.3127 45.5576 62.1697L46.3567 65.0613L47.1557 67.953C48.7036 67.5252 49.9042 66.3051 50.3104 64.7557L47.4085 63.9949ZM46.3567 65.0613L45.5585 62.1695C40.2914 63.6233 33.5333 63.4415 29.0168 61.7095L27.9426 64.5106L26.8685 67.3117C32.7415 69.5639 40.828 69.6995 47.1549 67.9532L46.3567 65.0613ZM27.9426 64.5106L29.017 61.7095C26.7953 60.8574 25.7464 58.478 26.0144 56.0474L23.0325 55.7186L20.0505 55.3897C19.5889 59.5763 21.3015 65.1764 26.8683 67.3116L27.9426 64.5106ZM23.0325 55.7186L26.0144 56.0477C26.2626 53.7985 26.6646 51.3219 27.072 49.1043L24.1213 48.5623L21.1707 48.0203C20.7502 50.3097 20.3208 52.9415 20.0506 55.3895L23.0325 55.7186ZM24.1213 48.5623L27.0719 49.1047C27.7923 45.1858 31.2625 42.4326 35.2582 42.4324L35.2581 39.4324L35.258 36.4324C28.5334 36.4327 22.4442 41.093 21.1708 48.0199L24.1213 48.5623ZM35.2581 39.4324V42.4324H39.4114V39.4324V36.4324H35.2581V39.4324ZM59.1995 38.8084L59.2411 41.8081C59.8677 41.7994 60.489 41.9175 61.0689 42.1561L62.2102 39.3817L63.3515 36.6072C62.0203 36.0596 60.594 35.7888 59.1579 35.8087L59.1995 38.8084ZM62.2102 39.3817L61.0687 42.156C61.6577 42.3983 62.1982 42.7617 62.6565 43.2267L64.7932 41.1209L66.9299 39.0151C65.9132 37.9835 64.6983 37.1614 63.3517 36.6073L62.2102 39.3817ZM64.7932 41.1209L62.6563 43.2265C63.1145 43.6915 63.481 44.2489 63.7312 44.8654L66.511 43.7371L69.2907 42.6089C68.7475 41.2703 67.9467 40.047 66.9301 39.0153L64.7932 41.1209ZM66.511 43.7371L63.7311 44.8651C63.9812 45.4815 64.1107 46.1461 64.1106 46.8187L67.1106 46.8191L70.1106 46.8196C70.1108 45.3789 69.8339 43.9475 69.2908 42.6091L66.511 43.7371ZM67.1106 46.8191L64.1106 46.8189C64.1104 48.9659 63.0947 50.9952 61.4642 52.9784L63.7815 54.8836L66.0988 56.7888C68.1529 54.2905 70.1103 50.9389 70.1106 46.8194L67.1106 46.8191ZM63.7815 54.8836L61.4642 52.9783C59.8309 54.9648 57.7018 56.7621 55.6778 58.4671L57.6106 60.7615L59.5434 63.056C61.4848 61.4205 64.0554 59.2742 66.0988 56.7889L63.7815 54.8836ZM57.6106 60.7615L55.6778 58.4671C55.3119 58.7753 54.9489 59.0812 54.5973 59.3812L56.5452 61.6629L58.493 63.9446C58.8268 63.6596 59.1745 63.3667 59.5434 63.0559L57.6106 60.7615ZM56.5452 61.6629L54.5974 59.3812C54.3141 59.623 53.8959 59.6229 53.612 59.3792L51.6575 61.6551L49.7029 63.931C52.2251 66.0971 55.9558 66.1105 58.493 63.9446L56.5452 61.6629ZM51.6575 61.6551L53.6121 59.3793C53.23 59.0511 52.8351 58.7162 52.4309 58.3745L50.4944 60.6658L48.5579 62.9571C48.9583 63.2955 49.3389 63.6184 49.7028 63.9309L51.6575 61.6551ZM50.4944 60.6658L52.4309 58.3745C50.418 56.6734 48.3132 54.8903 46.7009 52.922L44.3801 54.8231L42.0593 56.7241C44.0813 59.1925 46.6278 61.3259 48.5579 62.9571L50.4944 60.6658ZM44.3801 54.8231L46.701 52.9221C45.0922 50.9579 44.0921 48.9491 44.092 46.819L41.092 46.8191L38.092 46.8193C38.0922 50.9112 40.0238 54.2389 42.0593 56.724L44.3801 54.8231ZM41.092 46.8191L44.092 46.8189C44.092 46.1478 44.2217 45.483 44.4724 44.8653L41.6926 43.7371L38.9128 42.609C38.3702 43.9459 38.0919 45.3772 38.092 46.8194L41.092 46.8191ZM41.6926 43.7371L44.4723 44.8655C44.7226 44.2489 45.0892 43.6915 45.5473 43.2266L43.4104 41.1209L41.2735 39.0153C40.2569 40.047 39.4562 41.2704 38.9129 42.6088L41.6926 43.7371ZM43.4104 41.1209L45.547 43.2268C46.0042 42.763 46.5446 42.3999 47.135 42.1569L45.9934 39.3826L44.8518 36.6083C43.5068 37.1618 42.2915 37.9824 41.2738 39.015L43.4104 41.1209ZM45.9934 39.3826L47.1349 42.157C47.7146 41.9185 48.3348 41.8005 48.9612 41.8091L49.0022 38.8094L49.0432 35.8097C47.6076 35.79 46.1828 36.0607 44.852 36.6083L45.9934 39.3826ZM49.0022 38.8094H52.0022V38.8074H49.0022H46.0022V38.8094H49.0022ZM49.0022 38.8074L49.0185 41.8074C48.8854 41.8081 48.7685 41.7999 48.6723 41.7892C48.5763 41.7785 48.4953 41.7648 48.4339 41.7529C48.3729 41.741 48.3238 41.7295 48.2935 41.7221C48.2647 41.7151 48.2418 41.709 48.2411 41.7088C48.2374 41.7078 48.2431 41.7093 48.2463 41.7102C48.2512 41.7114 48.2606 41.7139 48.2725 41.7169C48.2954 41.7227 48.3373 41.7331 48.3902 41.7442C48.4434 41.7555 48.5162 41.7694 48.6031 41.7813C48.6904 41.7933 48.7984 41.8043 48.9226 41.808L49.0129 38.8094L49.1033 35.8107C49.2266 35.8145 49.3337 35.8253 49.4201 35.8372C49.5062 35.849 49.578 35.8628 49.6304 35.8738C49.6823 35.8848 49.7234 35.8949 49.7454 35.9005C49.7568 35.9034 49.7658 35.9058 49.7702 35.9069C49.7729 35.9076 49.7782 35.909 49.774 35.9079C49.7725 35.9075 49.7487 35.9012 49.719 35.8939C49.6878 35.8863 49.6378 35.8746 49.5758 35.8625C49.5136 35.8505 49.4316 35.8366 49.3348 35.8258C49.2376 35.8151 49.1198 35.8067 48.9859 35.8075L49.0022 38.8074ZM49.0129 38.8094L48.9675 41.809C49.0296 41.81 49.0844 41.8089 49.1299 41.8072C49.1753 41.8055 49.214 41.803 49.2437 41.8008C49.2732 41.7986 49.2972 41.7964 49.312 41.795C49.3195 41.7942 49.3257 41.7936 49.3297 41.7932C49.3334 41.7928 49.3366 41.7925 49.3367 41.7925C49.3377 41.7924 49.3356 41.7926 49.3331 41.7929C49.3302 41.7931 49.3251 41.7937 49.3187 41.7943C49.3062 41.7955 49.2844 41.7975 49.2571 41.7995C49.2296 41.8015 49.1931 41.8039 49.1499 41.8054C49.1066 41.807 49.054 41.808 48.9941 41.807L49.0432 38.8074L49.0924 35.8078C49.0299 35.8068 48.9748 35.8078 48.9291 35.8095C48.8834 35.8112 48.8443 35.8136 48.8143 35.8159C48.7845 35.8181 48.7602 35.8203 48.7451 35.8218C48.7374 35.8225 48.731 35.8231 48.7269 35.8236C48.7231 35.8239 48.7197 35.8243 48.7194 35.8243C48.7183 35.8244 48.7203 35.8242 48.7226 35.824C48.7253 35.8237 48.7303 35.8232 48.7365 35.8226C48.7487 35.8214 48.7702 35.8195 48.7972 35.8174C48.8244 35.8154 48.8606 35.8131 48.9035 35.8115C48.9464 35.8099 48.9987 35.8088 49.0584 35.8097L49.0129 38.8094ZM49.0432 38.8074L46.3599 37.4658L46.359 37.4677L49.0422 38.8094L51.7255 40.151L51.7265 40.1491L49.0432 38.8074ZM49.0422 38.8094L49.044 41.8094C49.805 41.8089 50.5579 41.9733 51.255 42.2934L52.5071 39.5672L53.7592 36.841C52.2784 36.1609 50.6703 35.8084 49.0404 35.8094L49.0422 38.8094ZM52.5071 39.5672L51.2548 42.2933C51.6021 42.4529 51.9305 42.6478 52.2334 42.8736L54.0266 40.4686L55.8198 38.0635C55.1779 37.5848 54.4866 37.1752 53.7594 36.8411L52.5071 39.5672ZM54.0266 40.4686L52.2323 42.8728C52.2182 42.8623 52.2079 42.8544 52.2035 42.8509C52.1995 42.8478 52.1977 42.8463 52.2026 42.8502C52.2037 42.8511 52.2049 42.852 52.2065 42.8533C52.208 42.8545 52.21 42.8561 52.2121 42.8577C52.2162 42.861 52.2219 42.8655 52.2282 42.8705C52.2407 42.8803 52.2592 42.8947 52.281 42.9114L54.1018 40.5272L55.9226 38.1429C55.9275 38.1466 55.9313 38.1496 55.9338 38.1515C55.9362 38.1534 55.9378 38.1546 55.9379 38.1547C55.938 38.1548 55.9374 38.1543 55.9353 38.1526C55.9342 38.1518 55.9331 38.1509 55.9314 38.1496C55.93 38.1484 55.928 38.1469 55.926 38.1453C55.9184 38.1392 55.904 38.1279 55.8874 38.115C55.8705 38.1018 55.8476 38.0843 55.8209 38.0643L54.0266 40.4686ZM54.1018 40.5272L55.9221 42.9118C55.9443 42.8949 55.963 42.8802 55.9757 42.8703C55.9821 42.8652 55.9878 42.8607 55.992 42.8574C55.9941 42.8557 55.9961 42.8542 55.9976 42.853C55.9992 42.8516 56.0004 42.8507 56.0015 42.8499C56.0063 42.846 56.0043 42.8476 56 42.851C55.9953 42.8546 55.9849 42.8627 55.9705 42.8734L54.177 40.4686L52.3835 38.0637C52.3327 38.1016 52.2901 38.1354 52.2772 38.1456C52.2752 38.1473 52.2732 38.1488 52.2717 38.15C52.2701 38.1512 52.269 38.1521 52.268 38.153C52.2659 38.1546 52.2653 38.155 52.2655 38.1549C52.2657 38.1547 52.2719 38.1498 52.2815 38.1425L54.1018 40.5272ZM54.177 40.4686L55.9703 42.8736C56.2768 42.645 56.6045 42.4501 56.9479 42.2923L55.6956 39.5662L54.4432 36.8401C53.7119 37.1761 53.0222 37.5874 52.3837 38.0636L54.177 40.4686ZM55.6956 39.5662L56.9479 42.2923C57.6442 41.9725 58.3975 41.8081 59.1591 41.8084L59.1604 38.8084L59.1617 35.8084C57.5328 35.8077 55.9244 36.1597 54.4433 36.8401L55.6956 39.5662ZM59.1604 38.8084H62.1604V38.8074H59.1604H56.1604V38.8084H59.1604ZM59.1604 38.8074L59.2095 41.807C59.1737 41.8076 59.142 41.8075 59.1155 41.807C59.0891 41.8066 59.0666 41.8059 59.0494 41.8052C59.0324 41.8045 59.0188 41.8038 59.0108 41.8034C59.0067 41.8032 59.0035 41.803 59.0017 41.8029C59 41.8028 58.9987 41.8027 58.9992 41.8028C58.9992 41.8028 59 41.8028 59.0005 41.8029C59.0012 41.8029 59.0023 41.803 59.0035 41.803C59.006 41.8032 59.0098 41.8034 59.0145 41.8036C59.0237 41.8041 59.0386 41.8049 59.0568 41.8057C59.0752 41.8064 59.0989 41.8073 59.1265 41.8078C59.1542 41.8084 59.1871 41.8086 59.2242 41.8082L59.1887 38.8084L59.1533 35.8086C59.188 35.8082 59.2186 35.8085 59.2439 35.809C59.2691 35.8095 59.2905 35.8102 59.3065 35.8109C59.3224 35.8115 59.3349 35.8122 59.3417 35.8126C59.3476 35.8129 59.3529 35.8132 59.3499 35.813C59.3492 35.813 59.3409 35.8125 59.3312 35.812C59.3209 35.8114 59.3049 35.8106 59.2855 35.8099C59.266 35.8091 59.2411 35.8083 59.2124 35.8078C59.1835 35.8074 59.1495 35.8072 59.1113 35.8078L59.1604 38.8074ZM59.1887 38.8084L59.1769 41.8084C59.2396 41.8086 59.2941 41.8069 59.3377 41.8047C59.3814 41.8026 59.4184 41.7998 59.446 41.7975C59.4735 41.7951 59.4958 41.7929 59.5093 41.7914C59.5162 41.7907 59.5219 41.7901 59.5255 41.7897C59.529 41.7893 59.5318 41.789 59.532 41.7889C59.533 41.7888 59.531 41.7891 59.5287 41.7893C59.5262 41.7896 59.5215 41.7901 59.5157 41.7907C59.5044 41.7919 59.4843 41.794 59.459 41.7962C59.4337 41.7985 59.399 41.8011 59.3578 41.8033C59.3166 41.8055 59.2647 41.8074 59.2046 41.8074L59.2014 38.8074L59.1982 35.8074C59.1372 35.8075 59.0842 35.8094 59.042 35.8116C58.9997 35.8139 58.964 35.8166 58.9376 35.8189C58.9113 35.8212 58.8901 35.8234 58.8777 35.8248C58.8713 35.8254 58.8661 35.826 58.863 35.8264C58.8614 35.8265 58.8601 35.8267 58.8594 35.8268C58.859 35.8268 58.8587 35.8268 58.8585 35.8269C58.8584 35.8269 58.8583 35.8269 58.8582 35.8269C58.8582 35.8269 58.8582 35.8269 58.8581 35.8269C58.8578 35.8269 58.8601 35.8267 58.863 35.8264C58.8661 35.826 58.8712 35.8255 58.8776 35.8248C58.89 35.8235 58.9112 35.8213 58.9377 35.819C58.9642 35.8168 59.0002 35.8141 59.0428 35.812C59.0854 35.8099 59.1388 35.8082 59.2006 35.8084L59.1887 38.8084ZM59.2014 38.8074L57.8598 36.1241L57.8578 36.1251L59.1995 38.8084L60.5411 41.4917L60.5431 41.4907L59.2014 38.8074ZM38.9016 14.6922L38.9114 17.6922C43.1733 17.6782 46.6395 21.1218 46.6536 25.3838L49.6536 25.3738L52.6536 25.3639C52.6285 17.7885 46.4674 11.6674 38.8918 11.6922L38.9016 14.6922ZM49.6536 25.3738L46.6536 25.3836C46.6675 29.646 43.2237 33.1128 38.9621 33.1268L38.9719 36.1268L38.9818 39.1268C46.5578 39.1018 52.6783 32.9393 52.6536 25.364L49.6536 25.3738ZM38.9719 36.1268L38.9621 33.1268C34.7003 33.1407 31.2339 29.6967 31.22 25.4343L28.22 25.4441L25.22 25.454C25.2448 33.0294 31.4057 39.1515 38.9817 39.1268L38.9719 36.1268ZM28.22 25.4441L31.22 25.4344C31.2061 21.1723 34.6496 17.7061 38.9114 17.6922L38.9016 14.6922L38.8918 11.6922C31.316 11.717 25.1954 17.8784 25.22 25.4539L28.22 25.4441Z" fill="#FCFCFC" mask="url(#path-1-inside-1_28_1177)"/>
</svg>
