<svg width="25" height="24" viewBox="0 0 25 24" fill="none" xmlns="http://www.w3.org/2000/svg">
<path d="M21.5037 10.6975L13.3419 2.53896C12.9942 2.19137 12.5332 2 12.0409 2C11.5486 2 11.0876 2.19137 10.7399 2.53896L2.58202 10.6936C2.57811 10.6975 2.57811 10.6975 2.5742 10.7014C1.85922 11.42 1.86313 12.5839 2.57811 13.3025C2.9063 13.6305 3.33607 13.818 3.80101 13.8375C3.82054 13.8375 3.84008 13.8414 3.85961 13.8414H4.18389V19.8442C4.18389 21.0314 5.14893 22 6.34056 22H9.53259C9.85688 22 10.1186 21.7383 10.1186 21.4142V16.7042C10.1186 16.1613 10.5601 15.72 11.1032 15.72H12.9864C13.5295 15.72 13.971 16.1613 13.971 16.7042V21.4103C13.971 21.7344 14.2327 21.9961 14.557 21.9961H17.7451C18.9329 21.9961 19.9018 21.0314 19.9018 19.8403V13.8375H20.2026C20.6949 13.8375 21.156 13.6462 21.5037 13.2986C22.2187 12.5839 22.2187 11.4161 21.5037 10.6975Z" stroke="white" stroke-width="2" stroke-linejoin="round"/>
</svg>
