<svg width="25" height="24" viewBox="0 0 25 24" fill="none" xmlns="http://www.w3.org/2000/svg">
<path d="M21.5039 10.6975L13.3422 2.53896C12.9944 2.19137 12.5334 2 12.0411 2C11.5489 2 11.0878 2.19137 10.7401 2.53896L2.58226 10.6936C2.57836 10.6975 2.57836 10.6975 2.57445 10.7014C1.85947 11.42 1.86337 12.5839 2.57836 13.3025C2.90655 13.6305 3.33632 13.818 3.80125 13.8375C3.82079 13.8375 3.84032 13.8414 3.85986 13.8414H4.18414V19.8442C4.18414 21.0314 5.14917 22 6.34081 22H9.53284C9.85712 22 10.1189 21.7383 10.1189 21.4142V16.7042C10.1189 16.1613 10.5604 15.72 11.1035 15.72H12.9866C13.5297 15.72 13.9712 16.1613 13.9712 16.7042V21.4103C13.9712 21.7344 14.233 21.9961 14.5573 21.9961H17.7454C18.9331 21.9961 19.902 21.0314 19.902 19.8403V13.8375H20.2029C20.6952 13.8375 21.1562 13.6462 21.5039 13.2986C22.2189 12.5839 22.2189 11.4161 21.5039 10.6975Z" fill="white"/>
</svg>
