<svg width="25" height="25" viewBox="0 0 25 25" fill="none" xmlns="http://www.w3.org/2000/svg">
<g clip-path="url(#clip0_3807_1679)">
<path fill-rule="evenodd" clip-rule="evenodd" d="M10.154 1.88895C10.9242 0.0370116 13.5477 0.0370217 14.318 1.88895L16.4872 7.10433C16.4941 7.12094 16.5097 7.13229 16.5276 7.13373L22.1581 7.58512C24.1574 7.74541 24.9681 10.2405 23.4448 11.5453L19.155 15.22C19.1413 15.2317 19.1354 15.2501 19.1395 15.2676L20.4502 20.7619C20.9155 22.7129 18.7931 24.2549 17.0814 23.2094L12.261 20.2651C12.2456 20.2558 12.2263 20.2558 12.211 20.2651L7.39051 23.2094C5.67881 24.2549 3.55639 22.7129 4.02177 20.7619L5.33238 15.2676C5.33655 15.2501 5.33058 15.2317 5.31692 15.22L1.02711 11.5453C-0.496159 10.2405 0.314548 7.74541 2.31386 7.58512L7.9443 7.13373C7.96224 7.13229 7.97786 7.12094 7.98477 7.10433L10.154 1.88895ZM12.2032 2.71532C12.2026 2.71612 12.1978 2.72177 12.1917 2.73648L10.0225 7.95186C9.69774 8.73259 8.96353 9.26603 8.12067 9.3336L2.49022 9.78499C2.47434 9.78626 2.46749 9.78906 2.46653 9.78945C2.46527 9.78996 2.46489 9.79024 2.46427 9.79076C2.46214 9.79253 2.45398 9.80089 2.44843 9.81799C2.44287 9.83508 2.44456 9.84664 2.44524 9.84932C2.44544 9.8501 2.44558 9.85056 2.4463 9.85171C2.44685 9.8526 2.45074 9.85888 2.46284 9.86925L6.75265 13.5439C7.39482 14.094 7.67527 14.9571 7.47907 15.7796L6.16847 21.274C6.16477 21.2895 6.16531 21.2969 6.16539 21.2979C6.16549 21.2992 6.16564 21.2997 6.16593 21.3004C6.16696 21.303 6.17239 21.3134 6.18693 21.3239C6.20148 21.3345 6.21299 21.3365 6.21575 21.3366C6.21656 21.3367 6.21703 21.3367 6.21835 21.3364C6.21936 21.3361 6.22655 21.3344 6.24014 21.3261L11.0606 18.3817C11.7822 17.941 12.6897 17.941 13.4113 18.3817L18.2318 21.3261C18.2454 21.3344 18.2526 21.3361 18.2536 21.3364C18.2549 21.3367 18.2554 21.3367 18.2562 21.3366C18.2589 21.3365 18.2704 21.3345 18.285 21.3239C18.2995 21.3134 18.305 21.303 18.306 21.3004C18.3063 21.2997 18.3064 21.2992 18.3065 21.2979C18.3066 21.2969 18.3072 21.2895 18.3035 21.274L16.9929 15.7796C16.7967 14.9571 17.0771 14.094 17.7193 13.5439L22.0091 9.86925C22.0212 9.85888 22.0251 9.8526 22.0256 9.85171C22.0263 9.85056 22.0265 9.8501 22.0267 9.84932C22.0274 9.84664 22.0291 9.83508 22.0235 9.81798C22.0179 9.80089 22.0098 9.79253 22.0077 9.79076C22.007 9.79024 22.0067 9.78996 22.0054 9.78945C22.0044 9.78906 21.9976 9.78626 21.9817 9.78499L16.3513 9.3336C15.5084 9.26603 14.7742 8.73259 14.4495 7.95186L12.2803 2.73648C12.2741 2.72177 12.2694 2.71612 12.2687 2.71533C12.2678 2.71429 12.2674 2.71401 12.2668 2.71358C12.2644 2.7121 12.2539 2.70692 12.236 2.70692C12.218 2.70692 12.2075 2.7121 12.2052 2.71358C12.2049 2.71375 12.2047 2.7139 12.2044 2.71409C12.2041 2.71436 12.2037 2.71471 12.2032 2.71532Z" fill="white"/>
</g>
<defs>
<clipPath id="clip0_3807_1679">
<rect width="24" height="24" fill="white" transform="translate(0.235962 0.5)"/>
</clipPath>
</defs>
</svg>
