<svg width="25" height="25" viewBox="0 0 25 25" fill="none" xmlns="http://www.w3.org/2000/svg">
<g clip-path="url(#clip0_3807_1655)">
<path d="M11.0767 1.21993C11.4183 0.398636 12.5817 0.398636 12.9233 1.21993L15.4685 7.33923C15.6125 7.68547 15.9381 7.92204 16.3119 7.952L22.9182 8.48163C23.8048 8.55271 24.1644 9.65922 23.4888 10.2379L18.4555 14.5494C18.1707 14.7934 18.0464 15.1762 18.1334 15.5409L19.6711 21.9876C19.8775 22.8528 18.9363 23.5366 18.1772 23.073L12.5213 19.6184C12.2012 19.4229 11.7988 19.4229 11.4787 19.6184L5.82283 23.073C5.06373 23.5366 4.12248 22.8528 4.32887 21.9876L5.86662 15.5409C5.95363 15.1762 5.82926 14.7934 5.54447 14.5494L0.511165 10.2379C-0.164372 9.65922 0.195153 8.55271 1.08181 8.48163L7.68811 7.952C8.0619 7.92204 8.38751 7.68547 8.53152 7.33923L11.0767 1.21993Z" fill="white"/>
</g>
<defs>
<clipPath id="clip0_3807_1655">
<rect width="24" height="24" fill="white" transform="translate(0.235962 0.5)"/>
</clipPath>
</defs>
</svg>
