<svg width="36" height="37" viewBox="0 0 36 37" fill="none" xmlns="http://www.w3.org/2000/svg">
<path d="M11.6256 21.7263V28.7585C11.6256 29.1315 11.7592 29.4893 11.9971 29.753C12.2349 30.0168 12.5575 30.165 12.8938 30.165H25.576C25.9124 30.165 26.235 30.0168 26.4728 29.753C26.7106 29.4893 26.8443 29.1315 26.8443 28.7585V21.7263C26.8443 19.4882 26.0426 17.3418 24.6155 15.7592C23.1885 14.1767 21.2531 13.2876 19.2349 13.2876C17.2168 13.2876 15.2814 14.1767 13.8543 15.7592C12.4273 17.3418 11.6256 19.4882 11.6256 21.7263Z" fill="#FF7439"/>
<line x1="9.65955" y1="23.2129" x2="26.3443" y2="23.2129" stroke="#FCFCFC" stroke-linecap="round" stroke-linejoin="round"/>
<line x1="14.4772" y1="23.8359" x2="14.4772" y2="25.6138" stroke="#FCFCFC" stroke-width="2" stroke-linecap="round" stroke-linejoin="round"/>
<path d="M13.9568 11.6239V8.86926C13.9568 8.31698 13.5091 7.86926 12.9568 7.86926H11.5974C11.0451 7.86926 10.5974 8.31698 10.5974 8.86926V14.8058" stroke="#FCFCFC" stroke-linecap="round" stroke-linejoin="round"/>
<path d="M21.7693 11.3882V8.86926C21.7693 8.31698 22.217 7.86926 22.7693 7.86926H24.1287C24.6809 7.86926 25.1287 8.31698 25.1287 8.86926L25.1287 14.5701" stroke="#FCFCFC" stroke-linecap="round" stroke-linejoin="round"/>
<path d="M9.15576 20.3567V28.5303C9.15576 28.9638 9.31106 29.3796 9.5875 29.6862C9.86394 29.9927 10.2389 30.165 10.6298 30.165H25.3703C25.7612 30.165 26.1361 29.9927 26.4126 29.6862C26.689 29.3796 26.8443 28.9638 26.8443 28.5303V20.3567C26.8443 17.7554 25.9125 15.2607 24.2539 13.4213C22.5953 11.5819 20.3457 10.5485 18 10.5485C15.6544 10.5485 13.4048 11.5819 11.7462 13.4213C10.0876 15.2607 9.15576 17.7554 9.15576 20.3567Z" stroke="#FCFCFC" stroke-width="2" stroke-linecap="round" stroke-linejoin="round"/>
</svg>
