<svg width="36" height="37" viewBox="0 0 36 37" fill="none" xmlns="http://www.w3.org/2000/svg">
<path d="M9.15576 20.7294V28.9029C9.15576 29.3364 9.31106 29.7522 9.5875 30.0588C9.86394 30.3654 10.2389 30.5376 10.6298 30.5376H25.3703C25.7612 30.5376 26.1361 30.3654 26.4126 30.0588C26.689 29.7522 26.8443 29.3364 26.8443 28.9029V20.7294C26.8443 18.1281 25.9125 15.6333 24.2539 13.7939C22.5953 11.9545 20.3457 10.9211 18 10.9211C15.6544 10.9211 13.4048 11.9545 11.7462 13.7939C10.0876 15.6333 9.15576 18.1281 9.15576 20.7294Z" stroke="#716B7C" stroke-width="2" stroke-linecap="round" stroke-linejoin="round"/>
<line x1="9.65955" y1="23.5856" x2="26.3443" y2="23.5856" stroke="#716B7C" stroke-linecap="round" stroke-linejoin="round"/>
<line x1="14.4772" y1="24.2086" x2="14.4772" y2="25.9865" stroke="#716B7C" stroke-width="2" stroke-linecap="round" stroke-linejoin="round"/>
<path d="M13.9568 11.9966V9.24194C13.9568 8.68966 13.5091 8.24194 12.9568 8.24194H11.5974C11.0451 8.24194 10.5974 8.68966 10.5974 9.24194V15.1784" stroke="#716B7C" stroke-linecap="round" stroke-linejoin="round"/>
<path d="M21.7693 11.7609V9.24194C21.7693 8.68966 22.217 8.24194 22.7693 8.24194H24.1287C24.6809 8.24194 25.1287 8.68966 25.1287 9.24194L25.1287 14.9427" stroke="#716B7C" stroke-linecap="round" stroke-linejoin="round"/>
</svg>
