<svg width="36" height="37" viewBox="0 0 36 37" fill="none" xmlns="http://www.w3.org/2000/svg">
<path d="M18.4735 9.03078L9.95603 14.274C9.66035 14.456 9.48025 14.7783 9.48025 15.1255L9.48022 23.7544C9.48022 24.1054 9.66417 24.4306 9.9649 24.6114L18.4666 29.7236C18.7914 29.9189 19.1988 29.9138 19.5186 29.7103L28.0474 24.285C28.3359 24.1014 28.5107 23.7832 28.5107 23.4412L28.5105 15.0994C28.5105 14.7515 28.3308 14.4293 28.0342 14.2475L19.518 9.02839C19.1968 8.83152 18.7943 8.83327 18.4735 9.03078Z" fill="#C640CD"/>
<path d="M18.0013 19.3031L7.25012 12.9399" stroke="#FCFCFC" stroke-linejoin="round"/>
<path d="M18.0013 30.4235V19.2516" stroke="#FCFCFC" stroke-linejoin="round"/>
<path d="M18.0013 19.3031L28.75 12.9399" stroke="#FCFCFC" stroke-linejoin="round"/>
<path d="M17.4782 6.64358L7.72581 12.6469C7.43013 12.829 7.25003 13.1513 7.25003 13.4985L7.25 23.3931C7.25 23.744 7.43394 24.0692 7.73468 24.2501L17.4713 30.1048C17.7961 30.3001 18.2035 30.295 18.5233 30.0916L28.2867 23.8808C28.5753 23.6973 28.75 23.379 28.75 23.0371L28.7499 13.4689C28.7499 13.121 28.5699 12.7986 28.2733 12.6168L18.5213 6.64034C18.2001 6.44347 17.799 6.44606 17.4782 6.64358Z" stroke="#FCFCFC" stroke-width="2" stroke-linejoin="round"/>
</svg>
