<svg width="36" height="36" viewBox="0 0 36 36" fill="none" xmlns="http://www.w3.org/2000/svg">
<path d="M17.4782 6.27102L7.72581 12.2744C7.43013 12.4564 7.25003 12.7788 7.25003 13.126L7.25 23.0205C7.25 23.3714 7.43394 23.6967 7.73468 23.8775L17.4713 29.7322C17.7961 29.9276 18.2035 29.9224 18.5233 29.719L28.2867 23.5083C28.5753 23.3247 28.75 23.0065 28.75 22.6645L28.7499 13.0963C28.7499 12.7484 28.5699 12.426 28.2733 12.2442L18.5213 6.26778C18.2001 6.07091 17.799 6.0735 17.4782 6.27102Z" stroke="#716B7C" stroke-width="2" stroke-linejoin="round"/>
<path d="M18.0013 18.9302L7.25012 12.567" stroke="#716B7C" stroke-width="1.06891" stroke-linejoin="round"/>
<path d="M18.0013 30.0508V18.879" stroke="#716B7C" stroke-width="1.06891" stroke-linejoin="round"/>
<path d="M18.0013 18.9302L28.75 12.567" stroke="#716B7C" stroke-linejoin="round"/>
</svg>
