<svg width="36" height="37" viewBox="0 0 36 37" fill="none" xmlns="http://www.w3.org/2000/svg">
<path d="M18.5136 14.3333L22.0435 12.6186C22.323 12.4828 22.6496 12.4846 22.9275 12.6235L28.947 15.6313C29.2859 15.8006 29.5 16.1469 29.5 16.5258V27.9226C29.5 28.6466 28.7546 29.1306 28.0932 28.8361L22.8936 26.5203C22.6346 26.405 22.3389 26.405 22.0799 26.5203L15.8802 29.2815C15.6213 29.3968 15.3255 29.3968 15.0665 29.2815L9.05324 26.6033C8.69249 26.4426 8.46008 26.0847 8.46008 25.6898V19.9728" stroke="#716B7C" stroke-width="2" stroke-linejoin="round"/>
<line x1="22.4395" y1="12.5809" x2="22.4395" y2="26.8039" stroke="#716B7C" stroke-linejoin="round"/>
<path d="M15.3784 20.5789L15.3784 29.4625" stroke="#716B7C" stroke-linejoin="round"/>
<path d="M10.5119 22.6737C11.3517 23.6645 12.8614 23.6645 13.7013 22.6737C14.4939 21.7385 15.7191 20.2202 16.7516 18.6196C17.2677 17.8195 17.7485 16.9792 18.1032 16.1665C18.4511 15.3691 18.7131 14.5197 18.7131 13.7234C18.7131 10.0404 15.7701 7.02783 12.1066 7.02783C8.44307 7.02783 5.5 10.0404 5.5 13.7234C5.5 14.5197 5.76199 15.3691 6.10997 16.1665C6.46467 16.9792 6.94544 17.8195 7.46153 18.6196C8.49401 20.2202 9.71919 21.7385 10.5119 22.6737Z" stroke="#716B7C" stroke-width="2"/>
<path fill-rule="evenodd" clip-rule="evenodd" d="M12.1054 15.7365C13.2001 15.7365 14.0876 14.8349 14.0876 13.7228C14.0876 12.6107 13.2001 11.7092 12.1054 11.7092C11.0106 11.7092 10.1232 12.6107 10.1232 13.7228C10.1232 14.8349 11.0106 15.7365 12.1054 15.7365Z" fill="#716B7C"/>
</svg>
