<svg width="36" height="37" viewBox="0 0 36 37" fill="none" xmlns="http://www.w3.org/2000/svg">
<path d="M15.3675 29.0898L10.8768 26.9093V24.4644C10.8768 24.4644 12.6564 26.1226 14.4805 24.4644C16.3045 22.8062 20.1908 16.3702 20.1908 16.3702L22.4638 15.2059L29.4999 18.4769V29.0898L22.4638 25.9058L15.3675 29.0898Z" fill="#FF2D55"/>
<path fill-rule="evenodd" clip-rule="evenodd" d="M11.514 22.3697C11.9538 22.8899 12.7393 22.8899 13.1791 22.3697C14.6865 20.5869 17.7132 16.7255 17.7132 14.4643C17.7132 11.4534 15.3104 9.01257 12.3466 9.01257C9.38268 9.01257 6.97998 11.4534 6.97998 14.4643C6.97998 16.7255 10.0066 20.5869 11.514 22.3697Z" fill="#FF2D55"/>
<line x1="22.4395" y1="12.2083" x2="22.4395" y2="26.4312" stroke="#FCFCFC" stroke-linejoin="round"/>
<path d="M15.4717 19.9083L15.4717 29.0898" stroke="#FCFCFC" stroke-linejoin="round"/>
<path d="M18.2738 14.1004L22.042 12.2491C22.3222 12.1114 22.6507 12.1125 22.93 12.252L28.947 15.2586C29.2859 15.4279 29.5 15.7743 29.5 16.1531V27.5499C29.5 28.2739 28.7546 28.758 28.0932 28.4634L22.8936 26.1476C22.6346 26.0323 22.3389 26.0323 22.0799 26.1476L15.8802 28.9088C15.6213 29.0241 15.3255 29.0241 15.0665 28.9088L9.05324 26.2306C8.69249 26.0699 8.46008 25.712 8.46008 25.3171V19.4039" stroke="#FCFCFC" stroke-width="2" stroke-linejoin="round"/>
<path d="M10.5119 22.301C11.3517 23.2918 12.8614 23.2918 13.7013 22.301C14.4939 21.3658 15.7191 19.8476 16.7516 18.2469C17.2677 17.4468 17.7485 16.6065 18.1032 15.7938C18.4511 14.9964 18.7131 14.147 18.7131 13.3507C18.7131 9.66776 15.7701 6.65515 12.1066 6.65515C8.44307 6.65515 5.5 9.66776 5.5 13.3507C5.5 14.147 5.76199 14.9964 6.10997 15.7938C6.46467 16.6065 6.94545 17.4468 7.46153 18.2469C8.49401 19.8476 9.71919 21.3658 10.5119 22.301Z" stroke="#FCFCFC" stroke-width="2"/>
<path fill-rule="evenodd" clip-rule="evenodd" d="M12.1054 15.3638C13.2001 15.3638 14.0876 14.4623 14.0876 13.3501C14.0876 12.238 13.2001 11.3365 12.1054 11.3365C11.0106 11.3365 10.1232 12.238 10.1232 13.3501C10.1232 14.4623 11.0106 15.3638 12.1054 15.3638Z" fill="#FCFCFC"/>
</svg>
