<svg width="36" height="37" viewBox="0 0 36 37" fill="none" xmlns="http://www.w3.org/2000/svg">
<path d="M18.4361 28.7705C18.5128 28.8008 18.5946 28.8163 18.6771 28.8161C18.824 28.8152 18.9662 28.7647 19.0808 28.6728L23.0431 25.3616C23.1199 25.301 23.182 25.2238 23.2248 25.1359C23.2676 25.048 23.2901 24.9515 23.2906 24.8537V19.9115L25.7519 17.4566C26.4193 16.793 27.2555 16.0034 27.6155 15.1338C27.9754 14.2642 28.4008 13.3592 28.3976 12.418V11.0342C28.3976 10.6888 28.0929 10.2256 27.8486 9.98137C24.1257 8.89824 21.4253 11.4118 20.1716 12.6725L17.7168 15.1338H12.774C12.6756 15.1351 12.5788 15.1585 12.4909 15.2025C12.4029 15.2465 12.326 15.3098 12.2661 15.3878L10.0118 18.0488C9.93916 18.1389 9.8918 18.2467 9.87464 18.3612C9.85747 18.4756 9.87111 18.5926 9.91417 18.7C9.95669 18.8067 10.0267 18.9002 10.117 18.9711C10.2074 19.042 10.3149 19.0878 10.4286 19.1037L12.4909 19.9115L15.0776 21.4009L16.5018 24.5789L18.0324 28.2561C18.0484 28.3698 18.0941 28.4773 18.165 28.5676C18.2359 28.658 18.3295 28.728 18.4361 28.7705Z" fill="#FFA25A"/>
<path d="M18.4844 29.0681C18.5748 29.1039 18.6712 29.1221 18.7685 29.1219C18.9416 29.1208 19.1094 29.0613 19.2445 28.9529L23.0835 25.8817C23.174 25.8102 23.2472 25.7192 23.2977 25.6156C23.3483 25.5119 23.3748 25.3981 23.3753 25.2828V19.4552L26.2776 16.5605C27.0645 15.778 27.6883 14.8471 28.1127 13.8216C28.5371 12.7962 28.7537 11.6968 28.7499 10.587V9.15889C28.7499 8.75162 28.5882 8.36103 28.3002 8.07305C28.0122 7.78506 27.6216 7.62328 27.2143 7.62328H25.7862C24.6764 7.61954 23.577 7.83615 22.5516 8.26055C21.5262 8.68495 20.5952 9.30869 19.8127 10.0956L16.918 12.9979H11.0904C10.9744 12.9994 10.8603 13.0271 10.7566 13.0789C10.6529 13.1308 10.5622 13.2055 10.4915 13.2974L7.42028 17.1364C7.33458 17.2426 7.27874 17.3697 7.2585 17.5047C7.23825 17.6396 7.25434 17.7775 7.30511 17.9042C7.35525 18.03 7.43778 18.1403 7.5443 18.2239C7.65083 18.3075 7.77757 18.3614 7.91168 18.3802L14.9771 21.7014L18.0083 28.4615C18.0271 28.5956 18.0811 28.7224 18.1647 28.8289C18.2483 28.9354 18.3586 29.018 18.4844 29.0681Z" stroke="#FCFCFC" stroke-width="2" stroke-linecap="round" stroke-linejoin="round"/>
<circle cx="1.36817" cy="1.36817" r="1.36817" transform="matrix(-0.707107 0.707107 0.707107 0.707107 24.6108 9.85046)" fill="#FCFCFC"/>
<line x1="18.2571" y1="18.265" x2="12.4273" y2="24.0947" stroke="#FCFCFC" stroke-width="2" stroke-linecap="round" stroke-linejoin="round"/>
<line x1="16.7042" y1="25.1355" x2="13.0528" y2="28.787" stroke="#FCFCFC" stroke-linecap="round" stroke-linejoin="round"/>
<line x1="11.6086" y1="19.6697" x2="7.95718" y2="23.3212" stroke="#FCFCFC" stroke-linecap="round" stroke-linejoin="round"/>
</svg>
