<svg width="36" height="37" viewBox="0 0 36 37" fill="none" xmlns="http://www.w3.org/2000/svg">
<path d="M18.4844 29.4408C18.5748 29.4765 18.6712 29.4948 18.7685 29.4945C18.9416 29.4935 19.1094 29.434 19.2445 29.3256L23.0835 26.2544C23.174 26.1829 23.2472 26.0919 23.2977 25.9882C23.3483 25.8846 23.3748 25.7708 23.3753 25.6555V19.8279L26.2776 16.9332C27.0645 16.1507 27.6883 15.2197 28.1127 14.1943C28.5371 13.1689 28.7537 12.0695 28.7499 10.9597V9.53157C28.7499 9.1243 28.5882 8.73371 28.3002 8.44573C28.0122 8.15775 27.6216 7.99596 27.2143 7.99596H25.7862C24.6764 7.99222 23.577 8.20883 22.5516 8.63323C21.5262 9.05763 20.5952 9.68137 19.8127 10.4683L16.918 13.3706H11.0904C10.9744 13.372 10.8603 13.3997 10.7566 13.4516C10.6529 13.5035 10.5622 13.5781 10.4915 13.67L7.42028 17.5091C7.33458 17.6153 7.27874 17.7424 7.2585 17.8774C7.23825 18.0123 7.25434 18.1502 7.30511 18.2769C7.35525 18.4027 7.43778 18.513 7.5443 18.5966C7.65083 18.6802 7.77757 18.7341 7.91168 18.7529L14.9771 22.0741L18.0083 28.8342C18.0271 28.9683 18.0811 29.0951 18.1647 29.2016C18.2483 29.3081 18.3586 29.3906 18.4844 29.4408Z" stroke="#716B7C" stroke-width="2" stroke-linecap="round" stroke-linejoin="round"/>
<circle cx="1.36817" cy="1.36817" r="1.36817" transform="matrix(-0.707107 0.707107 0.707107 0.707107 24.6108 10.2231)" fill="#716B7C"/>
<line x1="18.2571" y1="18.6377" x2="12.4273" y2="24.4674" stroke="#716B7C" stroke-width="2" stroke-linecap="round" stroke-linejoin="round"/>
<line x1="16.7042" y1="25.5082" x2="13.0528" y2="29.1597" stroke="#716B7C" stroke-linecap="round" stroke-linejoin="round"/>
<line x1="11.6086" y1="20.0424" x2="7.95718" y2="23.6938" stroke="#716B7C" stroke-linecap="round" stroke-linejoin="round"/>
</svg>
