<svg width="36" height="37" viewBox="0 0 36 37" fill="none" xmlns="http://www.w3.org/2000/svg">
<path d="M28.8726 17.5602L28.8753 17.5578C29.3322 17.1551 29.632 16.6039 29.7218 16.0015C29.811 15.4027 29.687 14.7918 29.3716 14.2753L27.5116 11.1228C27.2853 10.7327 26.9608 10.4087 26.5704 10.183C26.1793 9.95696 25.7359 9.83747 25.2843 9.83643C25.0048 9.83464 24.7269 9.87824 24.4614 9.96554L24.4614 9.96551L24.454 9.968L22.9819 10.4648C22.8892 10.4097 22.7956 10.3561 22.7012 10.304L22.3934 8.78302C22.3932 8.78235 22.3931 8.78168 22.3929 8.78101C22.2746 8.1875 21.9515 7.65441 21.48 7.27489C21.0108 6.89718 20.4244 6.69548 19.8223 6.70451H16.1378C15.5358 6.69548 14.9494 6.89718 14.4801 7.27488C14.0087 7.65443 13.6855 8.18756 13.5672 8.78111C13.567 8.78175 13.5669 8.78239 13.5668 8.78302L13.2593 10.3022C13.1667 10.3529 13.0748 10.405 12.9838 10.4586L11.5578 9.94339C11.529 9.93298 11.4998 9.9239 11.4701 9.91618C11.2115 9.8488 10.9441 9.822 10.6774 9.83667C10.2362 9.84284 9.80374 9.96198 9.42143 10.183C9.03098 10.4087 8.7065 10.7327 8.48024 11.1227L6.61585 14.2827L6.61583 14.2827L6.61287 14.2878C6.31156 14.8054 6.1996 15.4117 6.29615 16.0028C6.39206 16.5899 6.68778 17.1258 7.13311 17.5199L8.29615 18.5845V18.9052L7.14264 19.9305C6.68364 20.3276 6.37912 20.8738 6.28274 21.4732C6.18614 22.0741 6.30489 22.6897 6.61794 23.2114L8.48023 26.3678C8.70649 26.7579 9.03098 27.0819 9.42142 27.3076C9.81244 27.5336 10.2559 27.6531 10.7075 27.6541C10.9869 27.6559 11.2648 27.6123 11.5303 27.525L11.5303 27.525L11.5377 27.5225L13.0099 27.0258C13.1026 27.0809 13.1962 27.1345 13.2906 27.1865L13.5984 28.7075C13.5985 28.7081 13.5987 28.7088 13.5988 28.7094C13.7172 29.303 14.0403 29.8361 14.5118 30.2157C14.981 30.5934 15.5674 30.7951 16.1695 30.786H19.8856C20.4876 30.7951 21.074 30.5934 21.5433 30.2157C22.0148 29.8361 22.3379 29.3029 22.4563 28.7093C22.4564 28.7087 22.4565 28.7081 22.4566 28.7075L22.7641 27.1884C22.8604 27.1357 22.9559 27.0814 23.0505 27.0255L24.5161 27.5221L24.5161 27.5222L24.5247 27.525C24.7902 27.6123 25.0681 27.6559 25.3476 27.6541C25.7992 27.6531 26.2426 27.5336 26.6336 27.3076C27.0256 27.081 27.3511 26.7553 27.5775 26.3632L27.5802 26.3584L29.3815 23.1982C29.6809 22.6816 29.7919 22.0771 29.6956 21.4877C29.5997 20.9006 29.304 20.3647 28.8587 19.9706L27.6956 18.906V18.5901L28.8726 17.5602Z" stroke="#716B7C" stroke-width="2" stroke-linejoin="round"/>
<path d="M17.9959 23.4905C17.0574 23.4905 16.1399 23.2122 15.3596 22.6908C14.5792 22.1693 13.971 21.4282 13.6118 20.5611C13.2527 19.694 13.1587 18.7399 13.3418 17.8194C13.5249 16.8989 13.9768 16.0534 14.6405 15.3897C15.3041 14.7261 16.1497 14.2742 17.0702 14.0911C17.9907 13.908 18.9448 14.0019 19.8119 14.3611C20.679 14.7203 21.4201 15.3285 21.9415 16.1088C22.4629 16.8892 22.7412 17.8067 22.7412 18.7452C22.7476 19.3701 22.6292 19.99 22.3929 20.5686C22.1567 21.1472 21.8074 21.6729 21.3655 22.1148C20.9236 22.5567 20.3979 22.906 19.8194 23.1422C19.2408 23.3784 18.6208 23.4968 17.9959 23.4905Z" stroke="#716B7C" stroke-linecap="round" stroke-linejoin="round"/>
</svg>
