<svg width="36" height="37" viewBox="0 0 36 37" fill="none" xmlns="http://www.w3.org/2000/svg">
<path fill-rule="evenodd" clip-rule="evenodd" d="M26.8286 18.5178V19.6496L28.2266 20.9292C28.4847 21.1554 28.6561 21.4644 28.7114 21.8031C28.7667 22.1418 28.7026 22.4892 28.5299 22.7858L26.8434 25.7445C26.7137 25.9692 26.5272 26.1558 26.3026 26.2856C26.078 26.4155 25.8232 26.4839 25.5638 26.4842C25.403 26.4854 25.2431 26.4605 25.0904 26.4102L23.3004 25.8037C22.9875 26.01 22.6613 26.1953 22.324 26.3585L21.9467 28.2225C21.8791 28.563 21.6938 28.8689 21.4234 29.0866C21.1529 29.3043 20.8145 29.42 20.4674 29.4133H16.9761C16.6289 29.42 16.2905 29.3043 16.0201 29.0866C15.7496 28.8689 15.5644 28.563 15.4967 28.2225L15.1195 26.3585C14.7845 26.1952 14.4608 26.0099 14.1505 25.8037L12.3531 26.4102C12.2003 26.4605 12.0404 26.4854 11.8797 26.4842C11.6203 26.4839 11.3655 26.4155 11.1409 26.2856C10.9163 26.1558 10.7297 25.9692 10.6 25.7445L8.85438 22.7858C8.67382 22.4863 8.60521 22.1325 8.66073 21.7872C8.71625 21.4419 8.8923 21.1274 9.15765 20.8996L10.5556 19.6569V18.5252L9.15765 17.2456C8.89959 17.0193 8.72822 16.7104 8.6729 16.3717C8.61757 16.033 8.68173 15.6856 8.85438 15.389L10.6 12.4303C10.7297 12.2056 10.9163 12.019 11.1409 11.8892C11.3655 11.7593 11.6203 11.6908 11.8797 11.6906C12.0388 11.6798 12.1987 11.6947 12.3531 11.735L14.1135 12.3711C14.4264 12.1648 14.7526 11.9795 15.0899 11.8163L15.4671 9.95233C15.5348 9.61178 15.72 9.30588 15.9905 9.08816C16.2609 8.87044 16.5994 8.75479 16.9465 8.76144H20.4082C20.7553 8.75479 21.0938 8.87044 21.3642 9.08816C21.6347 9.30588 21.8199 9.61178 21.8876 9.95233L22.2648 11.8163C22.5997 11.9795 22.9235 12.1649 23.2338 12.3711L25.0312 11.7645C25.1839 11.7143 25.3438 11.6893 25.5046 11.6906C25.764 11.6908 26.0188 11.7593 26.2434 11.8892C26.468 12.019 26.6545 12.2056 26.7843 12.4303L28.5299 15.389C28.713 15.686 28.7853 16.0383 28.7338 16.3834C28.6824 16.7286 28.5106 17.0444 28.2488 17.2752L26.8286 18.5178ZM15.3595 22.3367C16.1399 22.8581 17.0574 23.1364 17.9959 23.1364C18.6208 23.1428 19.2407 23.0244 19.8193 22.7881C20.3979 22.5519 20.9236 22.2026 21.3655 21.7607C21.8074 21.3188 22.1567 20.7931 22.3929 20.2145C22.6291 19.6359 22.7475 19.016 22.7412 18.3911C22.7412 17.4526 22.4629 16.5351 21.9415 15.7548C21.42 14.9744 20.6789 14.3662 19.8118 14.007C18.9447 13.6478 17.9906 13.5539 17.0701 13.737C16.1496 13.9201 15.3041 14.372 14.6404 15.0357C13.9768 15.6993 13.5249 16.5448 13.3418 17.4653C13.1587 18.3858 13.2526 19.34 13.6118 20.2071C13.9709 21.0741 14.5792 21.8153 15.3595 22.3367Z" fill="#691FA9"/>
<path d="M28.8726 17.1875L28.8753 17.1851C29.3322 16.7824 29.632 16.2312 29.7218 15.6288C29.811 15.03 29.687 14.4191 29.3716 13.9026L27.5116 10.7501C27.2853 10.36 26.9608 10.036 26.5704 9.81029C26.1793 9.58428 25.7359 9.46479 25.2843 9.46374C25.0048 9.46196 24.7269 9.50556 24.4614 9.59286L24.4614 9.59283L24.454 9.59532L22.9819 10.0921C22.8892 10.037 22.7956 9.98341 22.7012 9.93134L22.3934 8.41034C22.3932 8.40967 22.3931 8.409 22.3929 8.40833C22.2746 7.81482 21.9515 7.28173 21.48 6.9022C21.0108 6.52449 20.4244 6.3228 19.8223 6.33183H16.1378C15.5358 6.3228 14.9494 6.52449 14.4801 6.9022C14.0087 7.28175 13.6855 7.81488 13.5672 8.40843C13.567 8.40907 13.5669 8.4097 13.5668 8.41034L13.2593 9.92948C13.1667 9.98019 13.0748 10.0324 12.9838 10.086L11.5578 9.57071C11.529 9.5603 11.4998 9.55122 11.4701 9.5435C11.2115 9.47612 10.9441 9.44932 10.6774 9.46399C10.2362 9.47016 9.80374 9.5893 9.42143 9.81029C9.03098 10.036 8.7065 10.36 8.48024 10.75L6.61585 13.91L6.61583 13.91L6.61287 13.9151C6.31156 14.4327 6.1996 15.039 6.29615 15.6301C6.39206 16.2173 6.68778 16.7531 7.13311 17.1473L8.29615 18.2118V18.5325L7.14264 19.5578C6.68364 19.9549 6.37912 20.5011 6.28274 21.1005C6.18614 21.7014 6.30489 22.317 6.61794 22.8387L8.48023 25.9951C8.70649 26.3852 9.03098 26.7092 9.42142 26.9349C9.81244 27.1609 10.2559 27.2804 10.7075 27.2814C10.9869 27.2832 11.2648 27.2396 11.5303 27.1523L11.5303 27.1524L11.5377 27.1499L13.0099 26.6531C13.1026 26.7082 13.1962 26.7618 13.2906 26.8138L13.5984 28.3348C13.5985 28.3355 13.5987 28.3361 13.5988 28.3367C13.7172 28.9303 14.0403 29.4634 14.5118 29.843C14.981 30.2207 15.5674 30.4224 16.1695 30.4133H19.8856C20.4876 30.4224 21.074 30.2207 21.5433 29.843C22.0148 29.4634 22.3379 28.9302 22.4563 28.3366C22.4564 28.336 22.4565 28.3354 22.4566 28.3348L22.7641 26.8157C22.8604 26.763 22.9559 26.7087 23.0505 26.6528L24.5161 27.1495L24.5161 27.1495L24.5247 27.1523C24.7902 27.2396 25.0681 27.2832 25.3476 27.2814C25.7992 27.2804 26.2426 27.1609 26.6336 26.9349C27.0256 26.7083 27.3511 26.3826 27.5775 25.9906L27.5802 25.9858L29.3815 22.8256C29.6809 22.3089 29.7919 21.7044 29.6956 21.1151C29.5997 20.5279 29.304 19.9921 28.8587 19.5979L27.6956 18.5333V18.2174L28.8726 17.1875Z" stroke="#FCFCFC" stroke-width="2" stroke-linejoin="round"/>
<path d="M17.9959 23.1178C17.0574 23.1178 16.1399 22.8395 15.3596 22.3181C14.5792 21.7967 13.971 21.0556 13.6118 20.1885C13.2527 19.3214 13.1587 18.3672 13.3418 17.4467C13.5249 16.5262 13.9768 15.6807 14.6405 15.0171C15.3041 14.3534 16.1497 13.9015 17.0702 13.7184C17.9907 13.5353 18.9448 13.6293 19.8119 13.9884C20.679 14.3476 21.4201 14.9558 21.9415 15.7362C22.4629 16.5165 22.7412 17.434 22.7412 18.3725C22.7476 18.9974 22.6292 19.6173 22.3929 20.1959C22.1567 20.7745 21.8074 21.3002 21.3655 21.7421C20.9236 22.184 20.3979 22.5333 19.8194 22.7695C19.2408 23.0058 18.6208 23.1242 17.9959 23.1178Z" stroke="#FCFCFC" stroke-linecap="round" stroke-linejoin="round"/>
</svg>
