<svg width="40" height="40" viewBox="0 0 40 40" fill="none" xmlns="http://www.w3.org/2000/svg">
<path d="M21.845 11.7429C22.6709 11.7429 23.431 11.8549 24.1255 12.0791C26.1871 12.8078 26.5678 14.2144 26.9024 15.7374L28.4857 24.3661C28.4857 25.5 26.5 26 25.7934 24.3661L24.1255 16.3307C24.1255 16.3307 24.1255 29.6872 24.1255 35.635C24.1255 37.4854 20.3735 37.4373 20.3735 35.5955L20.3735 24.745C20.3735 24.1114 19.2707 24.1114 19.2707 24.745C19.2707 29.4384 19.327 30.9022 19.327 35.5955C19.327 37.4132 15.5592 37.317 15.5592 35.635C15.5592 30.8458 15.5592 16.3307 15.5592 16.3307L13.8429 24.3661C13.8429 25.748 11 25.7375 11 24.3661L12.833 15.7374C13.107 14.1663 13.6436 12.7775 15.4796 12.0791C16.0803 11.8549 16.4456 11.7429 17.309 11.7429L21.845 11.7429Z" fill="#FCFCFC"/>
<path d="M19.7428 10.7714C21.8889 10.7714 23.6286 9.03172 23.6286 6.8857C23.6286 4.7397 21.8889 3 19.7428 3C17.5968 3 15.8571 4.7397 15.8571 6.8857C15.8571 9.03172 17.5968 10.7714 19.7428 10.7714Z" fill="#FCFCFC"/>
</svg>
