<svg width="40" height="40" viewBox="0 0 40 40" fill="none" xmlns="http://www.w3.org/2000/svg">
<path d="M28.3431 10.6697C28.5194 10.2898 29.0539 10.2898 29.2302 10.6697L31.0663 14.6265C31.1357 14.7761 31.2744 14.8808 31.436 14.9057L35.5835 15.5454C35.9777 15.6062 36.1387 16.0923 35.8602 16.3808L32.8292 19.5199C32.7206 19.6324 32.6713 19.7903 32.6962 19.9454L33.4061 24.3541C33.4718 24.7621 33.0433 25.067 32.6854 24.867L29.0237 22.8197C28.8762 22.7373 28.6971 22.7373 28.5496 22.8197L24.8847 24.8671C24.5267 25.0671 24.0982 24.7618 24.1642 24.3538L24.8769 19.9455C24.902 19.7903 24.8526 19.6323 24.744 19.5198L21.7131 16.3808C21.4345 16.0923 21.5955 15.6062 21.9898 15.5454L26.1373 14.9057C26.2989 14.8808 26.4375 14.7761 26.507 14.6265L28.3431 10.6697Z" fill="#FCFCFC"/>
<path d="M12.496 15.2191C12.6723 14.8392 13.2068 14.8392 13.3831 15.2191L15.7524 20.3249C15.8218 20.4745 15.9605 20.5793 16.122 20.6042L21.4625 21.4278C21.8568 21.4886 22.0178 21.9747 21.7392 22.2632L17.8451 26.2963C17.7365 26.4087 17.6872 26.5666 17.7122 26.7217L18.6254 32.3931C18.6911 32.8011 18.2625 33.1061 17.9047 32.906L13.1766 30.2626C13.0291 30.1801 12.85 30.1801 12.7024 30.2625L7.97037 32.9061C7.61239 33.1061 7.18392 32.8008 7.24988 32.3928L8.16666 26.7219C8.19175 26.5667 8.14243 26.4087 8.03377 26.2961L4.13983 22.2632C3.86126 21.9747 4.02227 21.4886 4.41654 21.4278L9.75699 20.6042C9.91858 20.5793 10.0572 20.4745 10.1266 20.3249L12.496 15.2191Z" fill="#FCFCFC"/>
<circle cx="12.8933" cy="13.3084" r="2.26051" fill="#FCFCFC"/>
<circle cx="28.8366" cy="8.87661" r="1.84439" fill="#FCFCFC"/>
</svg>
