<svg width="40" height="40" viewBox="0 0 40 40" fill="none" xmlns="http://www.w3.org/2000/svg">
<path d="M19.5 14.75C19.0032 14.7578 18.51 14.8367 18.0356 14.9844C18.2551 15.3703 18.3719 15.8061 18.375 16.25C18.375 16.5947 18.3071 16.9361 18.1752 17.2546C18.0433 17.573 17.8499 17.8624 17.6062 18.1062C17.3624 18.3499 17.073 18.5433 16.7545 18.6752C16.4361 18.8071 16.0947 18.875 15.75 18.875C15.306 18.8719 14.8703 18.7551 14.4844 18.5356C14.1799 19.5916 14.2154 20.7167 14.5858 21.7514C14.9562 22.7861 15.6428 23.678 16.5484 24.3008C17.4539 24.9236 18.5324 25.2458 19.6311 25.2215C20.7299 25.1973 21.7932 24.828 22.6704 24.1659C23.5476 23.5039 24.1942 22.5826 24.5188 21.5325C24.8433 20.4825 24.8292 19.357 24.4785 18.3155C24.1278 17.2739 23.4582 16.3691 22.5647 15.7292C21.6712 15.0892 20.599 14.7467 19.5 14.75ZM32.8369 19.3156C30.2949 14.3558 25.2624 11 19.5 11C13.7376 11 8.70373 14.3581 6.1631 19.3161C6.05587 19.5282 6 19.7626 6 20.0003C6 20.2379 6.05587 20.4723 6.1631 20.6844C8.70514 25.6442 13.7376 29 19.5 29C25.2624 29 30.2963 25.6419 32.8369 20.6839C32.9441 20.4718 33 20.2375 33 19.9998C33 19.7621 32.9441 19.5278 32.8369 19.3156ZM19.5 26.75C14.8758 26.75 10.6364 24.1719 8.34701 20C10.6364 15.8281 14.8753 13.25 19.5 13.25C24.1247 13.25 28.3636 15.8281 30.653 20C28.3641 24.1719 24.1247 26.75 19.5 26.75Z" fill="#FCFCFC"/>
</svg>
