<svg width="40" height="40" viewBox="0 0 40 40" fill="none" xmlns="http://www.w3.org/2000/svg">
<path d="M28.4792 28H16.5209C16.2332 28 16 28.3596 16 28.8033V32.1967C16 32.6404 16.2332 33 16.5209 33H28.4792C28.7668 33 29 32.6404 29 32.1967V28.8033C29 28.3596 28.7668 28 28.4792 28Z" fill="white"/>
<path d="M22.3484 7C16.3024 7 14.5458 8.38894 14.5458 13.1787C14.5458 13.1889 14.5458 13.1991 14.5458 13.2094C14.5458 16.794 15.5978 18.6119 17.6812 18.6119C18.0999 18.6119 18.4471 18.9591 18.4471 19.3779C18.4471 19.7966 18.0999 20.1438 17.6812 20.1438C16.1084 20.1438 13.5858 19.4085 13.0956 14.8332C13.0241 14.1898 12.4012 13.7098 11.7782 13.8834C11.6352 13.9243 11.4922 13.9753 11.3595 14.0366C10.9612 14.2204 10.4403 14.5881 10.2156 15.2519C9.56201 17.1821 10.1646 23.1464 15.2709 26.1898C15.4446 26.2919 15.6386 26.343 15.8429 26.343H28.2207C28.6599 26.343 29.048 26.0877 29.2216 25.6894C29.9978 23.8409 30.9475 20.3174 30.9475 15.5072C30.9271 8.2766 28.1595 7 22.3484 7Z" fill="white"/>
</svg>
