<svg width="40" height="40" viewBox="0 0 40 40" fill="none" xmlns="http://www.w3.org/2000/svg">
<path d="M36 21.8165V22.7221C35.9919 22.7015 35.9837 22.6808 35.9749 22.6582C35.9618 22.7804 35.9549 22.9006 35.9361 23.0183C35.8334 23.6521 35.6136 24.244 35.2729 24.787C34.8157 25.5147 34.237 26.1347 33.5569 26.6602C32.8179 27.2314 32.03 27.7224 31.1789 28.1138C30.4768 28.4369 29.7616 28.725 29.0282 28.9674C27.9974 29.3081 26.9471 29.5699 25.8805 29.7722C25.0851 29.9231 24.2848 30.0402 23.48 30.1223C22.9777 30.1736 22.4748 30.2175 21.9706 30.2482C21.4508 30.2795 20.9304 30.2995 20.4099 30.3089C19.587 30.3239 18.7641 30.3026 17.943 30.2469C17.3775 30.2087 16.812 30.1599 16.2477 30.1004C15.8469 30.0578 15.4485 29.9926 15.0502 29.9319C14.2041 29.8029 13.3661 29.6319 12.5363 29.4215C11.7222 29.2148 10.9199 28.9693 10.1345 28.6699C9.05482 28.2585 8.01957 27.7599 7.05948 27.1117C6.46326 26.7097 5.9115 26.2569 5.43303 25.7189C4.94703 25.1728 4.53306 24.5828 4.2863 23.8864C4.02514 23.1474 3.92682 22.3939 4.05771 21.6155C4.14852 21.075 4.31261 20.5602 4.58504 20.0836C5.07479 19.2268 5.728 18.516 6.51148 17.9167C7.30123 17.3129 8.1536 16.8163 9.06045 16.4161C9.62348 16.1674 10.2028 15.9564 10.7758 15.7322C10.8297 15.7109 10.8573 15.6908 10.8573 15.6295C10.8573 15.5543 10.8654 15.4785 10.8748 15.404C10.955 14.7752 11.0552 14.1496 11.2011 13.5314C11.399 12.6941 11.6871 11.8931 12.1443 11.1597C12.8701 9.9948 13.8885 9.25579 15.2638 9.05475C15.7836 8.97897 16.3084 8.98085 16.8276 9.06665C17.9831 9.2583 18.9657 9.78938 19.8037 10.5998C19.867 10.6612 19.9302 10.7219 19.9991 10.7883C20.0962 10.6962 20.187 10.6079 20.2797 10.5215C20.8997 9.94533 21.6049 9.51006 22.4128 9.24702C22.9602 9.06916 23.5213 8.99776 24.0969 9.00903C24.4 9.0153 24.7006 9.03534 24.9962 9.09859C26.0465 9.32218 26.897 9.86203 27.5477 10.7175C28.1984 11.573 28.5641 12.5544 28.8059 13.5872C28.9643 14.2629 29.0783 14.9474 29.1416 15.6401C29.1441 15.6695 29.1785 15.7115 29.2061 15.7197C29.8493 15.9157 30.4605 16.1919 31.0718 16.4656C31.6868 16.7411 32.2768 17.0662 32.8335 17.4488C33.3972 17.8359 33.9395 18.2461 34.4099 18.7452C34.8965 19.2619 35.318 19.8231 35.6004 20.4794C35.7645 20.8602 35.8898 21.2529 35.9411 21.6662C35.9537 21.7664 35.9543 21.8672 35.9605 21.9681C35.9637 21.9681 35.9668 21.9681 35.9693 21.9681C35.9793 21.918 35.9894 21.8666 36 21.8165ZM10.6832 18.1199C10.6825 18.1356 10.6806 18.1506 10.6806 18.1663C10.6738 18.9573 10.6644 20.5483 10.6637 21.3393C10.6637 21.4721 10.6925 21.608 10.727 21.737C10.7953 21.9912 10.9669 22.1829 11.1391 22.372C11.6439 22.925 12.2633 23.3171 12.929 23.6434C13.4087 23.8782 13.9116 24.0561 14.4233 24.2058C15.0922 24.4018 15.7736 24.544 16.4637 24.6473C17.1132 24.7444 17.7658 24.8045 18.4202 24.8433C19.4041 24.9016 20.388 24.8834 21.3707 24.812C22.2149 24.7506 23.0535 24.6454 23.8852 24.4889C24.9768 24.2834 26.039 23.9822 27.0536 23.5213C27.7525 23.2037 28.3857 22.7935 28.9393 22.2631C29.1911 22.0213 29.327 21.7238 29.3263 21.3731C29.3251 20.5771 29.3194 18.9811 29.3151 18.1851C29.3151 18.1519 29.3151 18.1181 29.3151 18.0849C29.2869 18.1456 29.2762 18.207 29.2568 18.2659C29.176 18.5089 29.0245 18.7036 28.8428 18.8802C28.3788 19.3318 27.837 19.6694 27.2571 19.9474C26.2745 20.4197 25.2411 20.7422 24.1739 20.952C23.5802 21.0691 22.9808 21.1643 22.3802 21.242C21.8773 21.3071 21.37 21.3409 20.864 21.3747C20.5477 21.396 20.229 21.3979 19.9121 21.3979C19.4279 21.3979 18.9438 21.3941 18.4597 21.3797C18.1766 21.371 17.8935 21.3447 17.6117 21.314C17.1489 21.2639 16.6848 21.2194 16.2264 21.143C15.7786 21.0685 15.3339 20.9651 14.8924 20.8581C14.1546 20.6796 13.4438 20.4228 12.7662 20.0808C12.153 19.7708 11.595 19.3838 11.1291 18.8746C10.9287 18.6554 10.7564 18.4206 10.6838 18.1212L10.6832 18.1199Z" fill="white"/>
</svg>
