<svg width="40" height="40" viewBox="0 0 40 40" fill="none" xmlns="http://www.w3.org/2000/svg">
<path d="M33 21.5C33 29.4263 27.47 32 19.5 32C11.53 32 6 29.4263 6 21.5C6 13.5737 11.53 8 19.5 8C27.47 8 33 13.5737 33 21.5Z" stroke="#FCFCFC" stroke-width="2"/>
<path d="M3 20C3 18.3431 4.34315 17 6 17V27C4.34315 27 3 25.6569 3 24V20Z" fill="#FCFCFC"/>
<path d="M36 20C36 18.3431 34.6569 17 33 17V27C34.6569 27 36 25.6569 36 24V20Z" fill="#FCFCFC"/>
<path d="M22 15V8H17V15" stroke="#FCFCFC"/>
<path fill-rule="evenodd" clip-rule="evenodd" d="M19.5 14C25.6989 14 29 15.7158 29 21C29 26.2842 25.6989 28 19.5 28C13.3011 28 10 26.2842 10 21C10 15.7158 13.3011 14 19.5 14ZM19.5 19C22.5376 19 25 18.1046 25 17C25 15.8954 22.5376 15 19.5 15C16.4624 15 14 15.8954 14 17C14 18.1046 16.4624 19 19.5 19Z" fill="#FCFCFC"/>
</svg>
