<svg width="40" height="40" viewBox="0 0 40 40" fill="none" xmlns="http://www.w3.org/2000/svg">
<path d="M39.8842 17.4353C38.8797 16.2593 35.4643 14.2013 30.4418 13.6133C27.8301 13.3193 25.7206 14.2993 22.3052 15.2793C20.9994 15.6713 19.5931 15.6713 18.2872 15.2793C14.9723 14.2993 12.7624 13.3193 10.1507 13.6133C5.1281 14.2013 1.71275 16.2593 0.708238 17.4353C-0.296273 18.6113 3.82223 29.5874 9.6484 29.9795C16.68 30.4695 17.7849 24.8834 20.1958 24.8834C20.1958 24.8834 20.1958 24.8834 20.2962 24.8834C20.2962 24.8834 20.2962 24.8834 20.3967 24.8834C22.8075 24.8834 23.9125 30.3715 30.944 29.9795C36.268 29.5874 40.7882 18.5133 39.8842 17.4353ZM7.23756 20.0813C12.5615 17.6313 16.1777 22.1394 16.1777 23.5114C11.2556 27.2354 5.42944 20.8654 7.23756 20.0813ZM25.821 24.3934C24.7161 24.0014 24.3143 22.6294 25.0174 21.7474C26.4237 20.0813 29.3368 18.3173 33.0535 19.9833C34.7612 20.7674 30.3413 25.9614 25.821 24.3934Z" fill="#FCFCFC"/>
</svg>
