<svg width="40" height="40" viewBox="0 0 40 40" fill="none" xmlns="http://www.w3.org/2000/svg">
<path fill-rule="evenodd" clip-rule="evenodd" d="M20 14.4749C20 14.4749 18.5 11.9749 15 11.9749C11.5 11.9749 5 18.9749 5 18.9749C5 18.9749 10.5 27.4749 20 27.9749V14.4749ZM20 18.7562C20 18.7562 17.4999 17.9749 15 17.9749C12.5 17.9749 9 19.9749 9 19.9749C9 19.9749 12 22.4749 20 22.9749V18.7562Z" fill="#FCFCFC"/>
<path fill-rule="evenodd" clip-rule="evenodd" d="M20 14.4749C20 14.4749 21.5 11.9749 25 11.9749C28.5 11.9749 35 18.9749 35 18.9749C35 18.9749 29.5 27.4749 20 27.9749V14.4749ZM20 18.7562C20 18.7562 22.5001 17.9749 25 17.9749C27.5 17.9749 31 19.9749 31 19.9749C31 19.9749 27.9999 22.4749 20 22.9749V18.7562Z" fill="#FCFCFC"/>
</svg>
