<svg width="40" height="40" viewBox="0 0 40 40" fill="none" xmlns="http://www.w3.org/2000/svg">
<path fill-rule="evenodd" clip-rule="evenodd" d="M23.3525 10.5753C22.0732 13.4136 21.8731 16.621 22.7898 19.5963L23.3525 20.7388C24.2719 22.2729 25.3554 23.7023 26.584 25.002L26.597 25.0168C28.7154 27.433 30.7522 29.7561 30.1395 32.1131L27.7862 33.4943C26.6116 33.2736 25.467 32.9159 24.3757 32.4285L24.0784 32.872C23.9354 33.0854 23.8799 33.3457 23.9236 33.5988L24.3187 35.8883C24.4242 36.4996 23.9535 37.0584 23.3333 37.0584H20.8005C20.2117 37.0584 19.7961 36.5098 20.2642 36.1525C20.8745 35.6867 21.8303 35.4926 22.3634 35.6004L22.3266 33.0174C22.3229 32.7548 22.4226 32.5013 22.6042 32.3116L23.0882 31.8061C22.5681 31.5674 21.3317 30.8853 20.8628 30.6039L20.3846 31.2895C20.2373 31.5007 20.1771 31.7605 20.2166 32.015L20.4791 33.7051C20.5732 34.3113 20.1044 34.8586 19.4909 34.8586H18.0897C17.5131 34.8586 17.1369 34.3274 17.6392 34.0443C18.0901 33.7902 18.6821 33.6901 19.0296 33.7587V31.601C19.0296 31.344 19.1285 31.097 19.3057 30.911L20.0698 30.1093C18.0045 28.8393 16.2551 27.1161 14.954 25.0702L14.323 23.8254C14.2207 23.5952 14.1184 23.3649 14.0331 23.1177C11.3985 15.4439 11.8589 10.3622 17.367 6.82369C18.0727 6.4135 18.8924 6.24298 19.7032 6.33769C20.0664 6.36763 20.4314 6.36763 20.7946 6.33769C21.8945 6.17569 23.9067 4.25724 24.7594 3.31934C25.6973 3.54955 27.539 4.45335 27.4708 6.22685C25.9302 6.80441 24.4365 7.49995 23.0029 8.30729C23.3028 8.5941 23.4996 8.97186 23.5628 9.38195C23.626 9.79204 23.5521 10.2115 23.3525 10.5753ZM14.592 13.8937C14.3931 14.0895 14.268 14.348 14.2378 14.6254C14.1099 15.2563 14.4083 15.7935 14.8858 15.8276C15.1682 15.8074 15.4346 15.6888 15.6387 15.4926C15.8427 15.2963 15.9715 15.0347 16.0027 14.7533C16.1221 14.1308 15.8237 13.551 15.3291 13.551C15.0513 13.5769 14.7909 13.698 14.592 13.8937ZM17.4735 15.457C17.674 15.6416 17.9386 15.7409 18.2111 15.7338C18.3439 15.703 18.4692 15.6458 18.5794 15.5655C18.6896 15.4852 18.7825 15.3835 18.8525 15.2665C18.9226 15.1495 18.9683 15.0196 18.987 14.8846C19.0057 14.7495 18.997 14.612 18.9614 14.4804C18.946 14.2083 18.8252 13.9528 18.6247 13.7682C18.4241 13.5836 18.1596 13.4843 17.8871 13.4914C17.7554 13.5242 17.6315 13.5828 17.5225 13.6636C17.4136 13.7444 17.3216 13.846 17.2519 13.9624C17.1822 14.0788 17.1361 14.2078 17.1164 14.3421C17.0966 14.4763 17.1035 14.6132 17.1367 14.7447C17.1522 15.0169 17.2729 15.2723 17.4735 15.457ZM14.7895 17.9423C15.473 18.9646 17.2112 19.3302 18.309 18.1915C18.7827 17.7001 18.2951 17 17.6126 17H15.5C14.9477 17 14.4826 17.4831 14.7895 17.9423Z" fill="#FCFCFC"/>
<path d="M22.5 21.5C26.9005 18.7077 28.1947 17.9866 29.2814 23.5507" stroke="#FCFCFC" stroke-width="1.3" stroke-miterlimit="10" stroke-linecap="round"/>
<path d="M10 19.7129C10 25.5 12.9898 27.405 15.1329 22.7142" stroke="#FCFCFC" stroke-width="1.3" stroke-miterlimit="10" stroke-linecap="round"/>
</svg>
