<svg width="40" height="40" viewBox="0 0 40 40" fill="none" xmlns="http://www.w3.org/2000/svg">
<path fill-rule="evenodd" clip-rule="evenodd" d="M23.9319 8.55924C24.2275 8.11082 24.7871 7.86637 25.2784 8.07673L34.4178 13.0265C34.9033 13.2344 35.1299 13.8001 34.9239 14.2901L32.5614 18.7277C32.3555 19.2178 31.795 19.4465 31.3096 19.2387L28.9525 18.2293L29.9525 32.0362C29.9525 32.5685 29.525 33 28.9977 33H11.0183C10.491 33 10.0635 32.5685 10.0635 32.0362L11.0635 18.1755L8.58382 19.236C8.09843 19.4436 7.53823 19.2148 7.33237 18.7249L5.07605 14.2873C4.87009 13.7971 5.09685 13.2312 5.58246 13.0235L14.6185 8.07628C15.1097 7.86615 15.6691 8.11063 15.9646 8.55896C16.309 9.08143 16.7527 9.53387 17.2732 9.8883C18.0636 10.4265 18.995 10.7142 19.9484 10.7146C20.9017 10.7142 21.8332 10.4265 22.6235 9.8883C23.1439 9.53393 23.5875 9.0816 23.9319 8.55924ZM18.5612 15.8203H23.6211C23.7703 15.8203 23.8669 15.9777 23.7994 16.1108L21.7668 20.1181C21.6994 20.2511 21.796 20.4085 21.9452 20.4085H23.5209C23.6902 20.4085 23.7829 20.6059 23.6748 20.7363L17.5185 28.1534C17.383 28.3166 17.12 28.1844 17.1703 27.9783L18.3592 23.103C18.3899 22.977 18.2945 22.8556 18.1649 22.8556H16.2291C16.0912 22.8556 15.9947 22.7194 16.0404 22.5893L18.3725 15.954C18.4007 15.8739 18.4763 15.8203 18.5612 15.8203Z" fill="#FCFCFC"/>
</svg>
