<?xml version="1.0" encoding="UTF-8" standalone="no"?>
<svg
   class="svg-icon"
   style="width: 1em; height: 1em;vertical-align: middle;fill: currentColor;overflow: hidden;"
   viewBox="0 0 1024 1024"
   version="1.1"
   id="svg3"
   sodipodi:docname="dice-19.svg"
   inkscape:version="1.4.2 (f4327f4, 2025-05-13)"
   xmlns:inkscape="http://www.inkscape.org/namespaces/inkscape"
   xmlns:sodipodi="http://sodipodi.sourceforge.net/DTD/sodipodi-0.dtd"
   xmlns="http://www.w3.org/2000/svg"
   xmlns:svg="http://www.w3.org/2000/svg">
  <defs
     id="defs3" />
  <sodipodi:namedview
     id="namedview3"
     pagecolor="#505050"
     bordercolor="#eeeeee"
     borderopacity="1"
     inkscape:showpageshadow="0"
     inkscape:pageopacity="0"
     inkscape:pagecheckerboard="0"
     inkscape:deskcolor="#505050"
     showgrid="false"
     inkscape:zoom="1.2216797"
     inkscape:cx="511.59073"
     inkscape:cy="512"
     inkscape:window-width="2560"
     inkscape:window-height="1511"
     inkscape:window-x="-9"
     inkscape:window-y="592"
     inkscape:window-maximized="1"
     inkscape:current-layer="svg3" />
  <path
     d="M341.333333 385.706667c-11.946667 0-22.186667-4.266667-30.72-12.8-7.970133-7.970133-11.946667-17.92-11.946666-29.866667s3.976533-22.186667 11.946666-30.72c8.533333-7.953067 18.773333-11.946667 30.72-11.946667s21.896533 3.976533 29.866667 11.946667c8.533333 8.533333 12.8 18.773333 12.8 30.72s-4.266667 21.896533-12.8 29.866667c-7.970133 8.533333-17.92 12.8-29.866667 12.8z m128-213.333334c11.946667 0 21.896533 3.976533 29.866667 11.946667 8.533333 8.533333 12.8 18.773333 12.8 30.72s-4.266667 21.896533-12.8 29.866667c-7.970133 8.533333-17.92 12.8-29.866667 12.8s-22.186667-4.266667-30.72-12.8c-7.970133-7.970133-11.946667-17.92-11.946666-29.866667s3.976533-22.186667 11.946666-30.72c8.533333-7.970133 18.773333-11.946667 30.72-11.946667zM243.2 500.906667c-7.970133 8.533333-17.92 12.8-29.866667 12.8s-22.186667-4.266667-30.72-12.8c-7.970133-7.970133-11.946667-17.92-11.946666-29.866667s3.976533-22.186667 11.946666-30.72c8.533333-7.953067 18.773333-11.946667 30.72-11.946667s21.896533 3.976533 29.866667 11.946667c8.533333 8.533333 12.8 18.773333 12.8 30.72s-4.266667 21.896533-12.8 29.866667z"
     id="path1"
     style="fill:#ffffff" />
  <path
     d="M512 954.026667c-27.0336-0.682667-50.176-10.683733-69.239467-29.730134-19.3024-19.3536-30.429867-42.666667-33.0752-69.2736L409.6 616.106667H170.666667c-27.0336-0.682667-50.176-10.683733-69.239467-29.730134-19.285333-19.319467-30.4128-42.615467-33.0752-69.256533L68.266667 169.813333c2.082133-27.562667 12.629333-50.414933 31.4368-69.239466 19.626667-19.626667 43.3664-29.917867 70.536533-30.583467h344.302933c27.016533 0.682667 50.158933 10.666667 69.239467 29.730133 19.643733 19.626667 29.934933 43.349333 30.6176 70.519467V407.893333h241.493333c27.050667 0.7168 50.176 10.7008 69.239467 29.7472 19.6096 19.626667 29.917867 43.3664 30.600533 70.519467V854.186667c-2.065067 27.5456-12.612267 50.397867-31.453866 69.256533-19.643733 19.626667-43.3664 29.917867-70.536534 30.600533H512z m-68.266667-354.986667V853.333333c1.792 17.152 9.403733 33.041067 23.176534 46.848 12.817067 12.817067 27.716267 19.268267 45.5168 19.712H853.333333c17.937067-0.443733 33.399467-7.202133 46.813867-20.599466 13.073067-13.090133 20.1216-28.279467 21.504-46.421334L921.6 508.586667c-0.443733-17.954133-7.202133-33.399467-20.599467-46.813867-12.834133-12.817067-27.733333-19.285333-45.550933-19.7632L512 442.026667c-17.937067 0.4608-33.399467 7.202133-46.830933 20.616533-13.056 13.073067-20.087467 28.245333-21.486934 46.404267L443.733333 599.04zM123.8528 124.706133c-13.073067 13.073067-20.104533 28.2624-21.504 46.421334L102.4 515.413333c1.792 17.169067 9.403733 33.058133 23.159467 46.813867 12.817067 12.834133 27.733333 19.285333 45.533866 19.729067H409.6v-74.24c2.082133-27.562667 12.629333-50.414933 31.4368-69.239467 19.643733-19.6096 43.3664-29.9008 70.519467-30.583467h68.693333V170.666667c-0.443733-17.954133-7.202133-33.399467-20.599467-46.813867-12.834133-12.8512-27.733333-19.3024-45.5168-19.746133H170.666667c-17.954133 0.443733-33.399467 7.185067-46.813867 20.599466z"
     id="path2"
     style="fill:#ffffff" />
  <path
     d="M840.533333 522.24c8.533333 8.533333 12.8 18.773333 12.8 30.72 0 11.9296-4.266667 21.896533-12.8 29.866667-7.970133 8.533333-17.92 12.8-29.866666 12.8s-22.186667-4.266667-30.72-12.8c-7.9872-7.953067-11.946667-17.92-11.946667-29.866667s3.959467-22.203733 11.946667-30.737067c8.533333-7.970133 18.773333-11.963733 30.72-11.963733s21.896533 4.027733 29.866666 11.9808z m0 128c8.533333 8.533333 12.8 18.773333 12.8 30.72 0 11.9296-4.266667 21.896533-12.8 29.866667-7.970133 8.533333-17.92 12.8-29.866666 12.8s-22.186667-4.266667-30.72-12.8c-7.9872-7.953067-11.946667-17.92-11.946667-29.866667s3.959467-22.203733 11.946667-30.737067c8.533333-7.970133 18.773333-11.9296 30.72-11.9296s21.896533 3.9936 29.866666 11.946667z m-60.586666 128c8.533333-7.953067 18.773333-11.9296 30.72-11.9296s21.896533 3.976533 29.866666 11.9296c8.533333 8.533333 12.8 18.773333 12.8 30.72 0 11.9296-4.266667 21.896533-12.8 29.866667-7.970133 8.533333-17.92 12.8-29.866666 12.8s-22.186667-4.266667-30.72-12.8c-7.9872-7.953067-11.946667-17.92-11.946667-29.866667s3.959467-22.186667 11.946667-30.72zM597.333333 552.96c0 11.9296-4.266667 21.896533-12.8 29.866667-7.970133 8.533333-17.92 12.8-29.866666 12.8s-22.186667-4.266667-30.72-12.8c-7.970133-7.953067-11.946667-17.92-11.946667-29.866667s3.976533-22.203733 11.946667-30.737067c8.533333-7.970133 18.773333-11.963733 30.72-11.963733s21.896533 3.9936 29.866666 11.963733c8.533333 8.5504 12.8 18.7904 12.8 30.737067z m-73.386666 225.28c8.533333-7.953067 18.773333-11.9296 30.72-11.9296s21.896533 3.976533 29.866666 11.9296c8.533333 8.533333 12.8 18.773333 12.8 30.72 0 11.9296-4.266667 21.896533-12.8 29.866667-7.970133 8.533333-17.92 12.8-29.866666 12.8s-22.186667-4.266667-30.72-12.8c-7.970133-7.953067-11.946667-17.92-11.946667-29.866667s3.976533-22.186667 11.946667-30.72z m-11.946667-97.28c0-11.946667 3.976533-22.203733 11.946667-30.737067 8.533333-7.970133 18.773333-11.9296 30.72-11.9296s21.896533 3.959467 29.866666 11.9296c8.533333 8.5504 12.8 18.7904 12.8 30.737067 0 11.9296-4.266667 21.896533-12.8 29.866667-7.970133 8.533333-17.92 12.8-29.866666 12.8s-22.186667-4.266667-30.72-12.8c-7.970133-7.953067-11.946667-17.92-11.946667-29.866667z"
     id="path3"
     style="fill:#ffffff" />
</svg>
