<?xml version="1.0" encoding="UTF-8"?>
<svg version="1.1" xmlns="http://www.w3.org/2000/svg" width="1000" height="1000" viewBox="0 0 1000 1000"><g transform="rotate(45, 500, 500)">
<path d="M0 0 C1.09410209 -0.00320648 2.18820419 -0.00641296 3.31546089 -0.0097166 C6.98328547 -0.01802087 10.65094695 -0.01209068 14.31877422 -0.00622082 C16.97436594 -0.0092413 19.629946 -0.01304944 22.28553408 -0.01781338 C28.06023895 -0.02656769 33.83490834 -0.02789024 39.60961819 -0.02431011 C48.19699978 -0.01900029 56.78434708 -0.02510123 65.37172495 -0.03339304 C81.60154746 -0.04863344 97.83135437 -0.05033806 114.06118254 -0.04787002 C126.59423959 -0.04603732 139.12729153 -0.04779648 151.66034794 -0.05209446 C153.46100304 -0.05269686 155.26165815 -0.05329806 157.06231325 -0.05389806 C159.77573709 -0.05480532 162.48916093 -0.05571398 165.20258477 -0.05663041 C190.43087635 -0.06506007 215.65916601 -0.06939555 240.8874588 -0.06522369 C242.31405666 -0.06498913 242.31405666 -0.06498913 243.76947469 -0.06474983 C248.58983944 -0.06394405 253.41020418 -0.06309827 258.23056892 -0.06223653 C259.18790664 -0.06206544 260.14524436 -0.06189435 261.13159231 -0.06171808 C263.06756174 -0.06137142 265.00353117 -0.06102289 266.93950059 -0.06067249 C297.06338849 -0.05531525 327.18724713 -0.06324573 357.31112957 -0.08170605 C391.15684038 -0.10242286 425.00253306 -0.11314937 458.84825057 -0.10913056 C462.45723704 -0.10873522 466.06622352 -0.10837367 469.67521 -0.10803318 C470.56383133 -0.10794245 471.45245266 -0.10785172 472.36800191 -0.10775824 C485.78156056 -0.10659235 499.1951009 -0.11323989 512.60865498 -0.1238451 C527.8642667 -0.13589441 543.11983809 -0.13745915 558.37545041 -0.12505493 C566.91132761 -0.11842505 575.44710837 -0.12006036 583.98297785 -0.13364345 C589.68775421 -0.14188882 595.39245833 -0.13918926 601.09722882 -0.12766818 C604.34559769 -0.1214126 607.59374139 -0.12146983 610.8421062 -0.13153151 C614.34807285 -0.14163731 617.85353525 -0.13321508 621.35948181 -0.12025452 C622.85813432 -0.13121854 622.85813432 -0.13121854 624.38706264 -0.14240405 C641.76655598 -0.00938131 655.75815361 7.01906274 667.86850262 19.25447559 C668.91457684 20.25027637 668.91457684 20.25027637 669.98178387 21.26619434 C674.40631869 25.77664246 677.39868548 30.66537635 680.24350262 36.25447559 C680.57753094 36.90682178 680.91155926 37.55916798 681.25570965 38.23128223 C685.37962259 46.75396489 686.16394606 55.01057639 686.12297821 64.38597298 C686.12778793 66.02712612 686.12778793 66.02712612 686.13269481 67.70143387 C686.14099908 71.36925845 686.13506889 75.03691993 686.12919903 78.7047472 C686.13221951 81.36033892 686.13602765 84.01591897 686.14079159 86.67150706 C686.1495459 92.44621192 686.15086845 98.22088132 686.14728832 103.99559116 C686.1419785 112.58297276 686.14807944 121.17032006 686.15637126 129.75769792 C686.17161165 145.98752043 686.17331628 162.21732734 686.17084823 178.44715551 C686.16901553 190.98021257 686.17077469 203.5132645 686.17507267 216.04632092 C686.17567507 217.84697602 686.17627627 219.64763113 686.17687627 221.44828623 C686.17778353 224.16171007 686.17869219 226.87513391 686.17960862 229.58855774 C686.18803828 254.81684933 686.19237376 280.04513898 686.1882019 305.27343178 C686.18804553 306.22449702 686.18788915 307.17556226 686.18772804 308.15544766 C686.18692226 312.97581241 686.18607648 317.79617716 686.18521474 322.6165419 C686.18504365 323.57387962 686.18487256 324.53121734 686.18469629 325.51756529 C686.18434963 327.45353472 686.1840011 329.38950414 686.1836507 331.32547357 C686.17829346 361.44936147 686.18622394 391.5732201 686.20468426 421.69710255 C686.22540107 455.54281336 686.23612758 489.38850604 686.23210877 523.23422354 C686.23171343 526.84321002 686.23135188 530.4521965 686.23101139 534.06118298 C686.23092066 534.94980431 686.23082993 535.83842564 686.23073645 536.75397489 C686.22957056 550.16753354 686.2362181 563.58107388 686.24682331 576.99462795 C686.25887262 592.25023968 686.26043737 607.50581107 686.24803314 622.76142339 C686.24140326 631.29730059 686.24303858 639.83308134 686.25662166 648.36895083 C686.26486703 654.07372718 686.26216747 659.77843131 686.25064639 665.48320179 C686.24439081 668.73157067 686.24444804 671.97971437 686.25450972 675.22807918 C686.26461552 678.73404583 686.25619329 682.23950823 686.24323273 685.74545479 C686.25419675 687.2441073 686.25419675 687.2441073 686.26538226 688.77303562 C686.13235952 706.15252895 679.10391547 720.14412658 666.86850262 732.25447559 C666.20463543 732.95185841 665.54076824 733.64924122 664.85678387 734.36775684 C660.34633575 738.79229166 655.45760186 741.78465845 649.86850262 744.62947559 C649.21615643 744.96350391 648.56381023 745.29753223 647.89169598 745.64168262 C639.36901332 749.76559556 631.11240182 750.54991904 621.73700523 750.50895119 C620.64290314 750.51215767 619.54880105 750.51536414 618.42154434 750.51866779 C614.75371976 750.52697206 611.08605828 750.52104187 607.41823101 750.515172 C604.76263929 750.51819249 602.10705924 750.52200063 599.45147115 750.52676457 C593.67676629 750.53551887 587.90209689 750.53684142 582.12738705 750.5332613 C573.54000545 750.52795148 564.95265816 750.53405242 556.36528029 750.54234423 C540.13545778 750.55758463 523.90565087 750.55928925 507.6758227 750.5568212 C495.14276564 750.55498851 482.60971371 750.55674766 470.0766573 750.56104565 C468.27600219 750.56164805 466.47534708 750.56224925 464.67469198 750.56284925 C461.96126814 750.5637565 459.2478443 750.56466517 456.53442047 750.5655816 C431.30612888 750.57401126 406.07783923 750.57834674 380.84954643 750.57417488 C379.89848119 750.5740185 378.94741595 750.57386213 377.96753055 750.57370101 C373.1471658 750.57289523 368.32680105 750.57204946 363.50643631 750.57118771 C362.54909859 750.57101662 361.59176087 750.57084554 360.60541292 750.57066926 C358.66944349 750.57032261 356.73347407 750.56997408 354.79750464 750.56962368 C324.67361674 750.56426644 294.54975811 750.57219692 264.42587566 750.59065723 C230.58016485 750.61137405 196.73447217 750.62210055 162.88875467 750.61808175 C159.27976819 750.6176864 155.67078171 750.61732486 152.06179523 750.61698437 C151.1731739 750.61689364 150.28455257 750.6168029 149.36900333 750.61670942 C135.95544467 750.61554354 122.54190433 750.62219108 109.12835026 750.63279629 C93.87273853 750.6448456 78.61716715 750.64641034 63.36155482 750.63400612 C54.82567762 750.62737624 46.28989687 750.62901155 37.75402738 750.64259463 C32.04925103 750.65084001 26.3445469 750.64814044 20.63977642 750.63661937 C17.39140754 750.63036379 14.14326385 750.63042101 10.89489903 750.6404827 C7.38893238 750.6505885 3.88346998 750.64216626 0.37752342 750.6292057 C-0.62157825 750.63651505 -1.62067992 750.6438244 -2.65005741 750.65135524 C-20.02955074 750.51833249 -34.02114837 743.48988845 -46.13149738 731.25447559 C-46.8288802 730.59060841 -47.52626301 729.92674122 -48.24477863 729.24275684 C-52.66931345 724.73230873 -55.66168024 719.84357484 -58.50649738 714.25447559 C-58.8405257 713.6021294 -59.17455402 712.94978321 -59.51870441 712.27766895 C-63.64261735 703.75498629 -64.42694083 695.49837479 -64.38597298 686.12297821 C-64.38917945 685.02887612 -64.39238593 683.93477402 -64.39568958 682.80751732 C-64.40399385 679.13969274 -64.39806366 675.47203126 -64.39219379 671.80420399 C-64.39521428 669.14861227 -64.39902242 666.49303221 -64.40378636 663.83744413 C-64.41254066 658.06273926 -64.41386321 652.28806987 -64.41028309 646.51336002 C-64.40497327 637.92597843 -64.41107421 629.33863113 -64.41936602 620.75125326 C-64.43460642 604.52143075 -64.43631104 588.29162384 -64.43384299 572.06179567 C-64.4320103 559.52873862 -64.43376945 546.99568668 -64.43806744 534.46263027 C-64.43866984 532.66197517 -64.43927104 530.86132006 -64.43987104 529.06066496 C-64.44077829 526.34724112 -64.44168696 523.63381728 -64.44260339 520.92039344 C-64.45103305 495.69210186 -64.45536853 470.4638122 -64.45119667 445.23551941 C-64.45096211 443.80892155 -64.45096211 443.80892155 -64.4507228 442.35350352 C-64.44991702 437.53313877 -64.44907125 432.71277403 -64.4482095 427.89240929 C-64.44803841 426.93507157 -64.44786733 425.97773385 -64.44769105 424.9913859 C-64.4473444 423.05541647 -64.44699587 421.11944705 -64.44664547 419.18347762 C-64.44128823 389.05958972 -64.44921871 358.93573108 -64.46767902 328.81184864 C-64.48839584 294.96613783 -64.49912234 261.12044515 -64.49510354 227.27472764 C-64.49470819 223.66574117 -64.49434665 220.05675469 -64.49400616 216.44776821 C-64.49391543 215.55914688 -64.49382469 214.67052555 -64.49373121 213.7549763 C-64.49256533 200.34141765 -64.49921287 186.92787731 -64.50981808 173.51432323 C-64.52186739 158.25871151 -64.52343213 143.00314012 -64.51102791 127.7475278 C-64.50439803 119.2116506 -64.50603334 110.67586985 -64.51961642 102.14000036 C-64.5278618 96.435224 -64.52516223 90.73051988 -64.51364116 85.02574939 C-64.50738558 81.77738052 -64.5074428 78.52923682 -64.51750449 75.28087201 C-64.52761029 71.77490536 -64.51918805 68.26944296 -64.50622749 64.7634964 C-64.51353684 63.76439473 -64.52084619 62.76529305 -64.52837703 61.73591557 C-64.39535428 44.35642223 -57.36691024 30.36482461 -45.13149738 18.25447559 C-44.1356966 17.20840137 -44.1356966 17.20840137 -43.11977863 16.14119434 C-38.60933052 11.71665952 -33.72059663 8.72429273 -28.13149738 5.87947559 C-27.47915119 5.54544727 -26.826805 5.21141895 -26.15469074 4.86726856 C-17.63200808 0.74335562 -9.37539658 -0.04096785 0 0 Z M-1.13149738 63.25447559 C-1.13149738 269.17447559 -1.13149738 475.09447559 -1.13149738 687.25447559 C204.78850262 687.25447559 410.70850262 687.25447559 622.86850262 687.25447559 C622.86850262 481.33447559 622.86850262 275.41447559 622.86850262 63.25447559 C416.94850262 63.25447559 211.02850262 63.25447559 -1.13149738 63.25447559 Z " fill="#FFFFFF" transform="translate(189.13149738311768,124.7455244064331)"/>
<path d="M0 0 C12.29047335 -0.56612879 24.84245173 2.77025345 34.69140625 10.19140625 C35.85929688 11.07119141 35.85929688 11.07119141 37.05078125 11.96875 C47.03717729 20.16228635 52.75817272 31.16964977 55.44140625 43.69140625 C55.52390625 44.84640625 55.60640625 46.00140625 55.69140625 47.19140625 C55.75457031 47.95324219 55.81773437 48.71507812 55.8828125 49.5 C56.44894129 61.79047335 53.11255905 74.34245173 45.69140625 84.19140625 C45.10488281 84.97 44.51835938 85.74859375 43.9140625 86.55078125 C35.72052615 96.53717729 24.71316273 102.25817272 12.19140625 104.94140625 C11.03640625 105.02390625 9.88140625 105.10640625 8.69140625 105.19140625 C7.92957031 105.25457031 7.16773438 105.31773437 6.3828125 105.3828125 C-5.90766085 105.94894129 -18.45963923 102.61255905 -28.30859375 95.19140625 C-29.0871875 94.60488281 -29.86578125 94.01835938 -30.66796875 93.4140625 C-40.65436479 85.22052615 -46.37536022 74.21316273 -49.05859375 61.69140625 C-49.14109375 60.53640625 -49.22359375 59.38140625 -49.30859375 58.19140625 C-49.40333984 57.04865234 -49.40333984 57.04865234 -49.5 55.8828125 C-50.06612879 43.59233915 -46.72974655 31.04036077 -39.30859375 21.19140625 C-38.72207031 20.4128125 -38.13554688 19.63421875 -37.53125 18.83203125 C-29.33771365 8.84563521 -18.33035023 3.12463978 -5.80859375 0.44140625 C-3.87174798 0.30306012 -1.93514062 0.16044313 0 0 Z " fill="#FFFFFF" transform="translate(684.30859375,634.80859375)"/>
<path d="M0 0 C12.29047335 -0.56612879 24.84245173 2.77025345 34.69140625 10.19140625 C35.85929687 11.07119141 35.85929687 11.07119141 37.05078125 11.96875 C47.03717729 20.16228635 52.75817272 31.16964977 55.44140625 43.69140625 C55.52390625 44.84640625 55.60640625 46.00140625 55.69140625 47.19140625 C55.75457031 47.95324219 55.81773437 48.71507812 55.8828125 49.5 C56.44894129 61.79047335 53.11255905 74.34245173 45.69140625 84.19140625 C45.10488281 84.97 44.51835937 85.74859375 43.9140625 86.55078125 C35.72052615 96.53717729 24.71316273 102.25817272 12.19140625 104.94140625 C11.03640625 105.02390625 9.88140625 105.10640625 8.69140625 105.19140625 C7.92957031 105.25457031 7.16773438 105.31773437 6.3828125 105.3828125 C-5.90766085 105.94894129 -18.45963923 102.61255905 -28.30859375 95.19140625 C-29.0871875 94.60488281 -29.86578125 94.01835938 -30.66796875 93.4140625 C-40.65436479 85.22052615 -46.37536022 74.21316273 -49.05859375 61.69140625 C-49.14109375 60.53640625 -49.22359375 59.38140625 -49.30859375 58.19140625 C-49.40333984 57.04865234 -49.40333984 57.04865234 -49.5 55.8828125 C-50.06612879 43.59233915 -46.72974655 31.04036077 -39.30859375 21.19140625 C-38.72207031 20.4128125 -38.13554687 19.63421875 -37.53125 18.83203125 C-29.33771365 8.84563521 -18.33035023 3.12463978 -5.80859375 0.44140625 C-3.87174798 0.30306012 -1.93514062 0.16044313 0 0 Z " fill="#FFFFFF" transform="translate(309.30859375,634.80859375)"/>
<path d="M0 0 C12.29047335 -0.56612879 24.84245173 2.77025345 34.69140625 10.19140625 C35.85929688 11.07119141 35.85929688 11.07119141 37.05078125 11.96875 C47.03717729 20.16228635 52.75817272 31.16964977 55.44140625 43.69140625 C55.52390625 44.84640625 55.60640625 46.00140625 55.69140625 47.19140625 C55.75457031 47.95324219 55.81773437 48.71507812 55.8828125 49.5 C56.44894129 61.79047335 53.11255905 74.34245173 45.69140625 84.19140625 C45.10488281 84.97 44.51835938 85.74859375 43.9140625 86.55078125 C35.72052615 96.53717729 24.71316273 102.25817272 12.19140625 104.94140625 C11.03640625 105.02390625 9.88140625 105.10640625 8.69140625 105.19140625 C7.92957031 105.25457031 7.16773438 105.31773437 6.3828125 105.3828125 C-5.90766085 105.94894129 -18.45963923 102.61255905 -28.30859375 95.19140625 C-29.0871875 94.60488281 -29.86578125 94.01835937 -30.66796875 93.4140625 C-40.65436479 85.22052615 -46.37536022 74.21316273 -49.05859375 61.69140625 C-49.14109375 60.53640625 -49.22359375 59.38140625 -49.30859375 58.19140625 C-49.40333984 57.04865234 -49.40333984 57.04865234 -49.5 55.8828125 C-50.06612879 43.59233915 -46.72974655 31.04036077 -39.30859375 21.19140625 C-38.72207031 20.4128125 -38.13554688 19.63421875 -37.53125 18.83203125 C-29.33771365 8.84563521 -18.33035023 3.12463978 -5.80859375 0.44140625 C-3.87174798 0.30306012 -1.93514062 0.16044313 0 0 Z " fill="#FFFFFF" transform="translate(684.30859375,259.80859375)"/>
<path d="M0 0 C12.29047335 -0.56612879 24.84245173 2.77025345 34.69140625 10.19140625 C35.85929687 11.07119141 35.85929687 11.07119141 37.05078125 11.96875 C47.03717729 20.16228635 52.75817272 31.16964977 55.44140625 43.69140625 C55.52390625 44.84640625 55.60640625 46.00140625 55.69140625 47.19140625 C55.75457031 47.95324219 55.81773437 48.71507812 55.8828125 49.5 C56.44894129 61.79047335 53.11255905 74.34245173 45.69140625 84.19140625 C45.10488281 84.97 44.51835937 85.74859375 43.9140625 86.55078125 C35.72052615 96.53717729 24.71316273 102.25817272 12.19140625 104.94140625 C11.03640625 105.02390625 9.88140625 105.10640625 8.69140625 105.19140625 C7.92957031 105.25457031 7.16773438 105.31773437 6.3828125 105.3828125 C-5.90766085 105.94894129 -18.45963923 102.61255905 -28.30859375 95.19140625 C-29.0871875 94.60488281 -29.86578125 94.01835937 -30.66796875 93.4140625 C-40.65436479 85.22052615 -46.37536022 74.21316273 -49.05859375 61.69140625 C-49.14109375 60.53640625 -49.22359375 59.38140625 -49.30859375 58.19140625 C-49.40333984 57.04865234 -49.40333984 57.04865234 -49.5 55.8828125 C-50.06612879 43.59233915 -46.72974655 31.04036077 -39.30859375 21.19140625 C-38.72207031 20.4128125 -38.13554687 19.63421875 -37.53125 18.83203125 C-29.33771365 8.84563521 -18.33035023 3.12463978 -5.80859375 0.44140625 C-3.87174798 0.30306012 -1.93514062 0.16044313 0 0 Z " fill="#FFFFFF" transform="translate(309.30859375,259.80859375)"/>
<path d="M0 0 C11.60468927 8.35331627 19.6926434 19.5064079 22.1875 33.8125 C23.88306506 51.61970946 20.60835453 65.87831826 9.1875 79.8125 C0.48126257 89.39879031 -11.5110561 95.51542164 -24.51171875 96.1484375 C-42.10022591 96.47204504 -55.04051532 92.59558117 -68.1953125 80.6484375 C-79.65201997 68.66899052 -82.46231783 54.73134392 -82.11328125 38.796875 C-81.46475888 24.63079785 -74.60191 13.03609938 -64.5 3.375 C-46.47238178 -11.53245353 -19.37156617 -13.06856233 0 0 Z " fill="#FFFFFF" transform="translate(529.8125,456.1875)"/>
</g></svg>
