<?xml version="1.0" encoding="UTF-8" standalone="no"?>
<!DOCTYPE svg PUBLIC "-//W3C//DTD SVG 1.1//EN"
	"http://www.w3.org/Graphics/SVG/1.1/DTD/svg11.dtd">
<svg
   xmlns:svg="http://www.w3.org/2000/svg"
   xmlns="http://www.w3.org/2000/svg"
   version="1.1"
   x="0" y="0"
   width="1024"
   height="1024"
   id="svg2">
  <defs
     id="defs4" />
  <g
     transform="matrix(1.5,0,0,1.5,109.02942,-468.01519)"
     id="g3674">
    <path
       d="M 245,341.5 C 252.5,329 270,314 282.5,314 L 557.5,469 C 562.5,474 575,506.5 565,519 L 292.5,679 C 285,681.5 252.5,679 242.5,654 L 245,341.5 z"
       id="path3586"
       style="fill:#404040;fill-opacity:1;fill-rule:evenodd;stroke:#404040;stroke-width:2;stroke-linecap:round;stroke-linejoin:round;stroke-miterlimit:4;stroke-dasharray:none;stroke-opacity:1" />
    <g
       transform="matrix(0.1910977,-0.3317217,0.1910977,0.3317217,152.64427,500.07482)"
       id="g3515"
       style="overflow:visible">
      <path
         d="M 71.459473,553.5 C 34.080566,553.5 3.5,522.91895 3.5,485.54004 L 3.5,71.459473 C 3.5,34.082031 34.080566,3.5 71.459473,3.5 L 485.54004,3.5 C 522.91797,3.5 553.5,34.082031 553.5,71.459473 L 553.5,485.54004 C 553.5,522.91895 522.91797,553.5 485.54004,553.5 L 71.459473,553.5 z"
         id="path3491"
         style="fill:#ffffff;fill-opacity:1;stroke:#000000;stroke-width:7" />
      <circle
         cx="278.5"
         cy="278.5"
         r="57.115234"
         id="circle3493"
         style="fill:#404040;fill-opacity:1;stroke:#000000;stroke-width:5;stroke-opacity:1" />
    </g>
    <g
       transform="matrix(-0.3828283,3.653872e-4,0.1917306,-0.3313563,472.998,680.25529)"
       id="g3558"
       style="overflow:visible">
      <path
         d="M 71.459473,553.5 C 34.080566,553.5 3.5,522.91895 3.5,485.54004 L 3.5,71.459473 C 3.5,34.082031 34.080566,3.5 71.459473,3.5 L 485.54004,3.5 C 522.91797,3.5 553.5,34.082031 553.5,71.459473 L 553.5,485.54004 C 553.5,522.91895 522.91797,553.5 485.54004,553.5 L 71.459473,553.5 z"
         id="path3566"
         style="fill:#ffffff;fill-opacity:1;stroke:#000000;stroke-width:7" />
      <circle
         cx="117.02637"
         cy="439.97461"
         r="57.115234"
         id="circle3560"
         style="fill:#404040;fill-opacity:1;stroke:#000000;stroke-width:5;stroke-opacity:1" />
      <circle
         cx="439.97461"
         cy="439.97461"
         r="57.115234"
         id="circle3562"
         style="fill:#404040;fill-opacity:1;stroke:#000000;stroke-width:5;stroke-opacity:1" />
      <circle
         cx="439.97314"
         cy="117.02588"
         r="57.114746"
         id="circle3564"
         style="fill:#404040;fill-opacity:1;stroke:#000000;stroke-width:5;stroke-opacity:1" />
      <circle
         cx="278.5"
         cy="278.5"
         r="57.115234"
         id="circle3568"
         style="fill:#404040;fill-opacity:1;stroke:#000000;stroke-width:5;stroke-opacity:1" />
      <circle
         cx="117.02588"
         cy="117.02563"
         r="57.115479"
         id="circle3570"
         style="fill:#404040;fill-opacity:1;stroke:#000000;stroke-width:5;stroke-opacity:1" />
    </g>
    <g
       transform="matrix(0.1917306,0.3313563,-0.3828283,-3.653872e-4,468.80258,313.31549)"
       id="g3572"
       style="overflow:visible">
      <path
         d="M 71.459473,553.5 C 34.080566,553.5 3.5,522.91895 3.5,485.54004 L 3.5,71.459473 C 3.5,34.082031 34.080566,3.5 71.459473,3.5 L 485.54004,3.5 C 522.91797,3.5 553.5,34.082031 553.5,71.459473 L 553.5,485.54004 C 553.5,522.91895 522.91797,553.5 485.54004,553.5 L 71.459473,553.5 z"
         id="path3580"
         style="fill:#ffffff;fill-opacity:1;stroke:#000000;stroke-width:7" />
      <circle
         cx="117.02637"
         cy="439.97461"
         r="57.115234"
         id="circle3574"
         style="fill:#404040;fill-opacity:1;stroke:#000000;stroke-width:5;stroke-opacity:1" />
      <circle
         cx="439.97461"
         cy="439.97461"
         r="57.115234"
         id="circle3576"
         style="fill:#404040;fill-opacity:1;stroke:#000000;stroke-width:5;stroke-opacity:1" />
      <circle
         cx="439.97314"
         cy="117.02588"
         r="57.114746"
         id="circle3578"
         style="fill:#404040;fill-opacity:1;stroke:#000000;stroke-width:5;stroke-opacity:1" />
      <circle
         cx="117.02588"
         cy="117.02563"
         r="57.115479"
         id="circle3584"
         style="fill:#404040;fill-opacity:1;stroke:#000000;stroke-width:5;stroke-opacity:1" />
    </g>
  </g>
  <g
     transform="matrix(1.5,0,0,1.5,-774.05268,372.6114)"
     id="g3658">
    <g
       transform="matrix(0,1,-1,0,1481.1182,-519.93236)"
       id="g3634">
      <path
         d="M 628.93236,528.61822 C 636.43236,516.11822 653.93236,501.11822 666.43236,501.11822 L 945.11486,661.94515 C 949.23133,668.60311 957.52152,683.02388 950.41128,703.51533 L 676.43236,866.11822 C 668.93236,868.61822 636.43236,866.11822 626.43236,841.11822 L 628.93236,528.61822 z"
         id="path3590"
         style="fill:#404040;fill-opacity:1;fill-rule:evenodd;stroke:#404040;stroke-width:2;stroke-linecap:round;stroke-linejoin:round;stroke-miterlimit:4;stroke-dasharray:none;stroke-opacity:1" />
      <g
         transform="matrix(0.1910977,-0.3317217,0.1910977,0.3317217,536.57663,687.19304)"
         id="g3592"
         style="overflow:visible">
        <path
           d="M 71.459473,553.5 C 34.080566,553.5 3.5,522.91895 3.5,485.54004 L 3.5,71.459473 C 3.5,34.082031 34.080566,3.5 71.459473,3.5 L 485.54004,3.5 C 522.91797,3.5 553.5,34.082031 553.5,71.459473 L 553.5,485.54004 C 553.5,522.91895 522.91797,553.5 485.54004,553.5 L 71.459473,553.5 z"
           id="path3594"
           style="fill:#ffffff;fill-opacity:1;stroke:#000000;stroke-width:7" />
        <circle
           cx="278.5"
           cy="278.5"
           r="57.115234"
           id="circle3602"
           style="fill:#404040;fill-opacity:1;stroke:#000000;stroke-width:5;stroke-opacity:1" />
      </g>
      <g
         transform="matrix(-0.3828283,3.653872e-4,0.1917306,-0.3313563,856.93036,867.37351)"
         id="g3606"
         style="overflow:visible">
        <path
           d="M 71.459473,553.5 C 34.080566,553.5 3.5,522.91895 3.5,485.54004 L 3.5,71.459473 C 3.5,34.082031 34.080566,3.5 71.459473,3.5 L 485.54004,3.5 C 522.91797,3.5 553.5,34.082031 553.5,71.459473 L 553.5,485.54004 C 553.5,522.91895 522.91797,553.5 485.54004,553.5 L 71.459473,553.5 z"
           id="path3608"
           style="fill:#ffffff;fill-opacity:1;stroke:#000000;stroke-width:7" />
        <circle
           cx="117.02637"
           cy="439.97461"
           r="57.115234"
           id="circle3610"
           style="fill:#404040;fill-opacity:1;stroke:#000000;stroke-width:5;stroke-opacity:1" />
        <circle
           cx="439.97314"
           cy="117.02588"
           r="57.114746"
           id="circle3614"
           style="fill:#404040;fill-opacity:1;stroke:#000000;stroke-width:5;stroke-opacity:1" />
      </g>
      <g
         transform="matrix(0.1917306,0.3313563,-0.3828283,-3.653872e-4,852.73494,500.43371)"
         id="g3620"
         style="overflow:visible">
        <path
           d="M 71.459473,553.5 C 34.080566,553.5 3.5,522.91895 3.5,485.54004 L 3.5,71.459473 C 3.5,34.082031 34.080566,3.5 71.459473,3.5 L 485.54004,3.5 C 522.91797,3.5 553.5,34.082031 553.5,71.459473 L 553.5,485.54004 C 553.5,522.91895 522.91797,553.5 485.54004,553.5 L 71.459473,553.5 z"
           id="path3622"
           style="fill:#ffffff;fill-opacity:1;stroke:#000000;stroke-width:7" />
        <circle
           cx="117.02637"
           cy="439.97461"
           r="57.115234"
           id="circle3624"
           style="fill:#404040;fill-opacity:1;stroke:#000000;stroke-width:5;stroke-opacity:1" />
        <circle
           cx="439.97314"
           cy="117.02588"
           r="57.114746"
           id="circle3628"
           style="fill:#404040;fill-opacity:1;stroke:#000000;stroke-width:5;stroke-opacity:1" />
        <circle
           cx="278.5"
           cy="278.5"
           r="57.115234"
           id="circle3630"
           style="fill:#404040;fill-opacity:1;stroke:#000000;stroke-width:5;stroke-opacity:1" />
      </g>
    </g>
  </g>
</svg>
