<svg width="100" height="100" viewBox="0 0 100 100" fill="none" xmlns="http://www.w3.org/2000/svg">
<circle cx="50" cy="50" r="47" fill="white" stroke="#A524B3" stroke-width="6"/>
<path d="M42.2749 29.0909V64H34.8942V36.0966H34.6896L26.6953 41.108V34.5625L35.3374 29.0909H42.2749Z" fill="black" fill-opacity="0.7"/>
<path d="M48.312 74V68.6818L60.7381 57.1761C61.7949 56.1534 62.6813 55.233 63.3972 54.4148C64.1245 53.5966 64.6756 52.7955 65.0506 52.0114C65.4256 51.2159 65.6131 50.358 65.6131 49.4375C65.6131 48.4148 65.3801 47.5341 64.9142 46.7955C64.4483 46.0455 63.812 45.4716 63.0052 45.0739C62.1983 44.6648 61.2836 44.4602 60.2608 44.4602C59.1926 44.4602 58.2608 44.6761 57.4654 45.108C56.6699 45.5398 56.0563 46.1591 55.6245 46.9659C55.1926 47.7727 54.9767 48.733 54.9767 49.8466H47.9711C47.9711 47.5625 48.4881 45.5795 49.5222 43.8977C50.5563 42.2159 52.0051 40.9148 53.8688 39.9943C55.7324 39.0739 57.8801 38.6136 60.312 38.6136C62.812 38.6136 64.9881 39.0568 66.8404 39.9432C68.704 40.8182 70.1529 42.0341 71.187 43.5909C72.2211 45.1477 72.7381 46.9318 72.7381 48.9432C72.7381 50.2614 72.4767 51.5625 71.954 52.8466C71.4426 54.1307 70.5279 55.5568 69.2097 57.125C67.8915 58.6818 66.0336 60.5511 63.6358 62.733L58.5392 67.7273V67.9659H73.1983V74H48.312Z" fill="black" fill-opacity="0.7"/>
</svg>
