<?xml version="1.0" encoding="UTF-8" standalone="no"?>
<svg
   width="100"
   height="100"
   viewBox="0 0 100 100"
   fill="none"
   version="1.1"
   id="svg2"
   sodipodi:docname="press_action_normal.svg"
   inkscape:version="1.4.2 (f4327f4, 2025-05-13)"
   xml:space="preserve"
   xmlns:inkscape="http://www.inkscape.org/namespaces/inkscape"
   xmlns:sodipodi="http://sodipodi.sourceforge.net/DTD/sodipodi-0.dtd"
   xmlns="http://www.w3.org/2000/svg"
   xmlns:svg="http://www.w3.org/2000/svg"><defs
     id="defs2" /><sodipodi:namedview
     id="namedview2"
     pagecolor="#505050"
     bordercolor="#eeeeee"
     borderopacity="1"
     inkscape:showpageshadow="0"
     inkscape:pageopacity="0"
     inkscape:pagecheckerboard="0"
     inkscape:deskcolor="#505050"
     showgrid="true"
     inkscape:zoom="6.465"
     inkscape:cx="36.736272"
     inkscape:cy="62.722351"
     inkscape:window-width="2560"
     inkscape:window-height="1511"
     inkscape:window-x="-9"
     inkscape:window-y="-9"
     inkscape:window-maximized="1"
     inkscape:current-layer="svg2"><inkscape:grid
       id="grid3"
       units="px"
       originx="0"
       originy="0"
       spacingx="1"
       spacingy="1"
       empcolor="#0099e5"
       empopacity="0.30196078"
       color="#0099e5"
       opacity="0.14901961"
       empspacing="5"
       enabled="true"
       visible="true" /></sodipodi:namedview><circle
     cx="50"
     cy="50"
     r="47"
     fill="white"
     stroke="#A524B3"
     stroke-width="6"
     id="circle1"
     style="fill:#000000;fill-opacity:0.69999999;stroke:#fcfcfc;stroke-opacity:1" /><text
     xml:space="preserve"
     style="font-style:normal;font-variant:normal;font-weight:normal;font-stretch:normal;font-size:48px;font-family:Inter;-inkscape-font-specification:Inter;text-align:start;writing-mode:lr-tb;direction:ltr;text-anchor:start;white-space:pre;inline-size:38.4401;display:none;fill:#fcfcfc;fill-opacity:1;stroke:none;stroke-opacity:1"
     x="58.761414"
     y="84.909058"
     id="text3"
     transform="translate(-28.109282,-17.4545)"><tspan
       x="58.761414"
       y="84.909058"
       id="tspan2"><tspan
         style="text-align:center;baseline-shift:baseline;text-anchor:middle"
         id="tspan1">4</tspan></tspan></text><g
     inkscape:groupmode="layer"
     id="layer1"
     inkscape:label="Layer 1"><g
       style="display:inline;fill:none"
       id="g3"
       transform="matrix(0.75167512,0,0,0.75167512,23.869118,-11.153361)"
       inkscape:label="pressed"><path
         d="m 21.769961,42.106639 c 5.282752,-2.1437 11.238715,1.97638 10.97997,7.44452 v 8.5e-4 c -0.237213,4.93455 -0.05812,6.58787 -0.04612,11.43392 2.315229,-0.86421 4.505901,-0.83103 6.366576,-0.0495 1.870565,0.7856 3.365181,2.31006 4.30659,4.3458 4.543104,-2.34245 10.339495,-0.17077 12.154478,5.21352 0.573513,-0.11598 1.135295,-0.25218 1.736117,-0.37788 0.713738,-0.14933 1.449798,-0.27371 2.196887,-0.28212 l 0.394858,0.007 c 4.061238,0.17507 7.543712,3.70175 7.665907,7.80605 0.09935,3.3475 0.04736,18.1416 0.03169,21.47877 -8.8e-5,0.10907 -0.008,0.21551 -0.01794,0.31967 0.0085,0.082 0.014,0.16552 0.01532,0.25052 l 0.0042,0.622271 c -0.02661,3.10643 -0.79567,6.16481 -2.246431,8.91648 l -8.75e-4,0.002 c -4.067715,7.61969 -10.461252,11.69344 -19.113474,11.87752 -5.695466,0.12202 -11.397059,0.0479 -17.082459,0.0163 -2.640239,-0.0151 -4.96746,-0.61903 -6.942803,-1.82242 -1.975561,-1.20373 -3.575039,-2.99298 -4.780885,-5.3434 -4.858313,-9.46785 -9.6468476,-18.971581 -14.4411076,-28.471121 -2.07095099,-4.10929 -0.892462,-8.74728 2.808896,-11.0612 3.540726,-2.21351 7.7695796,-1.43666 10.6320616,1.81901 v -0.23161 c 0,-9.64921 0.0037,-15.87285 0.01111,-25.52031 l 0.0061,-0.37184 c 0.117731,-3.81305 2.052634,-6.68618 5.361356,-8.02239 z m 3.067922,4.05008 c -2.183582,4.6e-4 -3.798467,1.61717 -3.80048,3.96802 -0.01199,12.31291 -0.01199,21.20173 0,33.51613 v 1.0138 c -8.7e-5,0.5399 -0.111165,1.0559 -0.384704,1.48656 -0.278441,0.4381 -0.703935,0.75401 -1.26598,0.91892 h -8.75e-4 c -0.583316,0.17016 -1.133195,0.13996 -1.619786,-0.094 -0.47959,-0.23065 -0.853266,-0.63759 -1.134333,-1.14204 -1.119188,-2.0072 -2.233913,-4.01292 -3.343998,-6.01706 h -8.75e-4 c -0.582528,-1.05397 -1.394915,-1.73786 -2.543077,-1.94032 v -8.8e-4 c -1.4625066,-0.2548 -2.6565016,0.19643 -3.5269396,1.37794 -0.874851,1.18764 -0.993352,2.53178 -0.306023,3.89624 2.006635,3.98596 4.0187056,7.96596 6.0358016,11.93993 v 8.8e-4 c 2.415717,4.76272 4.866624,9.516691 7.259845,14.296651 l 1.021502,2.05062 8.76e-4,8.8e-4 c 0.871034,1.76246 1.982257,3.04367 3.34321,3.88258 1.36104,0.83883 3.003585,1.25487 4.967285,1.23517 5.464206,-0.0541 10.943993,9e-5 16.398571,-0.0179 l 0.435123,-0.008 c 9.09032,-0.25402 16.029271,-6.97379 16.621778,-16.13702 v -0.002 c 0.0082,-0.11939 0.01103,-0.24028 0.01453,-0.37525 0.0033,-0.130951 0.0072,-0.274331 0.01961,-0.419721 l 0.01629,-0.13252 c -0.0155,-0.1348 -0.02583,-0.27389 -0.02653,-0.41709 -0.01575,-3.04123 0,-17.52538 0,-20.56581 0,-1.43063 -0.499809,-2.571 -1.617335,-3.36711 l -0.23161,-0.15472 c -2.351206,-1.47133 -5.167733,0.005 -5.269883,2.77049 -0.07169,1.94094 -0.01575,3.8677 -0.02477,5.8511 l -0.0086,0.29489 c -0.04009,0.67636 -0.222683,1.25714 -0.575263,1.68911 -0.414728,0.50795 -1.015725,0.75042 -1.716508,0.74368 -0.698071,-0.007 -1.286026,-0.25218 -1.685611,-0.77011 -0.385055,-0.49902 -0.547952,-1.19088 -0.547952,-2.00117 0,-3.38741 0.01584,-6.75723 -0.01112,-10.13283 -0.01891,-2.3302 -1.343446,-3.947 -3.405532,-4.34843 -2.140254,-0.41718 -3.94946,0.99052 -4.007406,3.15852 -0.05384,2.02436 -0.01375,4.0362 -0.02048,6.06739 0,0.55128 -0.08508,1.1058 -0.358183,1.57287 -0.247542,0.42322 -0.629707,0.74105 -1.158228,0.92487 l -0.235112,0.0701 c -0.780875,0.19922 -1.513521,0.0342 -2.048081,-0.45561 -0.525107,-0.48125 -0.805385,-1.22589 -0.810375,-2.09167 -0.01786,-3.32098 -6.12e-4,-6.71006 -0.01628,-10.02263 l -0.01365,-0.30601 c -0.127797,-1.5032 -1.114111,-2.6237 -2.523382,-2.94398 l -0.0052,-0.002 c -0.466022,-0.11222 -0.951476,-0.11957 -1.420649,-0.0214 -0.469086,0.0982 -0.910862,0.29988 -1.29329,0.58979 -0.382516,0.28991 -0.696495,0.66113 -0.918915,1.08733 -0.222506,0.42628 -0.348028,0.89712 -0.367636,1.37793 v 8.8e-4 c -0.05855,1.38721 0.0013,2.72068 -0.01961,4.1535 -0.0012,0.78604 -0.205088,1.47299 -0.612026,1.97122 -0.415866,0.50892 -1.014325,0.78333 -1.707931,0.7779 -0.690566,-0.006 -1.281321,-0.28106 -1.69001,-0.79497 -0.39976,-0.50304 -0.594519,-1.1949 -0.595745,-1.99171 v -22.13959 c 0,-1.3287 -0.31179,-2.28729 -0.845475,-2.90892 -0.524406,-0.61093 -1.316574,-0.95881 -2.419044,-0.96422 z"
         fill="#ffffff"
         stroke="#ffffff"
         id="path1"
         style="display:inline;fill:#fcfcfc;fill-opacity:1;stroke-width:0.875323"
         sodipodi:nodetypes="cccccccsccccccccccccccccscccccccccccccccccccccccccccccccccsccscccccscccccccccccccccccccccccscc" /></g><g
       style="display:none;fill:none"
       id="g4"
       transform="translate(-57.905275,-28.042871)"
       inkscape:label="jump"><path
         d="m 98.050932,105.59924 c -1.9814,0 -3.58758,-1.60626 -3.58758,-3.58754 V 86.632168 c 0,-0.660466 -0.535402,-1.195847 -1.195844,-1.195847 h -6.768085 c -2.978046,0 -4.659476,-3.418806 -2.841505,-5.777495 L 105.06373,51.885372 c 1.43621,-1.863335 4.24693,-1.863334 5.68302,0 l 21.4059,27.773454 c 1.81792,2.358689 0.13656,5.777495 -2.84157,5.777495 h -7.13131 c -0.66047,0 -1.19585,0.5355 -1.19585,1.195847 V 102.0117 c 0,1.98128 -1.60626,3.58754 -3.58754,3.58754 z"
         fill="#ffffff"
         fill-opacity="0.5"
         id="path1-0"
         style="fill:#000000;fill-opacity:0.7;stroke-width:1.19585" /></g></g></svg>
