<svg width="100" height="100" viewBox="0 0 100 100" fill="none" xmlns="http://www.w3.org/2000/svg">
<g opacity="0.9">
<rect x="1.5" y="1.5" width="97" height="97" rx="48.5" fill="black" fill-opacity="0.9"/>
<rect x="1.5" y="1.5" width="97" height="97" rx="48.5" stroke="#ECEBED" stroke-width="3"/>
<path d="M24.8258 56.9371C25.5391 59.2956 30.5322 60.8377 38.9135 62.6519C39.9835 62.924 40.8751 63.1054 41.3209 63.1962C42.2125 63.4683 43.1041 65.0104 43.8174 66.371C44.7982 68.0945 45.6007 69.5459 46.849 69.7273C46.9381 69.7273 47.1165 69.7273 47.2056 69.7273C48.6322 69.7273 50.2371 68.4574 52.0204 66.9153C53.3578 65.8268 54.7844 64.7382 55.8544 64.2847C56.6568 64.0126 58.6184 63.7404 60.9366 63.4683C68.1588 62.5612 75.1135 60.6563 76.8967 58.0257C79.3041 54.3065 75.7376 32.1731 72.2603 29.8147C68.6046 27.1841 37.3086 25.8234 29.4623 30.8125C25.3608 33.4431 24.1125 54.2158 24.8258 56.9371Z" fill="#FCFCFC" stroke="#FCFCFC" stroke-width="4"/>
<line x1="38.2264" y1="42.8647" x2="64.2123" y2="42.8647" stroke="black" stroke-width="3" stroke-linecap="round"/>
<path d="M39.1409 50.4033H56.6532" stroke="black" stroke-width="3" stroke-linecap="round"/>
</g>
</svg>
