<svg width="62" height="62" viewBox="0 0 62 62" fill="none" xmlns="http://www.w3.org/2000/svg">
<path d="M5.82584 37.9371C6.53914 40.2956 11.5322 41.8377 19.9135 43.6519C20.9835 43.924 21.8751 44.1054 22.3209 44.1962C23.2125 44.4683 24.1041 46.0104 24.8174 47.371C25.7982 49.0945 26.6007 50.5459 27.849 50.7273C27.9381 50.7273 28.1165 50.7273 28.2056 50.7273C29.6322 50.7273 31.2371 49.4574 33.0204 47.9153C34.3578 46.8268 35.7844 45.7382 36.8544 45.2847C37.6568 45.0126 39.6184 44.7404 41.9366 44.4683C49.1588 43.5612 56.1135 41.6563 57.8967 39.0257C60.3041 35.3065 56.7376 13.1731 53.2603 10.8147C49.6046 8.18407 18.3086 6.82341 10.4623 11.8125C6.36081 14.4431 5.11254 35.2158 5.82584 37.9371Z" fill="white" stroke="white" stroke-width="4"/>
<line x1="19.2264" y1="23.8647" x2="45.2123" y2="23.8647" stroke="black" stroke-width="3" stroke-linecap="round"/>
<path d="M20.1409 31.4033H37.6532" stroke="black" stroke-width="3" stroke-linecap="round"/>
</svg>
