<svg width="16" height="16" viewBox="0 0 16 16" fill="none" xmlns="http://www.w3.org/2000/svg">
<mask id="path-1-outside-1_2162_5293" maskUnits="userSpaceOnUse" x="-0.188477" y="0.0253906" width="16" height="16" fill="black">
<rect fill="white" x="-0.188477" y="0.0253906" width="16" height="16"/>
<path fill-rule="evenodd" clip-rule="evenodd" d="M8.55595 1.29998C8.18983 0.933861 7.59624 0.933862 7.23012 1.29998L5.70519 2.82491H3.54838C3.03061 2.82491 2.61088 3.24464 2.61088 3.76241V5.91922L1.08611 7.44399C0.719994 7.81011 0.719995 8.4037 1.08611 8.76982L2.61088 10.2946V12.4514C2.61088 12.9691 3.03061 13.3889 3.54838 13.3889H5.70515L7.23012 14.9138C7.59624 15.2799 8.18983 15.2799 8.55595 14.9138L10.0809 13.3889H12.2373C12.7551 13.3889 13.1748 12.9691 13.1748 12.4514V10.2949L14.7 8.76981C15.0661 8.4037 15.0661 7.81011 14.7 7.44399L13.1748 5.91886V3.76241C13.1748 3.24464 12.7551 2.82491 12.2373 2.82491H10.0809L8.55595 1.29998Z"/>
</mask>
<path fill-rule="evenodd" clip-rule="evenodd" d="M8.55595 1.29998C8.18983 0.933861 7.59624 0.933862 7.23012 1.29998L5.70519 2.82491H3.54838C3.03061 2.82491 2.61088 3.24464 2.61088 3.76241V5.91922L1.08611 7.44399C0.719994 7.81011 0.719995 8.4037 1.08611 8.76982L2.61088 10.2946V12.4514C2.61088 12.9691 3.03061 13.3889 3.54838 13.3889H5.70515L7.23012 14.9138C7.59624 15.2799 8.18983 15.2799 8.55595 14.9138L10.0809 13.3889H12.2373C12.7551 13.3889 13.1748 12.9691 13.1748 12.4514V10.2949L14.7 8.76981C15.0661 8.4037 15.0661 7.81011 14.7 7.44399L13.1748 5.91886V3.76241C13.1748 3.24464 12.7551 2.82491 12.2373 2.82491H10.0809L8.55595 1.29998Z" fill="url(#paint0_linear_2162_5293)"/>
<path d="M7.23012 1.29998L6.78818 0.858037V0.858037L7.23012 1.29998ZM8.55595 1.29998L8.99789 0.858036V0.858036L8.55595 1.29998ZM5.70519 2.82491V3.44991H5.96408L6.14713 3.26685L5.70519 2.82491ZM2.61088 5.91922L3.05282 6.36116L3.23588 6.1781V5.91922H2.61088ZM1.08611 7.44399L0.644169 7.00205H0.644169L1.08611 7.44399ZM1.08611 8.76982L0.644169 9.21176L0.644169 9.21176L1.08611 8.76982ZM2.61088 10.2946H3.23588V10.0357L3.05282 9.85264L2.61088 10.2946ZM5.70515 13.3889L6.14709 12.9469L5.96403 12.7639H5.70515V13.3889ZM10.0809 13.3889V12.7639H9.82204L9.63898 12.9469L10.0809 13.3889ZM13.1748 10.2949L12.7329 9.85301L12.5498 10.0361V10.2949H13.1748ZM13.1748 5.91886H12.5498V6.17774L12.7329 6.3608L13.1748 5.91886ZM10.0809 2.82491L9.63894 3.26685L9.82199 3.44991H10.0809V2.82491ZM7.67206 1.74192C7.7941 1.61988 7.99197 1.61988 8.11401 1.74192L8.99789 0.858036C8.38769 0.247841 7.39837 0.247843 6.78818 0.858037L7.67206 1.74192ZM6.14713 3.26685L7.67206 1.74192L6.78818 0.858037L5.26325 2.38297L6.14713 3.26685ZM3.54838 3.44991H5.70519V2.19991H3.54838V3.44991ZM3.23588 3.76241C3.23588 3.58982 3.37579 3.44991 3.54838 3.44991V2.19991C2.68543 2.19991 1.98588 2.89947 1.98588 3.76241H3.23588ZM3.23588 5.91922V3.76241H1.98588V5.91922H3.23588ZM1.52805 7.88593L3.05282 6.36116L2.16894 5.47728L0.644169 7.00205L1.52805 7.88593ZM1.52805 8.32787C1.40601 8.20583 1.40601 8.00797 1.52805 7.88593L0.644169 7.00205C0.0339739 7.61224 0.0339759 8.60156 0.644169 9.21176L1.52805 8.32787ZM3.05282 9.85264L1.52805 8.32787L0.644169 9.21176L2.16894 10.7365L3.05282 9.85264ZM3.23588 12.4514V10.2946H1.98588V12.4514H3.23588ZM3.54838 12.7639C3.37579 12.7639 3.23588 12.6239 3.23588 12.4514H1.98588C1.98588 13.3143 2.68544 14.0139 3.54838 14.0139V12.7639ZM5.70515 12.7639H3.54838V14.0139H5.70515V12.7639ZM7.67206 14.4719L6.14709 12.9469L5.26321 13.8308L6.78818 15.3558L7.67206 14.4719ZM8.11401 14.4719C7.99197 14.5939 7.7941 14.5939 7.67206 14.4719L6.78818 15.3558C7.39838 15.966 8.3877 15.966 8.99789 15.3558L8.11401 14.4719ZM9.63898 12.9469L8.11401 14.4719L8.99789 15.3558L10.5229 13.8308L9.63898 12.9469ZM12.2373 12.7639H10.0809V14.0139H12.2373V12.7639ZM12.5498 12.4514C12.5498 12.6239 12.4099 12.7639 12.2373 12.7639V14.0139C13.1003 14.0139 13.7998 13.3143 13.7998 12.4514H12.5498ZM12.5498 10.2949V12.4514H13.7998V10.2949H12.5498ZM14.258 8.32787L12.7329 9.85301L13.6168 10.7369L15.1419 9.21176L14.258 8.32787ZM14.258 7.88593C14.3801 8.00797 14.3801 8.20583 14.258 8.32787L15.1419 9.21176C15.7521 8.60156 15.7521 7.61224 15.1419 7.00205L14.258 7.88593ZM12.7329 6.3608L14.258 7.88593L15.1419 7.00205L13.6168 5.47691L12.7329 6.3608ZM12.5498 3.76241V5.91886H13.7998V3.76241H12.5498ZM12.2373 3.44991C12.4099 3.44991 12.5498 3.58982 12.5498 3.76241H13.7998C13.7998 2.89946 13.1003 2.19991 12.2373 2.19991V3.44991ZM10.0809 3.44991H12.2373V2.19991H10.0809V3.44991ZM8.11401 1.74192L9.63894 3.26685L10.5228 2.38297L8.99789 0.858036L8.11401 1.74192Z" fill="url(#paint1_linear_2162_5293)" mask="url(#path-1-outside-1_2162_5293)"/>
<path d="M5.22656 8.74467L6.58471 10.1934L10.8161 6.23951" stroke="#FCFCFC" stroke-width="1.7088" stroke-linecap="round" stroke-linejoin="round"/>
<defs>
<linearGradient id="paint0_linear_2162_5293" x1="7.89303" y1="1.02539" x2="7.89303" y2="15.1884" gradientUnits="userSpaceOnUse">
<stop stop-color="#FF2D55"/>
<stop offset="1" stop-color="#C640CD"/>
</linearGradient>
<linearGradient id="paint1_linear_2162_5293" x1="7.89303" y1="1.02539" x2="7.89303" y2="15.1884" gradientUnits="userSpaceOnUse">
<stop stop-color="#FF2D55"/>
<stop offset="1" stop-color="#C640CD"/>
</linearGradient>
</defs>
</svg>
