<svg width="26" height="26" viewBox="0 0 26 26" fill="none" xmlns="http://www.w3.org/2000/svg">
<rect x="1" y="1" width="24" height="24" rx="12" fill="url(#paint0_linear_8706_4287)"/>
<rect x="1" y="1" width="24" height="24" rx="12" stroke="#161518" stroke-width="2"/>
<path fill-rule="evenodd" clip-rule="evenodd" d="M19.9361 14.4241C19.8958 13.6066 19.7549 12.7075 19.5537 11.8696C19.3524 11.0522 19.0908 10.2961 18.7688 9.72386C17.5612 7.55768 16.2329 7.88465 14.663 8.3138L14.4893 8.35642C14.0358 8.468 13.5545 8.58646 13.0731 8.64077H12.8919C12.3284 8.57946 11.8051 8.45685 11.302 8.3138L11.299 8.31303C9.73047 7.90465 8.40306 7.55905 7.19625 9.7443C6.87423 10.3165 6.59247 11.0726 6.39121 11.8696C6.18994 12.7075 6.04906 13.6066 6.00881 14.4241C5.96856 15.3232 6.06919 15.9772 6.25032 16.4268C6.43146 16.8559 6.71322 17.1216 7.07549 17.2238C7.39751 17.3055 7.77991 17.2851 8.18243 17.1012C8.86671 16.8151 9.63151 16.2224 10.3963 15.5072C10.9397 14.9758 11.946 14.7102 12.9523 14.7102C13.9586 14.7102 14.9649 14.9758 15.5083 15.5072C16.2731 16.2224 17.058 16.8355 17.7222 17.1012C18.1247 17.2646 18.5071 17.3055 18.8291 17.2238C19.1713 17.1216 19.4732 16.8764 19.6543 16.4063C19.8958 15.9772 19.9763 15.3232 19.9361 14.4241ZM15.9918 11.0517C16.3252 11.0517 16.5955 10.7772 16.5955 10.4386C16.5955 10.1 16.3252 9.82553 15.9918 9.82553C15.6583 9.82553 15.388 10.1 15.388 10.4386C15.388 10.7772 15.6583 11.0517 15.9918 11.0517ZM16.5955 12.9525C16.5955 13.2911 16.3252 13.5656 15.9918 13.5656C15.6583 13.5656 15.388 13.2911 15.388 12.9525C15.388 12.6139 15.6583 12.3394 15.9918 12.3394C16.3252 12.3394 16.5955 12.6139 16.5955 12.9525ZM14.764 12.3188C15.0974 12.3188 15.3677 12.0443 15.3677 11.7057C15.3677 11.3671 15.0974 11.0927 14.764 11.0927C14.4305 11.0927 14.1602 11.3671 14.1602 11.7057C14.1602 12.0443 14.4305 12.3188 14.764 12.3188ZM17.8433 11.7057C17.8433 12.0443 17.573 12.3188 17.2396 12.3188C16.9061 12.3188 16.6358 12.0443 16.6358 11.7057C16.6358 11.3671 16.9061 11.0927 17.2396 11.0927C17.573 11.0927 17.8433 11.3671 17.8433 11.7057ZM9.24447 13.7923H9.91159C10.0351 13.7923 10.1093 13.6919 10.1093 13.5916V12.5629H11.147C11.2705 12.5629 11.3446 12.4625 11.3446 12.3622V11.6848C11.3446 11.5594 11.2458 11.4841 11.147 11.4841H10.1093V10.4555C10.1093 10.3301 10.0104 10.2548 9.91159 10.2548H9.24447C9.12093 10.2548 9.0468 10.3552 9.0468 10.4555V11.4841H8.05846C7.93492 11.4841 7.8608 11.5845 7.8608 11.6848V12.3622C7.8608 12.4876 7.93492 12.5629 8.03376 12.5629H9.0468V13.5916C9.0468 13.717 9.14563 13.7923 9.24447 13.7923Z" fill="#FCFCFC"/>
<mask id="path-3-outside-1_8706_4287" maskUnits="userSpaceOnUse" x="12" y="11.5" width="9" height="9" fill="black">
<rect fill="white" x="12" y="11.5" width="9" height="9"/>
<path fill-rule="evenodd" clip-rule="evenodd" d="M16.5 19.5C18.433 19.5 20 17.933 20 16C20 14.067 18.433 12.5 16.5 12.5C14.567 12.5 13 14.067 13 16C13 17.933 14.567 19.5 16.5 19.5ZM18.3506 14.7436C18.1537 14.5501 17.8371 14.5526 17.6436 14.7494L16.0088 16.4115L15.3301 15.8148C15.1226 15.6328 14.8062 15.6534 14.624 15.8607C14.4419 16.0682 14.4625 16.3846 14.6699 16.5668L15.7041 17.476C15.9033 17.651 16.2046 17.6395 16.3906 17.4506L18.3564 15.4506C18.55 15.2537 18.5474 14.9371 18.3506 14.7436Z"/>
</mask>
<path fill-rule="evenodd" clip-rule="evenodd" d="M16.5 19.5C18.433 19.5 20 17.933 20 16C20 14.067 18.433 12.5 16.5 12.5C14.567 12.5 13 14.067 13 16C13 17.933 14.567 19.5 16.5 19.5ZM18.3506 14.7436C18.1537 14.5501 17.8371 14.5526 17.6436 14.7494L16.0088 16.4115L15.3301 15.8148C15.1226 15.6328 14.8062 15.6534 14.624 15.8607C14.4419 16.0682 14.4625 16.3846 14.6699 16.5668L15.7041 17.476C15.9033 17.651 16.2046 17.6395 16.3906 17.4506L18.3564 15.4506C18.55 15.2537 18.5474 14.9371 18.3506 14.7436Z" fill="#FCFCFC"/>
<path d="M17.6436 14.7494L18.3565 15.4506L18.3565 15.4506L17.6436 14.7494ZM18.3506 14.7436L19.0518 14.0306L19.0515 14.0303L18.3506 14.7436ZM16.0088 16.4115L15.3485 17.1626L16.0587 17.7869L16.7217 17.1127L16.0088 16.4115ZM15.3301 15.8148L15.9903 15.0638L15.9897 15.0633L15.3301 15.8148ZM14.624 15.8607L13.8729 15.2006L13.8726 15.2009L14.624 15.8607ZM14.6699 16.5668L15.3302 15.8158L15.33 15.8156L14.6699 16.5668ZM15.7041 17.476L15.0438 18.227L15.044 18.2272L15.7041 17.476ZM16.3906 17.4506L17.1033 18.1521L17.1038 18.1516L16.3906 17.4506ZM18.3564 15.4506L19.0696 16.1516L19.0697 16.1515L18.3564 15.4506ZM20 16H19C19 17.3807 17.8807 18.5 16.5 18.5V19.5V20.5C18.9853 20.5 21 18.4853 21 16H20ZM16.5 12.5V13.5C17.8807 13.5 19 14.6193 19 16H20H21C21 13.5147 18.9853 11.5 16.5 11.5V12.5ZM13 16H14C14 14.6193 15.1193 13.5 16.5 13.5V12.5V11.5C14.0147 11.5 12 13.5147 12 16H13ZM16.5 19.5V18.5C15.1193 18.5 14 17.3807 14 16H13H12C12 18.4853 14.0147 20.5 16.5 20.5V19.5ZM17.6436 14.7494L18.3565 15.4506C18.1626 15.6478 17.8462 15.6499 17.6497 15.4568L18.3506 14.7436L19.0515 14.0303C18.4612 13.4502 17.5117 13.4574 16.9306 14.0482L17.6436 14.7494ZM16.0088 16.4115L16.7217 17.1127L18.3565 15.4506L17.6436 14.7494L16.9306 14.0482L15.2958 15.7103L16.0088 16.4115ZM15.3301 15.8148L14.6698 16.5659L15.3485 17.1626L16.0088 16.4115L16.6691 15.6605L15.9903 15.0638L15.3301 15.8148ZM14.624 15.8607L15.3752 16.5209C15.1933 16.7279 14.8782 16.7488 14.6704 16.5664L15.3301 15.8148L15.9897 15.0633C15.3671 14.5168 14.4192 14.5789 13.8729 15.2006L14.624 15.8607ZM14.6699 16.5668L15.33 15.8156C15.5368 15.9974 15.5581 16.3126 15.3754 16.5206L14.624 15.8607L13.8726 15.2009C13.3256 15.8238 13.3883 16.7718 14.0098 17.318L14.6699 16.5668ZM15.7041 17.476L16.3644 16.7249L15.3302 15.8158L14.6699 16.5668L14.0097 17.3178L15.0438 18.227L15.7041 17.476ZM16.3906 17.4506L15.678 16.7491C15.8625 16.5616 16.1634 16.5484 16.3642 16.7248L15.7041 17.476L15.044 18.2272C15.6431 18.7536 16.5467 18.7175 17.1033 18.1521L16.3906 17.4506ZM18.3564 15.4506L17.6433 14.7496L15.6775 16.7496L16.3906 17.4506L17.1038 18.1516L19.0696 16.1516L18.3564 15.4506ZM18.3506 14.7436L17.6494 15.4565C17.4522 15.2626 17.4501 14.9462 17.6432 14.7497L18.3564 15.4506L19.0697 16.1515C19.6498 15.5612 19.6426 14.6117 19.0518 14.0306L18.3506 14.7436Z" fill="#29AB60" mask="url(#path-3-outside-1_8706_4287)"/>
<defs>
<linearGradient id="paint0_linear_8706_4287" x1="-3.54843" y1="-4.94941" x2="-3.58538" y2="24.4458" gradientUnits="userSpaceOnUse">
<stop stop-color="#34CE76"/>
<stop offset="1" stop-color="#12763D"/>
</linearGradient>
</defs>
</svg>
