<svg width="26" height="26" viewBox="0 0 26 26" fill="none" xmlns="http://www.w3.org/2000/svg">
<rect x="1" y="1" width="24" height="24" rx="12" fill="url(#paint0_linear_8706_4287)"/>
<rect x="1" y="1" width="24" height="24" rx="12" stroke="#161518" stroke-width="2"/>
<path fill-rule="evenodd" clip-rule="evenodd" d="M19.9361 14.4241C19.8958 13.6066 19.7549 12.7075 19.5537 11.8696C19.3524 11.0522 19.0908 10.2961 18.7688 9.72386C17.5612 7.55768 16.2329 7.88465 14.663 8.3138L14.4893 8.35642C14.0358 8.468 13.5545 8.58646 13.0731 8.64077H12.8919C12.3284 8.57946 11.8051 8.45685 11.302 8.3138L11.299 8.31303C9.73047 7.90465 8.40306 7.55905 7.19625 9.7443C6.87423 10.3165 6.59247 11.0726 6.39121 11.8696C6.18994 12.7075 6.04906 13.6066 6.00881 14.4241C5.96856 15.3232 6.06919 15.9772 6.25032 16.4268C6.43146 16.8559 6.71322 17.1216 7.07549 17.2238C7.39751 17.3055 7.77991 17.2851 8.18243 17.1012C8.86671 16.8151 9.63151 16.2224 10.3963 15.5072C10.9397 14.9758 11.946 14.7102 12.9523 14.7102C13.9586 14.7102 14.9649 14.9758 15.5083 15.5072C16.2731 16.2224 17.058 16.8355 17.7222 17.1012C18.1247 17.2646 18.5071 17.3055 18.8291 17.2238C19.1713 17.1216 19.4732 16.8764 19.6543 16.4063C19.8958 15.9772 19.9763 15.3232 19.9361 14.4241ZM15.9918 11.0517C16.3252 11.0517 16.5955 10.7772 16.5955 10.4386C16.5955 10.1 16.3252 9.82553 15.9918 9.82553C15.6583 9.82553 15.388 10.1 15.388 10.4386C15.388 10.7772 15.6583 11.0517 15.9918 11.0517ZM16.5955 12.9525C16.5955 13.2911 16.3252 13.5656 15.9918 13.5656C15.6583 13.5656 15.388 13.2911 15.388 12.9525C15.388 12.6139 15.6583 12.3394 15.9918 12.3394C16.3252 12.3394 16.5955 12.6139 16.5955 12.9525ZM14.764 12.3188C15.0974 12.3188 15.3677 12.0443 15.3677 11.7057C15.3677 11.3671 15.0974 11.0927 14.764 11.0927C14.4305 11.0927 14.1602 11.3671 14.1602 11.7057C14.1602 12.0443 14.4305 12.3188 14.764 12.3188ZM17.8433 11.7057C17.8433 12.0443 17.573 12.3188 17.2396 12.3188C16.9061 12.3188 16.6358 12.0443 16.6358 11.7057C16.6358 11.3671 16.9061 11.0927 17.2396 11.0927C17.573 11.0927 17.8433 11.3671 17.8433 11.7057ZM9.24447 13.7923H9.91159C10.0351 13.7923 10.1093 13.6919 10.1093 13.5916V12.5629H11.147C11.2705 12.5629 11.3446 12.4625 11.3446 12.3622V11.6848C11.3446 11.5594 11.2458 11.4841 11.147 11.4841H10.1093V10.4555C10.1093 10.3301 10.0104 10.2548 9.91159 10.2548H9.24447C9.12093 10.2548 9.0468 10.3552 9.0468 10.4555V11.4841H8.05846C7.93492 11.4841 7.8608 11.5845 7.8608 11.6848V12.3622C7.8608 12.4876 7.93492 12.5629 8.03376 12.5629H9.0468V13.5916C9.0468 13.717 9.14563 13.7923 9.24447 13.7923Z" fill="#FCFCFC"/>
<mask id="path-3-outside-1_8706_4287" maskUnits="userSpaceOnUse" x="12" y="11.5" width="9" height="9" fill="black">
<rect fill="white" x="12" y="11.5" width="9" height="9"/>
<path fill-rule="evenodd" clip-rule="evenodd" d="M16.5 19.5C18.433 19.5 20 17.933 20 16C20 14.067 18.433 12.5 16.5 12.5C14.567 12.5 13 14.067 13 16C13 17.933 14.567 19.5 16.5 19.5ZM15.8206 15.9444L14.7576 17.0074L15.3815 17.6313L16.4444 16.5683L17.5074 17.6313L18.1313 17.0074L17.0683 15.9444L18.1313 14.8815L17.5074 14.2576L16.4444 15.3206L15.3815 14.2576L14.7576 14.8815L15.8206 15.9444Z"/>
</mask>
<path fill-rule="evenodd" clip-rule="evenodd" d="M16.5 19.5C18.433 19.5 20 17.933 20 16C20 14.067 18.433 12.5 16.5 12.5C14.567 12.5 13 14.067 13 16C13 17.933 14.567 19.5 16.5 19.5ZM15.8206 15.9444L14.7576 17.0074L15.3815 17.6313L16.4444 16.5683L17.5074 17.6313L18.1313 17.0074L17.0683 15.9444L18.1313 14.8815L17.5074 14.2576L16.4444 15.3206L15.3815 14.2576L14.7576 14.8815L15.8206 15.9444Z" fill="#FCFCFC"/>
<path d="M14.7576 17.0074L14.0505 16.3003L13.3434 17.0074L14.0505 17.7145L14.7576 17.0074ZM15.8206 15.9444L16.5277 16.6516L17.2348 15.9444L16.5277 15.2373L15.8206 15.9444ZM15.3815 17.6313L14.6744 18.3384L15.3815 19.0455L16.0886 18.3384L15.3815 17.6313ZM16.4444 16.5683L17.1516 15.8612L16.4444 15.1541L15.7373 15.8612L16.4444 16.5683ZM17.5074 17.6313L16.8003 18.3384L17.5074 19.0455L18.2145 18.3384L17.5074 17.6313ZM18.1313 17.0074L18.8384 17.7145L19.5455 17.0074L18.8384 16.3003L18.1313 17.0074ZM17.0683 15.9444L16.3612 15.2373L15.6541 15.9444L16.3612 16.6516L17.0683 15.9444ZM18.1313 14.8815L18.8384 15.5886L19.5455 14.8815L18.8384 14.1744L18.1313 14.8815ZM17.5074 14.2576L18.2145 13.5505L17.5074 12.8434L16.8003 13.5505L17.5074 14.2576ZM16.4444 15.3206L15.7373 16.0277L16.4444 16.7348L17.1516 16.0277L16.4444 15.3206ZM15.3815 14.2576L16.0886 13.5505L15.3815 12.8434L14.6744 13.5505L15.3815 14.2576ZM14.7576 14.8815L14.0505 14.1744L13.3434 14.8815L14.0505 15.5886L14.7576 14.8815ZM20 16H19C19 17.3807 17.8807 18.5 16.5 18.5V19.5V20.5C18.9853 20.5 21 18.4853 21 16H20ZM16.5 12.5V13.5C17.8807 13.5 19 14.6193 19 16H20H21C21 13.5147 18.9853 11.5 16.5 11.5V12.5ZM13 16H14C14 14.6193 15.1193 13.5 16.5 13.5V12.5V11.5C14.0147 11.5 12 13.5147 12 16H13ZM16.5 19.5V18.5C15.1193 18.5 14 17.3807 14 16H13H12C12 18.4853 14.0147 20.5 16.5 20.5V19.5ZM14.7576 17.0074L15.4647 17.7145L16.5277 16.6516L15.8206 15.9444L15.1135 15.2373L14.0505 16.3003L14.7576 17.0074ZM15.3815 17.6313L16.0886 16.9242L15.4647 16.3003L14.7576 17.0074L14.0505 17.7145L14.6744 18.3384L15.3815 17.6313ZM16.4444 16.5683L15.7373 15.8612L14.6744 16.9242L15.3815 17.6313L16.0886 18.3384L17.1516 17.2754L16.4444 16.5683ZM17.5074 17.6313L18.2145 16.9242L17.1516 15.8612L16.4444 16.5683L15.7373 17.2754L16.8003 18.3384L17.5074 17.6313ZM18.1313 17.0074L17.4242 16.3003L16.8003 16.9242L17.5074 17.6313L18.2145 18.3384L18.8384 17.7145L18.1313 17.0074ZM17.0683 15.9444L16.3612 16.6516L17.4242 17.7145L18.1313 17.0074L18.8384 16.3003L17.7754 15.2373L17.0683 15.9444ZM18.1313 14.8815L17.4242 14.1744L16.3612 15.2373L17.0683 15.9444L17.7754 16.6516L18.8384 15.5886L18.1313 14.8815ZM17.5074 14.2576L16.8003 14.9647L17.4242 15.5886L18.1313 14.8815L18.8384 14.1744L18.2145 13.5505L17.5074 14.2576ZM16.4444 15.3206L17.1516 16.0277L18.2145 14.9647L17.5074 14.2576L16.8003 13.5505L15.7373 14.6135L16.4444 15.3206ZM15.3815 14.2576L14.6743 14.9647L15.7373 16.0277L16.4444 15.3206L17.1516 14.6135L16.0886 13.5505L15.3815 14.2576ZM14.7576 14.8815L15.4647 15.5886L16.0886 14.9647L15.3815 14.2576L14.6744 13.5505L14.0505 14.1744L14.7576 14.8815ZM15.8206 15.9444L16.5277 15.2373L15.4647 14.1744L14.7576 14.8815L14.0505 15.5886L15.1135 16.6516L15.8206 15.9444Z" fill="#B92D37" mask="url(#path-3-outside-1_8706_4287)"/>
<defs>
<linearGradient id="paint0_linear_8706_4287" x1="-3.5486" y1="-4.94954" x2="-3.58555" y2="24.4457" gradientUnits="userSpaceOnUse">
<stop stop-color="#FF4B6B"/>
<stop offset="0.366155" stop-color="#DA3B50"/>
<stop offset="1" stop-color="#9B2020"/>
</linearGradient>
</defs>
</svg>
