<svg width="94" height="98" viewBox="0 0 94 98" fill="none" xmlns="http://www.w3.org/2000/svg">
<path d="M48.3413 36.9899L58.2572 31.9679C58.5448 31.8222 58.8851 31.8241 59.171 31.9731L76.49 40.9951C76.8206 41.1673 77.028 41.5092 77.028 41.882V76.6084C77.028 77.3392 76.2697 77.8231 75.6068 77.5154L59.1366 69.8678C58.8695 69.7438 58.5614 69.7438 58.2943 69.8678L40.824 77.9797C40.5569 78.1037 40.2488 78.1037 39.9817 77.9797L22.6692 69.941C22.3162 69.7771 22.0903 69.4233 22.0903 69.034V52.3419" stroke="white" stroke-width="4" stroke-linejoin="round"/>
<line x1="58.5361" y1="32.2193" x2="58.5361" y2="70.9373" stroke="white" stroke-width="2.5" stroke-linejoin="round"/>
<path d="M40.1545 53.9918L40.1545 78.1747" stroke="white" stroke-width="2.5" stroke-linejoin="round"/>
<path d="M31.6118 18.3248C40.6052 18.325 47.7505 26.0208 47.7505 35.3297C47.7504 37.4747 46.9821 39.9007 45.9038 42.2887C44.812 44.7065 43.3362 47.2268 41.7847 49.5993C38.6807 54.3455 35.1904 58.6218 33.6108 60.4957C32.5601 61.7423 30.6635 61.7423 29.6128 60.4957C28.0333 58.6219 24.5421 54.3457 21.438 49.5993C19.8865 47.2269 18.4116 44.7065 17.3198 42.2887C16.2415 39.9006 15.4722 37.4747 15.4722 35.3297C15.4722 26.0207 22.6183 18.3248 31.6118 18.3248Z" stroke="white" stroke-width="3"/>
<path fill-rule="evenodd" clip-rule="evenodd" d="M31.6086 40.8096C34.4671 40.8096 36.7843 38.3553 36.7843 35.3279C36.7843 32.3005 34.4671 29.8463 31.6086 29.8463C28.7501 29.8463 26.4329 32.3005 26.4329 35.3279C26.4329 38.3553 28.7501 40.8096 31.6086 40.8096Z" fill="white"/>
</svg>
