<svg width="100" height="100" viewBox="0 0 100 100" fill="none" xmlns="http://www.w3.org/2000/svg">
<path d="M36.5278 53.6525L55.5 64.5975M55.4722 34.4025L36.5278 45.3475M71 30.25C71 34.8063 67.269 38.5 62.6667 38.5C58.0643 38.5 54.3333 34.8063 54.3333 30.25C54.3333 25.6937 58.0643 22 62.6667 22C67.269 22 71 25.6937 71 30.25ZM37.6667 49.5C37.6667 54.0563 33.9357 57.75 29.3333 57.75C24.731 57.75 21 54.0563 21 49.5C21 44.9437 24.731 41.25 29.3333 41.25C33.9357 41.25 37.6667 44.9437 37.6667 49.5ZM71 68.75C71 73.3063 67.269 77 62.6667 77C58.0643 77 54.3333 73.3063 54.3333 68.75C54.3333 64.1937 58.0643 60.5 62.6667 60.5C67.269 60.5 71 64.1937 71 68.75Z" stroke="white" stroke-width="4" stroke-linecap="round" stroke-linejoin="round"/>
</svg>
