<svg width="22" height="23" viewBox="0 0 22 23" fill="none" xmlns="http://www.w3.org/2000/svg">
<path d="M5.59517 12.4331V17.4281C5.59517 17.693 5.69008 17.9471 5.85901 18.1344C6.02794 18.3218 6.25707 18.427 6.49597 18.427H15.504C15.7429 18.427 15.9721 18.3218 16.141 18.1344C16.3099 17.9471 16.4048 17.693 16.4048 17.4281V12.4331C16.4048 10.8434 15.8354 9.31886 14.8218 8.19479C13.8082 7.07071 12.4335 6.43921 11 6.43921C9.56655 6.43921 8.19181 7.07071 7.17821 8.19479C6.16461 9.31886 5.59517 10.8434 5.59517 12.4331Z" stroke="#FCFCFC" stroke-width="1.69792" stroke-linecap="round" stroke-linejoin="round"/>
<line x1="6.02197" y1="14.0597" x2="15.9803" y2="14.0597" stroke="#FCFCFC" stroke-width="0.848958" stroke-linecap="round" stroke-linejoin="round"/>
<line x1="9.085" y1="14.7972" x2="9.085" y2="15.408" stroke="#FCFCFC" stroke-width="1.69792" stroke-linecap="round" stroke-linejoin="round"/>
<path d="M8.52916 7.09651V5.65096C8.52916 5.18209 8.14907 4.802 7.6802 4.802H7.32516C6.85629 4.802 6.4762 5.18209 6.4762 5.65096V9.04097" stroke="#FCFCFC" stroke-width="0.848958" stroke-linecap="round" stroke-linejoin="round"/>
<path d="M13.3035 6.95247V5.65096C13.3035 5.18209 13.6835 4.802 14.1524 4.802H14.5075C14.9763 4.802 15.3564 5.18209 15.3564 5.65096L15.3564 8.89693" stroke="#FCFCFC" stroke-width="0.848958" stroke-linecap="round" stroke-linejoin="round"/>
</svg>
