<?xml version="1.0" encoding="UTF-8" standalone="no"?>
<!-- Uploaded to: SVG Repo, www.svgrepo.com, Generator: SVG Repo Mixer Tools -->

<svg
   fill="#000000"
   width="800px"
   height="800px"
   viewBox="0 0 16 16"
   version="1.1"
   id="svg1"
   sodipodi:docname="cancel-icon.svg"
   inkscape:version="1.4.2 (f4327f4, 2025-05-13)"
   xmlns:inkscape="http://www.inkscape.org/namespaces/inkscape"
   xmlns:sodipodi="http://sodipodi.sourceforge.net/DTD/sodipodi-0.dtd"
   xmlns="http://www.w3.org/2000/svg"
   xmlns:svg="http://www.w3.org/2000/svg">
  <defs
     id="defs1" />
  <sodipodi:namedview
     id="namedview1"
     pagecolor="#505050"
     bordercolor="#eeeeee"
     borderopacity="1"
     inkscape:showpageshadow="0"
     inkscape:pageopacity="0"
     inkscape:pagecheckerboard="0"
     inkscape:deskcolor="#505050"
     inkscape:zoom="1.56375"
     inkscape:cx="399.68026"
     inkscape:cy="400"
     inkscape:window-width="2560"
     inkscape:window-height="1511"
     inkscape:window-x="-9"
     inkscape:window-y="592"
     inkscape:window-maximized="1"
     inkscape:current-layer="svg1" />
  <g
     id="g1"
     style="fill:#ffffff">
    <path
       d="M13,3.05A7,7,0,1,0,13,13,7,7,0,0,0,13,3.05ZM12,12A5.6,5.6,0,0,1,4,12,5.61,5.61,0,0,1,4,4,5.6,5.6,0,0,1,12,4,5.61,5.61,0,0,1,12,12ZM10.65,4.08,8,6.73,5.35,4.08,4.08,5.35,6.73,8,4.08,10.65l1.27,1.27L8,9.27l2.65,2.65,1.27-1.27L9.27,8l2.65-2.65Z"
       id="path1"
       style="fill:#ffffff" />
  </g>
</svg>
