<svg width="21" height="18" viewBox="0 0 21 18" fill="none" xmlns="http://www.w3.org/2000/svg">
<path d="M1.78354 11.1607C2.02698 11.9562 3.71447 12.4714 6.5462 13.0746C9.08177 13.6148 8.47682 16.7403 9.09198 16.7383C9.93952 16.7356 11.1565 14.0825 12.2677 13.6072C12.5383 13.5144 13.2003 13.4204 13.9827 13.3259C16.42 13.0117 18.766 12.3609 19.3652 11.4708C20.1739 10.2124 18.9453 2.74358 17.7686 1.95114C16.5315 1.06702 5.96367 0.642189 3.32008 2.33529C1.93822 3.22798 1.53971 10.2427 1.78354 11.1607Z" stroke="#FCFCFC" stroke-width="1.60003" stroke-linecap="round" stroke-linejoin="round"/>
<line x1="6.18568" y1="6.50195" x2="15.172" y2="6.47255" stroke="#FCFCFC" stroke-width="0.800016" stroke-linecap="round" stroke-linejoin="round"/>
<path d="M6.6095 8.93927L12.5221 8.91993" stroke="#FCFCFC" stroke-width="0.800016" stroke-linecap="round" stroke-linejoin="round"/>
</svg>
