<svg width="14" height="14" viewBox="0 0 14 14" fill="none" xmlns="http://www.w3.org/2000/svg">
<path d="M11.1405 4.8045C11.1405 5.771 10.357 6.5545 9.3905 6.5545C8.424 6.5545 7.6405 5.771 7.6405 4.8045C7.6405 3.838 8.424 3.0545 9.3905 3.0545C10.357 3.0545 11.1405 3.838 11.1405 4.8045Z" fill="#CFCDD4"/>
<path d="M4.9595 3.75449C5.44274 3.75449 5.8345 3.36274 5.8345 2.87949C5.8345 2.39624 5.44274 2.00449 4.9595 2.00449C4.47625 2.00449 4.0845 2.39624 4.0845 2.87949C4.0845 3.36274 4.47625 3.75449 4.9595 3.75449Z" fill="#CFCDD4"/>
<path fill-rule="evenodd" clip-rule="evenodd" d="M12.5232 11.301C12.3429 11.5322 12.1484 11.7518 11.9411 11.9584C11.6944 12.2043 11.4294 12.4319 11.1483 12.6389C9.9874 13.4944 8.55274 14 7 14C5.44726 14 4.0126 13.4944 2.85165 12.6389C2.57063 12.4319 2.30564 12.2043 2.0589 11.9584C1.85155 11.7518 1.65709 11.5322 1.47682 11.301C1.40346 11.207 1.33246 11.111 1.26389 11.0132C1.00301 10.641 0.777437 10.2422 0.592027 9.82179C0.59102 9.81951 0.590015 9.81723 0.58901 9.81494C0.210249 8.95356 0 8.00133 0 7C0 3.13401 3.13401 0 7 0C10.866 0 14 3.13401 14 7C14 8.55277 13.4944 9.98746 12.6389 11.1484C12.601 11.1998 12.5624 11.2507 12.5232 11.301ZM11.63 11.301C11.41 11.5378 11.172 11.7576 10.9183 11.9584L3.0817 11.9584C2.82798 11.7576 2.59003 11.5378 2.37001 11.301L11.63 11.301ZM9.38253 7.50938L9.40635 7.53798L9.43055 7.50938V7.56702L11.9746 10.6205H12.1802C12.8982 9.59512 13.3194 8.34676 13.3194 7C13.3194 3.50987 10.4901 0.680556 7 0.680556C3.50987 0.680556 0.680556 3.50987 0.680556 7C0.680556 7.77697 0.820775 8.52119 1.07729 9.20874L3.52877 6.26696L4.94727 4.55498L4.95134 4.55988L4.95951 4.55008V4.56975L8.38529 8.70585L9.38253 7.50938ZM9.43055 8.6302V10.6205H11.0888L9.43055 8.6302ZM6.78946 10.6205L7.45516 9.82179H1.34399C1.48325 10.1004 1.64248 10.3672 1.81981 10.6205H6.78946ZM4.95951 5.63666V9.14124H7.86223L4.95951 5.63666ZM7 13.3194C5.97237 13.3194 5.00202 13.0742 4.14432 12.6389L9.85568 12.6389C8.99798 13.0742 8.02763 13.3194 7 13.3194Z" fill="#CFCDD4"/>
</svg>
