<svg width="72" height="103" viewBox="0 0 72 103" fill="none" xmlns="http://www.w3.org/2000/svg">
<path d="M23.7799 99C21.2169 99 19.1392 96.9223 19.1392 94.3593V75.2557C19.1392 74.4014 18.4467 73.7088 17.5924 73.7088H9.43567C5.58345 73.7088 3.40846 69.2864 5.76007 66.2353L32.3244 31.7689C34.1821 29.3586 37.8179 29.3586 39.6756 31.7689L66.2399 66.2353C68.5915 69.2864 66.4165 73.7088 62.5643 73.7088H53.9519C53.0976 73.7088 52.4051 74.4014 52.4051 75.2557V94.3593C52.4051 96.9223 50.3274 99 47.7644 99H23.7799Z" stroke="white" stroke-width="6.18749"/>
<path d="M4.5 39L29.9831 7.44947C33.0788 3.6167 38.9212 3.6167 42.0169 7.44947L67.5 39" stroke="white" stroke-width="6.18749" stroke-linecap="round"/>
</svg>
