<svg width="21" height="18" viewBox="0 0 21 18" fill="none" xmlns="http://www.w3.org/2000/svg">
<path d="M15.4794 7.51887L16.7705 6.21932C17.3186 5.66758 18.2102 5.66467 18.762 6.2128L18.8793 6.32938C19.4311 6.87751 19.434 7.76913 18.8858 8.32086L12.4114 14.8472C11.1661 16.1025 9.13864 16.1098 7.88422 14.8636L3.88595 10.8914C3.28378 10.2931 2.94396 9.48051 2.94123 8.63168C2.93909 7.96772 2.93617 7.06498 2.93251 5.9478C2.92409 3.37418 0.629582 2.18643 1.79995 1.60923C3.78068 0.632358 5.10147 2.1593 5.49476 3.71076C5.88804 5.26221 7.41885 5.9331 7.41885 5.9331" stroke="#FCFCFC" stroke-width="1.60003" stroke-linejoin="round"/>
<path d="M12.1631 4.39333L9.46151 7.1128C8.98101 7.59648 8.98308 8.37794 9.46615 8.85907V8.85907C9.95008 9.34105 10.7333 9.33899 11.2146 8.85445L13.9312 6.1201" stroke="#FCFCFC" stroke-width="0.800016" stroke-linecap="round" stroke-linejoin="round"/>
<path d="M13.8836 6.16642L11.2119 8.85561C10.7299 9.34077 10.7325 10.1248 11.2176 10.6068V10.6068C11.7028 11.0888 12.4868 11.0862 12.9688 10.6011L15.7817 7.76967" stroke="#FCFCFC" stroke-width="0.800016" stroke-linecap="round" stroke-linejoin="round"/>
<path d="M12.047 4.50509L9.45622 7.11282C8.97484 7.59736 8.19166 7.59943 7.70772 7.11744C7.22466 6.63632 7.22259 5.85485 7.70309 5.37117L9.36781 3.70267C9.99101 3.07806 11.0022 3.07583 11.6282 3.6977L15.7264 7.7692" stroke="#FCFCFC" stroke-width="0.800016" stroke-linecap="round" stroke-linejoin="round"/>
</svg>
