<svg width="10" height="10" viewBox="0 0 10 10" fill="none" xmlns="http://www.w3.org/2000/svg">
<path fill-rule="evenodd" clip-rule="evenodd" d="M9.3822 0.624898C9.78816 1.03123 9.78785 1.68972 9.38152 2.09568L2.095 9.37541C1.68866 9.78137 1.03017 9.78106 0.624213 9.37473C0.218257 8.9684 0.218563 8.3099 0.624898 7.90395L7.91142 0.624213C8.31775 0.218257 8.97625 0.218563 9.3822 0.624898Z" fill="#ECEBED"/>
<path fill-rule="evenodd" clip-rule="evenodd" d="M9.3822 9.37499C8.97625 9.78133 8.31775 9.78164 7.91142 9.37568L0.624899 2.09595C0.218565 1.68999 0.218258 1.0315 0.624214 0.625164C1.03017 0.218829 1.68866 0.218523 2.095 0.624479L9.38152 7.90421C9.78785 8.31017 9.78816 8.96866 9.3822 9.37499Z" fill="#ECEBED"/>
</svg>
