<svg width="123" height="123" viewBox="2 0 123 123" fill="none" xmlns="http://www.w3.org/2000/svg">
<path d="M56.5264 74.2292L56.5264 62.8403" stroke="white" stroke-width="4" stroke-linecap="round"/>
<path d="M62.7895 77.6453L72.7378 72.1011" stroke="white" stroke-width="4" stroke-linecap="round"/>
<path d="M15.607 44.1872C15.3596 44.2593 15.1495 44.4241 15.0206 44.6474L9.06816 54.9572C8.6984 55.5977 9.12767 56.404 9.86544 56.4549L67.09 60.3981C67.1329 60.4007 67.1676 60.4251 67.2102 60.432C67.3384 60.4483 67.4538 60.4905 67.5761 60.5323C67.6942 60.5739 67.8101 60.6075 67.914 60.6697C68.0139 60.7274 68.097 60.8064 68.1879 60.8833C68.2903 60.9713 68.3886 61.0547 68.4692 61.1611C68.4948 61.1936 68.53 61.2095 68.5537 61.2454L100.581 108.832C100.994 109.445 101.907 109.414 102.277 108.773L108.229 98.4635C108.358 98.2402 108.395 97.9758 108.334 97.7255L90.163 23.5662C90.0275 23.0134 89.4586 22.685 88.9122 22.8441L15.607 44.1872Z" stroke="white" stroke-width="5" stroke-linecap="round"/>
<path d="M68.2201 61.3542C68.0537 61.0937 67.7762 60.9247 67.4684 60.8966L46.2819 58.9592C45.6771 58.9039 45.1631 59.396 45.192 60.0026L45.6807 70.26C45.6971 70.6038 45.8891 70.915 46.189 71.0839L58.1981 77.8431L70.2379 84.7943C70.5208 84.9577 70.8656 84.9725 71.1615 84.8341L79.4098 80.9764C79.957 80.7205 80.1541 80.0415 79.829 79.5324L68.2201 61.3542Z" stroke="white" stroke-width="4" stroke-linecap="round"/>
</svg>
