<svg width="24" height="24" viewBox="0 0 24 24" fill="none" xmlns="http://www.w3.org/2000/svg">
<path d="M15.0928 8.70529L15.1542 8.83112C14.6492 7.79571 15.5054 6.99094 15.8082 6.84325C16.9056 6.30799 17.7187 7.51928 18.0671 8.23372L20.0748 12.3502C21.7582 15.8016 19.8957 18.8461 16.5599 20.4731C13.2242 22.1 11.6558 21.7969 6.96305 18.7452L4.51125 17.1586C3.68348 16.6352 3.57977 15.4831 4.29759 14.7912C4.53193 14.5642 4.83041 14.4147 5.15257 14.3631C5.47472 14.3114 5.80497 14.3601 6.09854 14.5024L8.87907 15.6745L4.43364 6.56005C4.08476 5.84476 4.36344 4.97078 5.08823 4.61728C5.52569 4.40391 6.50874 4.24487 7.01375 5.28029M15.0928 8.70529C14.7444 7.99085 13.9085 7.68078 13.1846 8.03386C12.7471 8.24722 11.9993 8.93238 12.5043 9.96779M15.0928 8.70529L14.9439 8.39964M12.5043 9.96779L12.101 9.1409C11.7525 8.42647 10.9167 8.1164 10.1927 8.46948C9.46794 8.82298 9.16401 9.68898 9.51246 10.4034L7.01375 5.28029M12.5043 9.96779L12.3553 9.66215M7.01375 5.28029L9.76672 10.9247" stroke="#FCFCFC" stroke-width="1.91917" stroke-linecap="round" stroke-linejoin="round"/>
</svg>
