<svg width="18" height="30" viewBox="0 0 18 30" fill="none" xmlns="http://www.w3.org/2000/svg">
<path d="M10.1408 1.16275L16.9767 8.02817C18.1952 9.25201 17.3333 11.3116 15.6095 11.3116L13.3507 11.3116C13.3507 11.3713 13.3507 11.4012 13.3507 11.4609L13.3507 17.9731C13.3507 19.0775 12.4888 19.973 11.3891 19.973L6.18792 19.973C5.08824 19.973 4.19661 19.0775 4.19661 17.9731L4.19661 11.4907C4.19661 11.431 4.19661 11.4012 4.19661 11.3415L1.93781 11.3415C0.213987 11.3415 -0.647923 9.25201 0.57064 8.05803L7.40649 1.1926C8.17923 0.416506 9.3978 0.416508 10.1408 1.16275Z" fill="#FCFCFC"/>
<path opacity="0.3" d="M10.1408 6.17618L16.9767 13.0416C18.1952 14.2654 17.3333 16.3251 15.6095 16.3251L13.3507 16.3251C13.3507 16.3848 13.3507 16.4146 13.3507 16.4743L13.3507 22.9865C13.3507 24.091 12.4888 24.9865 11.3891 24.9865L6.18792 24.9865C5.08824 24.9865 4.19661 24.091 4.19661 22.9865L4.19661 16.5042C4.19661 16.4445 4.19661 16.4146 4.19661 16.3549L1.93781 16.3549C0.213987 16.3549 -0.647923 14.2654 0.57064 13.0715L7.40649 6.20603C8.17923 5.42993 9.3978 5.42994 10.1408 6.17618Z" fill="#FCFCFC"/>
<path opacity="0.1" d="M10.1408 11.1897L16.9767 18.0552C18.1952 19.279 17.3333 21.3386 15.6095 21.3386L13.3507 21.3386C13.3507 21.3983 13.3507 21.4282 13.3507 21.4879L13.3507 28.0001C13.3507 29.1045 12.4888 30 11.3891 30L6.18792 30C5.08824 30 4.19661 29.1045 4.19661 28.0001L4.19661 21.5177C4.19661 21.458 4.19661 21.4282 4.19661 21.3685L1.93781 21.3685C0.213987 21.3685 -0.647923 19.279 0.57064 18.085L7.40649 11.2196C8.17923 10.4435 9.3978 10.4435 10.1408 11.1897Z" fill="#FCFCFC"/>
</svg>
