<svg width="60" height="60" viewBox="0 0 60 60" fill="none" xmlns="http://www.w3.org/2000/svg">
<circle cx="30" cy="30" r="28.5" stroke="#FCFCFC" stroke-width="3"/>
<path d="M31.1408 18.1627L37.9767 25.0282C39.1952 26.252 38.3333 28.3116 36.6095 28.3116L34.3507 28.3116C34.3507 28.3713 34.3507 28.4012 34.3507 28.4609L34.3507 34.9731C34.3507 36.0775 33.4888 36.973 32.3891 36.973L27.1879 36.973C26.0882 36.973 25.1966 36.0775 25.1966 34.9731L25.1966 28.4907C25.1966 28.431 25.1966 28.4012 25.1966 28.3415L22.9378 28.3415C21.214 28.3415 20.3521 26.252 21.5706 25.058L28.4065 18.1926C29.1792 17.4165 30.3978 17.4165 31.1408 18.1627Z" fill="#FCFCFC"/>
<path opacity="0.3" d="M31.1408 23.1761L37.9767 30.0416C39.1952 31.2654 38.3333 33.325 36.6095 33.325L34.3507 33.325C34.3507 33.3847 34.3507 33.4146 34.3507 33.4743L34.3507 39.9865C34.3507 41.0909 33.4888 41.9864 32.3891 41.9864L27.1879 41.9864C26.0882 41.9864 25.1966 41.0909 25.1966 39.9865L25.1966 33.5041C25.1966 33.4444 25.1966 33.4146 25.1966 33.3549L22.9378 33.3549C21.214 33.3549 20.3521 31.2654 21.5706 30.0714L28.4065 23.206C29.1792 22.4299 30.3978 22.4299 31.1408 23.1761Z" fill="#FCFCFC"/>
<path opacity="0.1" d="M31.1408 28.1897L37.9767 35.0552C39.1952 36.279 38.3333 38.3386 36.6095 38.3386L34.3507 38.3386C34.3507 38.3983 34.3507 38.4282 34.3507 38.4879L34.3507 45.0001C34.3507 46.1045 33.4888 47 32.3891 47L27.1879 47C26.0882 47 25.1966 46.1045 25.1966 45.0001L25.1966 38.5177C25.1966 38.458 25.1966 38.4282 25.1966 38.3685L22.9378 38.3685C21.214 38.3685 20.3521 36.279 21.5706 35.085L28.4065 28.2196C29.1792 27.4435 30.3978 27.4435 31.1408 28.1897Z" fill="#FCFCFC"/>
</svg>
