<svg width="22" height="23" viewBox="0 0 22 23" fill="none" xmlns="http://www.w3.org/2000/svg">
<path d="M11.3139 9.19805L13.3656 8.20133C13.6029 8.08609 13.8801 8.08764 14.1161 8.20552L17.5583 9.9255C17.846 10.0693 18.0278 10.3633 18.0278 10.6849V17.1363C18.0278 17.7509 17.3949 18.1619 16.8334 17.9118L14.0873 16.6887C13.8674 16.5908 13.6163 16.5908 13.3965 16.6887L9.80135 18.2899C9.5815 18.3878 9.33041 18.3878 9.11056 18.2899L5.67361 16.7592C5.36735 16.6228 5.17004 16.3189 5.17004 15.9837V12.6444" stroke="#FCFCFC" stroke-width="1.69792" stroke-linejoin="round"/>
<line x1="13.8319" y1="8.12708" x2="13.8319" y2="16.8189" stroke="#FCFCFC" stroke-width="0.848958" stroke-linejoin="round"/>
<path d="M9.39789 13.0148L9.39789 18.4436" stroke="#FCFCFC" stroke-width="0.848958" stroke-linejoin="round"/>
<path d="M6.04324 14.2112C6.75204 15.0653 8.04482 15.0653 8.75362 14.2112C9.26554 13.5944 9.97371 12.691 10.5584 11.7551C10.8507 11.2872 11.1224 10.7951 11.3232 10.3147C11.5195 9.84519 11.6736 9.32764 11.6736 8.82534C11.6736 6.44684 9.77211 4.49577 7.39843 4.49577C5.02475 4.49577 3.12324 6.44684 3.12324 8.82534C3.12324 9.32764 3.27737 9.84519 3.47364 10.3147C3.67447 10.7951 3.94613 11.2872 4.23845 11.7551C4.82315 12.691 5.53132 13.5944 6.04324 14.2112Z" stroke="#FCFCFC" stroke-width="1.69792"/>
<path fill-rule="evenodd" clip-rule="evenodd" d="M7.39773 10.0556C8.06674 10.0556 8.60907 9.50468 8.60907 8.82505C8.60907 8.14543 8.06674 7.59448 7.39773 7.59448C6.72872 7.59448 6.18639 8.14543 6.18639 8.82505C6.18639 9.50468 6.72872 10.0556 7.39773 10.0556Z" fill="#FCFCFC"/>
</svg>
