<?xml version="1.0" encoding="UTF-8" standalone="no"?>
<svg
   width="46.502998"
   height="44.9091"
   viewBox="0 0 46.502998 44.9091"
   fill="none"
   version="1.1"
   id="svg2"
   sodipodi:docname="MultiAction.svg"
   inkscape:version="1.4.2 (f4327f4, 2025-05-13)"
   xmlns:inkscape="http://www.inkscape.org/namespaces/inkscape"
   xmlns:sodipodi="http://sodipodi.sourceforge.net/DTD/sodipodi-0.dtd"
   xmlns="http://www.w3.org/2000/svg"
   xmlns:svg="http://www.w3.org/2000/svg">
  <defs
     id="defs2" />
  <sodipodi:namedview
     id="namedview2"
     pagecolor="#505050"
     bordercolor="#eeeeee"
     borderopacity="1"
     inkscape:showpageshadow="0"
     inkscape:pageopacity="0"
     inkscape:pagecheckerboard="0"
     inkscape:deskcolor="#505050"
     showgrid="false"
     inkscape:zoom="6.465"
     inkscape:cx="50.889404"
     inkscape:cy="42.923434"
     inkscape:window-width="2560"
     inkscape:window-height="1511"
     inkscape:window-x="-9"
     inkscape:window-y="-9"
     inkscape:window-maximized="1"
     inkscape:current-layer="svg2" />
  <path
     d="M 15.5796,0 V 34.9091 H 8.1989 V 7.0057 H 7.9943 L 0,12.0171 V 5.4716 L 8.6421,0 Z"
     fill="#ffffff"
     id="path1" />
  <path
     d="M 21.6167,44.9091 V 39.5909 L 34.0428,28.0852 c 1.0568,-1.0227 1.9432,-1.9431 2.6591,-2.7613 0.7273,-0.8182 1.2784,-1.6193 1.6534,-2.4034 0.375,-0.7955 0.5625,-1.6534 0.5625,-2.5739 0,-1.0227 -0.233,-1.9034 -0.6989,-2.642 -0.4659,-0.75 -1.1022,-1.3239 -1.909,-1.7216 -0.8069,-0.4091 -1.7216,-0.6137 -2.7444,-0.6137 -1.0682,0 -2,0.2159 -2.7954,0.6478 -0.7955,0.4318 -1.4091,1.0511 -1.8409,1.8579 -0.4319,0.8068 -0.6478,1.7671 -0.6478,2.8807 h -7.0056 c 0,-2.2841 0.517,-4.2671 1.5511,-5.9489 1.0341,-1.6818 2.4829,-2.9829 4.3466,-3.9034 1.8636,-0.9204 4.0113,-1.3807 6.4432,-1.3807 2.5,0 4.6761,0.4432 6.5284,1.3296 1.8636,0.875 3.3125,2.0909 4.3466,3.6477 1.0341,1.5568 1.5511,3.3409 1.5511,5.3523 0,1.3182 -0.2614,2.6193 -0.7841,3.9034 -0.5114,1.2841 -1.4261,2.7102 -2.7443,4.2784 -1.3182,1.5568 -3.1761,3.4261 -5.5739,5.608 l -5.0966,4.9943 V 38.875 H 46.503 v 6.0341 z"
     fill="#ffffff"
     id="path2" />
</svg>
