<svg width="14" height="16" viewBox="0 0 14 16" fill="none" xmlns="http://www.w3.org/2000/svg">
<path fill-rule="evenodd" clip-rule="evenodd" d="M11.0291 11.5413C10.0232 13.0608 8.86247 14.4637 8.20847 15.2223C7.31446 16.2593 5.72013 16.2593 4.82612 15.2223C4.17212 14.4637 3.01139 13.0608 2.0055 11.5413C1.50298 10.7821 1.01815 9.96267 0.654033 9.15719C0.302354 8.37924 1.1435e-09 7.47902 1.00852e-09 6.59614C4.5506e-10 2.9763 2.89497 0 6.51729 0C10.1396 0 13.0346 2.9763 13.0346 6.59614C13.0346 7.47902 12.7322 8.37924 12.3806 9.15719C12.0164 9.96267 11.5316 10.7821 11.0291 11.5413ZM7.03463 14.2103C6.75888 14.5301 6.27571 14.5301 5.99996 14.2103C4.72782 12.7347 1.54985 8.82532 1.54985 6.59614C1.54985 3.80915 3.77385 1.54985 6.51729 1.54985C9.26074 1.54985 11.4847 3.80915 11.4847 6.59614C11.4847 8.82532 8.30677 12.7347 7.03463 14.2103Z" fill="#FCFCFC"/>
<path fill-rule="evenodd" clip-rule="evenodd" d="M6.51629 8.37964C7.48623 8.37964 8.27253 7.58087 8.27253 6.59553C8.27253 5.61019 7.48623 4.81141 6.51629 4.81141C5.54635 4.81141 4.76005 5.61019 4.76005 6.59553C4.76005 7.58087 5.54635 8.37964 6.51629 8.37964Z" fill="#FCFCFC"/>
</svg>
