<svg width="40" height="40" viewBox="0 0 40 40" fill="none" xmlns="http://www.w3.org/2000/svg">
<g clip-path="url(#clip0_141_4587)">
<rect width="40" height="40" rx="20" fill="#FCFCFC"/>
<g clip-path="url(#clip1_141_4587)">
<path d="M17.2007 25.6069C12.2477 25.6069 7.85499 29.0295 6.9402 34.0096C6.5327 36.228 6.12443 38.7309 5.87097 41.0274C5.53452 44.0759 6.81655 47.6105 10.242 48.9242C13.1398 50.0355 16.8037 50.5573 20.4753 50.4844C24.1469 50.5573 27.8108 50.0355 30.7086 48.9242C34.134 47.6105 35.416 44.0759 35.0796 41.0274C34.8261 38.7309 34.4179 36.228 34.0104 34.0096C33.0956 29.0295 28.7028 25.6069 23.7499 25.6069H17.2007Z" fill="#716B7C"/>
<path fill-rule="evenodd" clip-rule="evenodd" d="M11.1401 13.7543C11.1401 8.47087 15.4232 4.18781 20.7066 4.18781C25.9901 4.18781 30.2731 8.47087 30.2731 13.7543C30.2731 19.0377 25.9901 23.3208 20.7066 23.3208C15.4232 23.3208 11.1401 19.0377 11.1401 13.7543Z" fill="#716B7C"/>
</g>
</g>
<defs>
<clipPath id="clip0_141_4587">
<rect width="40" height="40" rx="20" fill="white"/>
</clipPath>
<clipPath id="clip1_141_4587">
<rect width="40" height="40" fill="white"/>
</clipPath>
</defs>
</svg>
