<svg width="24" height="24" viewBox="0 0 24 24" fill="none" xmlns="http://www.w3.org/2000/svg">
<g clip-path="url(#clip0_1013_5872)">
<path d="M19.7521 17.3068C19.4648 17.9706 19.1247 18.5816 18.7306 19.1434C18.1935 19.9092 17.7537 20.4393 17.4147 20.7337C16.8893 21.2169 16.3264 21.4644 15.7236 21.4784C15.2908 21.4784 14.7689 21.3553 14.1614 21.1055C13.5519 20.8568 12.9917 20.7337 12.4796 20.7337C11.9424 20.7337 11.3664 20.8568 10.7502 21.1055C10.133 21.3553 9.63589 21.4855 9.25579 21.4984C8.67771 21.523 8.10152 21.2685 7.52637 20.7337C7.15929 20.4135 6.70013 19.8647 6.15009 19.0871C5.55994 18.2567 5.07475 17.2939 4.69464 16.1961C4.28756 15.0104 4.0835 13.8622 4.0835 12.7507C4.0835 11.4773 4.35864 10.3791 4.90974 9.45884C5.34285 8.71962 5.91905 8.1365 6.6402 7.70843C7.36136 7.28035 8.14057 7.06221 8.97971 7.04825C9.43886 7.04825 10.041 7.19028 10.7892 7.46941C11.5354 7.74947 12.0145 7.8915 12.2245 7.8915C12.3815 7.8915 12.9138 7.72543 13.816 7.39435C14.6692 7.08731 15.3893 6.96018 15.9792 7.01026C17.5778 7.13926 18.7787 7.76941 19.5774 8.90469C18.1477 9.77092 17.4405 10.9842 17.4546 12.5406C17.4675 13.7529 17.9073 14.7618 18.7717 15.5628C19.1634 15.9346 19.6008 16.2219 20.0876 16.426C19.982 16.7321 19.8706 17.0253 19.7521 17.3068V17.3068ZM16.086 2.88011C16.086 3.83033 15.7388 4.71754 15.0468 5.53874C14.2118 6.51498 13.2018 7.0791 12.1065 6.99008C12.0926 6.87609 12.0845 6.75611 12.0845 6.63003C12.0845 5.71782 12.4816 4.74158 13.1868 3.94337C13.5389 3.53922 13.9866 3.20318 14.5296 2.93511C15.0715 2.67104 15.584 2.52501 16.066 2.5C16.0801 2.62703 16.086 2.75407 16.086 2.8801V2.88011Z" fill="black"/>
</g>
<defs>
<clipPath id="clip0_1013_5872">
<rect width="19" height="19" fill="white" transform="translate(2.5 2.5)"/>
</clipPath>
</defs>
</svg>
