<svg width="24" height="24" viewBox="0 0 24 24" fill="none" xmlns="http://www.w3.org/2000/svg">
<g clip-path="url(#clip0_1013_5875)">
<path d="M18.6534 5.99368C17.4294 5.44168 16.1174 5.03368 14.7454 4.80168C14.7332 4.79933 14.7205 4.80084 14.7092 4.806C14.6979 4.81116 14.6884 4.81972 14.6822 4.83048C14.5142 5.12568 14.327 5.51048 14.1958 5.81448C12.7407 5.59707 11.2613 5.59707 9.8062 5.81448C9.66007 5.47756 9.49528 5.14906 9.3126 4.83048C9.30641 4.81958 9.29704 4.81084 9.28575 4.8054C9.27445 4.79997 9.26177 4.79811 9.2494 4.80008C7.8782 5.03208 6.5662 5.44008 5.3414 5.99288C5.33086 5.9973 5.32193 6.00483 5.3158 6.01448C2.8262 9.67448 2.1438 13.2441 2.479 16.7689C2.47993 16.7775 2.48261 16.7859 2.48687 16.7934C2.49114 16.801 2.4969 16.8076 2.5038 16.8129C3.95691 17.8708 5.57767 18.6767 7.2982 19.1969C7.31019 19.2006 7.32302 19.2006 7.33501 19.1968C7.347 19.1931 7.35759 19.1859 7.3654 19.1761C7.73563 18.6809 8.06372 18.1556 8.3462 17.6057C8.35012 17.5982 8.35238 17.5899 8.35282 17.5814C8.35327 17.5729 8.35189 17.5645 8.34878 17.5566C8.34567 17.5487 8.3409 17.5416 8.3348 17.5357C8.32869 17.5298 8.3214 17.5253 8.3134 17.5225C7.7966 17.3279 7.29587 17.093 6.8158 16.8201C6.80717 16.8152 6.7999 16.8082 6.79464 16.7997C6.78938 16.7913 6.7863 16.7817 6.78566 16.7718C6.78503 16.7619 6.78687 16.752 6.79101 16.7429C6.79515 16.7339 6.80147 16.7261 6.8094 16.7201C6.9102 16.6457 7.011 16.5681 7.107 16.4905C7.11564 16.4835 7.12605 16.4791 7.13707 16.4776C7.14808 16.4762 7.15928 16.4779 7.1694 16.4825C10.311 17.8937 13.7134 17.8937 16.8182 16.4825C16.8283 16.4776 16.8397 16.4757 16.8508 16.477C16.862 16.4783 16.8726 16.4827 16.8814 16.4897C16.9774 16.5681 17.0774 16.6457 17.179 16.7201C17.187 16.7259 17.1934 16.7337 17.1977 16.7426C17.202 16.7516 17.204 16.7615 17.2035 16.7714C17.203 16.7813 17.2001 16.7909 17.195 16.7994C17.1899 16.8079 17.1827 16.815 17.1742 16.8201C16.6958 17.0953 16.1982 17.3281 15.6758 17.5217C15.6678 17.5246 15.6605 17.5292 15.6544 17.5351C15.6483 17.5411 15.6435 17.5483 15.6404 17.5563C15.6373 17.5642 15.6359 17.5727 15.6364 17.5812C15.6368 17.5898 15.6391 17.5981 15.643 17.6057C15.931 18.1553 16.2606 18.6785 16.623 19.1753C16.6305 19.1855 16.641 19.1931 16.6531 19.1971C16.6651 19.2011 16.6781 19.2013 16.6902 19.1977C18.4137 18.679 20.0371 17.8727 21.4918 16.8129C21.4989 16.8079 21.5049 16.8015 21.5093 16.794C21.5137 16.7866 21.5165 16.7783 21.5174 16.7697C21.9174 12.6945 20.847 9.15368 18.6782 6.01608C18.6729 6.00588 18.6641 5.99793 18.6534 5.99368ZM8.8158 14.6225C7.8702 14.6225 7.0902 13.7673 7.0902 12.7185C7.0902 11.6689 7.855 10.8145 8.8158 10.8145C9.7838 10.8145 10.5566 11.6761 10.5414 12.7185C10.5414 13.7681 9.7766 14.6225 8.8158 14.6225V14.6225ZM15.1958 14.6225C14.2494 14.6225 13.4702 13.7673 13.4702 12.7185C13.4702 11.6689 14.2342 10.8145 15.1958 10.8145C16.1638 10.8145 16.9366 11.6761 16.9214 12.7185C16.9214 13.7681 16.1646 14.6225 15.1958 14.6225V14.6225Z" fill="#5865F2"/>
</g>
<defs>
<clipPath id="clip0_1013_5875">
<rect width="19.2" height="19.2" fill="white" transform="translate(2.3999 2.3999)"/>
</clipPath>
</defs>
</svg>
