<svg width="24" height="24" viewBox="0 0 24 24" fill="none" xmlns="http://www.w3.org/2000/svg">
<g clip-path="url(#clip0_1013_5889)">
<path d="M12 10.2725V13.9516H17.1127C16.8882 15.1347 16.2145 16.1366 15.2041 16.8102L18.2872 19.2025C20.0836 17.5444 21.1199 15.1089 21.1199 12.2157C21.1199 11.5421 21.0595 10.8943 20.9472 10.2726L12 10.2725Z" fill="#4285F4"/>
<path d="M6.67582 13.8081L5.98045 14.3404L3.51904 16.2576C5.08222 19.3581 8.28607 21.4999 11.9997 21.4999C14.5646 21.4999 16.715 20.6536 18.2869 19.2027L15.2037 16.8104C14.3574 17.3804 13.2778 17.7259 11.9997 17.7259C9.5297 17.7259 7.43112 16.0591 6.6797 13.8136L6.67582 13.8081Z" fill="#34A853"/>
<path d="M3.51902 7.74219C2.87132 9.02032 2.5 10.4626 2.5 11.9999C2.5 13.5371 2.87132 14.9794 3.51902 16.2575C3.51902 16.2661 6.67998 13.8048 6.67998 13.8048C6.48998 13.2348 6.37768 12.6303 6.37768 11.9998C6.37768 11.3692 6.48998 10.7647 6.67998 10.1947L3.51902 7.74219Z" fill="#FBBC05"/>
<path d="M11.9999 6.28272C13.399 6.28272 14.6426 6.76635 15.6358 7.69909L18.3562 4.97867C16.7067 3.44142 14.5649 2.5 11.9999 2.5C8.28627 2.5 5.08222 4.63318 3.51904 7.74228L6.67991 10.195C7.43123 7.94953 9.52989 6.28272 11.9999 6.28272Z" fill="#EA4335"/>
</g>
<defs>
<clipPath id="clip0_1013_5889">
<rect width="19" height="19" fill="white" transform="translate(2.5 2.5)"/>
</clipPath>
</defs>
</svg>
