<svg width="67" height="24" viewBox="0 0 67 24" fill="none" xmlns="http://www.w3.org/2000/svg">
<g clip-path="url(#clip0_1013_5843)">
<path fill-rule="evenodd" clip-rule="evenodd" d="M56.9166 8.47184C57.6211 8.47184 58.1923 7.90057 58.1923 7.19587C58.1923 6.49119 57.6211 5.91992 56.9166 5.91992C56.2121 5.91992 55.6409 6.49119 55.6409 7.19587C55.6409 7.90057 56.2121 8.47184 56.9166 8.47184ZM26.3003 7.03632H28.9312L31.7099 13.6717H31.8281L34.6068 7.03632H37.2377V16.9122H35.1684V10.4842H35.0847L32.4735 16.864H31.0645L28.4533 10.4601H28.3695V16.9122H26.3003V7.03632ZM41.2357 17.0521C40.5132 17.0521 39.9137 16.8672 39.4375 16.4975C38.9613 16.1278 38.7231 15.5765 38.7231 14.8434C38.7231 14.2906 38.8562 13.8566 39.1222 13.5415C39.3882 13.2264 39.7364 12.9966 40.1667 12.8519C40.6002 12.704 41.0666 12.6076 41.5658 12.5626C42.2227 12.4982 42.6925 12.4308 42.9749 12.3601C43.2574 12.2893 43.3986 12.135 43.3986 11.8971V11.8682C43.3986 11.5628 43.3001 11.3265 43.103 11.1593C42.9092 10.9922 42.6334 10.9086 42.2753 10.9086C41.8976 10.9086 41.597 10.989 41.3737 11.1497C41.1504 11.3104 41.0026 11.5146 40.9303 11.7621L38.9892 11.6078C39.1337 10.9326 39.4917 10.3974 40.0632 10.002C40.638 9.60656 41.3787 9.40888 42.2852 9.40888C42.8468 9.40888 43.3723 9.49568 43.8617 9.66928C44.3511 9.84288 44.7452 10.1145 45.0441 10.4842C45.3463 10.8507 45.4974 11.3281 45.4974 11.9164V16.9122H43.507V15.885H43.4479C43.2639 16.229 42.9881 16.5103 42.6202 16.729C42.2556 16.9443 41.7941 17.0521 41.2357 17.0521ZM41.8368 15.6343C42.2966 15.6343 42.6744 15.5041 42.97 15.2437C43.2656 14.9801 43.4134 14.6538 43.4134 14.2648V13.4788C43.3313 13.5334 43.2032 13.5817 43.0291 13.6234C42.8583 13.6653 42.6744 13.7022 42.4773 13.7344C42.2835 13.7633 42.1095 13.789 41.9551 13.8115C41.5872 13.863 41.29 13.9642 41.0633 14.1154C40.84 14.2664 40.7283 14.4866 40.7283 14.776C40.7283 15.0589 40.8318 15.2726 41.0387 15.4173C41.2489 15.562 41.515 15.6343 41.8368 15.6343ZM48.1357 19.2076C48.7171 19.5998 49.5168 19.7959 50.535 19.7959C51.2576 19.7959 51.8965 19.6898 52.4515 19.4776C53.0066 19.2654 53.4418 18.9504 53.7571 18.5325C54.0757 18.1146 54.235 17.5986 54.235 16.9846V9.50528H52.151V10.7494H52.0722C51.9802 10.5469 51.8455 10.3427 51.6682 10.137C51.4908 9.93128 51.2592 9.75928 50.9735 9.62104C50.6878 9.4796 50.333 9.40888 49.9093 9.40888C49.3575 9.40888 48.8484 9.55032 48.382 9.8332C47.9189 10.1129 47.5461 10.5324 47.2636 11.0918C46.9845 11.6512 46.8449 12.352 46.8449 13.1943C46.8449 14.0141 46.9812 14.6908 47.2538 15.2244C47.5297 15.7581 47.8992 16.1551 48.3623 16.4155C48.8287 16.6759 49.3461 16.8061 49.9143 16.8061C50.5186 16.8061 50.9948 16.6823 51.343 16.4348C51.6911 16.1841 51.9342 15.906 52.0722 15.6006H52.1609V16.9556C52.1609 17.441 52.0114 17.7898 51.7125 18.002C51.4169 18.2142 51.0408 18.3203 50.5843 18.3203C50.1212 18.3203 49.7648 18.2367 49.5152 18.0695C49.2689 17.9056 49.103 17.7239 49.0176 17.5246L47.0765 17.7802C47.2012 18.3396 47.5544 18.8154 48.1357 19.2076ZM51.7519 14.7133C51.4761 15.0798 51.0852 15.263 50.5794 15.263C50.0637 15.263 49.6696 15.0766 49.3969 14.7036C49.1243 14.3307 48.9881 13.8244 48.9881 13.1846C48.9881 12.5546 49.1227 12.0402 49.392 11.6415C49.6646 11.2429 50.0604 11.0436 50.5794 11.0436C51.0885 11.0436 51.481 11.2381 51.7569 11.627C52.0327 12.0161 52.1707 12.5353 52.1707 13.1846C52.1707 13.8373 52.0311 14.3468 51.7519 14.7133ZM55.9052 16.9122V9.50528H58.0039V16.9122H55.9052ZM61.1041 16.5746C61.6625 16.8962 62.3292 17.0569 63.1044 17.0569C63.7777 17.0569 64.3607 16.9379 64.8534 16.7C65.3461 16.4589 65.732 16.123 66.0111 15.6922C66.2936 15.2614 66.4513 14.7631 66.4841 14.1973H64.5036C64.4412 14.5927 64.2868 14.8982 64.0404 15.1135C63.7941 15.3257 63.4903 15.4318 63.129 15.4318C62.6396 15.4318 62.2472 15.2389 61.9515 14.8531C61.6592 14.4642 61.5131 13.916 61.5131 13.2087C61.5131 12.5079 61.6608 11.9662 61.9564 11.5837C62.252 11.2011 62.6429 11.0098 63.129 11.0098C63.5133 11.0098 63.8237 11.1239 64.0602 11.3522C64.2999 11.5772 64.4477 11.8746 64.5036 12.2443H66.4841C66.4546 11.6721 66.2953 11.1738 66.0063 10.7494C65.7205 10.325 65.328 9.99552 64.8287 9.76088C64.3328 9.52616 63.7547 9.40888 63.0946 9.40888C62.3292 9.40888 61.669 9.5712 61.114 9.89592C60.5589 10.2174 60.1303 10.6658 59.8281 11.2413C59.5292 11.8135 59.3798 12.479 59.3798 13.2377C59.3798 13.9867 59.5276 14.649 59.8232 15.2244C60.122 15.7998 60.549 16.2499 61.1041 16.5746Z" fill="#FCFCFC"/>
<path fill-rule="evenodd" clip-rule="evenodd" d="M9.95095 0C10.9893 1.27203 12.1346 2.45333 13.373 3.5302C12.5477 6.20743 12.1034 9.05174 12.1034 11.9999C12.1034 14.9481 12.5477 17.7925 13.373 20.4697C12.1346 21.5465 10.9893 22.7279 9.95087 24C8.91245 22.7278 7.7671 21.5465 6.52858 20.4696C7.35381 17.7924 7.79808 14.9481 7.79808 11.9999C7.79808 9.05182 7.35382 6.20757 6.52861 3.5304C7.76715 2.45348 8.91245 1.2721 9.95095 0ZM4.16151 18.6188C2.85048 17.6997 1.4591 16.8874 0 16.1946C0.40472 14.8677 0.622437 13.4593 0.622438 12C0.622438 10.5406 0.404724 9.13222 1.13508e-05 7.80534C1.45912 7.11257 2.8505 6.3003 4.16154 5.38119C4.66282 7.506 4.92807 9.72198 4.92807 11.9999C4.92807 14.2779 4.66282 16.4939 4.16151 18.6188ZM14.9739 11.9999C14.9739 14.2779 15.2391 16.4938 15.7404 18.6186C17.0513 17.6996 18.4426 16.8873 19.9017 16.1946C19.4969 14.8677 19.2792 13.4593 19.2792 12C19.2792 10.5406 19.4969 9.13214 19.9017 7.80526C18.4426 7.11252 17.0513 6.3003 15.7403 5.38123C15.2391 7.50602 14.9739 9.72198 14.9739 11.9999Z" fill="#FCFCFC"/>
</g>
<defs>
<clipPath id="clip0_1013_5843">
<rect width="66.5455" height="24" fill="white"/>
</clipPath>
</defs>
</svg>
