<svg width="40" height="40" viewBox="0 0 40 40" fill="none" xmlns="http://www.w3.org/2000/svg">
<path d="M35.4663 22.2872L35.4902 22.3103L35.5173 22.3298L35.5183 22.3306C35.519 22.3312 35.52 22.3323 35.5213 22.3339C35.5239 22.3373 35.5278 22.3431 35.5319 22.3523C35.5405 22.3715 35.5473 22.3995 35.5473 22.4324C35.5473 22.4652 35.5405 22.4932 35.5319 22.5125C35.5278 22.5216 35.5239 22.5275 35.5213 22.5308C35.52 22.5325 35.519 22.5335 35.5183 22.5341L35.5173 22.535L35.4805 22.5614L35.4496 22.5946C35.4242 22.6218 35.3707 22.6548 35.3056 22.6655C35.2483 22.675 35.2047 22.6643 35.1714 22.6416C33.1972 21.1575 30.9119 19.8729 28.705 19.2262C27.5717 18.8941 26.4453 18.8942 25.2986 18.8942L25.2681 18.8942C24.0596 18.8942 22.8583 19.1093 21.7033 19.3162L21.6839 19.3196C19.3288 19.7414 16.9771 20.3731 14.6475 20.9989L14.6377 21.0015L14.6287 21.0039L14.6197 21.0067L14.6096 21.0099C12.2858 21.7382 9.93819 22.4739 7.68451 23.4202C6.37125 23.8522 4.98898 23.1475 4.57844 21.8314C4.14725 20.3419 4.85933 18.8398 6.04966 18.4135L6.15337 18.3763L6.21989 18.3048C6.22323 18.3033 6.22782 18.3012 6.23395 18.2986C6.2407 18.2957 6.2499 18.2919 6.26118 18.2873C6.3004 18.2713 6.36473 18.245 6.43803 18.209C8.93756 17.6939 11.3405 17.2818 13.8374 16.9722C16.3562 16.66 18.8676 16.4527 21.4717 16.4527C22.7161 16.4527 24.0615 16.5557 25.3281 16.6604C26.5294 16.7597 27.938 17.1598 29.1731 17.6692C31.5378 18.7891 33.5377 20.4222 35.4663 22.2872Z" fill="#FCFCFC" stroke="#FCFCFC" stroke-width="0.905464"/>
</svg>
