<svg width="40" height="40" viewBox="0 0 40 40" fill="none" xmlns="http://www.w3.org/2000/svg">
<path fill-rule="evenodd" clip-rule="evenodd" d="M39.9333 14.2962C39.9333 14.2962 39.6 13.7295 33.59 13.1595C27.28 12.5595 24.14 13.8262 22.84 14.6295C22.6067 14.7295 22.2067 14.8295 21.7367 14.7962H21.6367L21.4851 14.7882C20.9111 14.7577 20.3798 14.7295 19.7667 14.7295H19.7333C19.3667 14.7295 18.5633 14.7629 17.9967 14.7962C17.73 14.8295 17.4967 14.7962 17.2967 14.7295C16.0933 13.9295 12.9567 12.5262 6.38 13.1595C0.366666 13.7295 0.0333333 14.2962 0.0333333 14.2962L0 16.5662C0 16.5662 0.9 16.8329 1.47 17.5329C1.72911 17.8529 1.92549 18.8644 2.15507 20.0467C2.42758 21.4502 2.74686 23.0946 3.27333 24.1095C4.74 27.0162 11.9867 26.2829 11.9867 26.2829C11.9867 26.2829 14.9567 26.5162 16.3933 24.0129C17.5756 21.9702 18.0846 19.1323 18.2436 18.2459L18.2633 18.1362C18.5633 17.8362 19.13 17.4695 19.9667 17.4362C20.9 17.4362 21.5033 17.9029 21.77 18.2362C21.9033 19.1362 22.4033 21.9762 23.6067 24.0129C25.0433 26.5162 28.0133 26.2829 28.0133 26.2829C28.0133 26.2829 35.26 27.0162 36.7267 24.1129C37.2171 23.1303 37.5244 21.5577 37.7926 20.185C38.0349 18.9452 38.2453 17.8684 38.53 17.5362C39.0967 16.8029 40 16.5695 40 16.5695L39.9333 14.2962ZM3.66805 19.6246L16.1608 17.5359C16.132 16.9054 16.0035 16.5196 15.8598 16.28C15.5598 15.78 14.8565 14.6767 9.94979 14.5434C5.04312 14.3767 4.20646 15.38 3.97312 15.7134C3.75083 16.0627 3.43777 17.0504 3.66805 19.6246ZM36.2184 16.4427L23.7992 18.5192C23.6909 17.2733 23.8661 16.6251 24.0732 16.2801C24.3732 15.7801 25.0765 14.6768 29.9832 14.5434C34.8898 14.3768 35.7265 15.3768 35.9598 15.7134C36.0445 15.8466 36.1425 16.072 36.2184 16.4427Z" fill="#FCFCFC"/>
</svg>
