<svg width="40" height="40" viewBox="0 0 40 40" fill="none" xmlns="http://www.w3.org/2000/svg">
<path fill-rule="evenodd" clip-rule="evenodd" d="M19.9651 15.5525C22.7272 17.4489 25.6293 18.5273 28.4651 19.1594C29.9341 19.4815 31.1666 19.7346 32.198 19.9465C36.881 20.9082 37.4202 21.0189 37.1486 22.8777C37.1486 22.9335 37.1394 22.9985 37.1302 23.0636L37.1302 23.0637L37.1302 23.0638C37.121 23.1288 37.1118 23.1938 37.1118 23.2496C36.9276 25.555 33.3185 27.3398 28.8991 27.3398H5.84446C5.70731 27.3398 5.57175 27.3416 5.43848 27.3434C3.79134 27.3651 2.49445 27.3822 2.85439 23.9568C2.87083 23.8003 2.90674 23.7258 2.96487 23.6594C2.9816 23.0008 2.96834 22.2177 2.95466 21.4089C2.90807 18.6557 2.85646 15.6052 3.96505 16.1594C4.12288 16.2383 4.28351 16.3347 4.46089 16.4413C5.40771 17.0099 6.8319 17.8651 10.8559 17.8651C12.2922 17.8651 13.2129 17.0471 13.5812 16.6009C13.2865 15.7828 12.8446 14.0724 13.7285 12.9569C13.9126 12.7338 14.1704 12.6222 14.4651 12.6594C15.4594 12.8081 17.6449 13.9536 19.9651 15.5525ZM17.6469 19.8971H16.147L12.7386 23.8451H14.2914L17.6469 19.8971ZM13.0552 19.8971H14.5551L11.1996 23.8451H9.64682L13.0552 19.8971ZM35.4374 22.3444C34.921 23.3506 31.4897 24.4422 26.4653 24.0925C26.5764 23.768 26.7189 23.3375 26.8717 22.876C27.2127 21.8461 27.6046 20.6622 27.8111 20.1592C28.2122 20.2894 29.0973 20.4467 30.1287 20.6301C32.5584 21.0619 35.7999 21.638 35.4374 22.3444Z" fill="#FCFCFC"/>
</svg>
