<svg width="40" height="40" viewBox="0 0 40 40" fill="none" xmlns="http://www.w3.org/2000/svg">
<path d="M33.9869 27.5968L31.375 13.8152V9.81475C31.375 9.36664 30.9813 9 30.5 9H9.49997C9.01871 9 8.62496 9.36664 8.62496 9.81475V13.8152L6.01308 27.5968C5.93433 28.0164 6.2187 28.4237 6.66496 28.5297L17.165 30.9739C17.235 30.9902 17.305 30.9984 17.375 30.9984C17.7556 30.9984 18.1056 30.7621 18.215 30.4077L19.9213 24.847L21.3344 30.3751C21.3869 30.5869 21.5313 30.7662 21.7281 30.8802C21.925 30.9943 22.1656 31.0269 22.3888 30.978L33.3263 28.5337C33.7813 28.4319 34.0657 28.0204 33.9869 27.5968ZM29.625 13.0738H10.375V10.6295H29.625V13.0738Z" fill="#FCFCFC"/>
</svg>
