<svg width="40" height="40" viewBox="0 0 40 40" fill="none" xmlns="http://www.w3.org/2000/svg">
<path fill-rule="evenodd" clip-rule="evenodd" d="M20.9437 11.4626C20.5875 10.8458 19.6972 10.8458 19.341 11.4626L13.0016 22.4428L6.57498 16.117C5.95109 15.5029 4.90228 16.0183 5.00733 16.8874L6.44446 26.7778C6.5172 27.3797 7.1394 27.7501 7.70318 27.5273C14.118 24.9915 25.831 24.9713 32.2968 27.5273C32.8606 27.7501 33.4828 27.3797 33.5555 26.7778L34.9927 16.8874C35.0977 16.0183 34.0489 15.5029 33.425 16.117L27.1799 22.2641L20.9437 11.4626ZM20.8421 17.8149C20.4487 17.2007 19.5513 17.2007 19.1579 17.8149L17.8383 19.8754C17.6008 20.2463 17.6339 20.7291 17.92 21.0641L19.2395 22.6094C19.6387 23.0769 20.3613 23.0769 20.7605 22.6094L22.08 21.0641C22.3661 20.7291 22.3992 20.2463 22.1617 19.8754L20.8421 17.8149Z" fill="#FCFCFC"/>
</svg>
