<svg width="40" height="40" viewBox="0 0 40 40" fill="none" xmlns="http://www.w3.org/2000/svg">
<path d="M2.22433 28.0462C4.48657 25.6762 7.28743 23.9526 10.4115 22.7676C13.4278 21.5826 16.7673 20.9363 19.999 20.9363C23.2308 21.044 26.5703 21.5826 29.5866 22.7676C32.6029 23.9526 35.4038 25.6762 37.7737 27.9384C37.9892 28.1539 37.9892 28.5848 37.7737 28.8002C37.5583 29.0157 37.2351 29.0157 37.0196 28.908C35.8347 28.0462 34.542 27.1844 33.1415 26.538C31.7411 25.7839 30.3407 25.2453 28.9402 24.7067C26.0316 23.7371 23.0153 23.1985 19.999 23.1985C16.9827 23.1985 13.9664 23.7371 11.1655 24.5989C9.7651 25.0298 8.36468 25.6762 6.96424 26.4303C5.56381 27.0766 4.2711 27.9384 3.08612 28.908C2.87067 29.1234 2.43978 29.0157 2.22433 28.8002C2.00888 28.5848 2.00888 28.2616 2.22433 28.0462Z" fill="#FCFCFC"/>
<path d="M8.79589 24.4914L4.48688 26.8613C3.51735 25.7841 3.30188 21.6905 3.19416 19.2128C3.19416 18.2433 4.16371 17.4892 5.13323 17.7047C7.39547 18.351 11.1658 19.8592 14.0744 22.9832L17.5217 22.2291C12.8895 16.9506 6.53366 14.7961 3.51735 14.042C2.76328 13.8266 1.90145 14.4729 2.00917 15.227C2.1169 18.4588 2.44009 25.4609 3.84052 27.2922L8.90362 24.4914H8.79589Z" fill="#FCFCFC" stroke="#FCFCFC" stroke-width="0.711153" stroke-miterlimit="10"/>
<path d="M24.2247 13.3992C24.3313 13.6336 24.6643 13.6336 24.7709 13.3992L25.7013 11.3524C25.7313 11.2864 25.7842 11.2335 25.8502 11.2034L27.897 10.2731C28.1314 10.1665 28.1314 9.83347 27.897 9.72689L25.8502 8.79655C25.7842 8.76654 25.7313 8.71362 25.7013 8.64758L24.7709 6.60084C24.6643 6.36636 24.3313 6.36636 24.2247 6.60084L23.2944 8.64758C23.2643 8.71362 23.2114 8.76654 23.1454 8.79655L21.0986 9.72689C20.8642 9.83347 20.8642 10.1665 21.0986 10.2731L23.1454 11.2034C23.2114 11.2335 23.2643 11.2864 23.2944 11.3524L24.2247 13.3992Z" fill="white"/>
<path d="M14.2247 11.3992C14.3313 11.6336 14.6643 11.6336 14.7709 11.3992L16.3263 7.97742C16.3563 7.91138 16.4092 7.85846 16.4752 7.82845L19.897 6.27311C20.1314 6.16653 20.1314 5.83347 19.897 5.72689L16.4752 4.17155C16.4092 4.14154 16.3563 4.08862 16.3263 4.02258L14.7709 0.600842C14.6643 0.366363 14.3313 0.366363 14.2247 0.600842L12.6694 4.02258C12.6393 4.08862 12.5864 4.14154 12.5204 4.17155L9.09864 5.72689C8.86417 5.83347 8.86417 6.16653 9.09864 6.27311L12.5204 7.82845C12.5864 7.85846 12.6393 7.91138 12.6694 7.97742L14.2247 11.3992Z" fill="white"/>
<path d="M36.4815 14.042C33.5729 14.7961 27.1094 16.9506 22.4772 22.2291L25.9244 22.9832C28.833 19.8592 32.6034 18.351 34.8656 17.7047C35.8351 17.3815 36.8047 18.1356 36.8047 19.2128C36.6969 21.6905 36.3738 25.7841 35.512 26.8613L31.2029 24.4914H31.0952L36.1583 27.2922C37.5587 25.5686 37.9897 18.4588 37.9897 15.227C38.0974 14.4729 37.3433 13.8266 36.4815 14.042Z" fill="#FCFCFC" stroke="#FCFCFC" stroke-width="0.711153" stroke-miterlimit="10"/>
</svg>
