<svg width="20" height="20" viewBox="0 0 20 20" fill="none" xmlns="http://www.w3.org/2000/svg">
<path d="M7.5 2.5C3.3645 2.5 0 5.8645 0 10C0 14.1355 3.3645 17.5 7.5 17.5C11.6355 17.5 15 14.1355 15 10C15 5.8645 11.6355 2.5 7.5 2.5ZM1.5 10C1.5 9.32575 1.617 8.6785 1.82325 8.07325L3 9.25L4.5 10.75V12.25L6 13.75L6.75 14.5V15.9482C3.79575 15.577 1.5 13.054 1.5 10ZM12.2475 13.6547C11.7577 13.2602 11.0153 13 10.5 13V12.25C10.5 11.8522 10.342 11.4706 10.0607 11.1893C9.77936 10.908 9.39782 10.75 9 10.75H6V8.5C6.39782 8.5 6.77936 8.34196 7.06066 8.06066C7.34196 7.77936 7.5 7.39782 7.5 7V6.25H8.25C8.64782 6.25 9.02936 6.09196 9.31066 5.81066C9.59196 5.52936 9.75 5.14782 9.75 4.75V4.44175C11.946 5.3335 13.5 7.4875 13.5 10C13.4999 11.3235 13.0592 12.6094 12.2475 13.6547Z" fill="white" fill-opacity="1"/>
</svg>
