<svg width="20" height="20" viewBox="0 0 20 20" fill="none" xmlns="http://www.w3.org/2000/svg">
<path fill-rule="evenodd" clip-rule="evenodd" d="M15.8718 9.17458C16.089 10.0785 16.241 11.0485 16.2844 11.9304C16.3278 12.9004 16.241 13.6059 15.9804 14.0689C15.785 14.5759 15.4593 14.8405 15.0902 14.9507C14.7428 15.0389 14.3303 14.9948 13.896 14.8184C13.1795 14.5318 12.3327 13.8704 11.5077 13.0988C10.9215 12.5256 9.83584 12.239 8.75023 12.239C7.66462 12.239 6.579 12.5256 5.99277 13.0988C5.16771 13.8704 4.34264 14.5098 3.60443 14.8184C3.17018 15.0168 2.75765 15.0389 2.41025 14.9507C2.01943 14.8405 1.71546 14.5539 1.52005 14.0909C1.32464 13.6059 1.21608 12.9004 1.2595 11.9304C1.30293 11.0485 1.45491 10.0785 1.67204 9.17458C1.88916 8.31478 2.19313 7.49906 2.54053 6.88177C3.84244 4.5243 5.27447 4.89713 6.96663 5.3377L6.96982 5.33853C7.51263 5.49285 8.07715 5.62513 8.68509 5.69127H8.8805C9.39983 5.63268 9.91916 5.50488 10.4083 5.38451C10.4713 5.36902 10.5339 5.35362 10.5958 5.33853C12.2893 4.87556 13.7223 4.52282 15.0251 6.85972C15.3725 7.47702 15.6547 8.29273 15.8718 9.17458Z" stroke="white" stroke-opacity="0.7" stroke-width="1.66667"/>
<path fill-rule="evenodd" clip-rule="evenodd" d="M12.6807 7.63087C12.6807 7.99615 12.3891 8.29226 12.0293 8.29226C11.6696 8.29226 11.378 7.99615 11.378 7.63087C11.378 7.2656 11.6696 6.96948 12.0293 6.96948C12.3891 6.96948 12.6807 7.2656 12.6807 7.63087ZM12.0293 11.0043C12.3891 11.0043 12.6807 10.7082 12.6807 10.3429C12.6807 9.97762 12.3891 9.6815 12.0293 9.6815C11.6696 9.6815 11.378 9.97762 11.378 10.3429C11.378 10.7082 11.6696 11.0043 12.0293 11.0043ZM11.3561 8.99786C11.3561 9.36314 11.0645 9.65925 10.7048 9.65925C10.345 9.65925 10.0534 9.36314 10.0534 8.99786C10.0534 8.63259 10.345 8.33647 10.7048 8.33647C11.0645 8.33647 11.3561 8.63259 11.3561 8.99786ZM13.3755 9.65925C13.7352 9.65925 14.0269 9.36314 14.0269 8.99786C14.0269 8.63259 13.7352 8.33647 13.3755 8.33647C13.0157 8.33647 12.7241 8.63259 12.7241 8.99786C12.7241 9.36314 13.0157 9.65925 13.3755 9.65925ZM5.46998 11.2488H4.75028C4.64366 11.2488 4.53704 11.1676 4.53704 11.0323V9.92258H3.44416C3.33753 9.92258 3.25757 9.84139 3.25757 9.70606V8.97529C3.25757 8.86703 3.33753 8.75877 3.47081 8.75877H4.53704V7.64912C4.53704 7.54086 4.61701 7.4326 4.75028 7.4326H5.46998C5.5766 7.4326 5.68322 7.51379 5.68322 7.64912V8.75877H6.80274C6.90936 8.75877 7.01598 8.83996 7.01598 8.97529V9.70606C7.01598 9.81432 6.93602 9.92258 6.80274 9.92258H5.68322V11.0323C5.68322 11.1406 5.60326 11.2488 5.46998 11.2488Z" fill="white" fill-opacity="0.7"/>
</svg>
