<svg width="20" height="20" viewBox="0 0 20 20" fill="none" xmlns="http://www.w3.org/2000/svg">
<path d="M3.60588 5.08399C3.56824 5.08399 3.538 5.08399 3.50776 5.08399C3.08368 5.08399 2.66028 5.08331 2.2362 5.08466C2.18513 5.08466 2.15152 5.08197 2.1522 5.01611C2.15421 4.58464 2.15354 4.15384 2.15421 3.72238C2.15421 3.71498 2.15892 3.70692 2.16496 3.69012C2.19319 3.69012 2.22276 3.69012 2.25301 3.69012C2.74093 3.69012 3.22885 3.68945 3.71677 3.69146C3.77658 3.69146 3.80279 3.67802 3.81691 3.6135C3.89419 3.25865 3.97887 2.90582 4.05751 2.55096C4.07162 2.48644 4.10657 2.49653 4.15025 2.50997C4.4594 2.60271 4.76855 2.69546 5.0777 2.7882C5.19532 2.82315 5.31158 2.86011 5.43054 2.8917C5.48968 2.90716 5.5038 2.92867 5.48632 2.99184C5.43256 3.1854 5.38686 3.38164 5.33914 3.57721C5.33107 3.60947 5.33107 3.64307 5.3257 3.6881H6.76123C6.76392 3.72238 6.76728 3.74657 6.76728 3.77077C6.76728 4.17401 6.76527 4.57725 6.76863 4.98049C6.76863 5.05778 6.75183 5.086 6.66647 5.08533C6.18393 5.08063 5.70138 5.08533 5.21951 5.08197C5.15432 5.08197 5.12408 5.09608 5.12005 5.16598C5.10257 5.46236 5.08107 5.75807 5.06225 6.05378C5.06023 6.08066 5.06426 6.10822 5.06628 6.14384C5.18322 6.13577 5.29344 6.12905 5.40366 6.12166C5.76926 6.09679 6.13352 6.10553 6.49644 6.15459C6.62413 6.17206 6.62548 6.17206 6.65303 6.04773C6.68798 5.89248 6.72158 5.73656 6.75451 5.58064C6.76527 5.52957 6.77468 5.49731 6.84591 5.51209C7.28209 5.60282 7.71893 5.68885 8.15712 5.77017C8.22701 5.78294 8.2297 5.81116 8.21761 5.86627C8.16787 6.08402 8.12352 6.30312 8.06975 6.52019C8.05362 6.58606 8.06975 6.61563 8.1262 6.64453C8.52004 6.8448 8.87287 7.10153 9.16992 7.43085C9.68204 7.99874 9.97036 8.65939 9.96095 9.43226C9.95221 10.1339 9.69481 10.7455 9.25461 11.2838C8.80163 11.8376 8.20349 12.1635 7.53613 12.3766C7.00318 12.5466 6.45477 12.6152 5.89696 12.6152C5.8405 12.6152 5.83177 12.5937 5.83177 12.5466C5.83311 12.093 5.83378 11.6393 5.83177 11.1857C5.83177 11.1178 5.86268 11.1091 5.91981 11.1104C6.34657 11.1178 6.76594 11.0681 7.17052 10.929C7.63694 10.7683 8.03346 10.5096 8.28683 10.0707C8.57246 9.57609 8.52071 8.98534 8.16115 8.53976C8.01397 8.35763 7.84394 8.20305 7.64299 8.08208C7.58586 8.0478 7.55965 8.05385 7.53142 8.1177C7.34728 8.53505 7.14028 8.94098 6.88557 9.31936C6.47023 9.93564 5.97559 10.472 5.3304 10.855C4.79275 11.1743 4.21141 11.3591 3.59042 11.3913C2.55006 11.4451 1.63672 10.8893 1.34168 9.85096C1.12259 9.07876 1.30808 8.37779 1.77113 7.74403C2.1522 7.22318 2.66633 6.87034 3.24968 6.6116C3.331 6.5753 3.41635 6.54708 3.49566 6.50742C3.52187 6.49398 3.55144 6.45702 3.55278 6.42947C3.57429 5.99934 3.59176 5.56855 3.60924 5.13775C3.60924 5.12431 3.60722 5.1102 3.60453 5.08264L3.60588 5.08399ZM3.57362 8.10896C3.48289 8.17281 3.38947 8.23195 3.30345 8.29983C3.03529 8.51086 2.83166 8.76759 2.75974 9.11101C2.69455 9.42353 2.83166 9.70781 3.10048 9.82005C3.32495 9.91414 3.55682 9.89397 3.78868 9.86709C3.71677 9.28172 3.6462 8.70307 3.57295 8.10896H3.57362ZM5.17448 9.05187L5.20473 9.05927C5.60057 8.64527 5.88553 8.15937 6.12882 7.62709C5.7659 7.60827 5.41576 7.61634 5.05351 7.66002C5.09451 8.12912 5.13416 8.59016 5.17448 9.0512V9.05187Z" fill="white" fill-opacity="0.7"/>
<path d="M17.2926 17.2612H15.4539C15.2233 16.6114 14.9915 15.9628 14.7636 15.3129C14.7428 15.2524 14.7079 15.2491 14.6568 15.2491C14.0264 15.2497 13.3967 15.2491 12.7663 15.2491C12.3563 15.2491 11.9463 15.2504 11.5364 15.2477C11.4806 15.2477 11.455 15.2618 11.4356 15.3176C11.2158 15.9393 10.9913 16.5589 10.7722 17.1806C10.748 17.2491 10.7144 17.2673 10.6466 17.2666C10.1143 17.2639 9.58132 17.2653 9.04905 17.2653C9.02149 17.2653 8.99461 17.2653 8.95361 17.2653C9.00671 17.1228 9.05644 16.9897 9.10617 16.8573C9.69558 15.2948 10.285 13.7322 10.8751 12.1703C11.3233 10.9848 11.7743 9.79995 12.2219 8.61375C12.2467 8.54856 12.2783 8.52571 12.3489 8.52638C12.865 8.52974 13.3805 8.52907 13.8967 8.52638C13.9619 8.52638 13.9934 8.54318 14.0176 8.60837C14.7952 10.6609 15.5748 12.7127 16.3551 14.7645C16.6676 15.5865 16.9801 16.4091 17.2926 17.231C17.2946 17.2357 17.2926 17.2418 17.2926 17.2599V17.2612ZM11.9584 13.8545H14.2562C13.8745 12.751 13.4961 11.6596 13.1184 10.5681C13.1117 10.5695 13.1056 10.5708 13.0989 10.5728C12.7199 11.6636 12.3408 12.7544 11.9584 13.8545Z" fill="white" fill-opacity="0.7"/>
</svg>
