<svg width="20" height="20" viewBox="0 0 20 20" fill="none" xmlns="http://www.w3.org/2000/svg">
<path d="M8.41595 3.20801C10.7861 3.20803 12.7079 5.12981 12.7079 7.5C12.7079 9.87017 10.7861 11.792 8.41595 11.792C6.04577 11.792 4.12398 9.87018 4.12396 7.5C4.12396 5.1298 6.04575 3.20801 8.41595 3.20801Z" stroke="white" stroke-opacity="0.7" stroke-width="1.41667"/>
<path d="M5.41669 8.20813C7.78687 8.20815 9.70868 10.1299 9.70868 12.5001C9.70866 14.8703 7.78686 16.7921 5.41669 16.7921C3.0465 16.7921 1.12472 14.8703 1.12469 12.5001C1.12469 10.1299 3.04649 8.20813 5.41669 8.20813Z" stroke="white" stroke-opacity="0.7" stroke-width="1.41667"/>
<path d="M11.5 8.20813C13.8702 8.20815 15.792 10.1299 15.792 12.5001C15.792 14.8703 13.8702 16.7921 11.5 16.7921C9.12981 16.7921 7.20803 14.8703 7.20801 12.5001C7.20801 10.1299 9.1298 8.20813 11.5 8.20813Z" stroke="white" stroke-opacity="0.7" stroke-width="1.41667"/>
</svg>
