<svg width="20" height="20" viewBox="0 0 20 20" fill="none" xmlns="http://www.w3.org/2000/svg">
<path d="M7.10536 17C5.97067 17 4.96205 16.8451 4.07951 16.5353C3.20057 16.2291 2.45851 15.7771 1.85334 15.1791C1.24817 14.5847 0.788885 13.8589 0.475492 13.0015C0.1621 12.1442 0.00360221 11.1644 0 10.0621C0.00360221 8.98508 0.163901 8.01428 0.480895 7.14975C0.79789 6.28162 1.26077 5.53956 1.86955 4.92358C2.47832 4.304 3.22218 3.82851 4.10112 3.49711C4.98006 3.1657 5.97967 3 7.09996 3C8.15541 3 9.09018 3.1603 9.90428 3.4809C10.722 3.80149 11.4118 4.24817 11.9738 4.82092C12.5393 5.39007 12.9662 6.05648 13.2543 6.82015C13.5461 7.58021 13.692 8.40512 13.692 9.29487C13.692 9.91085 13.6452 10.4944 13.5515 11.0455C13.4579 11.5931 13.2976 12.0794 13.0706 12.5044C12.8473 12.9295 12.5429 13.2681 12.1575 13.5203C11.772 13.7688 11.2893 13.9039 10.7094 13.9255C10.3456 13.9435 10.0268 13.9093 9.75299 13.8228C9.47922 13.7364 9.25769 13.6013 9.08838 13.4176C8.92268 13.2303 8.81822 13.0015 8.77499 12.7314H8.71015C8.6273 12.9475 8.4706 13.1456 8.24006 13.3257C8.01312 13.5023 7.73215 13.6409 7.39714 13.7418C7.06214 13.8391 6.68931 13.8787 6.27866 13.8607C5.83919 13.8391 5.43214 13.7382 5.05751 13.5581C4.68648 13.3744 4.36228 13.1186 4.08491 12.7908C3.81114 12.4594 3.59861 12.0596 3.44732 11.5913C3.29602 11.123 3.22038 10.5917 3.22038 9.9973C3.22038 9.41734 3.30323 8.90583 3.46893 8.46276C3.63463 8.01968 3.85617 7.64145 4.13354 7.32806C4.41451 7.01467 4.73151 6.76972 5.08452 6.59321C5.43754 6.4131 5.80136 6.29783 6.17599 6.2474C6.56503 6.19336 6.93066 6.19877 7.27287 6.26361C7.61508 6.32845 7.89965 6.42751 8.12659 6.56079C8.35713 6.69407 8.50122 6.83996 8.55886 6.99846H8.6345V6.39329H10.142V11.5372C10.1456 11.8074 10.2105 12.0253 10.3365 12.191C10.4662 12.3567 10.6463 12.4396 10.8769 12.4396C11.1651 12.4396 11.3974 12.3261 11.5739 12.0992C11.754 11.8686 11.8837 11.5156 11.9629 11.0401C12.0458 10.561 12.0854 9.94867 12.0818 9.20301C12.0854 8.59063 12.0044 8.03589 11.8387 7.53879C11.6766 7.03808 11.446 6.59861 11.147 6.22038C10.8481 5.84215 10.4896 5.52695 10.0718 5.2748C9.65753 5.01904 9.19645 4.82632 8.68854 4.69664C8.18062 4.56696 7.63849 4.50212 7.06214 4.50212C6.1796 4.50212 5.40332 4.63721 4.73331 4.90737C4.0633 5.17394 3.50135 5.55397 3.04747 6.04747C2.5972 6.54098 2.25679 7.12633 2.02624 7.80355C1.79931 8.47716 1.68584 9.22282 1.68584 10.0405C1.68584 10.9159 1.80471 11.6921 2.04245 12.3694C2.2838 13.043 2.63682 13.6103 3.1015 14.0714C3.56619 14.5325 4.14074 14.8819 4.82516 15.1196C5.51319 15.3574 6.30387 15.4763 7.19722 15.4763C7.60787 15.4763 8.00952 15.4438 8.40216 15.379C8.7948 15.3142 9.14782 15.2385 9.46121 15.1521C9.7746 15.0656 10.016 14.99 10.1853 14.9251L10.6445 16.2976C10.4212 16.4128 10.1186 16.5245 9.73678 16.6326C9.35855 16.7406 8.94069 16.8289 8.48321 16.8973C8.02933 16.9658 7.57005 17 7.10536 17ZM6.72713 12.3099C7.18461 12.3099 7.55024 12.2217 7.82401 12.0452C8.09777 11.865 8.29409 11.5985 8.41297 11.2455C8.53184 10.8924 8.58948 10.453 8.58587 9.92706C8.58587 9.43715 8.52464 9.03551 8.40216 8.72212C8.27969 8.40872 8.08337 8.17638 7.8132 8.02509C7.54303 7.87379 7.18461 7.79815 6.73794 7.79815C6.33449 7.79815 5.99048 7.89 5.7059 8.07372C5.42493 8.25743 5.2088 8.51139 5.05751 8.83559C4.90982 9.15618 4.83597 9.52181 4.83597 9.93246C4.83597 10.3431 4.89541 10.7303 5.01428 11.0942C5.13675 11.4544 5.33488 11.748 5.60864 11.9749C5.88602 12.1983 6.25884 12.3099 6.72713 12.3099Z" fill="white" fill-opacity="0.7"/>
</svg>
