<svg width="20" height="20" viewBox="0 0 20 20" fill="none" xmlns="http://www.w3.org/2000/svg">
<path fill-rule="evenodd" clip-rule="evenodd" d="M10.4092 4.16725C9.84856 4.16423 9.29367 4.28212 8.78133 4.51312C8.53122 4.62588 8.29403 4.76435 8.07331 4.92589C7.84189 5.09527 7.62856 5.29002 7.4374 5.50713C7.24623 5.29002 7.03291 5.09527 6.80149 4.92589C6.58076 4.76435 6.34358 4.62588 6.09347 4.51312C5.58112 4.28212 5.02623 4.16423 4.46557 4.16725C3.99173 4.15834 3.52088 4.24534 3.08056 4.42316C2.64024 4.60097 2.23927 4.86604 1.9011 5.20286C1.56292 5.53969 1.29431 5.94151 1.11098 6.38485C0.927646 6.8282 0.833262 7.30416 0.833344 7.78493C0.833344 10.7148 3.64135 13.0439 5.9712 14.9764C6.2056 15.1708 6.43516 15.3612 6.65654 15.5478C7.10632 15.927 7.77009 15.9288 8.221 15.551C8.42404 15.3809 8.63389 15.2074 8.848 15.0304C11.1905 13.0937 14.0415 10.7367 14.0415 7.78493C14.0415 7.30416 13.9471 6.8282 13.7638 6.38485C13.5805 5.94151 13.3119 5.53969 12.9737 5.20286C12.6355 4.86604 12.2346 4.60097 11.7942 4.42316C11.3539 4.24534 10.8831 4.15834 10.4092 4.16725Z" stroke="white" stroke-opacity="0.7" stroke-width="1.66667"/>
</svg>
