<svg width="21" height="21" viewBox="0 0 21 21" fill="none" xmlns="http://www.w3.org/2000/svg">
<circle cx="7.14328" cy="13.7944" r="1.05173" fill="white"/>
<circle cx="5.61032" cy="9.71896" r="1.05173" fill="white"/>
<circle cx="8.23996" cy="6.03793" r="1.05173" fill="white"/>
<circle cx="12.4466" cy="5.90646" r="1.05173" fill="white"/>
<circle cx="14.874" cy="8.66745" r="1.05173" fill="white"/>
<path d="M18.498 10.6228C18.498 12.2115 18.0173 14.4682 16.0946 14.4682C14.1916 14.4682 14.4076 12.8201 12.0818 13.7186C12.0346 13.7368 11.9852 13.7628 11.9436 13.7916C9.22889 15.6718 12.8283 17.7703 10.4505 18.7464C10.3716 18.7788 10.2824 18.7946 10.1972 18.7933C5.74391 18.7241 2.15515 15.0926 2.15515 10.6228C2.15515 6.10989 5.81362 2.45142 10.3266 2.45142C14.8395 2.45142 18.498 6.10989 18.498 10.6228Z" stroke="white" stroke-width="2"/>
</svg>
