<svg width="16" height="19" viewBox="0 0 16 19" fill="none" xmlns="http://www.w3.org/2000/svg">
<path d="M11.665 1C12.9448 1.00011 14.1423 1.96652 14.1426 3.34766V14.9785C14.1425 16.3598 12.9449 17.3261 11.665 17.3262H3.47852C2.19856 17.3262 1.00003 16.3599 1 14.9785V3.34766C1.00024 1.96644 2.19868 1 3.47852 1H11.665Z" stroke="#FCFCFC" stroke-width="2"/>
<path d="M8.83997 9.45581L7.63879 11.2917L6.43665 9.45581L7.63879 7.6189L8.83997 9.45581Z" fill="#FCFCFC" stroke="#FCFCFC" stroke-width="0.857143"/>
<mask id="path-3-outside-1_8706_4053" maskUnits="userSpaceOnUse" x="8.16321" y="11.0477" width="4" height="4" fill="black">
<rect fill="white" x="8.16321" y="11.0477" width="4" height="4"/>
<path d="M9.92021 14.0477H9.35527L10.2161 11.5542H10.8955L11.755 14.0477H11.1901L10.5655 12.124H10.546L9.92021 14.0477ZM9.8849 13.0676H11.2193V13.4791H9.8849V13.0676Z"/>
</mask>
<path d="M9.92021 14.0477H9.35527L10.2161 11.5542H10.8955L11.755 14.0477H11.1901L10.5655 12.124H10.546L9.92021 14.0477ZM9.8849 13.0676H11.2193V13.4791H9.8849V13.0676Z" fill="#FCFCFC"/>
<path d="M9.92021 14.0477V14.2263H10.0499L10.09 14.103L9.92021 14.0477ZM9.35527 14.0477L9.18648 13.9895L9.10472 14.2263H9.35527V14.0477ZM10.2161 11.5542V11.3757H10.0888L10.0473 11.496L10.2161 11.5542ZM10.8955 11.5542L11.0643 11.496L11.0228 11.3757H10.8955V11.5542ZM11.755 14.0477V14.2263H12.0055L11.9239 13.9895L11.755 14.0477ZM11.1901 14.0477L11.0203 14.1029L11.0603 14.2263H11.1901V14.0477ZM10.5655 12.124L10.7353 12.0689L10.6953 11.9455H10.5655V12.124ZM10.546 12.124V11.9455H10.4163L10.3762 12.0688L10.546 12.124ZM9.8849 13.0676V12.889H9.70633V13.0676H9.8849ZM11.2193 13.0676H11.3979V12.889H11.2193V13.0676ZM11.2193 13.4791V13.6577H11.3979V13.4791H11.2193ZM9.8849 13.4791H9.70633V13.6577H9.8849V13.4791ZM9.92021 14.0477V13.8692H9.35527V14.0477V14.2263H9.92021V14.0477ZM9.35527 14.0477L9.52407 14.106L10.3849 11.6125L10.2161 11.5542L10.0473 11.496L9.18648 13.9895L9.35527 14.0477ZM10.2161 11.5542V11.7328H10.8955V11.5542V11.3757H10.2161V11.5542ZM10.8955 11.5542L10.7266 11.6124L11.5862 14.1059L11.755 14.0477L11.9239 13.9895L11.0643 11.496L10.8955 11.5542ZM11.755 14.0477V13.8692H11.1901V14.0477V14.2263H11.755V14.0477ZM11.1901 14.0477L11.3599 13.9926L10.7353 12.0689L10.5655 12.124L10.3957 12.1792L11.0203 14.1029L11.1901 14.0477ZM10.5655 12.124V11.9455H10.546V12.124V12.3026H10.5655V12.124ZM10.546 12.124L10.3762 12.0688L9.7504 13.9925L9.92021 14.0477L10.09 14.103L10.7158 12.1793L10.546 12.124ZM9.8849 13.0676V13.2462H11.2193V13.0676V12.889H9.8849V13.0676ZM11.2193 13.0676H11.0407V13.4791H11.2193H11.3979V13.0676H11.2193ZM11.2193 13.4791V13.3006H9.8849V13.4791V13.6577H11.2193V13.4791ZM9.8849 13.4791H10.0635V13.0676H9.8849H9.70633V13.4791H9.8849Z" fill="#FCFCFC" mask="url(#path-3-outside-1_8706_4053)"/>
<mask id="path-5-outside-2_8706_4053" maskUnits="userSpaceOnUse" x="2.5918" y="3.08862" width="4" height="4" fill="black">
<rect fill="white" x="2.5918" y="3.08862" width="4" height="4"/>
<path d="M4.3488 6.08862H3.78386L4.64466 3.59512H5.32404L6.18362 6.08862H5.61868L4.99409 4.16492H4.97461L4.3488 6.08862ZM4.31349 5.10851H5.64791V5.52004H4.31349V5.10851Z"/>
</mask>
<path d="M4.3488 6.08862H3.78386L4.64466 3.59512H5.32404L6.18362 6.08862H5.61868L4.99409 4.16492H4.97461L4.3488 6.08862ZM4.31349 5.10851H5.64791V5.52004H4.31349V5.10851Z" fill="#FCFCFC"/>
<path d="M4.3488 6.08862V6.26719H4.47849L4.51861 6.14387L4.3488 6.08862ZM3.78386 6.08862L3.61507 6.03035L3.5333 6.26719H3.78386V6.08862ZM4.64466 3.59512V3.41654H4.51739L4.47586 3.53684L4.64466 3.59512ZM5.32404 3.59512L5.49286 3.53692L5.45137 3.41654H5.32404V3.59512ZM6.18362 6.08862V6.26719H6.43406L6.35244 6.03043L6.18362 6.08862ZM5.61868 6.08862L5.44884 6.14377L5.48892 6.26719H5.61868V6.08862ZM4.99409 4.16492L5.16393 4.10978L5.12386 3.98635H4.99409V4.16492ZM4.97461 4.16492V3.98635H4.84492L4.8048 4.10968L4.97461 4.16492ZM4.31349 5.10851V4.92994H4.13492V5.10851H4.31349ZM5.64791 5.10851H5.82648V4.92994H5.64791V5.10851ZM5.64791 5.52004V5.69861H5.82648V5.52004H5.64791ZM4.31349 5.52004H4.13492V5.69861H4.31349V5.52004ZM4.3488 6.08862V5.91005H3.78386V6.08862V6.26719H4.3488V6.08862ZM3.78386 6.08862L3.95266 6.14689L4.81345 3.65339L4.64466 3.59512L4.47586 3.53684L3.61507 6.03035L3.78386 6.08862ZM4.64466 3.59512V3.77369H5.32404V3.59512V3.41654H4.64466V3.59512ZM5.32404 3.59512L5.15522 3.65331L6.0148 6.14682L6.18362 6.08862L6.35244 6.03043L5.49286 3.53692L5.32404 3.59512ZM6.18362 6.08862V5.91005H5.61868V6.08862V6.26719H6.18362V6.08862ZM5.61868 6.08862L5.78853 6.03348L5.16393 4.10978L4.99409 4.16492L4.82425 4.22007L5.44884 6.14377L5.61868 6.08862ZM4.99409 4.16492V3.98635H4.97461V4.16492V4.34349H4.99409V4.16492ZM4.97461 4.16492L4.8048 4.10968L4.17899 6.03338L4.3488 6.08862L4.51861 6.14387L5.14442 4.22016L4.97461 4.16492ZM4.31349 5.10851V5.28708H5.64791V5.10851V4.92994H4.31349V5.10851ZM5.64791 5.10851H5.46933V5.52004H5.64791H5.82648V5.10851H5.64791ZM5.64791 5.52004V5.34146H4.31349V5.52004V5.69861H5.64791V5.52004ZM4.31349 5.52004H4.49206V5.10851H4.31349H4.13492V5.52004H4.31349Z" fill="#FCFCFC" mask="url(#path-5-outside-2_8706_4053)"/>
</svg>
