<svg width="19" height="19" viewBox="0 0 19 19" fill="none" xmlns="http://www.w3.org/2000/svg">
<path d="M1.54391 9.42313C0.818652 10.1484 0.818652 11.3243 1.54391 12.0495L2.8616 13.3672C2.90783 13.315 2.95608 13.2638 3.00634 13.2135C3.99533 12.2245 5.385 12.0107 6.11026 12.736C6.83552 13.4612 6.62172 14.8509 5.63273 15.8399C5.58248 15.8901 5.53119 15.9384 5.47901 15.9846L6.7967 17.3023C7.52196 18.0276 8.69784 18.0276 9.4231 17.3023L17.3023 9.42313C18.0276 8.69787 18.0275 7.52199 17.3023 6.79673L15.9846 5.47904C15.9384 5.53122 15.8901 5.58251 15.8399 5.63276C14.8509 6.62175 13.4612 6.83555 12.7359 6.11029C12.0107 5.38503 12.2245 3.99536 13.2135 3.00637C13.2637 2.95611 13.315 2.90786 13.3672 2.86163L12.0495 1.54394C11.3242 0.818681 10.1484 0.81868 9.4231 1.54394L1.54391 9.42313Z" stroke="#FCFCFC" stroke-width="2" stroke-linecap="round" stroke-linejoin="round"/>
<path d="M5.48352 5.48352L13.3627 13.3627" stroke="#FCFCFC" stroke-linecap="round" stroke-linejoin="round" stroke-dasharray="2 2"/>
</svg>
