<svg width="16" height="14" viewBox="0 0 16 14" fill="none" xmlns="http://www.w3.org/2000/svg">
<path d="M3.05969 13.5381H1.28217C1.28217 13.5381 1.28217 8.73428 0.954181 7.17459C0.626188 5.61489 -7.27972e-06 4.89744 0 3.24416C7.27985e-06 1.59089 2.62399 0 2.62399 0C2.62399 0 5.6058 4.36714 6.20217 5.52131C6.79854 6.67549 7.18617 8.73428 8.3789 9.35816C9.24668 9.81207 10.3469 9.6389 10.3469 9.6389C10.3469 9.6389 14.9389 11.6977 15.0582 12.8207C15.1774 13.9437 8.0509 14.5675 6.55998 13.2886C5.06907 12.0096 3.936 7.17459 3.39927 7.17459C2.62399 7.17459 3.05969 13.5381 3.05969 13.5381Z" fill="#FCFCFC"/>
</svg>
