<svg width="15" height="13" viewBox="0 0 15 13" fill="none" xmlns="http://www.w3.org/2000/svg">
<path fill-rule="evenodd" clip-rule="evenodd" d="M10.6703 0.00069132C10.0455 -0.0026743 9.42722 0.128694 8.85632 0.386091C8.57763 0.511745 8.31334 0.666031 8.06739 0.84604C7.80952 1.03477 7.57181 1.25178 7.3588 1.4937C7.14579 1.25178 6.90808 1.03477 6.65022 0.84604C6.40427 0.666031 6.13998 0.511744 5.86128 0.386091C5.29038 0.128694 4.67208 -0.0026743 4.04734 0.00069132C3.51934 -0.00922937 2.99469 0.0877118 2.50404 0.285849C2.0134 0.483986 1.56661 0.779344 1.18978 1.15466C0.812954 1.52998 0.513652 1.97773 0.309366 2.47174C0.10508 2.96575 -9.04417e-05 3.49611 5.8357e-08 4.03183C5.8357e-08 7.29653 3.12892 9.89182 5.72503 12.0452C5.98623 12.2618 6.24203 12.474 6.4887 12.6819C6.98989 13.1044 7.72951 13.1065 8.23195 12.6855C8.4582 12.4959 8.69204 12.3026 8.93061 12.1054C11.5409 9.94733 14.7176 7.32098 14.7176 4.03183C14.7177 3.49611 14.6125 2.96575 14.4082 2.47174C14.204 1.97773 13.9046 1.52998 13.5278 1.15466C13.151 0.779344 12.7042 0.483986 12.2136 0.285849C11.7229 0.0877118 11.1983 -0.00922937 10.6703 0.00069132Z" fill="#FCFCFC"/>
</svg>
