<svg width="19" height="14" viewBox="0 0 19 14" fill="none" xmlns="http://www.w3.org/2000/svg">
<path fill-rule="evenodd" clip-rule="evenodd" d="M17.2929 5.65082C17.5349 6.65802 17.7042 7.73892 17.7526 8.72155C17.801 9.80245 17.7042 10.5886 17.4139 11.1044C17.1961 11.6695 16.8332 11.9642 16.4219 12.0871C16.0348 12.1853 15.5752 12.1362 15.0913 11.9397C14.2929 11.6203 13.3493 10.8833 12.43 10.0235C11.7768 9.38483 10.5671 9.06547 9.3574 9.06547C8.14771 9.06547 6.93803 9.38483 6.2848 10.0235C5.36545 10.8833 4.44609 11.5958 3.6235 11.9397C3.13963 12.1608 2.67995 12.1853 2.29285 12.0871C1.85737 11.9642 1.51866 11.6449 1.30091 11.129C1.08317 10.5886 0.962203 9.80245 1.01059 8.72155C1.05898 7.73892 1.22833 6.65802 1.47027 5.65082C1.71221 4.69275 2.05092 3.78382 2.43802 3.09597C3.88872 0.469078 5.48441 0.884523 7.36996 1.37544L7.37352 1.37636C7.97836 1.54832 8.6074 1.69572 9.28482 1.76942H9.50256C10.0812 1.70413 10.6599 1.56173 11.205 1.4276C11.2751 1.41034 11.3449 1.39317 11.4139 1.37636C13.301 0.860481 14.8977 0.467427 16.3494 3.07141C16.7365 3.75925 17.051 4.66819 17.2929 5.65082Z" stroke="#FCFCFC" stroke-width="2" stroke-linecap="round" stroke-linejoin="round"/>
<path fill-rule="evenodd" clip-rule="evenodd" d="M13.7369 3.93058C13.7369 4.3376 13.4119 4.66755 13.0111 4.66755C12.6102 4.66755 12.2853 4.3376 12.2853 3.93058C12.2853 3.52356 12.6102 3.1936 13.0111 3.1936C13.4119 3.1936 13.7369 3.52356 13.7369 3.93058ZM13.0111 7.68952C13.4119 7.68952 13.7369 7.35956 13.7369 6.95254C13.7369 6.54552 13.4119 6.21557 13.0111 6.21557C12.6102 6.21557 12.2853 6.54552 12.2853 6.95254C12.2853 7.35956 12.6102 7.68952 13.0111 7.68952ZM12.2609 5.4538C12.2609 5.86082 11.936 6.19077 11.5351 6.19077C11.1343 6.19077 10.8093 5.86082 10.8093 5.4538C10.8093 5.04678 11.1343 4.71682 11.5351 4.71682C11.936 4.71682 12.2609 5.04678 12.2609 5.4538ZM14.5111 6.19077C14.9119 6.19077 15.2369 5.86082 15.2369 5.4538C15.2369 5.04678 14.9119 4.71682 14.5111 4.71682C14.1102 4.71682 13.7853 5.04678 13.7853 5.4538C13.7853 5.86082 14.1102 6.19077 14.5111 6.19077ZM5.70208 7.96203H4.90013C4.78132 7.96203 4.66251 7.87155 4.66251 7.72076V6.4842H3.44473C3.32592 6.4842 3.23682 6.39373 3.23682 6.24293V5.42865C3.23682 5.30801 3.32592 5.18738 3.47443 5.18738H4.66251V3.95092C4.66251 3.83028 4.75162 3.70965 4.90013 3.70965H5.70208C5.82088 3.70965 5.93969 3.80012 5.93969 3.95092V5.18738H7.18715C7.30596 5.18738 7.42476 5.27785 7.42476 5.42865V6.24293C7.42476 6.36357 7.33566 6.4842 7.18715 6.4842H5.93969V7.72076C5.93969 7.84139 5.85058 7.96203 5.70208 7.96203Z" fill="#FCFCFC"/>
</svg>
