<svg width="17" height="13" viewBox="0 0 17 13" fill="none" xmlns="http://www.w3.org/2000/svg">
<g clip-path="url(#clip0_8706_3989)">
<circle cx="8.13768" cy="6.41002" r="2.00804" fill="#FCFCFC"/>
<path d="M10.9343 3.4552C11.7175 4.19672 12.206 5.24627 12.206 6.40992C12.206 7.57358 11.7175 8.62313 10.9343 9.36465M5.34105 3.4552C4.55788 4.19672 4.06934 5.24627 4.06934 6.40992C4.06934 7.57358 4.55788 8.62313 5.34105 9.36465" stroke="#FCFCFC" stroke-linecap="round" stroke-linejoin="round"/>
<path d="M12.9935 1.13477C14.4162 2.44509 15.3076 4.32359 15.3076 6.41028C15.3076 8.49697 14.4162 10.3755 12.9935 11.6858M3.28115 1.13477C1.85841 2.44509 0.967041 4.32359 0.967041 6.41028C0.967041 8.49697 1.85841 10.3755 3.28115 11.6858" stroke="#FCFCFC" stroke-width="2" stroke-linecap="round" stroke-linejoin="round"/>
</g>
<defs>
<clipPath id="clip0_8706_3989">
<rect width="16.7143" height="13" fill="white"/>
</clipPath>
</defs>
</svg>
