<svg width="16" height="15" viewBox="0 0 16 15" fill="none" xmlns="http://www.w3.org/2000/svg">
<path d="M7.35205 0.766235C7.53977 0.411324 8.04809 0.411364 8.23584 0.766235L9.96045 4.03479C10.1775 4.44616 10.5734 4.73381 11.0317 4.81311L14.6724 5.44299C15.0684 5.51152 15.2258 5.9955 14.9458 6.28381L12.3706 8.9342C12.0465 9.26773 11.8952 9.73267 11.9614 10.193L12.4878 13.8502C12.5449 14.2481 12.1327 14.5471 11.772 14.3698L8.45557 12.7399C8.03823 12.5347 7.54965 12.5347 7.13232 12.7399L3.81592 14.3698C3.45518 14.547 3.04386 14.2481 3.10107 13.8502L3.62646 10.193C3.69267 9.73264 3.54142 9.26774 3.21729 8.9342L0.64209 6.28381C0.362214 5.99552 0.519571 5.51159 0.915527 5.44299L4.55615 4.81311C5.01445 4.73381 5.4104 4.44615 5.62744 4.03479L7.35205 0.766235Z" fill="#FCFCFC" stroke="#FCFCFC"/>
</svg>
