<svg width="16" height="13" viewBox="0 0 16 13" fill="none" xmlns="http://www.w3.org/2000/svg">
<path fill-rule="evenodd" clip-rule="evenodd" d="M7.98639 1.44018C6.79981 1.44018 5.8379 2.40209 5.8379 3.58868C5.8379 4.77526 6.79981 5.73717 7.98639 5.73717C9.17297 5.73717 10.1349 4.77526 10.1349 3.58868C10.1349 2.40209 9.17297 1.44018 7.98639 1.44018ZM4.89464 8.71809C5.10009 7.59964 6.08664 6.83096 7.199 6.83096H8.66985C9.78221 6.83096 10.7688 7.59964 10.9742 8.71809C11.0657 9.2163 11.1574 9.77842 11.2143 10.2942C11.2899 10.9788 11.002 11.7726 10.2327 12.0677C9.58188 12.3173 8.75902 12.4345 7.93442 12.4181C7.10983 12.4345 6.28697 12.3173 5.63618 12.0677C4.86687 11.7726 4.57895 10.9788 4.65451 10.2942C4.71143 9.77842 4.80312 9.2163 4.89464 8.71809Z" fill="white"/>
<path d="M1.19504 2.14849C1.19504 0.961913 2.15695 0 3.34353 0C4.295 0 5.10201 0.618481 5.38446 1.47534C4.87007 2.02997 4.55559 2.77262 4.55559 3.58873C4.55559 3.69764 4.56119 3.80525 4.57212 3.91128C4.22395 4.15439 3.80039 4.29699 3.34353 4.29699C2.15695 4.29699 1.19504 3.33507 1.19504 2.14849Z" fill="white"/>
<path d="M4.87661 5.54644C4.61058 5.4453 4.32325 5.39078 4.02699 5.39078H2.55615C1.44378 5.39078 0.457233 6.15946 0.251784 7.27791C0.160267 7.77612 0.0685747 8.33824 0.0116518 8.85401C-0.0639101 9.53866 0.224014 10.3325 0.993321 10.6275C1.64411 10.8771 2.46697 10.9943 3.29157 10.9779C3.32822 10.9786 3.36487 10.9791 3.4015 10.9793C3.35625 10.7065 3.35065 10.4367 3.378 10.1889C3.43846 9.64111 3.53457 9.05401 3.62814 8.54467C3.81928 7.50408 4.4809 6.68576 5.34662 6.24093C5.16039 6.03275 5.0018 5.79933 4.87661 5.54644Z" fill="white"/>
<path d="M14.6738 2.14849C14.6738 0.961913 13.7118 0 12.5253 0C11.5738 0 10.7668 0.618481 10.4843 1.47534C10.9987 2.02997 11.3132 2.77263 11.3132 3.58873C11.3132 3.69764 11.3076 3.80525 11.2967 3.91128C11.6449 4.15439 12.0684 4.29699 12.5253 4.29699C13.7118 4.29699 14.6738 3.33507 14.6738 2.14849Z" fill="white"/>
<path d="M10.9922 5.54644C11.2582 5.4453 11.5456 5.39078 11.8418 5.39078H13.3127C14.425 5.39078 15.4116 6.15946 15.617 7.27791C15.7085 7.77612 15.8002 8.33824 15.8571 8.85401C15.9327 9.53866 15.6448 10.3325 14.8755 10.6275C14.2247 10.8771 13.4018 10.9943 12.5772 10.9779C12.5406 10.9786 12.5039 10.9791 12.4673 10.9793C12.5125 10.7065 12.5181 10.4367 12.4908 10.1889C12.4303 9.64111 12.3342 9.05401 12.2407 8.54467C12.0495 7.50408 11.3879 6.68576 10.5222 6.24093C10.7084 6.03275 10.867 5.79933 10.9922 5.54644Z" fill="white"/>
</svg>
