<svg width="16" height="16" viewBox="0 0 16 16" fill="none" xmlns="http://www.w3.org/2000/svg">
<path d="M11.7526 1C12.5221 1 13.2601 1.30569 13.8042 1.84982C14.3483 2.39396 14.654 3.13196 14.654 3.90148V4.58418C14.654 10.1455 10.1455 14.654 4.58418 14.654H3.90148C3.13196 14.654 2.39396 14.3483 1.84982 13.8042C1.30569 13.2601 1 12.5221 1 11.7526V11.0699C1 5.50856 5.50856 1 11.0699 1H11.7526Z" stroke="#FCFCFC" stroke-width="2" stroke-linecap="round" stroke-linejoin="round"/>
<path d="M14.2778 6.82489L8.86475 1.41189" stroke="#FCFCFC" stroke-linecap="round" stroke-linejoin="round"/>
<path d="M7.06116 14.2358L1.4303 8.60498" stroke="#FCFCFC" stroke-linecap="round" stroke-linejoin="round"/>
<path d="M5.82973 9.82456L9.82458 5.82971" stroke="#FCFCFC" stroke-linecap="round" stroke-linejoin="round"/>
<path d="M9.64589 8.0525L7.63208 6.0387" stroke="#FCFCFC" stroke-linecap="round" stroke-linejoin="round"/>
<path d="M8.07264 9.61183L6.05884 7.59802" stroke="#FCFCFC" stroke-linecap="round" stroke-linejoin="round"/>
</svg>
