<svg width="22" height="22" viewBox="0 0 22 22" fill="none" xmlns="http://www.w3.org/2000/svg">
<path d="M0 6.28571C0 2.81421 2.81421 0 6.28571 0H15.7143C19.1858 0 22 2.81421 22 6.28571V15.7143C22 19.1858 19.1858 22 15.7143 22H6.28571C2.81421 22 0 19.1858 0 15.7143V6.28571Z" fill="#12994C"/>
<circle cx="8.40244" cy="14.0281" r="0.889923" fill="#FCFCFC"/>
<circle cx="7.10721" cy="10.5799" r="0.889923" fill="#FCFCFC"/>
<circle cx="9.33243" cy="7.46463" r="0.889923" fill="#FCFCFC"/>
<circle cx="12.8896" cy="7.3533" r="0.889923" fill="#FCFCFC"/>
<circle cx="14.946" cy="9.68973" r="0.889923" fill="#FCFCFC"/>
<path d="M18.011 11.3445C18.011 12.6887 17.6043 14.5982 15.9774 14.5982C14.3659 14.5982 14.5502 13.2016 12.5776 13.9656C12.5405 13.98 12.5016 14.0004 12.4688 14.023C10.1617 15.6165 13.2219 17.3961 11.1943 18.2212C11.1323 18.2465 11.062 18.259 10.9951 18.258C7.22327 18.2037 4.18243 15.1292 4.18243 11.3445C4.18243 7.52581 7.27807 4.43018 11.0967 4.43018C14.9154 4.43018 18.011 7.52581 18.011 11.3445Z" stroke="#FCFCFC" stroke-width="1.44048"/>
</svg>
