<svg width="34" height="38" viewBox="0 0 34 38" fill="none" xmlns="http://www.w3.org/2000/svg">
<g clip-path="url(#clip0_4312_25031)">
<g filter="url(#filter0_d_4312_25031)">
<path d="M15.6302 33.7315C16.391 34.488 17.609 34.488 18.3698 33.7315C19.5065 32.6013 21.8862 30.1139 23.9887 27.1201C26.0613 24.1687 28 20.5389 28 17.1587C28 11.0108 23.0899 6 17 6C10.9101 6 6 11.0108 6 17.1587C6 20.5389 7.93866 24.1687 10.0113 27.1201C12.1138 30.1139 14.4935 32.6013 15.6302 33.7315Z" fill="#FCFCFC" stroke="#FCFCFC" stroke-width="2"/>
<rect x="3" y="3" width="28" height="28" rx="8" fill="#691FA9"/>
<rect x="3" y="3" width="28" height="28" rx="8" stroke="#FCFCFC" stroke-width="2"/>
<circle cx="13.6912" cy="20.8553" r="1.13263" fill="#FCFCFC"/>
<circle cx="12.0428" cy="16.4666" r="1.13263" fill="#FCFCFC"/>
<circle cx="14.8748" cy="12.5037" r="1.13263" fill="#FCFCFC"/>
<circle cx="19.4022" cy="12.3611" r="1.13263" fill="#FCFCFC"/>
<circle cx="22.0193" cy="15.3338" r="1.13263" fill="#FCFCFC"/>
<path d="M25.9203 17.4406C25.9203 19.1515 25.4027 21.5818 23.3321 21.5818C21.2811 21.5818 21.5156 19.8043 19.005 20.7766C18.9578 20.7949 18.9083 20.821 18.8666 20.8497C15.9303 22.8778 19.8251 25.1427 17.2446 26.1928C17.1656 26.225 17.0762 26.2409 16.9909 26.2397C12.1905 26.1705 8.32031 22.2575 8.32031 17.4406C8.32031 12.5805 12.2602 8.64062 17.1203 8.64062C21.9804 8.64062 25.9203 12.5805 25.9203 17.4406Z" stroke="#FCFCFC" stroke-width="1.83333"/>
</g>
</g>
<defs>
<filter id="filter0_d_4312_25031" x="0" y="2" width="34" height="37.2988" filterUnits="userSpaceOnUse" color-interpolation-filters="sRGB">
<feFlood flood-opacity="0" result="BackgroundImageFix"/>
<feColorMatrix in="SourceAlpha" type="matrix" values="0 0 0 0 0 0 0 0 0 0 0 0 0 0 0 0 0 0 127 0" result="hardAlpha"/>
<feOffset dy="2"/>
<feGaussianBlur stdDeviation="1"/>
<feComposite in2="hardAlpha" operator="out"/>
<feColorMatrix type="matrix" values="0 0 0 0 0 0 0 0 0 0 0 0 0 0 0 0 0 0 0.8 0"/>
<feBlend mode="normal" in2="BackgroundImageFix" result="effect1_dropShadow_4312_25031"/>
<feBlend mode="normal" in="SourceGraphic" in2="effect1_dropShadow_4312_25031" result="shape"/>
</filter>
<clipPath id="clip0_4312_25031">
<rect width="34" height="38" fill="white"/>
</clipPath>
</defs>
</svg>
