<svg width="22" height="22" viewBox="0 0 22 22" fill="none" xmlns="http://www.w3.org/2000/svg">
<rect width="22" height="22" rx="6.28571" fill="#B82020"/>
<path d="M14.4642 4.45319H7.53692C6.57298 4.45319 5.69698 5.17785 5.69698 6.18316V16.0243C5.69698 17.0296 6.57298 17.7542 7.53692 17.7542H14.4642C15.4281 17.7542 16.3041 17.0296 16.3041 16.0243V6.18316C16.3041 5.17785 15.4281 4.45319 14.4642 4.45319Z" stroke="#FCFCFC" stroke-width="1.17857"/>
<path d="M12.1048 11.3515L11.057 12.9531L10.0092 11.3515L11.057 9.74978L12.1048 11.3515Z" fill="#FCFCFC" stroke="#FCFCFC" stroke-width="0.67347"/>
<mask id="path-4-outside-1_5023_2020" maskUnits="userSpaceOnUse" x="12.3479" y="11.6987" width="3" height="4" fill="black">
<rect fill="white" x="12.3479" y="11.6987" width="3" height="4"/>
<path d="M13.3483 14.6987H12.9045L13.5808 12.7395H14.1146L14.79 14.6987H14.3461L13.8553 13.1873H13.84L13.3483 14.6987ZM13.3206 13.9286H14.3691V14.252H13.3206V13.9286Z"/>
</mask>
<path d="M13.3483 14.6987H12.9045L13.5808 12.7395H14.1146L14.79 14.6987H14.3461L13.8553 13.1873H13.84L13.3483 14.6987ZM13.3206 13.9286H14.3691V14.252H13.3206V13.9286Z" fill="#FCFCFC"/>
<path d="M13.3483 14.6987V14.839H13.4502L13.4818 14.7421L13.3483 14.6987ZM12.9045 14.6987L12.7718 14.6529L12.7076 14.839H12.9045V14.6987ZM13.5808 12.7395V12.5992H13.4808L13.4482 12.6938L13.5808 12.7395ZM14.1146 12.7395L14.2472 12.6938L14.2146 12.5992H14.1146V12.7395ZM14.79 14.6987V14.839H14.9868L14.9226 14.653L14.79 14.6987ZM14.3461 14.6987L14.2126 14.7421L14.2441 14.839H14.3461V14.6987ZM13.8553 13.1873L13.9888 13.1439L13.9573 13.0469H13.8553V13.1873ZM13.84 13.1873V13.0469H13.7381L13.7066 13.1438L13.84 13.1873ZM13.3206 13.9286V13.7883H13.1803V13.9286H13.3206ZM14.3691 13.9286H14.5094V13.7883H14.3691V13.9286ZM14.3691 14.252V14.3923H14.5094V14.252H14.3691ZM13.3206 14.252H13.1803V14.3923H13.3206V14.252ZM13.3483 14.5584H12.9045V14.839H13.3483V14.5584ZM13.0371 14.7445L13.7134 12.7853L13.4482 12.6938L12.7718 14.6529L13.0371 14.7445ZM13.5808 12.8799H14.1146V12.5992H13.5808V12.8799ZM13.9819 12.7853L14.6573 14.7445L14.9226 14.653L14.2472 12.6938L13.9819 12.7853ZM14.79 14.5584H14.3461V14.839H14.79V14.5584ZM14.4795 14.6554L13.9888 13.1439L13.7219 13.2306L14.2126 14.7421L14.4795 14.6554ZM13.8553 13.0469H13.84V13.3276H13.8553V13.0469ZM13.7066 13.1438L13.2149 14.6553L13.4818 14.7421L13.9735 13.2307L13.7066 13.1438ZM13.3206 14.0689H14.3691V13.7883H13.3206V14.0689ZM14.2288 13.9286V14.252H14.5094V13.9286H14.2288ZM14.3691 14.1117H13.3206V14.3923H14.3691V14.1117ZM13.4609 14.252V13.9286H13.1803V14.252H13.4609Z" fill="#FCFCFC" mask="url(#path-4-outside-1_5023_2020)"/>
<mask id="path-6-outside-2_5023_2020" maskUnits="userSpaceOnUse" x="7.63365" y="4.96338" width="3" height="4" fill="black">
<rect fill="white" x="7.63365" y="4.96338" width="3" height="4"/>
<path d="M8.63405 7.96338H8.19017L8.86651 6.00419H9.40031L10.0757 7.96338H9.63182L9.14107 6.4519H9.12576L8.63405 7.96338ZM8.60631 7.19329H9.65478V7.51663H8.60631V7.19329Z"/>
</mask>
<path d="M8.63405 7.96338H8.19017L8.86651 6.00419H9.40031L10.0757 7.96338H9.63182L9.14107 6.4519H9.12576L8.63405 7.96338ZM8.60631 7.19329H9.65478V7.51663H8.60631V7.19329Z" fill="#FCFCFC"/>
<path d="M8.63405 7.96338V8.10369H8.73595L8.76747 8.00678L8.63405 7.96338ZM8.19017 7.96338L8.05755 7.91759L7.99331 8.10369H8.19017V7.96338ZM8.86651 6.00419V5.86389H8.76652L8.73389 5.95841L8.86651 6.00419ZM9.40031 6.00419L9.53296 5.95847L9.50035 5.86389H9.40031V6.00419ZM10.0757 7.96338V8.10369H10.2725L10.2083 7.91765L10.0757 7.96338ZM9.63182 7.96338L9.49837 8.00671L9.52986 8.10369H9.63182V7.96338ZM9.14107 6.4519L9.27451 6.40857L9.24303 6.31159H9.14107V6.4519ZM9.12576 6.4519V6.31159H9.02386L8.99234 6.40849L9.12576 6.4519ZM8.60631 7.19329V7.05298H8.466V7.19329H8.60631ZM9.65478 7.19329H9.79508V7.05298H9.65478V7.19329ZM9.65478 7.51663V7.65694H9.79508V7.51663H9.65478ZM8.60631 7.51663H8.466V7.65694H8.60631V7.51663ZM8.63405 7.82307H8.19017V8.10369H8.63405V7.82307ZM8.3228 8.00916L8.99914 6.04998L8.73389 5.95841L8.05755 7.91759L8.3228 8.00916ZM8.86651 6.1445H9.40031V5.86389H8.86651V6.1445ZM9.26767 6.04992L9.94305 8.00911L10.2083 7.91765L9.53296 5.95847L9.26767 6.04992ZM10.0757 7.82307H9.63182V8.10369H10.0757V7.82307ZM9.76527 7.92005L9.27451 6.40857L9.00762 6.49523L9.49837 8.00671L9.76527 7.92005ZM9.14107 6.31159H9.12576V6.5922H9.14107V6.31159ZM8.99234 6.40849L8.50063 7.91997L8.76747 8.00678L9.25918 6.4953L8.99234 6.40849ZM8.60631 7.3336H9.65478V7.05298H8.60631V7.3336ZM9.51447 7.19329V7.51663H9.79508V7.19329H9.51447ZM9.65478 7.37633H8.60631V7.65694H9.65478V7.37633ZM8.74661 7.51663V7.19329H8.466V7.51663H8.74661Z" fill="#FCFCFC" mask="url(#path-6-outside-2_5023_2020)"/>
</svg>
