<svg width="34" height="38" viewBox="0 0 34 38" fill="none" xmlns="http://www.w3.org/2000/svg">
<g clip-path="url(#clip0_4312_25057)">
<g filter="url(#filter0_d_4312_25057)">
<path d="M15.6302 33.7315C16.391 34.488 17.609 34.488 18.3698 33.7315C19.5065 32.6013 21.8862 30.1139 23.9887 27.1201C26.0613 24.1687 28 20.5389 28 17.1587C28 11.0108 23.0899 6 17 6C10.9101 6 6 11.0108 6 17.1587C6 20.5389 7.93866 24.1687 10.0113 27.1201C12.1138 30.1139 14.4935 32.6013 15.6302 33.7315Z" fill="#FCFCFC" stroke="#FCFCFC" stroke-width="2"/>
<rect x="3" y="3" width="28" height="28" rx="8" fill="#691FA9"/>
<rect x="3" y="3" width="28" height="28" rx="8" stroke="#FCFCFC" stroke-width="2"/>
<path d="M21.4083 8.66797H12.5917C11.3649 8.66797 10.25 9.59026 10.25 10.8697V23.3948C10.25 24.6743 11.3649 25.5965 12.5917 25.5965H21.4083C22.6351 25.5965 23.75 24.6743 23.75 23.3948V10.8697C23.75 9.59026 22.6351 8.66797 21.4083 8.66797Z" stroke="#FCFCFC" stroke-width="1.5"/>
<path d="M18.8092 17.2828L17.3248 15.0138C17.2054 14.8313 16.9382 14.8313 16.8188 15.0138L15.3345 17.2828M18.8092 17.2828L15.3345 17.6139C15.2687 17.5135 15.2687 17.3835 15.3345 17.2828M18.8092 17.2828C18.8749 17.3832 18.8749 17.5132 18.8092 17.6139V17.2828ZM15.3345 17.2828L15.5875 17.4483L15.5876 17.4484L15.6931 17.5174L15.6934 17.5171M15.3345 17.2828L15.5877 17.4481L15.5878 17.4482L15.6934 17.5171M15.6934 17.5171L15.7383 17.4484M15.6934 17.5171C15.7204 17.4757 15.7208 17.4217 15.6931 17.3793L15.7383 17.4484M15.7383 17.4484L17.0718 15.4099L18.4054 17.4484L17.0718 19.4869L15.7383 17.4484ZM18.4505 17.5174C18.4505 17.5174 18.4505 17.5174 18.4505 17.5174L18.4505 17.5174Z" fill="#FCFCFC" stroke="#FCFCFC" stroke-width="0.857143"/>
<mask id="path-5-outside-1_4312_25057" maskUnits="userSpaceOnUse" x="18.7148" y="19.1621" width="3" height="4" fill="black">
<rect fill="white" x="18.7148" y="19.1621" width="3" height="4"/>
<path d="M19.579 22.1621H19.0141L19.8748 19.6686H20.5542L21.4138 22.1621H20.8489L20.2243 20.2384H20.2048L19.579 22.1621ZM19.5437 21.182H20.8781V21.5935H19.5437V21.182Z"/>
</mask>
<path d="M19.579 22.1621H19.0141L19.8748 19.6686H20.5542L21.4138 22.1621H20.8489L20.2243 20.2384H20.2048L19.579 22.1621ZM19.5437 21.182H20.8781V21.5935H19.5437V21.182Z" fill="#FCFCFC"/>
<path d="M19.579 22.1621V22.3407H19.7087L19.7488 22.2174L19.579 22.1621ZM19.0141 22.1621L18.8453 22.1038L18.7635 22.3407H19.0141V22.1621ZM19.8748 19.6686V19.49H19.7476L19.7061 19.6103L19.8748 19.6686ZM20.5542 19.6686L20.7231 19.6104L20.6816 19.49H20.5542V19.6686ZM21.4138 22.1621V22.3407H21.6643L21.5826 22.1039L21.4138 22.1621ZM20.8489 22.1621L20.679 22.2173L20.7191 22.3407H20.8489V22.1621ZM20.2243 20.2384L20.3941 20.1833L20.354 20.0598H20.2243V20.2384ZM20.2048 20.2384V20.0598H20.0751L20.035 20.1832L20.2048 20.2384ZM19.5437 21.182V21.0034H19.3651V21.182H19.5437ZM20.8781 21.182H21.0567V21.0034H20.8781V21.182ZM20.8781 21.5935V21.7721H21.0567V21.5935H20.8781ZM19.5437 21.5935H19.3651V21.7721H19.5437V21.5935ZM19.579 21.9835H19.0141V22.3407H19.579V21.9835ZM19.1828 22.2204L20.0436 19.7269L19.7061 19.6103L18.8453 22.1038L19.1828 22.2204ZM19.8748 19.8472H20.5542V19.49H19.8748V19.8472ZM20.3854 19.7268L21.245 22.2203L21.5826 22.1039L20.7231 19.6104L20.3854 19.7268ZM21.4138 21.9835H20.8489V22.3407H21.4138V21.9835ZM21.0187 22.107L20.3941 20.1833L20.0544 20.2936L20.679 22.2173L21.0187 22.107ZM20.2243 20.0598H20.2048V20.417H20.2243V20.0598ZM20.035 20.1832L19.4092 22.1069L19.7488 22.2174L20.3746 20.2936L20.035 20.1832ZM19.5437 21.3606H20.8781V21.0034H19.5437V21.3606ZM20.6995 21.182V21.5935H21.0567V21.182H20.6995ZM20.8781 21.4149H19.5437V21.7721H20.8781V21.4149ZM19.7223 21.5935V21.182H19.3651V21.5935H19.7223Z" fill="#FCFCFC" mask="url(#path-5-outside-1_4312_25057)"/>
<mask id="path-7-outside-2_4312_25057" maskUnits="userSpaceOnUse" x="12.7148" y="10.5898" width="3" height="4" fill="black">
<rect fill="white" x="12.7148" y="10.5898" width="3" height="4"/>
<path d="M13.579 13.5898H13.0141L13.8748 11.0963H14.5542L15.4138 13.5898H14.8489L14.2243 11.6661H14.2048L13.579 13.5898ZM13.5437 12.6097H14.8781V13.0213H13.5437V12.6097Z"/>
</mask>
<path d="M13.579 13.5898H13.0141L13.8748 11.0963H14.5542L15.4138 13.5898H14.8489L14.2243 11.6661H14.2048L13.579 13.5898ZM13.5437 12.6097H14.8781V13.0213H13.5437V12.6097Z" fill="#FCFCFC"/>
<path d="M13.579 13.5898V13.7684H13.7087L13.7488 13.6451L13.579 13.5898ZM13.0141 13.5898L12.8453 13.5316L12.7635 13.7684H13.0141V13.5898ZM13.8748 11.0963V10.9178H13.7476L13.7061 11.0381L13.8748 11.0963ZM14.5542 11.0963L14.7231 11.0381L14.6816 10.9178H14.5542V11.0963ZM15.4138 13.5898V13.7684H15.6643L15.5826 13.5316L15.4138 13.5898ZM14.8489 13.5898L14.679 13.645L14.7191 13.7684H14.8489V13.5898ZM14.2243 11.6661L14.3941 11.611L14.354 11.4876H14.2243V11.6661ZM14.2048 11.6661V11.4876H14.0751L14.035 11.6109L14.2048 11.6661ZM13.5437 12.6097V12.4312H13.3651V12.6097H13.5437ZM14.8781 12.6097H15.0567V12.4312H14.8781V12.6097ZM14.8781 13.0213V13.1998H15.0567V13.0213H14.8781ZM13.5437 13.0213H13.3651V13.1998H13.5437V13.0213ZM13.579 13.4113H13.0141V13.7684H13.579V13.4113ZM13.1828 13.6481L14.0436 11.1546L13.7061 11.0381L12.8453 13.5316L13.1828 13.6481ZM13.8748 11.2749H14.5542V10.9178H13.8748V11.2749ZM14.3854 11.1545L15.245 13.648L15.5826 13.5316L14.7231 11.0381L14.3854 11.1545ZM15.4138 13.4113H14.8489V13.7684H15.4138V13.4113ZM15.0187 13.5347L14.3941 11.611L14.0544 11.7213L14.679 13.645L15.0187 13.5347ZM14.2243 11.4876H14.2048V11.8447H14.2243V11.4876ZM14.035 11.6109L13.4092 13.5346L13.7488 13.6451L14.3746 11.7214L14.035 11.6109ZM13.5437 12.7883H14.8781V12.4312H13.5437V12.7883ZM14.6995 12.6097V13.0213H15.0567V12.6097H14.6995ZM14.8781 12.8427H13.5437V13.1998H14.8781V12.8427ZM13.7223 13.0213V12.6097H13.3651V13.0213H13.7223Z" fill="#FCFCFC" mask="url(#path-7-outside-2_4312_25057)"/>
</g>
</g>
<defs>
<filter id="filter0_d_4312_25057" x="0" y="2" width="34" height="37.2988" filterUnits="userSpaceOnUse" color-interpolation-filters="sRGB">
<feFlood flood-opacity="0" result="BackgroundImageFix"/>
<feColorMatrix in="SourceAlpha" type="matrix" values="0 0 0 0 0 0 0 0 0 0 0 0 0 0 0 0 0 0 127 0" result="hardAlpha"/>
<feOffset dy="2"/>
<feGaussianBlur stdDeviation="1"/>
<feComposite in2="hardAlpha" operator="out"/>
<feColorMatrix type="matrix" values="0 0 0 0 0 0 0 0 0 0 0 0 0 0 0 0 0 0 0.8 0"/>
<feBlend mode="normal" in2="BackgroundImageFix" result="effect1_dropShadow_4312_25057"/>
<feBlend mode="normal" in="SourceGraphic" in2="effect1_dropShadow_4312_25057" result="shape"/>
</filter>
<clipPath id="clip0_4312_25057">
<rect width="34" height="38" fill="white"/>
</clipPath>
</defs>
</svg>
