<svg width="34" height="38" viewBox="0 0 34 38" fill="none" xmlns="http://www.w3.org/2000/svg">
<g clip-path="url(#clip0_4312_25077)">
<g filter="url(#filter0_d_4312_25077)">
<path d="M15.6302 33.7315C16.391 34.488 17.609 34.488 18.3698 33.7315C19.5065 32.6013 21.8862 30.1139 23.9887 27.1201C26.0613 24.1687 28 20.5389 28 17.1587C28 11.0108 23.0899 6 17 6C10.9101 6 6 11.0108 6 17.1587C6 20.5389 7.93866 24.1687 10.0113 27.1201C12.1138 30.1139 14.4935 32.6013 15.6302 33.7315Z" fill="#FCFCFC" stroke="#FCFCFC" stroke-width="2"/>
<rect x="3" y="3" width="28" height="28" rx="8" fill="#691FA9"/>
<rect x="3" y="3" width="28" height="28" rx="8" stroke="#FCFCFC" stroke-width="2"/>
<path d="M12.3203 19.0332L17.3364 21.9152L22.2429 19.0514L17.3364 26.0009L12.3203 19.0332Z" fill="#FCFCFC" stroke="#FCFCFC" stroke-width="0.5" stroke-linejoin="round"/>
<path d="M17.2552 8.94397L21.9154 16.4816L17.2569 19.2017L12.5021 16.4801L17.2552 8.94397Z" stroke="#FCFCFC"/>
</g>
</g>
<defs>
<filter id="filter0_d_4312_25077" x="0" y="2" width="34" height="37.2988" filterUnits="userSpaceOnUse" color-interpolation-filters="sRGB">
<feFlood flood-opacity="0" result="BackgroundImageFix"/>
<feColorMatrix in="SourceAlpha" type="matrix" values="0 0 0 0 0 0 0 0 0 0 0 0 0 0 0 0 0 0 127 0" result="hardAlpha"/>
<feOffset dy="2"/>
<feGaussianBlur stdDeviation="1"/>
<feComposite in2="hardAlpha" operator="out"/>
<feColorMatrix type="matrix" values="0 0 0 0 0 0 0 0 0 0 0 0 0 0 0 0 0 0 0.8 0"/>
<feBlend mode="normal" in2="BackgroundImageFix" result="effect1_dropShadow_4312_25077"/>
<feBlend mode="normal" in="SourceGraphic" in2="effect1_dropShadow_4312_25077" result="shape"/>
</filter>
<clipPath id="clip0_4312_25077">
<rect width="34" height="38" fill="white"/>
</clipPath>
</defs>
</svg>
