<svg width="34" height="38" viewBox="0 0 34 38" fill="none" xmlns="http://www.w3.org/2000/svg">
<g clip-path="url(#clip0_4312_25104)">
<g filter="url(#filter0_d_4312_25104)">
<path d="M15.6302 33.7315C16.391 34.488 17.609 34.488 18.3698 33.7315C19.5065 32.6013 21.8862 30.1139 23.9887 27.1201C26.0613 24.1687 28 20.5389 28 17.1587C28 11.0108 23.0899 6 17 6C10.9101 6 6 11.0108 6 17.1587C6 20.5389 7.93866 24.1687 10.0113 27.1201C12.1138 30.1139 14.4935 32.6013 15.6302 33.7315Z" fill="#FCFCFC" stroke="#FCFCFC" stroke-width="2"/>
<path d="M3 11C3 6.58172 6.58172 3 11 3H23C27.4183 3 31 6.58172 31 11V23C31 27.4183 27.4183 31 23 31H11C6.58172 31 3 27.4183 3 23V11Z" fill="#691FA9"/>
<path d="M3 11C3 6.58172 6.58172 3 11 3H23C27.4183 3 31 6.58172 31 11V23C31 27.4183 27.4183 31 23 31H11C6.58172 31 3 27.4183 3 23V11Z" stroke="#FCFCFC" stroke-width="2"/>
<path d="M16.4983 10.5645L24.7154 14.6801L16.4983 18.7957L8.28125 14.6801L16.4983 10.5645Z" stroke="#FCFCFC" stroke-width="1.625" stroke-linecap="round" stroke-linejoin="round"/>
<path d="M21.0637 19.2441V20.7049C21.0637 21.9151 19.8374 22.8961 18.3247 22.8961H14.6726C13.1599 22.8961 11.9336 21.9151 11.9336 20.7049V19.2441" stroke="#FCFCFC" stroke-width="0.8125" stroke-linecap="round" stroke-linejoin="round"/>
<path d="M25.1758 14.6797V19.2448" stroke="#FCFCFC" stroke-width="0.8125" stroke-linecap="round" stroke-linejoin="round"/>
<path d="M26.0859 21.0703L25.1729 19.2443" stroke="#FCFCFC" stroke-width="0.8125" stroke-linecap="round" stroke-linejoin="round"/>
<path d="M24.2617 21.0703L25.1747 19.2443" stroke="#FCFCFC" stroke-width="0.8125" stroke-linecap="round" stroke-linejoin="round"/>
<ellipse cx="25.1737" cy="19.245" rx="1.82603" ry="0.913013" fill="#FCFCFC"/>
</g>
</g>
<defs>
<filter id="filter0_d_4312_25104" x="0" y="2" width="34" height="37.2988" filterUnits="userSpaceOnUse" color-interpolation-filters="sRGB">
<feFlood flood-opacity="0" result="BackgroundImageFix"/>
<feColorMatrix in="SourceAlpha" type="matrix" values="0 0 0 0 0 0 0 0 0 0 0 0 0 0 0 0 0 0 127 0" result="hardAlpha"/>
<feOffset dy="2"/>
<feGaussianBlur stdDeviation="1"/>
<feComposite in2="hardAlpha" operator="out"/>
<feColorMatrix type="matrix" values="0 0 0 0 0 0 0 0 0 0 0 0 0 0 0 0 0 0 0.8 0"/>
<feBlend mode="normal" in2="BackgroundImageFix" result="effect1_dropShadow_4312_25104"/>
<feBlend mode="normal" in="SourceGraphic" in2="effect1_dropShadow_4312_25104" result="shape"/>
</filter>
<clipPath id="clip0_4312_25104">
<rect width="34" height="38" fill="white"/>
</clipPath>
</defs>
</svg>
