<svg width="34" height="38" viewBox="0 0 34 38" fill="none" xmlns="http://www.w3.org/2000/svg">
<g clip-path="url(#clip0_4312_25145)">
<g filter="url(#filter0_d_4312_25145)">
<path d="M15.6302 33.7315C16.391 34.488 17.609 34.488 18.3698 33.7315C19.5065 32.6013 21.8862 30.1139 23.9887 27.1201C26.0613 24.1687 28 20.5389 28 17.1587C28 11.0108 23.0899 6 17 6C10.9101 6 6 11.0108 6 17.1587C6 20.5389 7.93866 24.1687 10.0113 27.1201C12.1138 30.1139 14.4935 32.6013 15.6302 33.7315Z" fill="#FCFCFC" stroke="#FCFCFC" stroke-width="2"/>
<rect x="3" y="3" width="28" height="28" rx="8" fill="#691FA9"/>
<rect x="3" y="3" width="28" height="28" rx="8" stroke="#FCFCFC" stroke-width="2"/>
<path d="M11.9558 9.81977C12.1708 9.64232 12.4916 9.67791 12.6676 9.89411C12.9666 10.2614 13.2626 10.6226 13.5396 10.9978C14.0917 11.7466 14.6285 12.5072 15.1543 13.2751C15.7313 14.1191 16.2345 15.0091 16.7077 15.916C16.9951 16.4666 17.2372 17.0371 17.4412 17.6236C17.4982 17.7867 17.567 17.9461 17.6335 18.1063C17.8544 18.635 18.2479 18.9575 18.7978 19.1053C19.058 19.1749 19.9594 19.2033 20.4793 19.1988C20.6772 19.1971 20.875 19.2417 21.0477 19.3382C24.0142 20.9959 24.2396 20.9536 25.4389 21.9523C25.5252 22.024 25.594 22.1242 25.651 22.2237C25.7688 22.4299 25.7278 22.6149 25.5479 22.7692C24.0693 24.0333 20.3534 23.5716 18.5521 23.4874C18.084 23.4655 17.6233 23.4084 17.1743 23.26C16.7347 23.1144 16.4305 22.8292 16.2133 22.4306C15.9449 21.9392 15.7738 21.4119 15.6085 20.8795C15.3635 20.0904 15.1002 19.3071 14.8406 18.5224C14.6029 17.805 14.3053 17.1124 13.9432 16.4498C13.8438 16.2677 13.7048 16.1068 13.5834 15.9364C13.5783 15.9291 13.571 15.9233 13.5644 15.9167C13.3341 15.6944 13.1161 15.7243 12.9933 16.022C12.8974 16.2531 12.825 16.4988 12.779 16.7445C12.6408 17.4825 12.5961 18.2313 12.5749 18.9802C12.5435 20.0611 12.5267 21.1428 12.4967 22.2237C12.4916 22.4083 12.4714 22.7042 12.4553 22.9212C12.4437 23.0768 12.3137 23.1963 12.1576 23.1963H11.5746C11.4115 23.1963 11.2783 23.0663 11.2742 22.9033C11.2607 22.3666 11.2292 21.2209 11.192 20.5665C11.1015 18.9548 11.0097 17.0309 10.502 15.5064C10.3725 15.1181 10.2036 14.7429 10.0507 14.3619C9.84668 13.8543 9.75161 13.33 9.81012 12.7815C9.86131 12.3032 10.0405 11.8702 10.2774 11.4585C10.6146 10.8727 11.2871 10.3966 11.7924 9.95781C11.846 9.91116 11.9004 9.86548 11.9558 9.81977Z" fill="#FCFCFC"/>
</g>
</g>
<defs>
<filter id="filter0_d_4312_25145" x="0" y="2" width="34" height="37.2988" filterUnits="userSpaceOnUse" color-interpolation-filters="sRGB">
<feFlood flood-opacity="0" result="BackgroundImageFix"/>
<feColorMatrix in="SourceAlpha" type="matrix" values="0 0 0 0 0 0 0 0 0 0 0 0 0 0 0 0 0 0 127 0" result="hardAlpha"/>
<feOffset dy="2"/>
<feGaussianBlur stdDeviation="1"/>
<feComposite in2="hardAlpha" operator="out"/>
<feColorMatrix type="matrix" values="0 0 0 0 0 0 0 0 0 0 0 0 0 0 0 0 0 0 0.8 0"/>
<feBlend mode="normal" in2="BackgroundImageFix" result="effect1_dropShadow_4312_25145"/>
<feBlend mode="normal" in="SourceGraphic" in2="effect1_dropShadow_4312_25145" result="shape"/>
</filter>
<clipPath id="clip0_4312_25145">
<rect width="34" height="38" fill="white"/>
</clipPath>
</defs>
</svg>
