<svg width="22" height="22" viewBox="0 0 22 22" fill="none" xmlns="http://www.w3.org/2000/svg">
<rect width="22" height="22" rx="6.28571" fill="#FF42A4"/>
<path d="M7.03667 5.35916C7.20562 5.21974 7.45768 5.2477 7.59597 5.41757C7.83089 5.70614 8.0635 5.98995 8.28108 6.28472C8.71492 6.87313 9.13668 7.47073 9.54983 8.07408C10.0032 8.73718 10.3985 9.43649 10.7703 10.149C10.9961 10.5817 11.1863 11.0299 11.3467 11.4907C11.3915 11.6189 11.4455 11.7441 11.4978 11.87C11.6713 12.2854 11.9805 12.5388 12.4126 12.6549C12.617 12.7096 13.3253 12.7319 13.7337 12.7284C13.8892 12.7271 14.0446 12.7621 14.1804 12.8379C16.5111 14.1404 16.6882 14.1071 17.6306 14.8919C17.6984 14.9482 17.7524 15.0269 17.7972 15.1051C17.8897 15.2671 17.8576 15.4125 17.7162 15.5337C16.5545 16.5269 13.6348 16.1642 12.2195 16.098C11.8517 16.0808 11.4897 16.036 11.1369 15.9193C10.7916 15.805 10.5525 15.5809 10.3819 15.2677C10.171 14.8815 10.0365 14.4673 9.90667 14.0489C9.71417 13.4289 9.50731 12.8135 9.30332 12.1969C9.11657 11.6332 8.8827 11.0891 8.59827 10.5685C8.52012 10.4254 8.41094 10.299 8.31556 10.1651C8.31153 10.1594 8.30579 10.1548 8.30062 10.1496C8.11961 9.97491 7.94838 9.99847 7.85184 10.2323C7.77657 10.4139 7.71968 10.607 7.68348 10.8001C7.57488 11.3798 7.53983 11.9682 7.52316 12.5567C7.49845 13.4059 7.48524 14.2558 7.46168 15.1051C7.4577 15.2501 7.44182 15.4826 7.42913 15.6531C7.42002 15.7754 7.31791 15.8693 7.19527 15.8693H6.73718C6.60906 15.8693 6.50437 15.7672 6.50115 15.6391C6.49053 15.2174 6.46582 14.3172 6.43661 13.803C6.36544 12.5367 6.29337 11.0251 5.89439 9.82723C5.79269 9.52211 5.65995 9.22733 5.53985 8.92796C5.37954 8.52917 5.30484 8.11717 5.35081 7.68621C5.39103 7.31041 5.53181 6.97024 5.71799 6.64673C5.98288 6.18646 6.51126 5.81239 6.90832 5.46762C6.95047 5.43097 6.99315 5.39508 7.03667 5.35916Z" fill="#FCFCFC"/>
</svg>
