<svg width="34" height="38" viewBox="0 0 34 38" fill="none" xmlns="http://www.w3.org/2000/svg">
<g clip-path="url(#clip0_4312_25162)">
<g filter="url(#filter0_d_4312_25162)">
<path d="M15.6302 33.7315C16.391 34.488 17.609 34.488 18.3698 33.7315C19.5065 32.6013 21.8862 30.1139 23.9887 27.1201C26.0613 24.1687 28 20.5389 28 17.1587C28 11.0108 23.0899 6 17 6C10.9101 6 6 11.0108 6 17.1587C6 20.5389 7.93866 24.1687 10.0113 27.1201C12.1138 30.1139 14.4935 32.6013 15.6302 33.7315Z" fill="#FCFCFC" stroke="#FCFCFC" stroke-width="2"/>
<rect x="3" y="3" width="28" height="28" rx="8" fill="#691FA9"/>
<rect x="3" y="3" width="28" height="28" rx="8" stroke="#FCFCFC" stroke-width="2"/>
<path fill-rule="evenodd" clip-rule="evenodd" d="M20.4911 10.5007C19.8183 10.4971 19.1524 10.6386 18.5376 10.9158C18.2374 11.0511 17.9528 11.2173 17.688 11.4111C17.4103 11.6144 17.1543 11.8481 16.9249 12.1086C16.6955 11.8481 16.4395 11.6144 16.1618 11.4111C15.8969 11.2173 15.6123 11.0511 15.3121 10.9158C14.6973 10.6386 14.0315 10.4971 13.3587 10.5007C12.7901 10.4901 12.225 10.5945 11.6967 10.8078C11.1683 11.0212 10.6871 11.3393 10.2813 11.7435C9.87549 12.1477 9.55316 12.6299 9.33316 13.1619C9.11316 13.6939 8.9999 14.265 9 14.842C9 18.3578 12.3696 21.1527 15.1654 23.4717C15.4467 23.705 15.7222 23.9335 15.9878 24.1575C16.5276 24.6124 17.3241 24.6146 17.8652 24.1613C18.1088 23.9571 18.3607 23.749 18.6176 23.5365C21.4286 21.2125 24.8497 18.3841 24.8497 14.842C24.8498 14.265 24.7366 13.6939 24.5166 13.1619C24.2966 12.6299 23.9742 12.1477 23.5684 11.7435C23.1626 11.3393 22.6815 11.0212 22.1531 10.8078C21.6247 10.5945 21.0597 10.4901 20.4911 10.5007Z" fill="#FCFCFC"/>
</g>
</g>
<defs>
<filter id="filter0_d_4312_25162" x="0" y="2" width="34" height="37.2988" filterUnits="userSpaceOnUse" color-interpolation-filters="sRGB">
<feFlood flood-opacity="0" result="BackgroundImageFix"/>
<feColorMatrix in="SourceAlpha" type="matrix" values="0 0 0 0 0 0 0 0 0 0 0 0 0 0 0 0 0 0 127 0" result="hardAlpha"/>
<feOffset dy="2"/>
<feGaussianBlur stdDeviation="1"/>
<feComposite in2="hardAlpha" operator="out"/>
<feColorMatrix type="matrix" values="0 0 0 0 0 0 0 0 0 0 0 0 0 0 0 0 0 0 0.8 0"/>
<feBlend mode="normal" in2="BackgroundImageFix" result="effect1_dropShadow_4312_25162"/>
<feBlend mode="normal" in="SourceGraphic" in2="effect1_dropShadow_4312_25162" result="shape"/>
</filter>
<clipPath id="clip0_4312_25162">
<rect width="34" height="38" fill="white"/>
</clipPath>
</defs>
</svg>
