<svg width="22" height="22" viewBox="0 0 22 22" fill="none" xmlns="http://www.w3.org/2000/svg">
<rect width="22" height="22" rx="6.28571" fill="#FF2D55"/>
<path fill-rule="evenodd" clip-rule="evenodd" d="M13.743 5.89365C13.2144 5.8908 12.6912 6.00196 12.2081 6.21976C11.9723 6.32608 11.7487 6.45663 11.5405 6.60895C11.3223 6.76864 11.1212 6.95226 10.941 7.15697C10.7607 6.95226 10.5596 6.76864 10.3414 6.60895C10.1333 6.45663 9.90966 6.32608 9.67384 6.21976C9.19077 6.00196 8.66759 5.8908 8.13897 5.89365C7.6922 5.88526 7.24826 5.96728 6.8331 6.13494C6.41794 6.30259 6.03989 6.55251 5.72103 6.87009C5.40218 7.18767 5.14892 7.56653 4.97607 7.98454C4.80321 8.40255 4.71422 8.85131 4.71429 9.30461C4.71429 12.0671 7.36184 14.2631 9.55855 16.0851C9.77956 16.2685 9.99601 16.448 10.2047 16.6239C10.6288 16.9814 11.2547 16.9831 11.6798 16.6269C11.8712 16.4665 12.0691 16.303 12.271 16.1361C14.4797 14.31 17.1677 12.0877 17.1677 9.30461C17.1677 8.85131 17.0787 8.40255 16.9059 7.98454C16.733 7.56653 16.4798 7.18767 16.1609 6.87009C15.8421 6.55251 15.464 6.30259 15.0488 6.13494C14.6337 5.96728 14.1897 5.88526 13.743 5.89365Z" fill="#FCFCFC"/>
</svg>
