<svg width="22" height="22" viewBox="0 0 22 22" fill="none" xmlns="http://www.w3.org/2000/svg">
<path d="M0 6.28571C0 2.81421 2.81421 0 6.28571 0H15.7143C19.1858 0 22 2.81421 22 6.28571V15.7143C22 19.1858 19.1858 22 15.7143 22H6.28571C2.81421 22 0 19.1858 0 15.7143V6.28571Z" fill="#9C00FC"/>
<path fill-rule="evenodd" clip-rule="evenodd" d="M17.5095 9.94336C17.7142 10.7956 17.8575 11.7102 17.8985 12.5417C17.9394 13.4563 17.8575 14.1214 17.6119 14.558C17.4276 15.036 17.1206 15.2855 16.7725 15.3894C16.445 15.4726 16.056 15.431 15.6466 15.2647C14.971 14.9945 14.1727 14.3709 13.3947 13.6434C12.842 13.1029 11.8184 12.8327 10.7948 12.8327C9.77127 12.8327 8.7477 13.1029 8.19496 13.6434C7.41705 14.3709 6.63913 14.9737 5.94309 15.2647C5.53366 15.4518 5.1447 15.4726 4.81716 15.3894C4.44867 15.2855 4.16207 15.0153 3.97783 14.5787C3.79358 14.1214 3.69122 13.4563 3.73217 12.5417C3.77311 11.7102 3.91641 10.7956 4.12113 9.94336C4.32584 9.13268 4.61244 8.36358 4.93999 7.78156C6.16751 5.55881 7.51771 5.91034 9.11318 6.32573L9.11618 6.32651C9.62797 6.47201 10.1602 6.59673 10.7334 6.65909H10.9177C11.4073 6.60385 11.897 6.48336 12.3582 6.36987C12.4176 6.35525 12.4766 6.34073 12.5349 6.32651C14.1317 5.88999 15.4828 5.55741 16.7111 7.76078C17.0387 8.3428 17.3048 9.1119 17.5095 9.94336Z" stroke="#FCFCFC" stroke-width="1.17857" stroke-linecap="round" stroke-linejoin="round"/>
<path fill-rule="evenodd" clip-rule="evenodd" d="M14.5016 8.48785C14.5016 8.83225 14.2266 9.11145 13.8874 9.11145C13.5483 9.11145 13.2733 8.83225 13.2733 8.48785C13.2733 8.14345 13.5483 7.86426 13.8874 7.86426C14.2266 7.86426 14.5016 8.14345 14.5016 8.48785ZM13.8874 11.6685C14.2266 11.6685 14.5016 11.3893 14.5016 11.0449C14.5016 10.7005 14.2266 10.4213 13.8874 10.4213C13.5483 10.4213 13.2733 10.7005 13.2733 11.0449C13.2733 11.3893 13.5483 11.6685 13.8874 11.6685ZM13.2527 9.77673C13.2527 10.1211 12.9777 10.4003 12.6386 10.4003C12.2994 10.4003 12.0244 10.1211 12.0244 9.77673C12.0244 9.43233 12.2994 9.15314 12.6386 9.15314C12.9777 9.15314 13.2527 9.43233 13.2527 9.77673ZM15.1567 10.4003C15.4958 10.4003 15.7708 10.1211 15.7708 9.77673C15.7708 9.43233 15.4958 9.15314 15.1567 9.15314C14.8175 9.15314 14.5425 9.43233 14.5425 9.77673C14.5425 10.1211 14.8175 10.4003 15.1567 10.4003ZM7.7029 11.8991H7.02433C6.9238 11.8991 6.82327 11.8225 6.82327 11.6949V10.6486H5.79284C5.69231 10.6486 5.61691 10.5721 5.61691 10.4445V9.75545C5.61691 9.65337 5.69231 9.5513 5.81797 9.5513H6.82327V8.50506C6.82327 8.40298 6.89867 8.30091 7.02433 8.30091H7.7029C7.80343 8.30091 7.90396 8.37747 7.90396 8.50506V9.5513H8.9595C9.06003 9.5513 9.16056 9.62785 9.16056 9.75545V10.4445C9.16056 10.5465 9.08516 10.6486 8.9595 10.6486H7.90396V11.6949C7.90396 11.797 7.82856 11.8991 7.7029 11.8991Z" fill="#FCFCFC"/>
</svg>
