<svg width="34" height="38" viewBox="0 0 34 38" fill="none" xmlns="http://www.w3.org/2000/svg">
<g clip-path="url(#clip0_4312_25168)">
<g filter="url(#filter0_d_4312_25168)">
<path d="M15.6302 33.7315C16.391 34.488 17.609 34.488 18.3698 33.7315C19.5065 32.6013 21.8862 30.1139 23.9887 27.1201C26.0613 24.1687 28 20.5389 28 17.1587C28 11.0108 23.0899 6 17 6C10.9101 6 6 11.0108 6 17.1587C6 20.5389 7.93866 24.1687 10.0113 27.1201C12.1138 30.1139 14.4935 32.6013 15.6302 33.7315Z" fill="#FCFCFC" stroke="#FCFCFC" stroke-width="2"/>
<path d="M3 11C3 6.58172 6.58172 3 11 3H23C27.4183 3 31 6.58172 31 11V23C31 27.4183 27.4183 31 23 31H11C6.58172 31 3 27.4183 3 23V11Z" fill="#691FA9"/>
<path d="M3 11C3 6.58172 6.58172 3 11 3H23C27.4183 3 31 6.58172 31 11V23C31 27.4183 27.4183 31 23 31H11C6.58172 31 3 27.4183 3 23V11Z" stroke="#FCFCFC" stroke-width="2"/>
<path fill-rule="evenodd" clip-rule="evenodd" d="M25.2845 15.654C25.545 16.7387 25.7274 17.9027 25.7795 18.961C25.8316 20.125 25.7274 20.9716 25.4148 21.5272C25.1803 22.1356 24.7895 22.4531 24.3465 22.5854C23.9297 22.6912 23.4346 22.6383 22.9135 22.4266C22.0537 22.0827 21.0376 21.2891 20.0475 20.3631C19.344 19.6753 18.0413 19.3313 16.7386 19.3313C15.4358 19.3313 14.1331 19.6753 13.4296 20.3631C12.4395 21.2891 11.4495 22.0563 10.5636 22.4266C10.0425 22.6647 9.54746 22.6912 9.13059 22.5854C8.6616 22.4531 8.29684 22.1092 8.06234 21.5536C7.82785 20.9716 7.69758 20.125 7.74969 18.961C7.8018 17.9027 7.98418 16.7387 8.24473 15.654C8.50527 14.6223 8.87004 13.6434 9.28691 12.9027C10.8492 10.0737 12.5676 10.5211 14.5982 11.0498L14.6021 11.0508C15.2534 11.236 15.9309 11.3947 16.6604 11.4741H16.8949C17.5181 11.4037 18.1413 11.2504 18.7282 11.1059C18.8038 11.0874 18.8789 11.0689 18.9532 11.0508C20.9855 10.4952 22.7051 10.0719 24.2684 12.8762C24.6852 13.617 25.024 14.5958 25.2845 15.654Z" stroke="#FCFCFC" stroke-width="1.5" stroke-linecap="round" stroke-linejoin="round"/>
<path fill-rule="evenodd" clip-rule="evenodd" d="M21.4562 13.8015C21.4562 14.2398 21.1063 14.5951 20.6746 14.5951C20.2429 14.5951 19.8929 14.2398 19.8929 13.8015C19.8929 13.3631 20.2429 13.0078 20.6746 13.0078C21.1063 13.0078 21.4562 13.3631 21.4562 13.8015ZM20.6746 17.8496C21.1063 17.8496 21.4562 17.4942 21.4562 17.0559C21.4562 16.6176 21.1063 16.2622 20.6746 16.2622C20.2429 16.2622 19.8929 16.6176 19.8929 17.0559C19.8929 17.4942 20.2429 17.8496 20.6746 17.8496ZM19.8667 15.4419C19.8667 15.8802 19.5168 16.2355 19.0851 16.2355C18.6534 16.2355 18.3034 15.8802 18.3034 15.4419C18.3034 15.0035 18.6534 14.6482 19.0851 14.6482C19.5168 14.6482 19.8667 15.0035 19.8667 15.4419ZM22.2899 16.2355C22.7216 16.2355 23.0716 15.8802 23.0716 15.4419C23.0716 15.0035 22.7216 14.6482 22.2899 14.6482C21.8583 14.6482 21.5083 15.0035 21.5083 15.4419C21.5083 15.8802 21.8583 16.2355 22.2899 16.2355ZM12.8033 18.143H11.9397C11.8118 18.143 11.6838 18.0456 11.6838 17.8832V16.5515H10.3723C10.2444 16.5515 10.1484 16.4541 10.1484 16.2917V15.4148C10.1484 15.2849 10.2444 15.155 10.4043 15.155H11.6838V13.8234C11.6838 13.6935 11.7798 13.5636 11.9397 13.5636H12.8033C12.9313 13.5636 13.0592 13.661 13.0592 13.8234V15.155H14.4026C14.5306 15.155 14.6585 15.2524 14.6585 15.4148V16.2917C14.6585 16.4216 14.5626 16.5515 14.4026 16.5515H13.0592V17.8832C13.0592 18.0131 12.9633 18.143 12.8033 18.143Z" fill="#FCFCFC"/>
</g>
</g>
<defs>
<filter id="filter0_d_4312_25168" x="0" y="2" width="34" height="37.2988" filterUnits="userSpaceOnUse" color-interpolation-filters="sRGB">
<feFlood flood-opacity="0" result="BackgroundImageFix"/>
<feColorMatrix in="SourceAlpha" type="matrix" values="0 0 0 0 0 0 0 0 0 0 0 0 0 0 0 0 0 0 127 0" result="hardAlpha"/>
<feOffset dy="2"/>
<feGaussianBlur stdDeviation="1"/>
<feComposite in2="hardAlpha" operator="out"/>
<feColorMatrix type="matrix" values="0 0 0 0 0 0 0 0 0 0 0 0 0 0 0 0 0 0 0.8 0"/>
<feBlend mode="normal" in2="BackgroundImageFix" result="effect1_dropShadow_4312_25168"/>
<feBlend mode="normal" in="SourceGraphic" in2="effect1_dropShadow_4312_25168" result="shape"/>
</filter>
<clipPath id="clip0_4312_25168">
<rect width="34" height="38" fill="white"/>
</clipPath>
</defs>
</svg>
