<svg width="34" height="38" fill="none" xmlns="http://www.w3.org/2000/svg"><g filter="url(#prefix__filter0_d_5016_22233)" clip-path="url(#prefix__clip0_5016_22233)"><path d="M15.63 33.731c.761.757 1.979.757 2.74 0 1.136-1.13 3.516-3.617 5.619-6.61C26.06 24.168 28 20.538 28 17.158 28 11.01 23.09 6 17 6S6 11.01 6 17.159c0 3.38 1.939 7.01 4.011 9.961 2.103 2.994 4.482 5.481 5.62 6.611z" fill="#FCFCFC" stroke="#FCFCFC" stroke-width="2"/><rect x="3" y="3" width="28" height="28" rx="8" fill="#ff0000"/><rect x="3" y="3" width="28" height="28" rx="8" stroke="#FCFCFC" stroke-width="2"/><g clip-path="url(#prefix__clip1_5016_22233)"><circle cx="16.764" cy="16.903" r="2.163" fill="#FCFCFC"/><path d="M19.776 13.72a4.369 4.369 0 011.37 3.183 4.369 4.369 0 01-1.37 3.182m-6.024-6.364a4.369 4.369 0 00-1.37 3.182c0 1.253.527 2.383 1.37 3.182" stroke="#FCFCFC" stroke-linecap="round" stroke-linejoin="round"/><path d="M21.994 11.223a7.701 7.701 0 012.493 5.681c0 2.247-.96 4.27-2.492 5.681m-10.46-11.362a7.701 7.701 0 00-2.492 5.681c0 2.247.96 4.27 2.492 5.681" stroke="#FCFCFC" stroke-width="1.5" stroke-linecap="round" stroke-linejoin="round"/></g></g><defs><clipPath id="prefix__clip0_5016_22233"><path fill="#fff" d="M0 0h34v38H0z"/></clipPath><clipPath id="prefix__clip1_5016_22233"><path fill="#fff" transform="translate(8 10)" d="M0 0h18v14H0z"/></clipPath><filter id="prefix__filter0_d_5016_22233" x="0" y="2" width="34" height="37.299" filterUnits="userSpaceOnUse" color-interpolation-filters="sRGB"><feFlood flood-opacity="0" result="BackgroundImageFix"/><feColorMatrix in="SourceAlpha" values="0 0 0 0 0 0 0 0 0 0 0 0 0 0 0 0 0 0 127 0" result="hardAlpha"/><feOffset dy="2"/><feGaussianBlur stdDeviation="1"/><feComposite in2="hardAlpha" operator="out"/><feColorMatrix values="0 0 0 0 0 0 0 0 0 0 0 0 0 0 0 0 0 0 0.8 0"/><feBlend in2="BackgroundImageFix" result="effect1_dropShadow_5016_22233"/><feBlend in="SourceGraphic" in2="effect1_dropShadow_5016_22233" result="shape"/></filter></defs></svg>