<svg width="34" height="38" viewBox="0 0 34 38" fill="none" xmlns="http://www.w3.org/2000/svg">
<g clip-path="url(#clip0_5016_22233)">
<g filter="url(#filter0_d_5016_22233)">
<path d="M15.6302 33.7315C16.391 34.488 17.609 34.488 18.3698 33.7315C19.5065 32.6013 21.8862 30.1139 23.9887 27.1201C26.0613 24.1687 28 20.5389 28 17.1587C28 11.0108 23.0899 6 17 6C10.9101 6 6 11.0108 6 17.1587C6 20.5389 7.93866 24.1687 10.0113 27.1201C12.1138 30.1139 14.4935 32.6013 15.6302 33.7315Z" fill="#FCFCFC" stroke="#FCFCFC" stroke-width="2"/>
<rect x="3" y="3" width="28" height="28" rx="8" fill="#219245"/>
<rect x="3" y="3" width="28" height="28" rx="8" stroke="#FCFCFC" stroke-width="2"/>
<g clip-path="url(#clip1_5016_22233)">
<circle cx="16.7641" cy="16.9027" r="2.16251" fill="#FCFCFC"/>
<path d="M19.7759 13.7207C20.6193 14.5193 21.1454 15.6495 21.1454 16.9027C21.1454 18.1559 20.6193 19.2862 19.7759 20.0847M13.7524 13.7207C12.9089 14.5193 12.3828 15.6495 12.3828 16.9027C12.3828 18.1559 12.9089 19.2862 13.7524 20.0847" stroke="#FCFCFC" stroke-linecap="round" stroke-linejoin="round"/>
<path d="M21.9945 11.2227C23.5267 12.6338 24.4867 14.6568 24.4867 16.904C24.4867 19.1512 23.5267 21.1742 21.9945 22.5853M11.5351 11.2227C10.0029 12.6338 9.04297 14.6568 9.04297 16.904C9.04297 19.1512 10.0029 21.1742 11.5351 22.5853" stroke="#FCFCFC" stroke-width="1.5" stroke-linecap="round" stroke-linejoin="round"/>
</g>
</g>
</g>
<defs>
<filter id="filter0_d_5016_22233" x="0" y="2" width="34" height="37.2988" filterUnits="userSpaceOnUse" color-interpolation-filters="sRGB">
<feFlood flood-opacity="0" result="BackgroundImageFix"/>
<feColorMatrix in="SourceAlpha" type="matrix" values="0 0 0 0 0 0 0 0 0 0 0 0 0 0 0 0 0 0 127 0" result="hardAlpha"/>
<feOffset dy="2"/>
<feGaussianBlur stdDeviation="1"/>
<feComposite in2="hardAlpha" operator="out"/>
<feColorMatrix type="matrix" values="0 0 0 0 0 0 0 0 0 0 0 0 0 0 0 0 0 0 0.8 0"/>
<feBlend mode="normal" in2="BackgroundImageFix" result="effect1_dropShadow_5016_22233"/>
<feBlend mode="normal" in="SourceGraphic" in2="effect1_dropShadow_5016_22233" result="shape"/>
</filter>
<clipPath id="clip0_5016_22233">
<rect width="34" height="38" fill="white"/>
</clipPath>
<clipPath id="clip1_5016_22233">
<rect width="18" height="14" fill="white" transform="translate(8 10)"/>
</clipPath>
</defs>
</svg>
