<svg width="34" height="38" viewBox="0 0 34 38" fill="none" xmlns="http://www.w3.org/2000/svg">
<g clip-path="url(#clip0_4312_25200)">
<g filter="url(#filter0_d_4312_25200)">
<path d="M15.6302 33.7315C16.391 34.488 17.609 34.488 18.3698 33.7315C19.5065 32.6013 21.8862 30.1139 23.9887 27.1201C26.0613 24.1687 28 20.5389 28 17.1587C28 11.0108 23.0899 6 17 6C10.9101 6 6 11.0108 6 17.1587C6 20.5389 7.93866 24.1687 10.0113 27.1201C12.1138 30.1139 14.4935 32.6013 15.6302 33.7315Z" fill="#FCFCFC" stroke="#FCFCFC" stroke-width="2"/>
<rect x="3" y="3" width="28" height="28" rx="8" fill="#FF9900"/>
<rect x="3" y="3" width="28" height="28" rx="8" stroke="#FCFCFC" stroke-width="2"/>
<path d="M16.5578 9.40966C16.7454 9.05409 17.2546 9.05409 17.4422 9.40966L19.3848 13.0915C19.6019 13.5029 19.9974 13.7903 20.4557 13.8696L24.5577 14.5794C24.9539 14.6479 25.1112 15.1322 24.831 15.4205L21.9296 18.4058C21.6055 18.7393 21.4544 19.2044 21.5206 19.6648L22.1131 23.7853C22.1704 24.1832 21.7584 24.4825 21.3976 24.3052L17.6619 22.4683C17.2445 22.263 16.7555 22.263 16.3381 22.4683L12.6024 24.3052C12.2416 24.4825 11.8296 24.1832 11.8869 23.7853L12.4794 19.6648C12.5456 19.2044 12.3945 18.7393 12.0704 18.4058L9.16898 15.4205C8.88878 15.1322 9.04614 14.6479 9.44228 14.5794L13.5443 13.8696C14.0026 13.7903 14.3981 13.5029 14.6152 13.0915L16.5578 9.40966Z" fill="#FCFCFC" stroke="#FCFCFC"/>
</g>
</g>
<defs>
<filter id="filter0_d_4312_25200" x="0" y="2" width="34" height="37.2988" filterUnits="userSpaceOnUse" color-interpolation-filters="sRGB">
<feFlood flood-opacity="0" result="BackgroundImageFix"/>
<feColorMatrix in="SourceAlpha" type="matrix" values="0 0 0 0 0 0 0 0 0 0 0 0 0 0 0 0 0 0 127 0" result="hardAlpha"/>
<feOffset dy="2"/>
<feGaussianBlur stdDeviation="1"/>
<feComposite in2="hardAlpha" operator="out"/>
<feColorMatrix type="matrix" values="0 0 0 0 0 0 0 0 0 0 0 0 0 0 0 0 0 0 0.8 0"/>
<feBlend mode="normal" in2="BackgroundImageFix" result="effect1_dropShadow_4312_25200"/>
<feBlend mode="normal" in="SourceGraphic" in2="effect1_dropShadow_4312_25200" result="shape"/>
</filter>
<clipPath id="clip0_4312_25200">
<rect width="34" height="38" fill="white"/>
</clipPath>
</defs>
</svg>
