<svg width="22" height="22" viewBox="0 0 22 22" fill="none" xmlns="http://www.w3.org/2000/svg">
<path d="M0 6.28571C0 2.81421 2.81421 0 6.28571 0H15.7143C19.1858 0 22 2.81421 22 6.28571V15.7143C22 19.1858 19.1858 22 15.7143 22H6.28571C2.81421 22 0 19.1858 0 15.7143V6.28571Z" fill="#6065CF"/>
<path fill-rule="evenodd" clip-rule="evenodd" d="M11.0792 7.11168C10.0751 7.11168 9.2612 7.92561 9.2612 8.92964C9.2612 9.93367 10.0751 10.7476 11.0792 10.7476C12.0832 10.7476 12.8971 9.93367 12.8971 8.92964C12.8971 7.92561 12.0832 7.11168 11.0792 7.11168ZM8.46306 13.2699C8.6369 12.3235 9.47167 11.6731 10.4129 11.6731H11.6575C12.5987 11.6731 13.4335 12.3235 13.6073 13.2699C13.6847 13.6915 13.7623 14.1671 13.8105 14.6035C13.8744 15.1829 13.6308 15.8545 12.9799 16.1042C12.4292 16.3154 11.7329 16.4145 11.0352 16.4007C10.3375 16.4145 9.64119 16.3154 9.09052 16.1042C8.43956 15.8545 8.19594 15.1829 8.25987 14.6035C8.30804 14.1671 8.38562 13.6915 8.46306 13.2699Z" fill="#FCFCFC"/>
<path d="M5.33263 7.71102C5.33263 6.70699 6.14655 5.89307 7.15058 5.89307C7.95567 5.89307 8.63852 6.4164 8.87752 7.14143C8.44227 7.61073 8.17617 8.23913 8.17617 8.92968C8.17617 9.02184 8.18091 9.11289 8.19016 9.20261C7.89555 9.40832 7.53716 9.52898 7.15058 9.52898C6.14655 9.52898 5.33263 8.71505 5.33263 7.71102Z" fill="#FCFCFC"/>
<path d="M8.4478 10.5862C8.2227 10.5006 7.97957 10.4545 7.72889 10.4545H6.48433C5.5431 10.4545 4.70833 11.1049 4.53449 12.0513C4.45705 12.4729 4.37947 12.9485 4.3313 13.3849C4.26736 13.9642 4.51099 14.6359 5.16194 14.8856C5.71261 15.0968 6.40888 15.1959 7.10661 15.1821C7.13763 15.1827 7.16864 15.1831 7.19963 15.1832C7.16135 14.9524 7.15661 14.7241 7.17975 14.5145C7.23091 14.0509 7.31224 13.5542 7.3914 13.1232C7.55314 12.2427 8.11297 11.5502 8.84551 11.1739C8.68793 10.9977 8.55373 10.8002 8.4478 10.5862Z" fill="#FCFCFC"/>
<path d="M16.7377 7.71102C16.7377 6.70699 15.9238 5.89307 14.9197 5.89307C14.1147 5.89307 13.4318 6.4164 13.1928 7.14143C13.6281 7.61073 13.8942 8.23913 13.8942 8.92968C13.8942 9.02184 13.8894 9.11289 13.8802 9.20261C14.1748 9.40832 14.5332 9.52898 14.9197 9.52898C15.9238 9.52898 16.7377 8.71505 16.7377 7.71102Z" fill="#FCFCFC"/>
<path d="M13.6225 10.5862C13.8476 10.5006 14.0908 10.4545 14.3414 10.4545H15.586C16.5272 10.4545 17.362 11.1049 17.5358 12.0513C17.6133 12.4729 17.6909 12.9485 17.739 13.3849C17.803 13.9642 17.5593 14.6359 16.9084 14.8856C16.3577 15.0968 15.6614 15.1959 14.9637 15.1821C14.9327 15.1827 14.9017 15.1831 14.8707 15.1832C14.909 14.9524 14.9137 14.7241 14.8906 14.5145C14.8394 14.0509 14.7581 13.5542 14.6789 13.1232C14.5172 12.2427 13.9574 11.5502 13.2248 11.1739C13.3824 10.9977 13.5166 10.8002 13.6225 10.5862Z" fill="#FCFCFC"/>
</svg>
