<svg width="34" height="38" viewBox="0 0 34 38" fill="none" xmlns="http://www.w3.org/2000/svg">
<g clip-path="url(#clip0_4312_25233)">
<g filter="url(#filter0_d_4312_25233)">
<path d="M15.6302 33.7315C16.391 34.488 17.609 34.488 18.3698 33.7315C19.5065 32.6013 21.8862 30.1139 23.9887 27.1201C26.0613 24.1687 28 20.5389 28 17.1587C28 11.0108 23.0899 6 17 6C10.9101 6 6 11.0108 6 17.1587C6 20.5389 7.93866 24.1687 10.0113 27.1201C12.1138 30.1139 14.4935 32.6013 15.6302 33.7315Z" fill="#FCFCFC" stroke="#FCFCFC" stroke-width="2"/>
<path d="M3 11C3 6.58172 6.58172 3 11 3H23C27.4183 3 31 6.58172 31 11V23C31 27.4183 27.4183 31 23 31H11C6.58172 31 3 27.4183 3 23V11Z" fill="#691FA9"/>
<path d="M3 11C3 6.58172 6.58172 3 11 3H23C27.4183 3 31 6.58172 31 11V23C31 27.4183 27.4183 31 23 31H11C6.58172 31 3 27.4183 3 23V11Z" stroke="#FCFCFC" stroke-width="2"/>
<path fill-rule="evenodd" clip-rule="evenodd" d="M17.1007 12.051C15.8229 12.051 14.787 13.0869 14.787 14.3647C14.787 15.6426 15.8229 16.6785 17.1007 16.6785C18.3786 16.6785 19.4145 15.6426 19.4145 14.3647C19.4145 13.0869 18.3786 12.051 17.1007 12.051ZM13.7712 19.8887C13.9924 18.6842 15.0548 17.8564 16.2528 17.8564H17.8368C19.0347 17.8564 20.0971 18.6842 20.3184 19.8887C20.4169 20.4252 20.5157 21.0306 20.577 21.5861C20.6584 22.3234 20.3483 23.1782 19.5198 23.496C18.8189 23.7648 17.9328 23.891 17.0448 23.8733C16.1567 23.891 15.2706 23.7648 14.5697 23.496C13.7412 23.1782 13.4312 22.3234 13.5125 21.5861C13.5738 21.0306 13.6726 20.4252 13.7712 19.8887Z" fill="#FCFCFC"/>
<path d="M9.78696 12.8138C9.78696 11.5359 10.8229 10.5 12.1007 10.5C13.1254 10.5 13.9945 11.1661 14.2987 12.0888C13.7447 12.6861 13.406 13.4859 13.406 14.3648C13.406 14.4821 13.4121 14.598 13.4238 14.7121C13.0489 14.974 12.5927 15.1275 12.1007 15.1275C10.8229 15.1275 9.78696 14.0916 9.78696 12.8138Z" fill="#FCFCFC"/>
<path d="M13.7517 16.4731C13.4652 16.3642 13.1558 16.3055 12.8368 16.3055H11.2528C10.0548 16.3055 8.9924 17.1333 8.77115 18.3377C8.6726 18.8743 8.57385 19.4796 8.51255 20.0351C8.43117 20.7724 8.74125 21.6273 9.56973 21.945C10.2706 22.2138 11.1567 22.34 12.0448 22.3224C12.0842 22.3231 12.1237 22.3236 12.1632 22.3239C12.1144 22.0301 12.1084 21.7395 12.1378 21.4727C12.203 20.8827 12.3065 20.2505 12.4072 19.702C12.6131 18.5813 13.3256 17.7 14.2579 17.221C14.0573 16.9968 13.8866 16.7454 13.7517 16.4731Z" fill="#FCFCFC"/>
<path d="M24.3025 12.8138C24.3025 11.5359 23.2666 10.5 21.9888 10.5C20.9641 10.5 20.095 11.1661 19.7908 12.0888C20.3448 12.6861 20.6835 13.4859 20.6835 14.3648C20.6835 14.4821 20.6774 14.598 20.6657 14.7121C21.0406 14.974 21.4967 15.1275 21.9888 15.1275C23.2666 15.1275 24.3025 14.0916 24.3025 12.8138Z" fill="#FCFCFC"/>
<path d="M20.3377 16.4731C20.6242 16.3642 20.9337 16.3055 21.2527 16.3055H22.8367C24.0346 16.3055 25.0971 17.1333 25.3183 18.3377C25.4169 18.8743 25.5156 19.4796 25.5769 20.0351C25.6583 20.7724 25.3482 21.6273 24.5197 21.945C23.8189 22.2138 22.9327 22.34 22.0447 22.3224C22.0052 22.3231 21.9658 22.3236 21.9263 22.3239C21.9751 22.0301 21.9811 21.7395 21.9516 21.4727C21.8865 20.8827 21.783 20.2505 21.6823 19.702C21.4764 18.5813 20.7639 17.7 19.8316 17.221C20.0321 16.9968 20.2029 16.7454 20.3377 16.4731Z" fill="#FCFCFC"/>
</g>
</g>
<defs>
<filter id="filter0_d_4312_25233" x="0" y="2" width="34" height="37.2988" filterUnits="userSpaceOnUse" color-interpolation-filters="sRGB">
<feFlood flood-opacity="0" result="BackgroundImageFix"/>
<feColorMatrix in="SourceAlpha" type="matrix" values="0 0 0 0 0 0 0 0 0 0 0 0 0 0 0 0 0 0 127 0" result="hardAlpha"/>
<feOffset dy="2"/>
<feGaussianBlur stdDeviation="1"/>
<feComposite in2="hardAlpha" operator="out"/>
<feColorMatrix type="matrix" values="0 0 0 0 0 0 0 0 0 0 0 0 0 0 0 0 0 0 0.8 0"/>
<feBlend mode="normal" in2="BackgroundImageFix" result="effect1_dropShadow_4312_25233"/>
<feBlend mode="normal" in="SourceGraphic" in2="effect1_dropShadow_4312_25233" result="shape"/>
</filter>
<clipPath id="clip0_4312_25233">
<rect width="34" height="38" fill="white"/>
</clipPath>
</defs>
</svg>
