<svg width="22" height="22" viewBox="0 0 22 22" fill="none" xmlns="http://www.w3.org/2000/svg">
<rect width="22" height="22" rx="6.28571" fill="#FF7439"/>
<path d="M14.1377 5.45068C14.7888 5.45068 15.4132 5.70935 15.8737 6.16977C16.3341 6.63019 16.5928 7.25465 16.5928 7.90578V8.48346C16.5928 13.1892 12.7778 17.0041 8.07211 17.0041H7.49444C6.8433 17.0041 6.21884 16.7454 5.75842 16.285C5.298 15.8246 5.03934 15.2001 5.03934 14.549V13.9713C5.03934 9.26562 8.85427 5.45068 13.56 5.45068H14.1377Z" stroke="#FCFCFC" stroke-width="1.17857" stroke-linecap="round" stroke-linejoin="round"/>
<path d="M16.2722 10.3796L11.692 5.79934" stroke="#FCFCFC" stroke-width="0.785714" stroke-linecap="round" stroke-linejoin="round"/>
<path d="M10.1677 16.6513L5.40317 11.8867" stroke="#FCFCFC" stroke-width="0.785714" stroke-linecap="round" stroke-linejoin="round"/>
<path d="M9.12252 12.9183L12.5028 9.53809" stroke="#FCFCFC" stroke-width="0.785714" stroke-linecap="round" stroke-linejoin="round"/>
<path d="M12.353 11.4193L10.649 9.71533" stroke="#FCFCFC" stroke-width="0.785714" stroke-linecap="round" stroke-linejoin="round"/>
<path d="M11.0209 12.7382L9.31696 11.0342" stroke="#FCFCFC" stroke-width="0.785714" stroke-linecap="round" stroke-linejoin="round"/>
</svg>
