<svg width="34" height="38" viewBox="0 0 34 38" fill="none" xmlns="http://www.w3.org/2000/svg">
<g clip-path="url(#clip0_4312_25250)">
<g filter="url(#filter0_d_4312_25250)">
<path d="M15.6302 33.7315C16.391 34.488 17.609 34.488 18.3698 33.7315C19.5065 32.6013 21.8862 30.1139 23.9887 27.1201C26.0613 24.1687 28 20.5389 28 17.1587C28 11.0108 23.0899 6 17 6C10.9101 6 6 11.0108 6 17.1587C6 20.5389 7.93866 24.1687 10.0113 27.1201C12.1138 30.1139 14.4935 32.6013 15.6302 33.7315Z" fill="#FCFCFC" stroke="#FCFCFC" stroke-width="2"/>
<rect x="3" y="3" width="28" height="28" rx="8" fill="#691FA9"/>
<rect x="3" y="3" width="28" height="28" rx="8" stroke="#FCFCFC" stroke-width="2"/>
<path d="M20.9898 9.9375C21.8185 9.9375 22.6133 10.2667 23.1993 10.8527C23.7853 11.4387 24.1145 12.2335 24.1145 13.0622V13.7974C24.1145 19.7865 19.2591 24.6418 13.27 24.6418H12.5348C11.7061 24.6418 10.9113 24.3126 10.3254 23.7266C9.73936 23.1407 9.41016 22.3459 9.41016 21.5172V20.782C9.41016 14.7929 14.2655 9.9375 20.2546 9.9375H20.9898Z" stroke="#FCFCFC" stroke-width="1.5" stroke-linecap="round" stroke-linejoin="round"/>
<path d="M23.7083 16.2103L17.8789 10.3809" stroke="#FCFCFC" stroke-linecap="round" stroke-linejoin="round"/>
<path d="M15.939 24.191L9.875 18.127" stroke="#FCFCFC" stroke-linecap="round" stroke-linejoin="round"/>
<path d="M14.608 19.4408L18.9102 15.1387" stroke="#FCFCFC" stroke-linecap="round" stroke-linejoin="round"/>
<path d="M18.7195 17.532L16.5508 15.3633" stroke="#FCFCFC" stroke-linecap="round" stroke-linejoin="round"/>
<path d="M17.0242 19.2117L14.8555 17.043" stroke="#FCFCFC" stroke-linecap="round" stroke-linejoin="round"/>
</g>
</g>
<defs>
<filter id="filter0_d_4312_25250" x="0" y="2" width="34" height="37.2988" filterUnits="userSpaceOnUse" color-interpolation-filters="sRGB">
<feFlood flood-opacity="0" result="BackgroundImageFix"/>
<feColorMatrix in="SourceAlpha" type="matrix" values="0 0 0 0 0 0 0 0 0 0 0 0 0 0 0 0 0 0 127 0" result="hardAlpha"/>
<feOffset dy="2"/>
<feGaussianBlur stdDeviation="1"/>
<feComposite in2="hardAlpha" operator="out"/>
<feColorMatrix type="matrix" values="0 0 0 0 0 0 0 0 0 0 0 0 0 0 0 0 0 0 0.8 0"/>
<feBlend mode="normal" in2="BackgroundImageFix" result="effect1_dropShadow_4312_25250"/>
<feBlend mode="normal" in="SourceGraphic" in2="effect1_dropShadow_4312_25250" result="shape"/>
</filter>
<clipPath id="clip0_4312_25250">
<rect width="34" height="38" fill="white"/>
</clipPath>
</defs>
</svg>
