<svg width="82" height="82" viewBox="0 0 82 82" fill="none" xmlns="http://www.w3.org/2000/svg">
<path d="M30.6976 50.886V56.1086C30.6977 56.8733 31.3178 57.494 32.0824 57.4944C32.8473 57.4944 33.468 56.8735 33.4681 56.1086V50.886H61.1449V61.8596C61.1448 62.847 60.7911 63.7943 60.1615 64.4924C59.5319 65.1905 58.6778 65.5823 57.7875 65.5823H24.2123C23.3219 65.5823 22.4679 65.1906 21.8383 64.4924C21.2087 63.7943 20.855 62.847 20.8549 61.8596V50.886H30.6976ZM41.0004 20.9006C46.3431 20.9007 51.4666 23.2549 55.2445 27.4446C59.0224 31.6343 61.1448 37.3163 61.1449 43.2415V48.1155H20.8549V43.2415C20.8549 37.3164 22.9774 31.6343 26.7552 27.4446C30.5332 23.2548 35.6575 20.9006 41.0004 20.9006Z" fill="url(#paint0_linear_1_1384)"/>
<path d="M56.2875 14.7981C56.8121 14.7983 57.2375 15.2236 57.2377 15.7483V26.6897C57.0713 26.4926 56.9027 26.2974 56.7299 26.1057C54.6741 23.8259 52.2418 22.0328 49.5853 20.8049V15.7483C49.5855 15.2235 50.0117 14.7981 50.5365 14.7981H56.2875Z" fill="url(#paint1_linear_1_1384)"/>
<path d="M30.8402 14.7981C31.365 14.7982 31.7902 15.2235 31.7904 15.7483V21.1057C29.3768 22.3186 27.1636 24.0057 25.2699 26.1057C24.8759 26.5427 24.4991 26.9945 24.139 27.4592V15.7483C24.1392 15.2235 24.5644 14.7981 25.0892 14.7981H30.8402Z" fill="url(#paint2_linear_1_1384)"/>
<defs>
<linearGradient id="paint0_linear_1_1384" x1="20.8549" y1="25.366" x2="55.9769" y2="65.6254" gradientUnits="userSpaceOnUse">
<stop stop-color="#E8B9FF"/>
<stop offset="1" stop-color="#691FA9"/>
</linearGradient>
<linearGradient id="paint1_linear_1_1384" x1="49.5853" y1="15.9865" x2="58.8328" y2="23.5513" gradientUnits="userSpaceOnUse">
<stop stop-color="#E8B9FF"/>
<stop offset="1" stop-color="#691FA9"/>
</linearGradient>
<linearGradient id="paint2_linear_1_1384" x1="24.139" y1="16.0634" x2="33.8448" y2="23.5196" gradientUnits="userSpaceOnUse">
<stop stop-color="#E8B9FF"/>
<stop offset="1" stop-color="#691FA9"/>
</linearGradient>
</defs>
</svg>
