<svg width="139" height="140" viewBox="0 0 139 140" fill="none" xmlns="http://www.w3.org/2000/svg">
<mask id="path-1-inside-1_6_38" fill="white">
<path d="M29.2988 8.25061C31.3541 1.94996 38.1422 -1.52138 44.3265 0.861142C79.5546 14.4327 110.885 36.5074 135.521 65.1134C139.845 70.1353 138.861 77.6956 133.62 81.7515L62.0455 137.136C56.804 141.191 49.3095 140.179 44.7276 135.39C34.4769 124.678 22.2407 116.057 8.70319 110.009C2.65214 107.306 -0.82361 100.589 1.23177 94.2884L29.2988 8.25061Z"/>
</mask>
<path d="M29.2988 8.25061C31.3541 1.94996 38.1422 -1.52138 44.3265 0.861142C79.5546 14.4327 110.885 36.5074 135.521 65.1134C139.845 70.1353 138.861 77.6956 133.62 81.7515L62.0455 137.136C56.804 141.191 49.3095 140.179 44.7276 135.39C34.4769 124.678 22.2407 116.057 8.70319 110.009C2.65214 107.306 -0.82361 100.589 1.23177 94.2884L29.2988 8.25061Z" fill="#FCFCFC" stroke="#FCFCFC" stroke-width="4" mask="url(#path-1-inside-1_6_38)"/>
</svg>
