<svg width="22" height="22" viewBox="0 0 22 22" fill="none" xmlns="http://www.w3.org/2000/svg">
<g clip-path="url(#clip0_5081_13515)">
<path d="M2.32214 9.09269C1.81221 8.72699 1.81221 7.96857 2.32214 7.60287L10.4719 1.75818C10.7913 1.52917 11.2211 1.52917 11.5404 1.75818L19.6902 7.60287C20.2001 7.96857 20.2001 8.72699 19.6902 9.09269L11.5404 14.9374C11.2211 15.1664 10.7913 15.1664 10.4719 14.9374L2.32214 9.09269Z" stroke="#161518" stroke-width="2" stroke-linecap="round"/>
<path d="M18.2384 11.4583L19.7648 12.757C20.2187 13.1431 20.1893 13.8528 19.705 14.2001L11.5341 20.06C11.2147 20.289 10.785 20.289 10.4656 20.06L2.42898 14.2964C1.90554 13.921 1.92233 13.137 2.46137 12.7844L4.48842 11.4583" stroke="#161518" stroke-linecap="round"/>
</g>
<defs>
<clipPath id="clip0_5081_13515">
<rect width="22" height="22" fill="white"/>
</clipPath>
</defs>
</svg>
