<svg width="44" height="44" viewBox="0 0 44 44" fill="none" xmlns="http://www.w3.org/2000/svg">
<path d="M4.3892 31.6815C2.87342 31.0553 2.15225 29.3189 2.77842 27.8031L5.13148 22.107L2.76763 16.4155C2.13858 14.9009 2.85647 13.1631 4.37107 12.5341L10.0626 10.1702L12.4157 4.47422C13.0419 2.95842 14.7783 2.23727 16.2941 2.86344L21.99 5.21648L27.6817 2.85265C29.1962 2.2236 30.9341 2.94149 31.563 4.45609L33.9269 10.1476L39.6229 12.5007C41.1386 13.1269 41.8598 14.8633 41.2337 16.3791L38.8807 22.075L41.2445 27.7667C41.8736 29.2812 41.1556 31.0191 39.6411 31.6481L33.9494 34.0119L31.5965 39.7079C30.9702 41.2236 29.2339 41.9448 27.7181 41.3187L22.022 38.9657L16.3305 41.3295C14.8159 41.9586 13.0781 41.2406 12.449 39.7261L10.0852 34.0344L4.3892 31.6815Z" fill="url(#paint0_linear_263_7377)"/>
<path d="M6.78417 30.4054C5.485 29.8688 4.8669 28.3805 5.40358 27.0813L7.42036 22.1994L5.39433 17.3211C4.85518 16.023 5.47047 14.5336 6.76863 13.9944L11.6468 11.9684L13.6636 7.08637C14.2003 5.7872 15.6886 5.1691 16.9877 5.70578L21.8697 7.72258L26.7479 5.69655C28.0461 5.1574 29.5355 5.77268 30.0747 7.07083L32.1008 11.949L36.9827 13.9658C38.2819 14.5025 38.9 15.9908 38.3634 17.29L36.3466 22.1719L38.3725 27.0502C38.9116 28.3482 38.2963 29.8377 36.9982 30.3769L32.12 32.4029L30.1032 37.2849C29.5666 38.5841 28.0784 39.2021 26.7792 38.6655L21.8971 36.6488L17.0189 38.6748C15.7208 39.2138 14.2314 38.5987 13.6922 37.3005L11.6662 32.4222L6.78417 30.4054Z" fill="url(#paint1_linear_263_7377)"/>
<path d="M9.35821 28.9765C8.26993 28.5269 7.75217 27.2803 8.20173 26.192L9.89113 22.1024L8.19398 18.0162C7.74236 16.9287 8.25776 15.6811 9.34518 15.2295L13.4315 13.5323L15.1209 9.44282C15.5705 8.35456 16.8171 7.83679 17.9054 8.28636L21.9948 9.97576L26.0812 8.27861C27.1686 7.82698 28.4163 8.3424 28.8679 9.42981L30.565 13.5161L34.6546 15.2055C35.7428 15.6551 36.2606 16.9018 35.811 17.9899L34.1217 22.0795L35.8187 26.1659C36.2704 27.2533 35.755 28.501 34.6675 28.9525L30.5812 30.6497L28.8918 34.7392C28.4424 35.8275 27.1956 36.3452 26.1073 35.8957L22.0179 34.2062L17.9315 35.9034C16.8441 36.355 15.5965 35.8397 15.1448 34.7522L13.4477 30.6659L9.35821 28.9765Z" fill="url(#paint2_linear_263_7377)"/>
<path d="M10.6836 28.255C9.7094 27.8524 9.24589 26.7365 9.64833 25.7623L11.1607 22.1013L9.64141 18.4431C9.23711 17.4697 9.6985 16.3528 10.672 15.9485L14.3301 14.4292L15.8424 10.7683C16.2449 9.79406 17.3609 9.33054 18.3351 9.73301L21.9961 11.2454L25.6542 9.72606C26.6277 9.32176 27.7446 9.78316 28.1488 10.7566L29.6682 14.4147L33.3291 15.9271C34.3033 16.3296 34.7669 17.4456 34.3644 18.4198L32.852 22.0807L34.3714 25.7389C34.7757 26.7124 34.3142 27.8292 33.3408 28.2335L29.6827 29.7529L28.1703 33.4138C27.7678 34.388 26.6518 34.8515 25.6776 34.449L22.0167 32.9367L18.3585 34.4561C17.385 34.8603 16.2682 34.3988 15.8639 33.4255L14.3446 29.7673L10.6836 28.255Z" fill="url(#paint3_linear_263_7377)"/>
<path d="M10.6836 28.255C9.7094 27.8524 9.24589 26.7365 9.64833 25.7623L11.1607 22.1013L9.64141 18.4431C9.23711 17.4697 9.6985 16.3528 10.672 15.9485L14.3301 14.4292L15.8424 10.7683C16.2449 9.79406 17.3609 9.33054 18.3351 9.73301L21.9961 11.2454L25.6542 9.72606C26.6277 9.32176 27.7446 9.78316 28.1488 10.7566L29.6682 14.4147L33.3291 15.9271C34.3033 16.3296 34.7669 17.4456 34.3644 18.4198L32.852 22.0807L34.3714 25.7389C34.7757 26.7124 34.3142 27.8292 33.3408 28.2335L29.6827 29.7529L28.1703 33.4138C27.7678 34.388 26.6518 34.8515 25.6776 34.449L22.0167 32.9367L18.3585 34.4561C17.385 34.8603 16.2682 34.3988 15.8639 33.4255L14.3446 29.7673L10.6836 28.255Z" fill="url(#paint4_linear_263_7377)"/>
<path d="M11.9732 8.16305C12.3255 8.36076 12.7758 8.22741 12.9791 7.86521C13.1824 7.503 13.0616 7.0491 12.7094 6.85139C12.3571 6.65368 11.9067 6.78703 11.7035 7.14924C11.5002 7.51144 11.6209 7.96534 11.9732 8.16305Z" fill="white"/>
<path d="M12.8781 6.32931C13.276 6.55262 13.968 6.07543 14.4237 5.26348C14.8794 4.45152 14.9262 3.61227 14.5284 3.38896C14.1305 3.16565 13.4385 3.64284 12.9828 4.45479C12.5271 5.26674 12.4802 6.10599 12.8781 6.32931Z" fill="white"/>
<path opacity="0.8" fill-rule="evenodd" clip-rule="evenodd" d="M26.0205 16.0177L26.0186 15.8244C25.9964 13.6497 24.1847 11.8992 21.9649 11.9218C19.745 11.9444 17.9694 13.7314 17.9915 15.9061L17.9934 16.0995L16.5187 16.1145C15.9928 16.1198 15.5554 16.5131 15.5046 17.0263L14.3343 28.8444C14.2751 29.4413 14.7571 29.9566 15.3689 29.9504L29.0251 29.8114C29.6383 29.805 30.1103 29.2775 30.0364 28.6804L28.5778 16.8893C28.5148 16.3789 28.0703 15.9968 27.5459 16.0022L26.0205 16.0177ZM23.7545 15.8475C23.7449 14.8923 22.9505 14.1317 21.9875 14.1416C21.0244 14.1514 20.2458 14.928 20.2555 15.8831L20.2575 16.0764L23.7566 16.0408L23.7545 15.8475ZM26.0401 17.9348L26.0525 19.1455C26.0587 19.7584 25.5568 20.2604 24.9317 20.267C24.3064 20.2733 23.7946 19.7816 23.7884 19.1685L23.776 17.9578L20.277 17.9934L20.2893 19.2043C20.2955 19.8172 19.7938 20.3192 19.1687 20.3256C18.5434 20.3319 18.0316 19.8402 18.0254 19.2273L18.013 18.0164L17.3704 18.023L16.3801 28.0228L27.9706 27.9049L26.7364 17.9276L26.0401 17.9348Z" fill="url(#paint5_linear_263_7377)"/>
<defs>
<linearGradient id="paint0_linear_263_7377" x1="36.2842" y1="37.552" x2="13.3167" y2="4.66904" gradientUnits="userSpaceOnUse">
<stop stop-color="#9BFFFF"/>
<stop offset="0.5" stop-color="#B8B9FF"/>
<stop offset="0.885" stop-color="#FFCBFF"/>
<stop offset="1" stop-color="#FDFCFF"/>
</linearGradient>
<linearGradient id="paint1_linear_263_7377" x1="38.8231" y1="37.6363" x2="12.3663" y2="5.73759" gradientUnits="userSpaceOnUse">
<stop stop-color="#5285BF"/>
<stop offset="1" stop-color="#AE66F0"/>
</linearGradient>
<linearGradient id="paint2_linear_263_7377" x1="33.5818" y1="37.9936" x2="15.6692" y2="2.85857" gradientUnits="userSpaceOnUse">
<stop stop-color="#9BFFFF"/>
<stop offset="0.5" stop-color="#B8B9FF"/>
<stop offset="1" stop-color="#FFCBFF"/>
</linearGradient>
<linearGradient id="paint3_linear_263_7377" x1="17.7286" y1="7.35952" x2="22.8381" y2="23.0601" gradientUnits="userSpaceOnUse">
<stop stop-color="white"/>
<stop offset="1" stop-color="white" stop-opacity="0"/>
</linearGradient>
<linearGradient id="paint4_linear_263_7377" x1="18.7584" y1="9.60991" x2="21.3914" y2="18.8199" gradientUnits="userSpaceOnUse">
<stop stop-color="white"/>
<stop offset="1" stop-color="white" stop-opacity="0"/>
</linearGradient>
<linearGradient id="paint5_linear_263_7377" x1="22.197" y1="29.8808" x2="22.0141" y2="11.9213" gradientUnits="userSpaceOnUse">
<stop stop-color="#6141A6"/>
<stop offset="1" stop-color="#6C84FF"/>
</linearGradient>
</defs>
</svg>
