<svg width="44" height="44" viewBox="7.6 8 43.52 43.52" fill="none" xmlns="http://www.w3.org/2000/svg">
<path d="M15.2479 10H43.4695C44.9219 10 46.0994 11.1776 46.0994 12.6299V47.8828L45.9686 47.7803L45.701 47.5869C44.4199 46.7454 42.7566 46.7456 41.4754 47.5869L41.2068 47.7803L39.076 49.4551L36.9461 47.7803L36.6776 47.5869C35.3964 46.7454 33.7332 46.7456 32.452 47.5869L32.1834 47.7803L29.9676 49.5215L27.0164 47.5098C25.7077 46.6178 23.9862 46.6178 22.6776 47.5098L19.7254 49.5215L17.5106 47.7803L17.242 47.5869C15.9608 46.7456 14.2975 46.7454 13.0164 47.5869L12.7488 47.7803L12.618 47.8828V12.6299C12.618 11.1776 13.7956 10 15.2479 10Z" stroke="#FCFCFC" stroke-width="4" stroke-linecap="round"/>
<line x1="20.118" y1="21.5" x2="37.941" y2="21.5" stroke="#FCFCFC" stroke-width="3" stroke-linecap="round"/>
<line x1="20.118" y1="30.2188" x2="31" y2="30.2188" stroke="#FCFCFC" stroke-width="3" stroke-linecap="round"/>
</svg>
